<svg width="160" height="160" viewBox="0 0 160 160" fill="none" xmlns="http://www.w3.org/2000/svg">
<path d="M117.939 36.814H39.6035C37.9148 36.814 36.4728 38.0676 36.2385 39.7399C29.1996 89.9953 43.0306 115.59 51.7297 122.982C52.2873 123.456 52.9898 123.682 53.7216 123.682H131.645C134.65 123.682 136.424 119.899 134.863 117.331C122.787 97.4662 120.732 60.6938 121.394 40.4046C121.458 38.4448 119.9 36.814 117.939 36.814Z" fill="#FDFAEE"/>
<path d="M117.964 36.814H39.6022C37.9144 36.814 36.476 38.0454 36.2407 39.7167C35.329 46.1936 34.767 52.2591 34.4985 57.9273C34.4073 59.85 35.9562 61.438 37.8811 61.438H118.093C120.059 61.438 121.618 59.7845 121.534 57.8205C121.259 51.3577 121.256 45.3921 121.418 40.4187C121.482 38.4585 119.925 36.814 117.964 36.814Z" fill="#FED337"/>
<path d="M61.2803 33.736C64.902 33.736 67.8243 36.6528 67.8243 40.234C67.8243 43.8152 64.902 46.732 61.2803 46.732C60.5248 46.732 59.9123 47.3445 59.9123 48.1C59.9123 48.8555 60.5248 49.468 61.2803 49.468C66.398 49.468 70.5603 45.3413 70.5603 40.234C70.5603 35.1267 66.398 31 61.2803 31C57.5948 31 54.4097 33.1387 52.9126 36.2374C52.8226 36.4236 52.7786 36.62 52.7761 36.814H55.7147C56.8687 34.9665 58.9291 33.736 61.2803 33.736Z" fill="#333333"/>
<path d="M95.4807 33.736C99.1024 33.736 102.025 36.6528 102.025 40.234C102.025 43.8152 99.1024 46.732 95.4807 46.732C94.7252 46.732 94.1127 47.3445 94.1127 48.1C94.1127 48.8555 94.7252 49.468 95.4807 49.468C100.598 49.468 104.761 45.3413 104.761 40.234C104.761 35.1267 100.598 31 95.4807 31C91.7952 31 88.61 33.1387 87.1129 36.2374C87.023 36.4236 86.979 36.62 86.9765 36.814H89.9151C91.0691 34.9665 93.1295 33.736 95.4807 33.736Z" fill="#333333"/>
<path d="M34.4532 59.0418C34.4661 58.7289 34.4799 58.4149 34.4946 58.0996C34.4998 59.6814 35.6137 61.0055 37.1085 61.3505C36.0916 97.0096 46.9912 115.365 53.5015 120.897C53.5083 120.903 53.5208 120.913 53.5493 120.922C53.5802 120.933 53.6365 120.946 53.7217 120.946H131.645C131.885 120.946 132.242 120.808 132.512 120.261C132.79 119.696 132.746 119.115 132.525 118.752C126.19 108.332 122.597 93.7204 120.641 79.3971C119.805 73.2738 119.261 67.145 118.938 61.3331C120.345 60.976 121.399 59.7475 121.525 58.2705C122.395 78.089 125.818 102.453 134.863 117.331C136.424 119.899 134.65 123.682 131.645 123.682H53.7217L53.7132 123.682L27.4209 123.682C25.301 123.682 23.6917 121.773 24.0501 119.684L34.4532 59.0418Z" fill="#333333"/>
<path d="M91.5287 80.6199C92.2678 79.7607 93.5634 79.6634 94.4225 80.4024C95.2817 81.1415 95.379 82.4371 94.64 83.2962L87.9251 91.1023L94.64 98.9083C95.379 99.7675 95.2817 101.063 94.4225 101.802C93.5634 102.541 92.2678 102.444 91.5287 101.585L85.2183 94.2489L78.908 101.585C78.1689 102.444 76.8733 102.541 76.0142 101.802C75.155 101.063 75.0576 99.7675 75.7967 98.9083L82.5116 91.1023L75.7967 83.2962C75.0576 82.4371 75.155 81.1415 76.0142 80.4024C76.8733 79.6634 78.1689 79.7607 78.908 80.6199L85.2183 87.9557L91.5287 80.6199Z" fill="#FF8A56"/>
</svg>
