<svg width="160" height="160" viewBox="0 0 160 160" fill="none" xmlns="http://www.w3.org/2000/svg">
<path d="M79.1715 78.1006L79.1751 78.1041C78.2084 78.1817 77.2925 78.3212 76.4377 78.5267C75.5283 78.7454 74.5876 79.0019 73.6226 79.295L83.2032 91.039L89.4073 83.2164C85.5656 82.7044 82.0496 80.8723 79.1715 78.1006Z" fill="#FDFAEE"/>
<path d="M95.4556 82.9162L102.218 88.9276L103.557 84.2439C102.146 83.5321 100.69 82.8619 99.2072 82.2433C98.9461 82.1344 98.6846 82.0273 98.4229 81.9219C97.4654 82.342 96.4742 82.676 95.4556 82.9162Z" fill="#FDFAEE"/>
<path d="M127.156 123.076H32.7075C32.714 123.045 32.7194 123.013 32.7237 122.981L32.7242 122.978L32.7294 122.943C32.7348 122.909 32.7443 122.852 32.7593 122.77C32.7892 122.608 32.8407 122.35 32.9241 121.994C33.0908 121.282 33.3847 120.176 33.8875 118.647C34.8933 115.589 36.7337 110.842 40.0603 104.175C43.2643 97.7531 49.2418 92.077 56.0491 87.6137C60.8776 84.4478 66.0615 81.933 70.8436 80.2168L82.1582 94.0863C82.4201 94.4073 82.8134 94.5924 83.2277 94.5895C83.642 94.5867 84.0326 94.3962 84.2901 94.0716L92.3931 83.8547L102.027 92.4183C102.379 92.7308 102.866 92.8407 103.318 92.7094C103.77 92.5781 104.122 92.2239 104.251 91.7716L106.027 85.5583C111.393 88.5685 115.878 92.1419 118.334 95.6544C126.354 107.121 127.128 116.303 127.128 122.798C127.128 122.893 127.138 122.986 127.156 123.076Z" fill="#FDFAEE"/>
<path d="M90.474 93.5392L88.3517 112.775C88.3379 112.9 88.3588 113.027 88.4123 113.14L97.1806 131.833C97.4626 132.434 98.3496 132.322 98.4721 131.669L102.173 111.966C102.195 111.851 102.186 111.731 102.148 111.62L95.9921 93.5237L98.9058 89.0561C99.1143 88.7364 99.0208 88.3079 98.6981 88.1041L92.7654 84.3572C92.5158 84.1995 92.1933 84.2198 91.9654 84.4075L86.7214 88.7261C86.4096 88.9828 86.387 89.4522 86.6725 89.7377L90.474 93.5392Z" fill="#FF8A56"/>
<path d="M41.1578 59.025C40.6241 59.6311 40.0908 60.2367 39.574 60.8519C35.611 65.5651 32.4203 72.1737 35.084 77.7074C36.3384 80.0749 38.2866 81.9968 40.6641 83.2122C44.7282 85.478 49.7812 86.2405 54.1125 84.5048C55.4196 84.0443 56.5639 83.2086 57.4042 82.1011C60.3639 77.8019 61.5189 71.767 61.3962 66.6399C61.3272 64.2036 60.9635 61.7855 60.6 59.3682C60.1649 56.4749 59.73 53.583 59.8008 50.6631C59.9307 45.3036 62.4717 39.3849 67.5681 37.8163C69.6892 37.1672 71.8734 37.3566 74.0754 37.7047C73.8611 38.0699 73.6643 38.4461 73.4859 38.8322C73.1124 39.7291 72.8652 40.6727 72.6178 41.617C72.3948 42.4684 72.1715 43.3205 71.8554 44.1397C71.2442 45.747 70.3039 47.1856 69.3631 48.6251C68.6756 49.677 67.9879 50.7294 67.428 51.8483C65.3996 56.1806 65.0154 61.1142 66.3483 65.7136C66.9867 68.0117 67.9223 70.2146 69.1308 72.2656C69.7498 73.3263 70.4247 74.3527 71.1526 75.3403C71.243 75.4642 71.3643 75.6524 71.5057 75.8719C71.9992 76.6375 72.7374 77.783 73.2612 77.9025C74.6815 78.2466 77.6235 75.4867 78.5365 74.5862C79.961 73.1903 81.09 71.5166 81.8553 69.6668C82.0065 69.3573 82.0835 69.0162 82.0799 68.6711C82.0094 68.2612 81.8374 67.8759 81.5799 67.5511C80.421 65.9716 79.7983 64.056 79.8046 62.0899C79.9423 60.1426 81.3336 58.188 83.2538 57.983C83.8171 57.9006 84.3902 58.0394 84.8552 58.371C85.3548 58.7711 85.558 59.3886 85.7636 60.0131C85.889 60.3941 86.0153 60.7778 86.2103 61.1162C86.4395 61.4668 86.7408 61.7634 87.0936 61.986C87.4464 62.2085 87.8425 62.3517 88.255 62.4058C88.6674 62.46 89.0866 62.4239 89.4839 62.2999C89.8813 62.1759 90.2476 61.967 90.558 61.6873C91.5797 60.6404 91.6232 58.9347 91.145 57.5438C90.554 56.1994 89.8459 54.9108 89.0291 53.6931C88.2121 52.4584 87.8861 50.9579 88.116 49.491C88.3114 48.8316 88.6522 48.2255 89.1128 47.7183C89.5735 47.2112 90.1419 46.8161 90.7754 46.5628C93.3858 45.4376 96.8505 45.7339 99.8984 45.9945C100.658 46.0594 101.392 46.1222 102.08 46.1601C104.292 46.2773 106.502 46.4164 108.71 46.5774C112.376 46.841 115.956 43.9127 116.724 40.2524C117.045 38.4035 116.826 36.5003 116.094 34.7751C115.362 33.05 114.148 31.5776 112.601 30.5379C111.03 29.5378 109.25 28.9224 107.401 28.7407C105.553 28.5589 103.689 28.8159 101.956 29.491C101.443 29.673 100.941 29.8914 100.439 30.1101C99.7079 30.4282 98.9757 30.7469 98.2028 30.9552C96.2534 31.4917 94.2035 31.2818 92.1744 31.0739C91.7673 31.0322 91.361 30.9906 90.9566 30.9552C87.5537 30.5674 84.1081 30.95 80.8698 32.0752C80.3435 32.2621 79.831 32.483 79.3353 32.7361C77.3752 30.5038 74.2715 29.0958 71.2786 28.4917C66.9992 27.5564 62.5377 27.9619 58.4942 29.6536C51.6005 32.6961 50.2058 38.2268 48.7219 44.1114C48.0133 46.9215 47.2843 49.8122 45.9265 52.5513C44.7317 54.9663 42.9424 56.9983 41.1578 59.025Z" fill="#763D2A"/>
<path d="M77.1475 75.864C77.7413 75.3559 78.2435 74.8752 78.5366 74.5861C79.961 73.1902 81.0901 71.5165 81.8553 69.6666C82.0066 69.3572 82.0836 69.0161 82.08 68.671C82.0095 68.2611 81.8375 67.8757 81.58 67.551C80.4211 65.9714 79.7984 64.0559 79.8047 62.0898C79.9423 60.1425 81.3336 58.1879 83.2539 57.9829C83.8172 57.9005 84.3903 58.0393 84.8553 58.3709C85.3548 58.771 85.5581 59.3885 85.7636 60.013C85.8891 60.394 86.0154 60.7777 86.2103 61.1161C86.4396 61.4667 86.7409 61.7633 87.0937 61.9858C87.4465 62.2084 87.8426 62.3516 88.255 62.4057C88.6674 62.4599 89.0866 62.4238 89.484 62.2998C89.8814 62.1758 90.2477 61.9668 90.5581 61.6871C91.5798 60.6403 91.6233 58.9346 91.145 57.5437C90.554 56.1993 89.846 54.9107 89.0291 53.693C88.2122 52.4583 87.8861 50.9578 88.1161 49.4909C88.3115 48.8315 88.6523 48.2254 89.1129 47.7182C89.5735 47.211 90.142 46.816 90.7755 46.5627C93.3858 45.4375 96.8505 45.7338 99.8984 45.9944C100.658 46.0593 101.392 46.1221 102.08 46.16C104.292 46.2772 106.502 46.4163 108.71 46.5773C108.799 46.5837 108.888 46.5882 108.977 46.5909C109.303 47.2717 109.603 47.9734 109.874 48.694L109.874 48.6742L116.812 61.089L116.748 61.082C116.79 61.203 116.811 61.3273 116.811 61.4541C116.811 62.6641 114.85 63.645 112.43 63.645C112.051 63.645 111.683 63.621 111.333 63.5758C109.541 74.8496 101.395 83.3627 91.6166 83.3627C85.933 83.3627 80.8009 80.4866 77.1475 75.864Z" fill="#F3AA76"/>
<path d="M77.5211 75.5378C77.4017 75.6442 77.2768 75.7535 77.1475 75.8641C77.7806 76.6653 78.4582 77.4139 79.1753 78.1043C78.2086 78.1818 77.2927 78.3214 76.4379 78.5269C75.5285 78.7455 74.5878 79.0021 73.6228 79.2952L83.2034 91.0392L89.4076 83.2166C90.133 83.3132 90.87 83.3629 91.6166 83.3629C92.9295 83.3629 94.213 83.2094 95.4557 82.9164L102.219 88.9278L103.557 84.2441C102.146 83.5323 100.69 82.8621 99.2074 82.2435C98.9463 82.1346 98.6848 82.0274 98.423 81.9221C99.4778 81.4592 100.492 80.8919 101.456 80.2303C109.462 83.7481 116.884 88.8067 120.576 94.0865C129.014 106.151 129.864 115.938 129.864 122.798C129.864 123.554 129.252 124.166 128.496 124.166C127.741 124.166 127.128 123.554 127.128 122.798C127.128 116.303 126.354 107.121 118.334 95.6546C115.878 92.1421 111.393 88.5687 106.027 85.5584L104.252 91.7718C104.122 92.2241 103.77 92.5783 103.318 92.7096C102.866 92.8409 102.379 92.7309 102.027 92.4184L92.3933 83.8549L84.2903 94.0718C84.0328 94.3964 83.6422 94.5868 83.2279 94.5897C82.8136 94.5926 82.4203 94.4075 82.1584 94.0865L70.8438 80.2169C66.0617 81.9331 60.8778 84.448 56.0493 87.6139C49.242 92.0772 43.2645 97.7533 40.0605 104.175C36.734 110.842 34.8935 115.589 33.8877 118.647C33.3849 120.176 33.091 121.282 32.9243 121.994C32.8409 122.35 32.7894 122.608 32.7595 122.77C32.7446 122.852 32.735 122.909 32.7296 122.944L32.7244 122.978L32.7239 122.981C32.6232 123.728 31.9371 124.253 31.1894 124.155C30.4404 124.056 29.9132 123.369 30.0119 122.62L31.3682 122.798C30.0119 122.62 30.012 122.618 30.012 122.618L30.0122 122.617L30.0126 122.614L30.0137 122.607L30.0167 122.585C30.0192 122.568 30.0226 122.545 30.0272 122.516C30.0362 122.459 30.0496 122.379 30.0686 122.276C30.1067 122.069 30.1673 121.768 30.2603 121.371C30.4464 120.576 30.7624 119.393 31.2887 117.793C32.341 114.593 34.2347 109.723 37.6123 102.953C41.1125 95.9381 47.5196 89.9349 54.5491 85.3259C61.5899 80.7094 69.3787 77.4102 75.7983 75.8667C76.3548 75.7329 76.9298 75.6236 77.5211 75.5378Z" fill="#333333"/>
</svg>
