<svg width="160" height="160" viewBox="0 0 160 160" fill="none" xmlns="http://www.w3.org/2000/svg">
<path d="M77.4958 30.201C78.3436 29.0906 81.3412 29.0906 82.189 30.201C87.0456 36.5619 99.4368 44.4581 124.845 44.7521C125.117 44.1094 125.321 43.4398 125.452 42.7528L126.05 39.6281L126.648 42.7528C127.016 44.6817 127.958 46.4728 129.366 47.9177C130.774 49.3625 132.589 50.4016 134.6 50.9141C132.589 51.4276 130.775 52.467 129.367 53.9117C127.96 55.3563 127.017 57.1469 126.648 59.0754L126.317 60.8074V65.2817C126.117 80.7965 116.634 115.634 80.3856 131.439C80.0431 131.588 79.6418 131.588 79.2993 131.439C43.0513 115.634 33.5684 80.7965 33.3682 65.2817V46.1286C33.3682 45.373 33.996 44.7613 34.7514 44.7531C60.2194 44.4764 72.6337 36.5692 77.4958 30.201Z" fill="#FDFAEE"/>
<path d="M82.38 42.2227C81.4571 41.1725 78.2069 41.1615 77.2767 42.2053C73.0649 46.9315 63.4791 52.3328 45.0081 52.5895C44.2527 52.6 43.6284 53.2115 43.6284 53.9671V68.5015C43.7842 80.5071 51.1525 107.443 79.2975 119.716C79.6409 119.866 80.0427 119.864 80.3852 119.713C108.055 107.438 115.299 80.506 115.452 68.5014V53.9671C115.452 53.2115 114.828 52.6001 114.073 52.5892C95.9468 52.3286 86.5277 46.9427 82.38 42.2227Z" fill="#FED337"/>
<path fill-rule="evenodd" clip-rule="evenodd" d="M126.05 38.26C126.706 38.26 127.27 38.7262 127.393 39.3708L127.992 42.4967C128.308 44.1546 129.12 45.7047 130.346 46.9629C131.572 48.222 133.163 49.1362 134.938 49.5884C135.544 49.7428 135.968 50.2884 135.968 50.9136C135.968 51.5389 135.544 52.0847 134.938 52.2395C133.164 52.6926 131.574 53.6073 130.347 54.8663C129.121 56.1246 128.309 57.6744 127.992 59.3322L127.393 62.4572C127.27 63.1018 126.706 63.568 126.05 63.568C125.393 63.568 124.83 63.1018 124.706 62.4572L124.108 59.3325C123.791 57.6747 122.979 56.1246 121.753 54.8663C120.526 53.6073 118.936 52.6926 117.161 52.2395C116.555 52.0847 116.132 51.5389 116.132 50.9136C116.132 50.2884 116.556 49.7428 117.162 49.5884C118.937 49.1362 120.527 48.222 121.754 46.9629C122.98 45.7047 123.792 44.1546 124.108 42.4967L124.706 39.3708C124.83 38.7262 125.393 38.26 126.05 38.26ZM126.05 45.4133C125.494 46.6842 124.704 47.856 123.714 48.8723C122.937 49.6695 122.052 50.3552 121.089 50.9148C122.052 51.4745 122.936 52.1601 123.712 52.957C124.703 53.9737 125.493 55.146 126.05 56.4176C126.606 55.146 127.397 53.9737 128.387 52.957C129.164 52.1601 130.048 51.4745 131.011 50.9148C130.047 50.3552 129.163 49.6695 128.386 48.8723C127.396 47.856 126.606 46.6843 126.05 45.4133Z" fill="#FF8A56"/>
<path d="M78.5811 31.0336C78.5811 31.0336 78.6581 30.9552 78.9028 30.8731C79.1534 30.789 79.4838 30.736 79.8423 30.736C80.2008 30.736 80.5311 30.789 80.7818 30.8731C81.0264 30.9552 81.1034 31.0336 81.1034 31.0336L81.1015 31.031C86.1432 37.6343 98.3929 45.3374 122.518 46.0715C123.137 45.247 123.601 44.3331 123.893 43.369C99.3965 42.8916 87.7308 35.2052 83.2762 29.3706C82.8378 28.7965 82.2107 28.4667 81.6524 28.2793C81.0761 28.0858 80.4451 28 79.8423 28C79.2394 28 78.6084 28.0858 78.0321 28.2793C77.4738 28.4667 76.8467 28.7965 76.4084 29.3706C71.8902 35.2883 59.9542 43.111 34.7364 43.385C33.2607 43.401 32 44.5941 32 46.1284V65.2815L32.0001 65.2991C32.2047 81.1566 41.8546 116.604 78.7523 132.693C79.4435 132.994 80.241 132.994 80.9322 132.693C117.83 116.604 127.48 81.1566 127.684 65.2991L127.685 65.2815V60.9378L127.394 62.4572C127.27 63.1018 126.706 63.568 126.05 63.568C125.604 63.568 125.2 63.3523 124.949 63.0114V65.2727C124.749 80.4486 115.431 114.663 79.8433 130.183L79.8423 130.183L79.8412 130.183C44.2536 114.663 34.9352 80.4485 34.736 65.2726V46.1355L34.7379 46.1335C34.7421 46.1293 34.7473 46.1259 34.7524 46.1237C34.7568 46.1218 34.7609 46.1209 34.7661 46.1208C60.4843 45.8414 73.3768 37.8498 78.583 31.031L78.5811 31.0336Z" fill="#333333"/>
<path d="M82.8561 96.4C83.6116 96.4 84.2241 95.7876 84.2241 95.032V86.3498C84.2241 85.5943 84.8366 84.9818 85.5921 84.9818H94.2441C94.9996 84.9818 95.6121 84.3694 95.6121 83.6138V77.677C95.6121 76.9214 94.9996 76.309 94.2441 76.309H85.5921C84.8366 76.309 84.2241 75.6965 84.2241 74.941L84.2241 66.304C84.2241 65.5485 83.6116 64.936 82.8561 64.936H76.9192C76.1637 64.936 75.5512 65.5485 75.5512 66.304V74.941C75.5512 75.6965 74.9387 76.309 74.1832 76.309H65.5161C64.7605 76.309 64.1481 76.9214 64.1481 77.677V83.6138C64.1481 84.3694 64.7605 84.9818 65.5161 84.9818H74.1832C74.9387 84.9818 75.5512 85.5943 75.5512 86.3498V95.032C75.5512 95.7876 76.1637 96.4 76.9192 96.4H82.8561Z" fill="#333333"/>
</svg>
