<svg width="160" height="160" viewBox="0 0 160 160" fill="none" xmlns="http://www.w3.org/2000/svg">
<path d="M124.42 16.9009C124.798 16.523 125.445 16.7344 125.527 17.2626L127.796 31.9089C127.839 32.19 128.06 32.4106 128.341 32.4541L142.987 34.7233C143.515 34.8051 143.727 35.4523 143.349 35.8302L125.564 53.6153C125.417 53.7626 125.208 53.8307 125.002 53.7989L109.412 51.3834C109.131 51.3399 108.91 51.1193 108.866 50.8382L106.451 35.2477C106.419 35.0419 106.487 34.8333 106.635 34.686L124.42 16.9009Z" fill="#FF8A56"/>
<path d="M96.5447 80.3002C96.5447 89.272 89.2716 96.5452 80.2997 96.5452C71.3278 96.5452 64.0547 89.272 64.0547 80.3002C64.0547 71.3283 71.3278 64.0552 80.2997 64.0552C89.2716 64.0552 96.5447 71.3283 96.5447 80.3002Z" fill="#FED337"/>
<path fill-rule="evenodd" clip-rule="evenodd" d="M80.2998 19.595C46.7734 19.595 19.5948 46.7736 19.5948 80.3001C19.5948 89.3573 21.5772 97.9468 25.1302 105.662C25.5252 106.52 25.15 107.536 24.2922 107.931C23.4344 108.326 22.4188 107.951 22.0237 107.093C18.2684 98.9378 16.1748 89.8611 16.1748 80.3001C16.1748 44.8848 44.8845 16.175 80.2998 16.175C93.0712 16.175 104.975 19.9103 114.972 26.3482L124.42 16.901C124.798 16.523 125.445 16.7345 125.527 17.2627L127.796 31.909C127.839 32.1901 128.06 32.4107 128.341 32.4542L142.987 34.7234C143.515 34.8052 143.727 35.4523 143.349 35.8303L133.976 45.2031C140.583 55.2874 144.425 67.3474 144.425 80.3001C144.425 115.715 115.715 144.425 80.2998 144.425C72.4236 144.425 64.8753 143.004 57.8999 140.404C57.015 140.074 56.5651 139.089 56.895 138.204C57.225 137.319 58.2098 136.869 59.0947 137.199C65.6937 139.659 72.8376 141.005 80.2998 141.005C113.826 141.005 141.005 113.826 141.005 80.3001C141.005 68.2895 137.518 57.0979 131.503 47.6764L125.564 53.6154C125.417 53.7626 125.208 53.8308 125.002 53.7989L111.337 51.6818L109.899 53.1198C116.472 60.2743 120.485 69.8186 120.485 80.3003C120.485 85.4986 119.497 90.4704 117.697 95.035C117.351 95.9136 116.358 96.345 115.479 95.9986C114.601 95.6521 114.169 94.6591 114.516 93.7805C116.161 89.6088 117.065 85.0622 117.065 80.3003C117.065 70.763 113.434 62.074 107.478 55.5405L92.9328 70.0858C95.192 72.8763 96.5452 76.4302 96.5452 80.3003C96.5452 89.2721 89.2721 96.5453 80.3002 96.5453C71.3284 96.5453 64.0552 89.2721 64.0552 80.3003C64.0552 71.3284 71.3284 64.0553 80.3002 64.0553C84.1702 64.0553 87.724 65.4085 90.5145 67.6675L105.06 53.1222C98.5263 47.1667 89.8373 43.5353 80.3002 43.5353C59.9955 43.5353 43.5352 59.9955 43.5352 80.3003C43.5352 100.605 59.9955 117.065 80.3002 117.065C87.1688 117.065 93.5926 115.183 99.09 111.908C99.9013 111.425 100.951 111.69 101.434 112.502C101.918 113.313 101.652 114.363 100.84 114.846C94.8284 118.428 87.802 120.485 80.3002 120.485C58.1067 120.485 40.1152 102.494 40.1152 80.3003C40.1152 58.1067 58.1067 40.1153 80.3002 40.1153C90.7818 40.1153 100.326 44.1282 107.48 50.7015L108.662 49.5198L106.451 35.2478C106.419 35.042 106.487 34.8334 106.634 34.6861L112.495 28.8259C103.163 22.9767 92.1288 19.595 80.2998 19.595ZM116.187 29.9707L110.046 36.1116L111.936 48.3138L124.138 50.2043L137.074 37.2681L127.817 35.8339C126.064 35.5622 124.688 34.1863 124.416 32.4326L122.982 23.1754L116.628 29.5289C116.506 29.7072 116.355 29.8551 116.187 29.9707ZM79.0911 79.0909L88.0791 70.1029C85.9214 68.4544 83.2252 67.4753 80.3002 67.4753C73.2172 67.4753 67.4752 73.2172 67.4752 80.3003C67.4752 87.3833 73.2172 93.1253 80.3002 93.1253C87.3833 93.1253 93.1252 87.3833 93.1252 80.3003C93.1252 77.3752 92.146 74.6788 90.4974 72.5211L81.5094 81.5092C80.8416 82.177 79.7589 82.177 79.0911 81.5092C78.4233 80.8414 78.4233 79.7587 79.0911 79.0909Z" fill="#333333"/>
</svg>
