<svg width="160" height="160" viewBox="0 0 160 160" fill="none" xmlns="http://www.w3.org/2000/svg">
<path d="M119.24 125.803L119.273 125.803H133.89C135.828 125.803 137.384 124.193 137.203 122.263C136.602 115.859 135.007 108.311 132.511 102.914C129.471 96.3418 120.704 92.5514 112.267 88.9038C109.975 87.913 107.708 86.9327 105.586 85.91C104.661 85.4639 104.088 84.5208 104.088 83.4936V80.4148C108.435 78.3727 111.751 74.4985 113.04 69.7871C114.469 69.7047 116.656 69.1451 117.535 67.3138C118.569 65.1602 115.525 61.7502 113.874 60.3144L113.626 61.8723V50.961C113.626 50.4072 113.589 49.8621 113.519 49.3277C115.949 48.7504 118.048 46.6457 118.575 44.1321C118.846 42.5716 118.661 40.9652 118.043 39.5091C117.425 38.053 116.401 36.8102 115.095 35.9327C113.769 35.0886 112.266 34.5691 110.707 34.4157C109.147 34.2623 107.573 34.4792 106.111 35.0491C105.677 35.2026 105.254 35.387 104.83 35.5716C104.213 35.8401 103.595 36.1091 102.943 36.2849C102.387 36.4377 101.822 36.5188 101.252 36.5524C100.997 36.3298 100.727 36.1227 100.445 35.9328C99.1186 35.0888 97.6158 34.5693 96.0559 34.4159C94.496 34.2625 92.9222 34.4794 91.46 35.0492C91.0264 35.2028 90.603 35.3872 90.1789 35.5718C90.0113 35.6448 89.8435 35.7178 89.675 35.789C88.427 35.8236 87.2636 35.9651 86.3434 36.2849C86.1011 36.3709 85.8623 36.4655 85.6274 36.5684C85.4518 36.5646 85.2759 36.5577 85.0998 36.5483C84.8462 36.3273 84.5783 36.1216 84.2975 35.9328C82.9715 35.0888 81.4686 34.5693 79.9088 34.4159C78.3489 34.2625 76.7751 34.4794 75.3129 35.0492C74.8793 35.2028 74.4558 35.3872 74.0317 35.5718C73.7413 35.6982 73.4505 35.8248 73.156 35.9417C72.6245 36.0209 72.1311 36.1327 71.6928 36.285C71.5203 36.3463 71.3495 36.4119 71.1806 36.4817C69.8303 36.6694 68.4377 36.5267 67.0566 36.3853C66.7129 36.3501 66.37 36.315 66.0287 36.285C65.8954 36.2698 65.7578 36.254 65.6163 36.2377C62.7084 35.9034 58.152 35.3794 55.5456 36.285C54.1834 36.7689 52.9305 37.5225 51.8604 38.5018C50.7902 39.4811 49.9242 40.6664 49.3133 41.9882C48.9981 42.7452 48.7895 43.5416 48.5807 44.3386C48.3924 45.0573 48.204 45.7765 47.9372 46.4679C47.4213 47.8245 46.6277 49.0388 45.8336 50.2538C45.2534 51.1416 44.6728 52.0299 44.2003 52.9743C42.5777 56.4398 43.9706 61.2104 45.0783 65.0042C45.1393 65.2134 45.1996 65.4196 45.2583 65.6225C45.7972 67.5621 46.5868 69.4215 47.6069 71.1526C48.1293 72.0479 48.699 72.9142 49.3133 73.7477C50.6555 75.5688 52.6337 77 54.202 77.9231V83.4937C54.202 84.521 53.6304 85.4621 52.7089 85.9162C51.1435 86.6877 49.4746 87.4732 47.758 88.2811C38.4585 92.6579 27.7568 97.6947 24.492 104.753C22.0139 110.11 21.3174 116.311 21.0047 122.258C20.9029 124.194 22.4619 125.803 24.4004 125.803H40.5419C40.5438 125.803 40.5457 125.803 40.5476 125.803L119.24 125.803Z" fill="#FED337"/>
<path d="M103.858 34.4802C104.518 34.2046 105.178 33.9292 105.633 33.7669C107.29 33.1247 109.073 32.8806 110.84 33.0544C112.614 33.2289 114.323 33.8196 115.829 34.7787L115.844 34.7879L115.858 34.7974C117.385 35.8238 118.581 37.2758 119.302 38.9747C120.023 40.6734 120.238 42.5466 119.923 44.3661L119.918 44.3897L119.914 44.4131C119.369 47.007 117.439 49.2616 115.007 50.2782V59.456C115.846 60.0365 116.78 60.9082 117.563 61.8745C118.574 63.1214 119.585 64.8303 119.585 66.583C119.585 68.4389 118.109 69.6383 116.929 70.2766C116.103 70.7237 115.161 71.045 114.296 71.2116C114.055 72.8403 113.444 74.8733 112.256 76.739C110.874 78.9095 108.694 80.8695 105.446 81.6431C105.441 82.1148 105.52 82.6763 105.759 83.2356C106.135 84.1126 106.953 85.0964 108.749 85.7237C108.961 85.7976 109.143 85.9182 109.287 86.07C110.17 86.4709 111.111 86.8825 112.09 87.3106L112.093 87.3119C115.041 88.601 118.333 90.0403 121.409 91.7892C125.798 94.2851 129.997 97.5351 132.566 102.214C134.003 104.831 135.009 107.996 135.869 111.648C136.648 114.96 137.324 118.752 138.078 122.987C138.155 123.422 138.234 123.861 138.313 124.305C138.446 125.049 137.951 125.759 137.207 125.892C136.463 126.025 135.752 125.53 135.62 124.786C135.541 124.345 135.463 123.91 135.387 123.481C134.629 119.224 133.967 115.509 133.206 112.274C132.367 108.712 131.429 105.828 130.167 103.53C127.948 99.4876 124.245 96.5496 120.056 94.1676C117.11 92.4924 114.045 91.1526 111.149 89.887C109.89 89.3365 108.663 88.8 107.491 88.2561C107.368 88.1987 107.257 88.1252 107.16 88.0393C105.102 87.151 103.874 85.7821 103.244 84.3133C102.571 82.743 102.626 81.1632 102.909 80.1271L103.143 79.2679L104.024 79.1345C106.924 78.695 108.775 77.1126 109.948 75.2695C111.147 73.3867 111.618 71.2534 111.679 69.9115L111.739 68.6062H113.046C113.653 68.6062 114.724 68.3589 115.627 67.8702C116.602 67.3428 116.849 66.8466 116.849 66.583C116.849 65.7922 116.334 64.7033 115.438 63.5976C114.56 62.5151 113.56 61.7143 113.027 61.448L112.271 61.0699V50.8525C112.086 50.8543 111.899 50.8486 111.712 50.8352L111.711 50.8351C109.856 50.6998 108 50.583 106.142 50.4846C105.387 50.4447 104.808 49.8007 104.848 49.0462C104.888 48.2917 105.532 47.7125 106.286 47.7524C108.163 47.8518 110.037 47.9697 111.909 48.1063C114.248 48.2741 116.699 46.3488 117.231 43.8742C117.451 42.5802 117.295 41.2496 116.783 40.0436C116.271 38.8355 115.423 37.8057 114.345 37.0775C113.204 36.3539 111.912 35.909 110.572 35.7773C109.227 35.6449 107.869 35.8319 106.607 36.3238L106.587 36.3315L106.567 36.3387C106.19 36.4722 105.623 36.7085 104.967 36.9821L104.964 36.9832C104.774 37.0628 104.575 37.1455 104.372 37.2298C103.921 37.4165 103.437 37.6145 102.984 37.7852C103.212 38.1655 103.415 38.5628 103.59 38.9747C104.311 40.6734 104.526 42.5466 104.21 44.3661L104.206 44.3897L104.201 44.4131C103.657 47.007 101.727 49.2616 99.2949 50.2782V59.456C100.134 60.0365 101.067 60.9082 101.851 61.8745C102.862 63.1214 103.873 64.8303 103.873 66.583C103.873 68.4389 102.397 69.6383 101.217 70.2766C100.39 70.7237 99.4491 71.045 98.5835 71.2116C98.3424 72.8403 97.7317 74.8733 96.5437 76.739C95.1617 78.9095 92.9816 80.8695 89.7341 81.6431C89.7284 82.1148 89.8073 82.6763 90.047 83.2356C90.4088 84.0799 91.18 85.0233 92.8401 85.6522C92.9928 85.6656 93.1458 85.7052 93.293 85.773C112.246 94.5134 117.751 101.728 119.774 106.951C120.768 109.518 121.465 114.32 121.915 118.305C122.144 120.334 122.315 122.212 122.429 123.582C122.485 124.267 122.528 124.826 122.556 125.215C122.564 125.311 122.57 125.397 122.575 125.472C122.58 125.548 122.585 125.612 122.589 125.664L122.597 125.782L122.599 125.823C122.599 125.823 122.599 125.824 121.234 125.913L122.599 125.823C122.649 126.577 122.078 127.229 121.324 127.279C120.57 127.328 119.919 126.757 119.869 126.003L119.867 125.966L119.859 125.853C119.852 125.753 119.842 125.605 119.828 125.414C119.8 125.034 119.758 124.484 119.702 123.808C119.59 122.457 119.421 120.607 119.196 118.612C118.737 114.55 118.066 110.117 117.223 107.94C115.577 103.692 110.856 96.9252 92.3888 88.3692C92.3038 88.3568 92.2188 88.3361 92.1347 88.3067C89.6581 87.4419 88.2288 85.9388 87.5322 84.3133C86.8592 82.743 86.9138 81.1632 87.1964 80.1271L87.4307 79.2679L88.3112 79.1345C91.2122 78.695 93.0623 77.1126 94.2359 75.2695C95.4347 73.3867 95.9053 71.2534 95.9668 69.9115L96.0267 68.6062H97.3334C97.9404 68.6062 99.0115 68.3589 99.9148 67.8702C100.89 67.3428 101.137 66.8466 101.137 66.583C101.137 65.7922 100.622 64.7033 99.7256 63.5976C98.8479 62.5151 97.8478 61.7143 97.3151 61.448L96.5589 61.0699V50.8525C96.3734 50.8543 96.1869 50.8486 95.9999 50.8352L95.9984 50.8351C94.1441 50.6998 92.2878 50.583 90.4294 50.4846C89.675 50.4447 89.0957 49.8007 89.1357 49.0462C89.1756 48.2917 89.8196 47.7125 90.5741 47.7524C92.4503 47.8518 94.3245 47.9697 96.1967 48.1063C98.5361 48.2741 100.987 46.3488 101.519 43.8742C101.739 42.5802 101.583 41.2496 101.071 40.0436C100.558 38.8355 99.7108 37.8057 98.6332 37.0775C97.4914 36.3539 96.1996 35.909 94.8597 35.7773C93.5143 35.6449 92.1565 35.8319 90.8945 36.3238L90.8746 36.3315L90.8545 36.3387C90.4703 36.4747 90.1006 36.6356 89.6802 36.8184C89.5797 36.8622 89.4762 36.9072 89.369 36.9534C88.8403 37.1813 88.2393 37.4294 87.5891 37.6049C86.9547 37.7792 86.3182 37.8724 85.6917 37.9134C85.8896 38.2546 86.0669 38.609 86.2221 38.9748C86.9431 40.6735 87.1585 42.5468 86.8427 44.3663L86.8386 44.3898L86.8337 44.4133C86.306 46.928 84.4759 49.1239 82.1485 50.1819V59.456C82.9876 60.0365 83.921 60.9082 84.7044 61.8745C85.7155 63.1214 86.7266 64.8303 86.7266 66.583C86.7266 68.4389 85.2502 69.6383 84.0702 70.2766C83.2438 70.7237 82.3026 71.0449 81.437 71.2116C81.196 72.8403 80.5853 74.8733 79.3973 76.739C78.0171 78.9067 75.8408 80.8645 72.6001 81.6401C72.5876 82.0585 72.6141 82.5949 72.7377 83.1676C72.9678 84.2346 73.5003 85.2857 74.5953 85.974C74.6378 86.0007 74.6784 86.0294 74.7169 86.0599C74.8125 86.081 74.9073 86.1127 74.9997 86.1556C75.7167 86.4885 76.4585 86.8299 77.2192 87.18C81.7254 89.2537 86.8936 91.6321 91.4975 94.3665C96.8361 97.5372 101.703 101.346 103.851 105.988C104.956 108.378 105.807 111.56 106.461 114.923C106.469 114.964 106.475 115.006 106.479 115.048L107.548 125.778C107.622 126.53 107.074 127.2 106.322 127.275C105.57 127.35 104.9 126.801 104.825 126.049L103.763 115.383C103.125 112.12 102.329 109.215 101.367 107.137C99.5929 103.301 95.3717 99.8496 90.1004 96.7188C85.6308 94.0643 80.6122 91.7541 76.0987 89.6764C75.332 89.3235 74.5798 88.9772 73.8474 88.6371C73.7477 88.5908 73.6562 88.534 73.5736 88.4687C73.4236 88.4357 73.2767 88.3768 73.1392 88.2904C71.2417 87.0976 70.3976 85.2952 70.0632 83.7444C69.7364 82.2295 69.8621 80.8159 70.05 80.1271L70.2843 79.2679L71.1648 79.1345C74.0658 78.695 75.9159 77.1126 77.0894 75.2695C78.2883 73.3867 78.7589 71.2534 78.8204 69.9115L78.8803 68.6062H80.187C80.794 68.6062 81.865 68.3589 82.7683 67.8702C83.7432 67.3428 83.9906 66.8466 83.9906 66.583C83.9906 65.7922 83.4757 64.7033 82.5792 63.5976C81.7015 62.5151 80.7014 61.7143 80.1687 61.448L79.4125 61.0699V50.847C79.1542 50.8578 78.8939 50.8542 78.6324 50.8354L78.6309 50.8353C76.7766 50.7 74.9203 50.5832 73.0619 50.4848C72.3074 50.4448 71.7282 49.8008 71.7681 49.0464C71.8081 48.2919 72.4521 47.7127 73.2065 47.7526C75.0828 47.8519 76.957 47.9699 78.8292 48.1065C81.1686 48.2742 83.6192 46.349 84.1511 43.8744C84.371 42.5804 84.2155 41.2498 83.7036 40.0438C83.1908 38.8356 82.3432 37.8059 81.2657 37.0777C80.1239 36.3541 78.832 35.9092 77.4922 35.7774C76.1467 35.6451 74.789 35.8321 73.527 36.3239L73.5071 36.3317L73.487 36.3388C73.1028 36.4749 72.733 36.6358 72.3127 36.8186C72.2121 36.8624 72.1087 36.9074 72.0015 36.9536C71.4727 37.1815 70.8718 37.4295 70.2215 37.605C68.3044 38.1318 66.2676 37.9189 64.5609 37.7405C64.2365 37.7066 63.924 37.674 63.6265 37.6479C62.8738 37.5819 62.3172 36.9182 62.3832 36.1656C62.4493 35.4129 63.1129 34.8563 63.8656 34.9223C64.2547 34.9565 64.6292 34.9941 64.9911 35.0304C66.6959 35.2016 68.1228 35.345 69.4991 34.9662L69.5062 34.9642C69.9555 34.8432 70.4053 34.6623 70.9184 34.4411C71.0048 34.4038 71.0942 34.3649 71.1859 34.3249C71.6055 34.1421 72.0766 33.9369 72.5534 33.767C74.2102 33.1248 75.9928 32.8808 77.76 33.0546C79.5342 33.229 81.2428 33.8198 82.7494 34.7789L82.7638 34.788L82.7779 34.7975C82.9302 34.8999 83.0791 35.0064 83.2247 35.117C84.5926 35.2397 85.7785 35.2655 86.8666 34.966L86.8738 34.964C87.323 34.843 87.7728 34.6621 88.2859 34.4409C88.3717 34.4039 88.4604 34.3653 88.5515 34.3256L88.5535 34.3248C88.9731 34.142 89.4442 33.9367 89.9209 33.7668C91.5777 33.1247 93.3603 32.8806 95.1275 33.0544C96.9018 33.2289 98.6103 33.8196 100.117 34.7787L100.131 34.7879L100.145 34.7974C100.481 35.0227 100.8 35.2686 101.102 35.5331C101.135 35.5214 101.169 35.5108 101.203 35.5015C101.65 35.3811 102.433 35.0712 103.325 34.702C103.5 34.6297 103.678 34.5551 103.857 34.4806L103.858 34.4802Z" fill="#333333"/>
</svg>
