<svg width="100" height="100" viewBox="0 0 100 100" fill="none" xmlns="http://www.w3.org/2000/svg">
<path d="M96 50.001C95.9999 62.7033 85.7024 73.001 73 73.001L72.999 73C72.9989 85.7024 62.7014 96 49.999 96C37.2967 95.9999 27.0001 85.7023 27 73C14.2977 72.9999 4.00009 62.7033 4 50.001C4 37.2986 14.2976 27.0011 27 27.001L26.999 27C26.999 14.2976 37.2967 4.0001 49.999 4C62.7015 4 72.999 14.2975 72.999 27L72.999 27.001L73 27.001C85.7024 27.001 96 37.2985 96 50.001ZM66.1016 50.1631C57.6088 49.0796 50.9223 42.3922 49.8389 33.8994C48.7554 42.3923 42.0681 49.0796 33.5752 50.1631C42.068 51.2466 48.7553 57.933 49.8389 66.4258C50.9224 57.9331 57.6089 51.2466 66.1016 50.1631ZM50.001 50L50 50L50 49.999L50.001 49.999L50.001 50Z" fill="#FFB2FF"/>
</svg>
