<svg width="100" height="100" viewBox="0 0 100 100" fill="none" xmlns="http://www.w3.org/2000/svg">
<path d="M100 50C100 63.5913 89.1543 74.6498 75.6455 74.9922L75 75L74.9922 75.6455C74.6498 89.1543 63.5913 100 50 100C36.1929 100 25 88.8071 25 75C11.1929 75 -2.7891e-06 63.8071 -2.18557e-06 50C-5.51229e-07 36.1929 11.1929 25 25 25C25 11.1929 36.1929 -2.7891e-06 50 -2.18557e-06C63.8071 -1.58204e-06 75 11.1929 75 25L75.6455 25.0078C89.1543 25.3502 100 36.4087 100 50ZM67.5 50.1787C58.2685 49.001 50.9999 41.7325 49.8223 32.501C48.6446 41.7324 41.3759 49.001 32.1445 50.1787C41.3759 51.3564 48.6446 58.625 49.8223 67.8564C51 58.625 58.2686 51.3564 67.5 50.1787Z" fill="black"/>
</svg>
