<svg width="160" height="161" viewBox="0 0 160 161" fill="none" xmlns="http://www.w3.org/2000/svg">
<rect y="0.423828" width="160" height="160" rx="80" fill="#FFF0BB"/>
<path d="M80.5774 85.9057C80.8689 85.6634 81.0752 85.3326 81.1639 84.9619C82.6321 80.9367 83.7763 76.8006 84.5857 72.5932C84.6939 72.1941 84.6852 71.7723 84.5606 71.3781C84.3552 70.9003 83.8646 70.6662 83.3854 70.4376C83.2778 70.3863 83.1708 70.3352 83.0677 70.2818C82.2481 69.7579 81.571 69.0392 81.0966 68.19C80.6223 67.3408 80.3655 66.3874 80.3493 65.4148C80.2547 64.6019 80.378 63.7785 80.7064 63.029C81.1545 62.3053 81.8095 61.7327 82.5865 61.3851C83.3636 61.0376 84.227 60.9312 85.0652 61.0796C86.7274 61.4119 88.3046 62.0788 89.7009 63.0399C92.2353 60.5884 100.293 56.1812 103.631 55.0297C104.001 54.8902 104.492 54.5429 105.001 54.0312C105.79 55.3018 106.47 56.6794 107.022 58.1429L107.021 58.125L113.297 69.3545L113.24 69.3482C113.277 69.4576 113.297 69.57 113.297 69.6848C113.297 70.7792 111.522 71.6665 109.333 71.6665C108.991 71.6665 108.658 71.6447 108.341 71.6038C106.72 81.8013 99.352 89.5016 90.5073 89.5016C86.8426 89.5016 83.4314 88.1796 80.5774 85.9057Z" fill="#AD563A"/>
<path d="M81.1641 84.9619C81.0755 85.3326 80.8691 85.6634 80.5776 85.9057C83.4316 88.1796 86.8429 89.5015 90.5076 89.5015C93.5083 89.5015 96.3391 88.6152 98.8331 87.0457C98.8331 87.0457 98.8332 87.0457 98.8331 87.0457C98.1353 87.4849 97.4111 87.8706 96.6642 88.1983C96.901 88.2936 97.1375 88.3905 97.3736 88.4891C98.7147 89.0486 100.032 89.6548 101.308 90.2987L100.097 94.5352L93.9802 89.0977C92.8562 89.3628 91.6952 89.5015 90.5076 89.5015C89.8323 89.5015 89.1657 89.4567 88.5095 89.3692L82.8977 96.445L74.2318 85.8222C75.0211 85.5825 75.7925 85.3698 76.5411 85.1851C76.4858 85.1642 76.4307 85.1431 76.3756 85.1218C77.9765 84.893 79.6103 84.738 81.2749 84.6562C81.2382 84.7582 81.2013 84.8601 81.1641 84.9619Z" fill="#FDFAEE"/>
<path d="M37.0723 125.81H92.1924L89.9281 91.5631L83.8808 99.188C83.6479 99.4816 83.2946 99.6539 82.9198 99.6565C82.5451 99.6591 82.1894 99.4917 81.9525 99.2013L71.7182 86.656C67.3926 88.2083 62.7037 90.4831 58.3362 93.3467C52.1789 97.3839 46.772 102.518 43.874 108.326C40.865 114.357 39.2003 118.651 38.2906 121.417C37.8358 122.8 37.5699 123.8 37.4191 124.445C37.3437 124.767 37.2971 125 37.2701 125.147C37.2565 125.22 37.2479 125.272 37.243 125.303L37.2383 125.334L37.2378 125.337C37.2146 125.51 37.1567 125.669 37.0723 125.81Z" fill="#FDFAEE"/>
<path d="M94.6726 125.81H122.805C122.693 125.623 122.629 125.405 122.629 125.172C122.629 119.297 121.928 110.991 114.674 100.62C112.452 97.4426 108.396 94.2104 103.542 91.4875L101.936 97.1076C101.819 97.5167 101.5 97.8371 101.092 97.9559C100.683 98.0747 100.242 97.9752 99.9244 97.6925L92.3696 90.9772L94.6726 125.81Z" fill="#FDFAEE"/>
<path d="M80.0905 106.242L62.6152 107.151C62.6152 111.798 64.6711 121.091 72.8948 121.091C81.1184 121.091 81.1184 111.192 80.0905 106.242Z" fill="#FF8A56"/>
<path d="M60.2566 48.5412C61.9957 50.2705 64.6174 50.7989 67.0136 51.0602L67.3991 51.0051C66.1113 52.3592 65.0719 53.9326 64.3312 55.6535C63.0232 58.608 62.3715 61.8111 62.421 65.0419C62.4706 68.2726 63.2203 71.4542 64.6184 74.3672C66.0491 77.2694 68.1045 79.8188 70.6371 81.8326C73.1697 83.8464 76.1167 85.2747 79.2665 86.0149C79.663 86.1508 80.0955 86.1376 80.4829 85.9778C80.8242 85.7312 81.0657 85.3704 81.1636 84.9609C82.6318 80.9357 83.7761 76.7996 84.5854 72.5921C84.6937 72.1931 84.6849 71.7713 84.5603 71.377C84.355 70.8992 83.8644 70.6652 83.3851 70.4366C83.2775 70.3853 83.1705 70.3342 83.0674 70.2807C82.2478 69.7568 81.5707 69.0382 81.0964 68.189C80.622 67.3397 80.3653 66.3863 80.349 65.4137C80.2545 64.6009 80.3777 63.7775 80.7061 63.028C81.1543 62.3043 81.8092 61.7316 82.5862 61.3841C83.3633 61.0366 84.2268 60.9301 85.065 61.0785C86.7271 61.4109 88.3043 62.0778 89.7006 63.0388C92.235 60.5874 100.293 56.1801 103.631 55.0287C105.401 54.3609 109.946 48.9281 106.014 43.5165C104.25 40.7904 101.597 38.758 98.5063 37.7636C95.3343 36.9971 92.0115 37.1301 88.911 38.1479C86.6564 38.8383 84.5204 39.8686 82.5767 41.2034C82.5341 41.2327 82.4916 41.2621 82.4492 41.2916C82.7819 40.4744 82.9604 39.5856 82.9259 38.5501C82.8423 35.815 81.8981 33.1759 80.2276 31.0086C78.5571 28.8413 76.2455 27.2562 73.6219 26.4789C72.4869 26.0507 71.2361 26.0434 70.0962 26.4582C68.6163 27.1333 67.925 28.8037 67.417 30.3486C66.3905 33.4252 64.6662 35.0072 62.132 36.901C60.2969 38.2171 59.007 40.1594 58.5057 42.3613C58.2751 43.4562 58.3139 44.5907 58.6189 45.6672C58.9239 46.7437 59.4859 47.73 60.2566 48.5412Z" fill="#542816"/>
<path d="M73.1553 83.5645C68.0283 85.1614 62.27 87.8082 56.9786 91.2776C50.6203 95.4465 44.825 100.877 41.659 107.222C38.6038 113.345 36.8909 117.75 35.9391 120.644C35.4631 122.092 35.1772 123.162 35.0089 123.881C34.9247 124.24 34.87 124.512 34.8355 124.699C34.8183 124.793 34.8062 124.865 34.798 124.917C34.7939 124.943 34.7908 124.964 34.7886 124.979L34.7858 124.999L34.7848 125.006L34.7845 125.008L34.7843 125.01C34.7843 125.01 34.7842 125.011 36.011 125.172L34.7842 125.011C34.6949 125.688 35.1718 126.31 35.8493 126.399C36.5256 126.488 37.1462 126.013 37.2373 125.338L37.2377 125.335L37.2424 125.304C37.2473 125.273 37.256 125.221 37.2695 125.147C37.2965 125 37.3431 124.767 37.4185 124.445C37.5693 123.801 37.8352 122.8 38.29 121.418C39.1997 118.651 40.8645 114.357 43.8734 108.327C46.7715 102.518 52.1783 97.3843 58.3356 93.3471C62.7031 90.4835 67.3921 88.2088 71.7176 86.6564L81.9519 99.2017C82.1888 99.4921 82.5445 99.6595 82.9193 99.6569C83.294 99.6543 83.6474 99.4821 83.8802 99.1885L89.9276 91.5636L92.3148 127.671C92.3599 128.352 92.9492 128.869 93.6311 128.824C94.313 128.779 94.8293 128.189 94.7842 127.507L92.369 90.9776L99.9238 97.693C100.242 97.9756 100.683 98.0751 101.091 97.9563C101.5 97.8375 101.819 97.5172 101.936 97.1081L103.541 91.4879C108.395 94.2108 112.452 97.443 114.674 100.62C121.928 110.992 122.628 119.298 122.628 125.172C122.628 125.856 123.182 126.41 123.865 126.41C124.549 126.41 125.103 125.856 125.103 125.172C125.103 118.967 124.334 110.114 116.702 99.2018C113.362 94.4261 106.649 89.8505 99.4071 86.6686C98.5347 87.267 97.6177 87.7801 96.6636 88.1988C96.9004 88.294 97.1369 88.391 97.3731 88.4895C98.7141 89.0491 100.031 89.6553 101.307 90.2991L100.097 94.5356L93.9796 89.0981C92.8556 89.3632 91.6946 89.502 90.507 89.502C89.8318 89.502 89.1651 89.4571 88.5089 89.3697L82.8971 96.4454L74.2312 85.8227C75.0206 85.583 75.7919 85.3703 76.5405 85.1855C75.3677 84.7429 74.2352 84.2005 73.1553 83.5645Z" fill="#333333"/>
</svg>
