<svg width="160" height="160" viewBox="0 0 160 160" fill="none" xmlns="http://www.w3.org/2000/svg">
<rect width="160" height="160" rx="80" fill="#FFF0BB"/>
<path d="M79.2504 78.2812L79.2537 78.2844C78.3792 78.3546 77.5507 78.4808 76.7776 78.6667C75.955 78.8645 75.1041 79.0965 74.2312 79.3616L82.8972 89.9843L88.5089 82.9086C85.034 82.4455 81.8536 80.7884 79.2504 78.2812Z" fill="#FDFAEE"/>
<path d="M93.9797 82.6371L100.097 88.0746L101.307 83.838C100.031 83.1942 98.7141 82.588 97.3731 82.0285C97.137 81.9299 96.9005 81.833 96.6637 81.7377C95.7977 82.1177 94.9011 82.4198 93.9797 82.6371Z" fill="#FDFAEE"/>
<path d="M122.654 118.962H37.2227C37.2285 118.934 37.2334 118.906 37.2373 118.877L37.2377 118.873L37.2424 118.843C37.2473 118.812 37.256 118.76 37.2695 118.686C37.2965 118.539 37.3431 118.306 37.4185 117.984C37.5693 117.34 37.8352 116.339 38.29 114.956C39.1997 112.19 40.8645 107.896 43.8734 101.866C46.7715 96.0574 52.1783 90.9233 58.3356 86.8861C62.7031 84.0225 67.3921 81.7477 71.7176 80.1954L81.9519 92.7407C82.1888 93.0311 82.5445 93.1984 82.9193 93.1959C83.294 93.1933 83.6474 93.021 83.8802 92.7274L91.2096 83.486L99.9238 91.2319C100.242 91.5146 100.683 91.614 101.091 91.4953C101.5 91.3765 101.819 91.0561 101.936 90.647L103.541 85.0269C108.395 87.7497 112.452 90.9819 114.674 94.1591C121.928 104.531 122.628 112.836 122.628 118.711C122.628 118.797 122.637 118.881 122.654 118.962Z" fill="#FDFAEE"/>
<path d="M89.4732 92.2466L87.5536 109.646C87.5411 109.759 87.56 109.873 87.6084 109.976L95.5396 126.885C95.7946 127.428 96.5969 127.326 96.7078 126.736L100.055 108.914C100.075 108.81 100.067 108.702 100.033 108.601L94.4645 92.2326L97.1 88.1916C97.2886 87.9024 97.204 87.5148 96.9122 87.3305L91.5459 83.9413C91.3201 83.7987 91.0284 83.8171 90.8222 83.9868L86.0789 87.8931C85.797 88.1253 85.7765 88.5499 86.0347 88.8082L89.4732 92.2466Z" fill="#FF8A56"/>
<path d="M44.8667 61.0277C44.3839 61.5759 43.9016 62.1237 43.4341 62.6802C39.8494 66.9433 36.9633 72.9209 39.3727 77.9263C40.5074 80.0678 42.2696 81.8062 44.42 82.9055C48.0961 84.955 52.6667 85.6447 56.5844 84.0748C57.7667 83.6582 58.8018 82.9023 59.5619 81.9005C62.239 78.0117 63.2837 72.5531 63.1727 67.9155C63.1103 65.7119 62.7814 63.5246 62.4526 61.3381C62.059 58.7211 61.6656 56.1053 61.7297 53.4641C61.8472 48.6163 64.1456 43.2628 68.7554 41.8439C70.674 41.2568 72.6496 41.4281 74.6413 41.743C74.4475 42.0733 74.2695 42.4136 74.1081 42.7628C73.7703 43.5741 73.5467 44.4276 73.323 45.2817C73.1212 46.0518 72.9193 46.8226 72.6334 47.5635C72.0805 49.0174 71.23 50.3187 70.379 51.6207C69.7572 52.5722 69.1351 53.5241 68.6286 54.5362C66.7939 58.4548 66.4464 62.9174 67.652 67.0777C68.2295 69.1563 69.0757 71.1489 70.1689 73.0041C70.7288 73.9635 71.3392 74.8919 71.9976 75.7852C72.0794 75.8973 72.1891 76.0675 72.317 76.266C72.7634 76.9586 73.4311 77.9947 73.9049 78.1028C75.1896 78.414 77.8507 75.9176 78.6765 75.1032C79.965 73.8405 80.9862 72.3266 81.6784 70.6534C81.8153 70.3735 81.8849 70.065 81.8817 69.7528C81.8179 69.382 81.6623 69.0335 81.4294 68.7397C80.3811 67.311 79.8179 65.5783 79.8236 63.7999C79.9481 62.0385 81.2065 60.2705 82.9435 60.0851C83.453 60.0106 83.9713 60.1362 84.392 60.4361C84.8438 60.798 85.0277 61.3565 85.2136 61.9214C85.3271 62.2661 85.4413 62.6131 85.6176 62.9192C85.825 63.2363 86.0975 63.5046 86.4166 63.7059C86.7358 63.9072 87.094 64.0367 87.4671 64.0857C87.8402 64.1347 88.2193 64.102 88.5787 63.9899C88.9382 63.8777 89.2695 63.6887 89.5503 63.4357C90.4744 62.4888 90.5138 60.946 90.0812 59.6878C89.5466 58.4719 88.9061 57.3063 88.1673 56.2048C87.4283 55.088 87.1334 53.7308 87.3414 52.404C87.5182 51.8075 87.8264 51.2593 88.2431 50.8005C88.6597 50.3418 89.1739 49.9844 89.7469 49.7553C92.108 48.7376 95.242 49.0055 97.9988 49.2413C98.6858 49.3 99.3494 49.3568 99.9718 49.3911C101.973 49.497 103.972 49.6229 105.969 49.7685C109.286 50.0069 112.523 47.3582 113.218 44.0474C113.508 42.3751 113.31 40.6535 112.648 39.0931C111.986 37.5327 110.888 36.2009 109.489 35.2604C108.068 34.3558 106.457 33.7992 104.786 33.6348C103.114 33.4704 101.427 33.7028 99.8603 34.3135C99.3956 34.4781 98.9418 34.6756 98.4874 34.8735C97.8265 35.1612 97.1642 35.4495 96.4652 35.6378C94.7019 36.1232 92.8477 35.9333 91.0124 35.7453C90.6441 35.7076 90.2766 35.6699 89.9108 35.6378C86.8328 35.2871 83.7161 35.6332 80.787 36.651C80.311 36.82 79.8474 37.0199 79.3991 37.2488C77.6261 35.2295 74.8187 33.9561 72.1116 33.4096C68.2408 32.5636 64.2052 32.9304 60.5478 34.4606C54.3123 37.2125 53.0508 42.2152 51.7085 47.538C51.0676 50.0797 50.4082 52.6945 49.18 55.172C48.0994 57.3565 46.4809 59.1945 44.8667 61.0277Z" fill="#AD563A"/>
<path d="M77.4199 76.2589C77.957 75.7993 78.4113 75.3645 78.6764 75.1031C79.9649 73.8404 80.9861 72.3265 81.6783 70.6533C81.8151 70.3734 81.8848 70.0649 81.8815 69.7527C81.8177 69.3819 81.6622 69.0334 81.4293 68.7396C80.381 67.3109 79.8177 65.5782 79.8234 63.7998C79.9479 62.0384 81.2064 60.2704 82.9433 60.085C83.4528 60.0105 83.9712 60.1361 84.3918 60.436C84.8437 60.7979 85.0275 61.3564 85.2135 61.9213C85.3269 62.266 85.4411 62.613 85.6175 62.9191C85.8249 63.2362 86.0974 63.5045 86.4165 63.7058C86.7356 63.9071 87.0939 64.0366 87.4669 64.0856C87.84 64.1346 88.2192 64.1019 88.5786 63.9898C88.9381 63.8776 89.2694 63.6886 89.5501 63.4356C90.4743 62.4887 90.5136 60.9459 90.081 59.6878C89.5465 58.4718 88.906 57.3062 88.1672 56.2047C87.4282 55.0879 87.1333 53.7307 87.3413 52.4039C87.518 51.8074 87.8263 51.2592 88.2429 50.8004C88.6596 50.3417 89.1737 49.9843 89.7468 49.7552C92.1079 48.7375 95.2418 49.0054 97.9987 49.2412C98.6856 49.2999 99.3493 49.3567 99.9716 49.391C101.973 49.4969 103.972 49.6228 105.969 49.7684C106.049 49.7742 106.13 49.7783 106.21 49.7807C106.505 50.3965 106.776 51.0313 107.022 51.683L107.022 51.6651L113.297 62.8946L113.24 62.8883C113.277 62.9977 113.297 63.1102 113.297 63.2249C113.297 64.3193 111.522 65.2066 109.334 65.2066C108.991 65.2066 108.658 65.1848 108.341 65.1439C106.72 75.3414 99.3522 83.0417 90.5076 83.0417C85.3667 83.0417 80.7245 80.4402 77.4199 76.2589Z" fill="#F3AA76"/>
<path d="M77.7574 75.9629C77.6494 76.0591 77.5363 76.158 77.4194 76.258C77.9921 76.9827 78.605 77.6599 79.2537 78.2843C78.3792 78.3545 77.5507 78.4807 76.7776 78.6666C75.955 78.8643 75.1041 79.0964 74.2312 79.3615L82.8971 89.9842L88.5089 82.9085C89.1651 82.9959 89.8318 83.0408 90.507 83.0408C91.6946 83.0408 92.8556 82.902 93.9796 82.6369L100.097 88.0744L101.307 83.8379C100.031 83.1941 98.7141 82.5879 97.3731 82.0283C97.1369 81.9298 96.9004 81.8328 96.6636 81.7376C97.6177 81.3189 98.5347 80.8058 99.4071 80.2074C106.649 83.3893 113.362 87.9649 116.702 92.7406C124.334 103.653 125.103 112.506 125.103 118.711C125.103 119.395 124.549 119.949 123.865 119.949C123.182 119.949 122.628 119.395 122.628 118.711C122.628 112.836 121.928 104.531 114.674 94.1589C112.452 90.9818 108.395 87.7496 103.541 85.0267L101.936 90.6469C101.819 91.056 101.5 91.3763 101.091 91.4951C100.683 91.6139 100.242 91.5144 99.9238 91.2318L91.2096 83.4859L83.8802 92.7273C83.6474 93.0209 83.294 93.1932 82.9193 93.1957C82.5445 93.1983 82.1888 93.0309 81.9519 92.7406L71.7176 80.1952C67.3921 81.7476 62.7031 84.0223 58.3356 86.886C52.1783 90.9231 46.7715 96.0573 43.8734 101.866C40.8645 107.896 39.1997 112.19 38.29 114.956C37.8352 116.339 37.5693 117.34 37.4185 117.984C37.3431 118.306 37.2965 118.539 37.2695 118.686C37.256 118.759 37.2473 118.812 37.2424 118.843L37.2377 118.873L37.2373 118.877C37.1462 119.552 36.5256 120.027 35.8493 119.938C35.1718 119.849 34.6949 119.227 34.7842 118.549L36.011 118.711C34.7842 118.549 34.7843 118.548 34.7843 118.548L34.7845 118.547L34.7848 118.545L34.7858 118.538L34.7886 118.518C34.7908 118.503 34.7939 118.482 34.798 118.456C34.8062 118.404 34.8183 118.332 34.8355 118.238C34.87 118.051 34.9247 117.779 35.0089 117.42C35.1772 116.701 35.4631 115.631 35.9391 114.183C36.8909 111.289 38.6038 106.884 41.659 100.761C44.825 94.4154 50.6203 88.9853 56.9786 84.8164C63.3472 80.6407 70.3924 77.6565 76.199 76.2604C76.7024 76.1393 77.2225 76.0405 77.7574 75.9629Z" fill="#333333"/>
</svg>
