<svg width="160" height="161" viewBox="0 0 160 161" fill="none" xmlns="http://www.w3.org/2000/svg">
<path d="M80 160.576C95.8225 160.576 111.29 155.884 124.446 147.094C137.602 138.303 147.855 125.809 153.91 111.191C159.965 96.5728 161.55 80.4875 158.463 64.969C155.376 49.4505 147.757 35.1959 136.569 24.0077C125.38 12.8195 111.126 5.2002 95.6073 2.11338C80.0888 -0.973433 64.0035 0.610836 49.3854 6.66585C34.7673 12.7209 22.273 22.9747 13.4825 36.1306C4.692 49.2865 0 64.7537 0 80.5762C0 101.794 8.42864 122.142 23.4315 137.145C38.4345 152.148 58.7827 160.576 80 160.576V160.576Z" fill="#FEED5A"/>
<path d="M56.0316 84.8736C57.216 84.8736 58.3738 84.5224 59.3586 83.8644C60.3434 83.2063 61.1111 82.2711 61.5644 81.1768C62.0176 80.0825 62.1362 78.8784 61.9051 77.7168C61.6741 76.5551 61.1037 75.488 60.2662 74.6505C59.4287 73.813 58.3616 73.2426 57.2 73.0116C56.0383 72.7805 54.8342 72.8991 53.74 73.3523C52.6457 73.8056 51.7103 74.5732 51.0523 75.558C50.3942 76.5428 50.043 77.7006 50.043 78.8851C50.043 79.6715 50.1979 80.4502 50.4989 81.1768C50.7998 81.9034 51.241 82.5635 51.7971 83.1196C52.3532 83.6757 53.0134 84.1168 53.74 84.4178C54.4665 84.7187 55.2452 84.8736 56.0316 84.8736Z" fill="#333333"/>
<path d="M103.961 84.8736C105.146 84.8736 106.304 84.5224 107.288 83.8644C108.273 83.2063 109.041 82.2711 109.494 81.1768C109.947 80.0825 110.066 78.8784 109.835 77.7168C109.604 76.5551 109.033 75.488 108.196 74.6505C107.358 73.813 106.291 73.2426 105.129 73.0116C103.968 72.7805 102.764 72.8991 101.669 73.3523C100.575 73.8056 99.64 74.5732 98.982 75.558C98.3239 76.5428 97.9727 77.7006 97.9727 78.8851C97.9717 79.6718 98.1257 80.451 98.4263 81.178C98.7269 81.905 99.168 82.5656 99.7243 83.1219C100.281 83.6782 100.941 84.1192 101.668 84.4198C102.395 84.7204 103.174 84.8747 103.961 84.8736" fill="#333333"/>
<path d="M80.0551 120.554C72.2845 120.563 64.5862 119.063 57.3884 116.135L54.0664 114.725V108.942L94.3408 49.2625H54.3026V40.5996H105.884V47.5634L64.1693 109.453C69.2998 111.118 74.6612 111.961 80.0551 111.952C89.0463 111.949 97.8904 109.669 105.762 105.323L109.945 112.882C100.79 117.924 90.5065 120.563 80.0551 120.554V120.554Z" fill="#333333"/>
</svg>
