<svg width="160" height="160" viewBox="0 0 160 160" fill="none" xmlns="http://www.w3.org/2000/svg">
<path d="M105.917 31.674C105.42 28.9999 103.142 26.7119 100.406 26.1424C97.66 25.5728 94.6258 26.7505 93.0341 28.9902C90.2784 26.6733 86.1896 25.9493 82.7773 27.1946C79.3651 28.44 76.7586 31.5775 76.2513 35.0818C73.7443 34.6281 71.0482 35.3328 69.1282 36.9547C67.2082 38.5765 66.1039 41.0672 66.2233 43.5386C64.0049 43.4131 61.7466 44.3109 60.2444 45.9038C58.7422 47.4967 58.0358 49.7654 58.3641 51.8989C58.4537 52.4491 58.6029 53.038 58.3741 53.5593C58.1652 54.042 57.6678 54.3413 57.24 54.6598C54.9022 56.3782 53.8078 59.3806 53.9769 62.2188C54.1461 65.0571 55.4393 67.7408 57.1206 70.0771C57.3196 70.3474 57.5285 70.637 57.5683 70.9652C57.618 71.3417 57.439 71.7086 57.2997 72.0561C56.1258 74.9233 56.9615 78.3794 59.0904 80.6673C61.2193 82.9553 64.5023 84.0848 67.6758 83.9593C69.8644 83.8724 71.9834 83.2256 74.1422 82.8588C78.032 82.183 82.081 82.405 85.8812 83.4766C88.1096 84.1138 90.6664 85.0019 92.5963 83.7566C93.5116 83.1677 94.0886 82.2023 94.4766 81.208C95.3122 79.0938 95.3819 76.5548 94.0289 74.7206C93.5713 74.1027 92.9843 73.5911 92.5366 72.9732C91.5219 71.5734 91.3329 69.7488 90.358 68.3201C89.4527 67.0071 87.9903 66.1769 86.5577 65.4239C85.1251 64.6709 83.6329 63.9179 82.6281 62.6726C81.6233 61.4272 81.2453 59.5447 82.2202 58.28C83.3941 56.7451 86.309 57.1216 87.0352 58.8979C87.2839 59.5061 87.3337 60.2494 87.8609 60.6645C88.6369 61.2824 89.8904 60.6356 90.2584 59.7281C90.6265 58.8207 90.4376 57.807 90.3779 56.832C90.159 53.0863 92.1685 49.3888 95.1829 47.0333C98.1972 44.6778 102.107 43.5772 105.977 43.4421C105.977 43.4421 109.419 44.3978 110.961 38.4124C111.926 34.5509 108.394 31.8092 105.917 31.674Z" fill="#542816"/>
<path d="M94.6276 80.7966C95.1133 80.891 95.5927 80.991 96.066 81.0965C96.1168 81.3483 96.1682 81.6127 96.2195 81.8875C97.5259 82.3393 98.8344 82.8385 100.133 83.3804C100.683 83.6099 101.229 83.8462 101.771 84.089C104.296 90.0736 105.736 96.4766 106.001 102.924C105.134 103.33 104.434 104.044 104.176 104.95C103.779 106.374 104.492 108.007 105.822 108.747C107.155 109.479 108.991 109.245 110.078 108.201C111.153 107.165 112.415 103.82 108.764 102.721C108.525 96.9863 107.4 91.2909 105.449 85.8707C111.716 89.1442 117.03 93.1998 119.816 97.1827C128.067 108.981 128.864 118.43 128.864 125.113C128.864 125.468 128.999 125.792 129.221 126.035H31.3789C31.561 125.836 31.6861 125.581 31.7242 125.293L31.7298 125.257C31.7354 125.221 31.7453 125.161 31.7608 125.078C31.7916 124.91 31.8447 124.644 31.9305 124.278C32.1022 123.544 32.4048 122.406 32.9221 120.833C33.9568 117.687 35.8499 112.804 39.2708 105.948C42.5692 99.3371 48.7212 93.4965 55.7233 88.9054C58.7282 86.9352 61.867 85.21 64.9672 83.7636C64.9293 83.7565 64.8914 83.7493 64.8535 83.7419C65.7819 83.9233 66.7337 83.9967 67.6758 83.9594C68.7816 83.9155 69.8696 83.7287 70.9539 83.5073C71.2939 84.0566 71.6564 84.6265 72.0425 85.2186L72.0433 85.2198C73.9002 88.0606 75.6824 90.8926 77.7155 95.9868C76.3938 96.3675 75.167 97.0091 74.2589 97.8628C72.1271 99.8671 71.7405 102.488 71.7014 104.67C71.6193 108.808 72.5512 112.946 73.4369 116.863C73.5005 117.145 73.6474 117.385 73.8458 117.565C73.9459 118.259 74.2077 118.939 74.6043 119.564C74.9459 120.109 75.5534 120.672 76.2685 120.597C76.684 120.548 77.0425 120.275 77.237 119.96C77.4314 119.644 77.4912 119.278 77.5092 118.906C77.5826 117.974 77.4318 117.029 77.0913 116.135C77.03 115.947 76.9408 115.756 76.7394 115.673C76.6061 115.61 76.4501 115.616 76.3079 115.624C76.1965 115.629 76.0852 115.633 75.974 115.636C75.1278 111.877 74.3693 108.258 74.4402 104.695L74.4403 104.692C74.4753 102.73 74.8279 101.064 76.127 99.8426C76.7586 99.2488 77.7943 98.7235 79.0207 98.4713C80.2369 98.2211 81.5224 98.2645 82.6271 98.6714L82.6289 98.6721C83.3763 98.9462 84.0181 99.3717 84.6578 99.8826C87.9733 102.575 89.1088 106.118 90.0003 109.822C90.372 111.378 90.7151 112.932 91.0247 114.49C90.6332 114.681 90.3006 114.964 90.155 115.325C90.0154 115.662 90.0395 116.029 90.0774 116.399C90.1357 116.94 90.2367 117.475 90.5103 117.968C90.784 118.461 91.2332 118.889 91.8116 119.064C92.4037 119.241 93.1171 119.116 93.478 118.682C93.6897 118.439 93.7575 118.118 93.81 117.808C93.8498 117.566 93.877 117.322 93.8917 117.077C94.0898 116.789 94.1794 116.427 94.1135 116.059C93.7005 113.748 93.2122 111.451 92.665 109.162L92.6645 109.16C91.7522 105.369 90.453 101.045 86.3954 97.7526L86.3915 97.7494L86.3875 97.7462C85.6371 97.1465 84.7337 96.5231 83.5978 96.1064C82.5978 95.7382 81.5438 95.5797 80.5102 95.5839C78.2853 89.8688 76.3331 86.7565 74.3428 83.7116C74.1659 83.4403 73.9945 83.1745 73.8286 82.9141C73.9331 82.8951 74.0376 82.8767 74.1422 82.8589C78.032 82.1831 82.081 82.4051 85.8812 83.4767C86.0457 83.5237 86.2119 83.5721 86.3795 83.6209C88.4836 84.2333 90.8088 84.9101 92.5963 83.7567C93.5116 83.1678 94.0886 82.2024 94.4766 81.2081C94.5301 81.0726 94.5805 80.9353 94.6276 80.7966Z" fill="#FDFAEE"/>
<path d="M94.7656 80.3532C95.3062 78.4373 95.204 76.3132 94.0291 74.7205C93.8052 74.4182 93.5504 74.1413 93.296 73.865C93.0305 73.5766 92.7655 73.2887 92.5369 72.9732C92.0162 72.2548 91.7129 71.4246 91.4092 70.5934C91.1212 69.8049 90.8328 69.0156 90.3582 68.32C89.4529 67.0071 87.9905 66.1769 86.5579 65.4239C86.5004 65.3936 86.4427 65.3633 86.385 65.3331C85.0062 64.6096 83.5927 63.8678 82.6283 62.6725C81.6236 61.4272 81.2456 59.5447 82.2205 58.28C83.3944 56.745 86.3092 57.1215 87.0354 58.8979C87.1085 59.0765 87.1644 59.2668 87.2202 59.457C87.3546 59.9144 87.4888 60.3713 87.8612 60.6645C88.6371 61.2823 89.8906 60.6355 90.2587 59.7281C90.558 58.9902 90.489 58.1822 90.4207 57.3818C90.405 57.1978 90.3893 57.0142 90.3781 56.8319C90.1593 53.0862 92.1688 49.3888 95.1831 47.0333C98.1975 44.6777 102.107 43.5772 105.977 43.442C105.977 43.442 107.738 43.9309 109.305 42.0198C109.638 42.2233 109.969 42.4303 110.301 42.6374C111.5 43.3869 112.701 44.137 113.989 44.7249C115.031 45.2002 116.122 45.5689 117.212 45.9372C118.656 46.4248 120.098 46.9118 121.42 47.6452C123.227 48.6538 124.834 50.3733 125.185 52.2754C125.285 52.8037 125.285 53.3513 125.155 53.8796C124.85 53.9385 124.401 53.9848 123.897 54.0369C122.591 54.1715 120.907 54.3453 120.335 54.8786C119.762 55.4126 119.752 57.0124 119.744 58.2194C119.741 58.641 119.739 59.0147 119.713 59.2783C119.693 59.5761 119.642 59.9027 119.421 60.1044C119.211 60.2869 118.909 60.3254 118.628 60.3446C116.238 60.4813 113.974 59.5908 111.73 58.7086C111.137 58.4753 110.545 58.2425 109.953 58.0295C109.37 57.8181 108.657 57.6356 108.145 57.991C107.694 58.2984 107.603 58.9325 107.784 59.432C107.965 59.9315 108.366 60.335 108.778 60.6904C111.278 62.8998 114.431 64.4176 117.765 65.0324C116.72 68.0199 115.556 70.9786 114.27 73.8893C114.083 74.3155 113.899 74.7794 113.707 75.2609C112.872 77.3629 111.903 79.8016 109.983 80.9114C109.28 81.3245 108.447 81.459 107.633 81.5647C103.744 82.0456 99.7576 81.7417 95.9878 80.7141C96.8584 84.8644 98.0122 93.1325 95.9465 94.5097C94.1712 95.6932 85.8047 88.1996 80.0049 82.5103C81.9921 82.6129 83.9683 82.9371 85.8815 83.4766C86.0459 83.5236 86.2121 83.572 86.3798 83.6208C88.4838 84.2332 90.809 84.91 92.5966 83.7565C93.5118 83.1677 94.0888 82.2023 94.4768 81.2079C94.573 80.9647 94.659 80.7158 94.7338 80.4631L95.1878 80.4842C95.0467 80.4416 94.906 80.3979 94.7656 80.3532Z" fill="#AD563A"/>
<path d="M95.0644 78.6301C95.0146 79.4113 94.8444 80.194 94.5804 80.9322C94.6357 80.7777 94.6868 80.6213 94.7336 80.4633L95.1875 80.4845C95.0465 80.4418 94.9057 80.3981 94.7654 80.3534C94.9241 79.7907 95.0274 79.21 95.0644 78.6301Z" fill="#333333"/>
<path d="M94.4766 81.2081C94.4766 81.2081 94.4766 81.2081 94.4766 81.2081Z" fill="#333333"/>
<path d="M96.2195 81.8875C97.526 82.3393 98.8345 82.8385 100.133 83.3804C100.683 83.6099 101.229 83.8462 101.771 84.089C104.296 90.0736 105.736 96.4766 106.001 102.924C105.134 103.33 104.434 104.044 104.176 104.95C103.779 106.374 104.492 108.007 105.822 108.747C107.155 109.479 108.991 109.245 110.078 108.201C111.153 107.165 112.415 103.82 108.764 102.721C108.525 96.9863 107.4 91.2909 105.449 85.8707C111.716 89.1442 117.03 93.1998 119.816 97.1827C128.067 108.981 128.864 118.43 128.864 125.113C128.864 125.869 129.477 126.481 130.232 126.481C130.988 126.481 131.6 125.869 131.6 125.113C131.6 118.065 130.727 108.01 122.058 95.6147C118.5 90.5273 111.566 85.6362 103.924 82.0652C103.882 81.9724 103.841 81.8797 103.799 81.7871C101.161 81.7699 98.5253 81.4061 95.9875 80.7144C96.0635 81.0765 96.1416 81.47 96.2195 81.8875Z" fill="#333333"/>
<path d="M61.3832 82.4686C58.9653 83.7009 56.5544 85.0889 54.2232 86.6174C46.9989 91.3542 40.4173 97.5219 36.8227 104.726C33.3506 111.685 31.4044 116.69 30.3231 119.978C29.7823 121.623 29.4577 122.838 29.2666 123.654C29.1711 124.062 29.109 124.37 29.0699 124.583C29.0504 124.689 29.0367 124.771 29.0274 124.829C29.0228 124.859 29.0193 124.882 29.0168 124.899L29.0137 124.921L29.0126 124.929L29.012 124.933C29.012 124.933 29.0119 124.935 30.3682 125.113L29.0119 124.935C28.9132 125.684 29.4404 126.371 30.1894 126.47C30.9381 126.568 31.6251 126.042 31.7243 125.293L31.7299 125.257C31.7355 125.221 31.7454 125.161 31.7608 125.078C31.7917 124.91 31.8448 124.644 31.9306 124.278C32.1023 123.544 32.4048 122.406 32.9221 120.833C33.9568 117.687 35.8499 112.804 39.2709 105.948C42.5693 99.3371 48.7213 93.4965 55.7234 88.9054C58.7283 86.9352 61.867 85.21 64.9672 83.7636C63.7043 83.5292 62.4821 83.0955 61.3832 82.4686Z" fill="#333333"/>
<path d="M70.9539 83.5073C71.2939 84.0566 71.6565 84.6265 72.0426 85.2186L72.0434 85.2198C73.9003 88.0606 75.6824 90.8927 77.7156 95.9869C76.3939 96.3675 75.1671 97.0091 74.259 97.8628C72.1271 99.8671 71.7405 102.488 71.7015 104.67C71.6193 108.808 72.5512 112.946 73.437 116.863C73.5006 117.145 73.6474 117.385 73.8458 117.565C73.946 118.259 74.2078 118.939 74.6044 119.564C74.946 120.109 75.5534 120.672 76.2686 120.597C76.684 120.548 77.0426 120.275 77.237 119.96C77.4315 119.644 77.4913 119.278 77.5092 118.906C77.5827 117.974 77.4319 117.029 77.0914 116.135C77.03 115.947 76.9409 115.756 76.7395 115.673C76.6062 115.61 76.4501 115.616 76.308 115.624C76.1966 115.629 76.0853 115.633 75.974 115.636C75.1279 111.877 74.3694 108.258 74.4403 104.695L74.4403 104.692C74.4753 102.73 74.8279 101.064 76.1271 99.8426C76.7587 99.2488 77.7944 98.7235 79.0207 98.4713C80.237 98.2212 81.5224 98.2645 82.6271 98.6714L82.6289 98.6721C83.3764 98.9462 84.0181 99.3717 84.6578 99.8826C87.9734 102.575 89.1088 106.118 90.0003 109.822C90.372 111.378 90.7152 112.932 91.0248 114.49C90.6332 114.681 90.3007 114.964 90.155 115.325C90.0155 115.662 90.0396 116.029 90.0775 116.399C90.1357 116.94 90.2367 117.475 90.5104 117.968C90.784 118.461 91.2333 118.889 91.8116 119.064C92.4037 119.241 93.1171 119.116 93.478 118.682C93.6897 118.439 93.7575 118.118 93.8101 117.808C93.8499 117.566 93.8771 117.322 93.8917 117.077C94.0899 116.789 94.1794 116.427 94.1135 116.059C93.7006 113.748 93.2123 111.451 92.6651 109.162L92.6646 109.16C91.7522 105.369 90.453 101.045 86.3954 97.7526L86.3915 97.7494L86.3876 97.7463C85.6371 97.1466 84.7337 96.5231 83.5978 96.1064C82.5978 95.7382 81.5438 95.5798 80.5103 95.584C78.2854 89.8688 76.3332 86.7565 74.3429 83.7117C74.1659 83.4403 73.9946 83.1745 73.8287 82.9141C73.213 83.0261 72.6001 83.1576 71.9874 83.2891C71.643 83.363 71.2986 83.4369 70.9539 83.5073Z" fill="#333333"/>
</svg>
