<svg width="160" height="160" viewBox="0 0 160 160" fill="none" xmlns="http://www.w3.org/2000/svg">
<path d="M118.743 52.8999C116.854 52.8999 115.323 54.4311 115.323 56.3199V122.668C115.323 124.557 116.854 126.088 118.743 126.088H125.583C127.471 126.088 129.003 124.557 129.003 122.668V56.3199C129.003 54.4311 127.471 52.8999 125.583 52.8999H118.743Z" fill="#FED337"/>
<path d="M94.8027 67.9479C94.8027 66.0591 96.3339 64.5279 98.2227 64.5279H105.063C106.951 64.5279 108.483 66.0591 108.483 67.9479V122.668C108.483 124.557 106.951 126.088 105.063 126.088H98.2227C96.3339 126.088 94.8027 124.557 94.8027 122.668V67.9479Z" fill="#FED337"/>
<path d="M77.7027 78.2079C75.8139 78.2079 74.2827 79.7391 74.2827 81.6279V122.668C74.2827 124.557 75.8139 126.088 77.7027 126.088H84.5427C86.4315 126.088 87.9627 124.557 87.9627 122.668V81.6279C87.9627 79.7391 86.4315 78.2079 84.5427 78.2079H77.7027Z" fill="#FED337"/>
<path d="M53.7627 95.3079C53.7627 93.4191 55.2939 91.8879 57.1827 91.8879H64.0227C65.9115 91.8879 67.4427 93.4191 67.4427 95.3079V122.668C67.4427 124.557 65.9115 126.088 64.0227 126.088H57.1827C55.2939 126.088 53.7627 124.557 53.7627 122.668V95.3079Z" fill="#FED337"/>
<path d="M33.2427 108.988C33.2427 107.099 34.7739 105.568 36.6627 105.568H43.5027C45.3915 105.568 46.9227 107.099 46.9227 108.988V122.668C46.9227 124.557 45.3915 126.088 43.5027 126.088H36.6627C34.7739 126.088 33.2427 124.557 33.2427 122.668V108.988Z" fill="#FED337"/>
<path d="M126.175 35.8557C126.464 35.8683 126.729 35.97 126.943 36.1332C127.077 36.1484 127.211 36.1838 127.341 36.2409C128.033 36.5454 128.346 37.3527 128.042 38.0442C127.579 39.0948 126.897 40.8184 126.367 42.54C126.103 43.4005 125.883 44.2391 125.746 44.98C125.604 45.7432 125.569 46.3087 125.613 46.662C125.704 47.4119 125.171 48.0942 124.421 48.186C123.671 48.2777 122.989 47.7441 122.897 46.9942C122.803 46.2277 122.897 45.3387 123.055 44.4821C123.218 43.6031 123.469 42.6564 123.752 41.7354C123.854 41.4052 123.961 41.0756 124.07 40.7505L33.0578 93.8725C32.4053 94.2534 31.5676 94.0332 31.1868 93.3806C30.8059 92.7281 31.0261 91.8904 31.6786 91.5096L122.802 38.3228C122.202 38.2532 121.582 38.1697 120.967 38.0707C120.016 37.9176 119.056 37.7242 118.195 37.4814C117.357 37.2448 116.518 36.9356 115.872 36.5126C115.24 36.0987 115.063 35.2508 115.477 34.6187C115.891 33.9867 116.739 33.8098 117.371 34.2237C117.669 34.4187 118.192 34.6374 118.939 34.8482C119.664 35.0529 120.513 35.2264 121.402 35.3695C123.18 35.6557 125.028 35.806 126.175 35.8557Z" fill="#333333"/>
</svg>
