<svg width="160" height="160" viewBox="0 0 160 160" fill="none" xmlns="http://www.w3.org/2000/svg">
<path d="M104.546 54.3315H37.2148L25.886 58.8203L19.2598 69.1872V88.2109L20.3285 98.2572L28.0235 105.738L34.6498 107.555V127.113L57.7348 107.021H121.432L133.723 96.5472L135.005 73.0347L132.654 66.5153H132.227L104.546 54.3315Z" fill="#FDFAEE"/>
<path fill-rule="evenodd" clip-rule="evenodd" d="M141.874 28.1983C142.592 28.8121 142.676 29.8916 142.062 30.6093L135.247 38.5773C134.634 39.295 133.554 39.3792 132.836 38.7653C132.119 38.1515 132.035 37.072 132.648 36.3543L139.463 28.3863C140.077 27.6686 141.157 27.5844 141.874 28.1983Z" fill="#FF8A56"/>
<path fill-rule="evenodd" clip-rule="evenodd" d="M152.05 46.2883C152.099 47.2314 151.375 48.0362 150.432 48.0858L139.562 48.6582C138.619 48.7078 137.814 47.9836 137.765 47.0405C137.715 46.0974 138.439 45.2926 139.382 45.2429L150.252 44.6706C151.195 44.6209 152 45.3452 152.05 46.2883Z" fill="#FF8A56"/>
<path fill-rule="evenodd" clip-rule="evenodd" d="M122.721 21.2033C121.781 21.3005 121.099 22.1408 121.196 23.0802L122.316 33.9072C122.413 34.8466 123.253 35.5293 124.192 35.4322C125.132 35.335 125.815 34.4947 125.717 33.5553L124.598 22.7283C124.5 21.7889 123.66 21.1061 122.721 21.2033Z" fill="#FF8A56"/>
<path d="M134.982 58.2735C134.982 67.7102 127.332 75.36 117.895 75.36C108.458 75.36 100.809 67.7102 100.809 58.2735C100.809 48.8369 108.458 41.187 117.895 41.187C127.332 41.187 134.982 48.8369 134.982 58.2735Z" fill="#FED337"/>
<path d="M120.189 51.2832C120.189 50.3388 119.423 49.5732 118.479 49.5732C117.958 49.5732 117.492 49.8057 117.178 50.1726C117.047 50.284 116.93 50.4172 116.834 50.5711C116.684 50.8111 116.486 51.1953 116.314 51.5296C116.231 51.6913 116.154 51.8413 116.091 51.9576C115.836 52.429 115.569 52.8586 115.26 53.2078C114.956 53.55 114.649 53.7732 114.32 53.8917C114.007 54.0046 113.554 54.066 112.874 53.8959C111.958 53.6669 111.029 54.2239 110.8 55.1401C110.571 56.0563 111.128 56.9847 112.045 57.2138C113.306 57.5292 114.457 57.4775 115.479 57.1094C115.964 56.9349 116.391 56.6994 116.769 56.4302V63.5534H113.236C112.292 63.5534 111.526 64.319 111.526 65.2634C111.526 66.2078 112.292 66.9734 113.236 66.9734H122.944C123.889 66.9734 124.654 66.2078 124.654 65.2634C124.654 64.319 123.889 63.5534 122.944 63.5534H120.189V51.2832Z" fill="#333333"/>
<path d="M62.7526 82.3497C62.7526 84.9233 60.6663 87.0096 58.0926 87.0096C55.519 87.0096 53.4327 84.9233 53.4327 82.3497C53.4327 79.7761 55.519 77.6897 58.0926 77.6897C60.6663 77.6897 62.7526 79.7761 62.7526 82.3497Z" fill="#333333"/>
<path d="M81.3925 82.3497C81.3925 84.9233 79.3062 87.0096 76.7326 87.0096C74.1589 87.0096 72.0726 84.9233 72.0726 82.3497C72.0726 79.7761 74.1589 77.6897 76.7326 77.6897C79.3062 77.6897 81.3925 79.7761 81.3925 82.3497Z" fill="#333333"/>
<path d="M95.3723 87.0096C97.9459 87.0096 100.032 84.9233 100.032 82.3497C100.032 79.7761 97.9459 77.6897 95.3723 77.6897C92.7987 77.6897 90.7123 79.7761 90.7123 82.3497C90.7123 84.9233 92.7987 87.0096 95.3723 87.0096Z" fill="#333333"/>
<path d="M38.5482 56.0999C28.8399 56.0999 20.9698 63.9701 20.9698 73.6784V92.454C20.9698 99.6551 26.8075 105.493 34.0086 105.493C34.3966 105.493 34.7544 105.622 35.0414 105.84C35.6813 106.082 36.1393 106.697 36.1468 107.422L36.3148 123.767L56.3693 105.925C56.726 105.608 57.1786 105.467 57.6201 105.497C57.658 105.494 57.6963 105.493 57.7348 105.493H115.694C125.402 105.493 133.272 97.6226 133.272 87.9143V73.5665C133.272 72.6221 134.038 71.8565 134.982 71.8565C135.927 71.8565 136.692 72.6221 136.692 73.5665V87.9143C136.692 99.5115 127.291 108.913 115.694 108.913H58.1564L35.7801 128.821C35.2793 129.266 34.5643 129.378 33.9513 129.107C33.3384 128.835 32.9405 128.231 32.9336 127.561L32.7414 108.865C24.2436 108.218 17.5498 101.118 17.5498 92.454V73.6784C17.5498 62.0813 26.9511 52.6799 38.5482 52.6799H94.4998C95.4442 52.6799 96.2098 53.4455 96.2098 54.3899C96.2098 55.3343 95.4442 56.0999 94.4998 56.0999H38.5482Z" fill="#333333"/>
</svg>
