<svg width="160" height="160" viewBox="0 0 160 160" fill="none" xmlns="http://www.w3.org/2000/svg">
<path d="M81.4633 130.657C107.633 130.657 128.848 108.133 128.848 80.3472C128.848 52.5616 107.633 30.0369 81.4633 30.0369C55.2932 30.0369 34.0781 52.5616 34.0781 80.3472C34.0781 108.133 55.2932 130.657 81.4633 130.657Z" fill="#FDFAEE"/>
<path d="M81.4629 121.47C102.854 121.47 120.194 103.058 120.194 80.3471C120.194 57.6358 102.854 39.2246 81.4629 39.2246C60.0721 39.2246 42.7314 57.6358 42.7314 80.3471C42.7314 103.058 60.0721 121.47 81.4629 121.47Z" fill="#FED337"/>
<path d="M128.848 114.691C128.848 122.813 122.264 129.397 114.142 129.397C106.02 129.397 99.436 122.813 99.436 114.691C99.436 106.569 106.02 99.9849 114.142 99.9849C122.264 99.9849 128.848 106.569 128.848 114.691Z" fill="#FF8A56"/>
<path d="M31 81.2157C31 50.742 53.6129 30 81.4631 30H82.8311L82.612 30.0514C108.251 30.6991 128.848 52.9693 128.848 80.3472C128.848 88.6622 126.948 96.506 123.584 103.416C122.879 102.825 122.118 102.298 121.309 101.846C124.378 95.4021 126.112 88.1023 126.112 80.3472C126.112 53.9159 105.97 32.7729 81.4631 32.7729C56.9562 32.7729 36.814 53.9159 36.814 80.3472C36.814 106.778 56.9562 127.921 81.4631 127.921C88.772 127.921 95.6927 126.041 101.807 122.7C102.314 123.48 102.894 124.209 103.536 124.878C96.9439 128.568 89.4333 130.657 81.4631 130.657C81.3859 130.657 81.3087 130.657 81.2316 130.657C57.7703 132.455 31 111.581 31 81.2157Z" fill="#333333"/>
<path d="M85.7199 47.2711C85.7199 46.5156 85.1074 45.9031 84.3519 45.9031C83.5964 45.9031 82.9839 46.5156 82.9839 47.2711V76.5524C81.5611 77.1817 80.5518 78.7638 80.5518 80.6161C80.5518 81.4964 80.7798 82.3157 81.1718 83.0007L67.7281 99.5908C67.2524 100.178 67.3426 101.039 67.9296 101.515C68.5166 101.991 69.3781 101.9 69.8537 101.313L83.2482 84.784C83.5975 84.9052 83.968 84.9704 84.3517 84.9704C86.4504 84.9704 88.1517 83.0209 88.1517 80.6161C88.1517 78.7639 87.1425 77.1819 85.7199 76.5525V47.2711Z" fill="#333333"/>
<path fill-rule="evenodd" clip-rule="evenodd" d="M115.724 104.976C115.724 104.22 115.111 103.608 114.356 103.608C113.6 103.608 112.988 104.22 112.988 104.976V106.336C110.8 106.847 108.969 108.522 108.969 110.833C108.969 112.22 109.647 113.34 110.613 114.141C111.554 114.921 112.794 115.431 114.107 115.717C115.216 115.959 115.956 116.264 116.408 116.646C116.786 116.964 117.049 117.402 117.049 118.228C117.049 118.859 116.748 119.304 116.221 119.648C115.649 120.022 114.911 120.195 114.399 120.195C113.172 120.195 111.813 119.773 110.958 118.643C110.502 118.04 109.644 117.921 109.042 118.377C108.439 118.833 108.32 119.691 108.776 120.294C109.929 121.817 111.52 122.538 112.988 122.804V124.406C112.988 125.161 113.6 125.774 114.356 125.774C115.111 125.774 115.724 125.161 115.724 124.406V122.773C116.393 122.619 117.091 122.348 117.717 121.939C118.825 121.215 119.785 119.992 119.785 118.228C119.785 116.66 119.214 115.432 118.171 114.553C117.202 113.737 115.933 113.315 114.69 113.044C113.652 112.818 112.861 112.451 112.36 112.035C111.882 111.639 111.705 111.241 111.705 110.833C111.705 110.037 112.618 108.909 114.399 108.909C115.653 108.909 116.754 109.786 117.11 110.212C117.593 110.793 118.456 110.871 119.036 110.387C119.617 109.904 119.695 109.041 119.212 108.461C118.695 107.841 117.431 106.74 115.724 106.331V104.976Z" fill="#FDFAEE"/>
</svg>
