<svg width="160" height="160" viewBox="0 0 160 160" fill="none" xmlns="http://www.w3.org/2000/svg">
<path d="M109.241 35.846C109.332 35.5366 109.406 35.2234 109.466 34.9092C109.733 33.7496 109.657 32.5414 109.244 31.4213C108.732 30.4457 107.959 29.6171 107.004 29.0197C106.049 28.4224 104.946 28.0775 103.806 28.0201C101.53 27.933 99.2522 28.1291 97.0292 28.6037C94.2484 29.0152 91.4333 29.1754 88.6211 29.0822C86.016 28.9904 83.4857 28.2592 80.8062 28.2861C76.1375 28.2436 71.5648 29.5549 67.6902 32.0471C66.0799 33.1646 64.6233 34.4721 63.3552 35.9386C59.0414 40.8211 55.6163 47.087 56.0939 53.4623C57.2841 69.3541 67.4657 77.3135 67.5679 77.0898C70.9833 72.663 71.9791 67.2801 72.6621 63.8801C72.7354 63.6285 72.7393 63.3629 72.6735 63.1094C72.5609 62.8719 72.3932 62.6621 72.1832 62.496C69.5823 60.0168 68.5008 53.4836 73.4372 52.6932C78.0096 51.9613 77.5282 57.4026 76.6251 60.0109C76.5525 60.1573 76.5377 60.3239 76.5833 60.4799C76.6503 60.5948 76.7534 60.6866 76.878 60.7422C77.9333 61.3333 79.1126 61.6931 80.3308 61.7956C80.4468 61.8139 80.5657 61.8035 80.6763 61.7655C80.806 61.6923 80.908 61.5816 80.9677 61.4493C82.4919 58.9523 83.4307 56.1682 83.7191 53.2898C83.5972 51.4559 83.1133 49.6606 82.293 47.9989C80.7189 43.3836 85.9559 39.8887 90.1501 39.9206C92.8896 40.1508 95.6043 40.5978 98.2666 41.2569C100.962 41.9112 103.819 41.5297 106.224 40.1939C107.721 39.1188 108.787 37.5836 109.241 35.846Z" fill="#F5925A"/>
<path d="M64.2222 73.9211C66.082 76.1129 67.5297 77.1735 67.5679 77.0898C70.8768 72.801 71.9146 67.6149 72.5972 64.2038C72.6192 64.094 72.6408 63.9861 72.6621 63.8801C72.7354 63.6285 72.7393 63.3629 72.6735 63.1094C72.5609 62.8719 72.3932 62.6621 72.1832 62.496C69.5823 60.0168 68.5009 53.4836 73.4372 52.6932C78.0096 51.9613 77.5282 57.4026 76.6251 60.0109C76.5525 60.1573 76.5377 60.3239 76.5833 60.4799C76.6503 60.5948 76.7534 60.6866 76.878 60.7422C77.9333 61.3333 79.1126 61.6931 80.3308 61.7956C80.4468 61.8139 80.5657 61.8035 80.6763 61.7655C80.806 61.6923 80.908 61.5816 80.9678 61.4493C82.4919 58.9523 83.4307 56.1682 83.7191 53.2898C83.5972 51.4559 83.1133 49.6606 82.293 47.999C80.7189 43.3836 85.9559 39.8887 90.1502 39.9206C92.5191 40.1197 94.8696 40.4809 97.1836 41.0012C98.8122 48.0124 105.166 53.8066 109.133 57.4248C110.544 58.7113 111.653 59.7226 112.141 60.4159C114.008 63.0698 106.582 64.0509 103.592 63.8052C102.323 71.423 97.9495 81.5127 91.3141 86.5868C86.1946 88.0203 74.5657 86.5768 66.3089 81.7603L64.2222 73.9211Z" fill="#FFBB95"/>
<path d="M99.6871 82.5456C98.5863 82.0863 97.4785 81.6578 96.3709 81.2632C94.8779 83.3248 93.1861 85.1554 91.3142 86.5869C86.2887 87.994 74.9908 86.6289 66.7673 82.0224C63.0432 83.6244 59.2065 85.6487 55.5673 88.0348C48.6104 92.5963 42.4988 98.3988 39.2222 104.966C35.8232 111.778 33.9423 116.629 32.9143 119.755C32.4003 121.318 32.0998 122.449 31.9293 123.177C31.844 123.542 31.7913 123.805 31.7606 123.972C31.7453 124.055 31.7355 124.114 31.7299 124.149L31.7246 124.184L31.724 124.188C31.6955 124.4 31.6199 124.594 31.5093 124.761H128.458C128.314 124.544 128.23 124.285 128.23 124.006C128.23 117.366 127.438 107.978 119.241 96.2573C115.718 91.2204 108.123 86.0653 99.6871 82.5456Z" fill="#FDFAEE"/>
<path d="M70.8604 56.9987C71.2449 55.6505 72.8906 54.8516 74.2917 55.2381C77.2668 56.0512 76.2739 58.7017 75.4297 59.5155C75.295 59.6448 75.1455 59.758 74.985 59.8547L77.7534 70.3633C77.8081 70.4152 77.8799 70.4794 77.9713 70.5534C78.3015 70.8211 78.8935 71.2243 79.8585 71.6438C81.6841 72.4376 84.857 73.295 90.1183 73.3874C89.9811 73.029 89.9353 72.6713 89.9998 72.3404C90.2721 71.0037 92.3699 70.4166 94.3558 71.0183C98.5715 72.2882 97.7125 74.8816 96.7122 75.6001C95.7143 76.3125 93.8075 76.2945 92.2912 75.5598C92.2626 75.5458 92.2342 75.5316 92.2059 75.5171C91.9611 75.8874 91.5411 76.1316 91.064 76.1316C84.9574 76.1316 81.1252 75.178 78.7676 74.1529C77.5875 73.6399 76.7807 73.1104 76.2482 72.6786C75.9824 72.4631 75.7867 72.2734 75.6483 72.1243C75.5791 72.0498 75.5245 71.9858 75.4827 71.934C75.4618 71.9081 75.4441 71.8853 75.4295 71.8658L75.4098 71.8391L75.4016 71.8277L75.3979 71.8225L75.3962 71.82C75.3962 71.82 75.3945 71.8177 76.5152 71.0332L75.3945 71.8177C75.3019 71.6854 75.2335 71.5378 75.1923 71.3816L72.3187 60.4735C72.2778 60.3182 72.2653 60.1621 72.278 60.0107C72.2295 59.988 72.1816 59.9637 72.1346 59.9379C71.1049 59.3648 70.5531 58.1008 70.8604 56.9987Z" fill="#333333"/>
<path d="M99.687 82.5457C98.5862 82.0864 97.4784 81.6579 96.3708 81.2633C96.9166 80.5094 97.436 79.7247 97.9277 78.9172C98.8729 79.2646 99.812 79.6332 100.741 80.0207C109.378 83.6245 117.528 89.0344 121.483 94.6893C130.098 107.008 130.966 117.001 130.966 124.006C130.966 124.761 130.354 125.374 129.598 125.374C128.843 125.374 128.23 124.761 128.23 124.006C128.23 117.366 127.438 107.979 119.241 96.2573C115.718 91.2205 108.122 86.0654 99.687 82.5457Z" fill="#333333"/>
<path d="M54.067 85.7468C57.8409 83.2723 61.8252 81.1685 65.7072 79.5001L66.3089 81.7605C66.4605 81.8489 66.6133 81.9363 66.7672 82.0225C63.0431 83.6245 59.2064 85.6487 55.5672 88.0348C48.6102 92.5963 42.4987 98.3988 39.2221 104.966C35.823 111.778 33.9422 116.629 32.9141 119.755C32.4002 121.318 32.0997 122.449 31.9291 123.177C31.8439 123.542 31.7911 123.805 31.7605 123.972C31.7452 124.055 31.7354 124.114 31.7298 124.149L31.7244 124.185L31.7239 124.188C31.6233 124.935 30.9371 125.46 30.1894 125.362C29.4404 125.263 28.9132 124.576 29.0119 123.827L30.3682 124.006C29.0119 123.827 29.012 123.826 29.012 123.826L29.0126 123.821L29.0137 123.814L29.0168 123.792C29.0193 123.774 29.0228 123.751 29.0274 123.722C29.0366 123.664 29.0502 123.582 29.0696 123.477C29.1084 123.266 29.1702 122.959 29.2652 122.554C29.455 121.743 29.7777 120.535 30.3151 118.901C31.3897 115.633 33.3238 110.659 36.774 103.744C40.3467 96.5836 46.8878 90.454 54.067 85.7468Z" fill="#333333"/>
</svg>
