<svg width="160" height="160" viewBox="0 0 160 160" fill="none" xmlns="http://www.w3.org/2000/svg">
<path d="M33.9082 71.0144C33.9082 71.3016 33.9562 71.5861 34.0505 71.8675C34.0464 71.9515 34.0443 72.0361 34.0443 72.1211V132.213C34.0443 132.627 34.0933 133.029 34.1857 133.414C34.092 133.695 34.0443 133.979 34.0443 134.266C34.0443 140.184 54.3811 144.982 79.4677 144.982C104.554 144.982 124.891 140.184 124.891 134.266C124.891 133.979 124.843 133.695 124.75 133.414C124.842 133.029 124.891 132.627 124.891 132.213V72.1211C124.891 70.1471 123.776 68.4335 122.142 67.5757C116.071 63.3602 99.1493 60.3269 79.2232 60.3269C54.1964 60.3269 33.9082 65.1119 33.9082 71.0144Z" fill="#FED337"/>
<path d="M49.8975 70.3828H61.5899V47.9931L62.8337 37.5446L69.0531 30.952L79.8748 27.4692L90.199 30.952L96.4183 40.5298L97.289 57.0734L103.757 58.8148L109.355 57.0734V46.2517L108.235 35.1812L100.15 24.1107L88.8307 17.6426H72.0384L56.6144 26.3497L49.8975 38.664V70.3828Z" fill="#FDFAEE"/>
<path fill-rule="evenodd" clip-rule="evenodd" d="M110.361 56.7202C110.399 56.5787 110.42 56.43 110.42 56.2765V43.3495C110.42 39.4403 109.555 35.7146 107.993 32.3275C103.273 22.0876 92.2281 15.002 79.4673 15.002C62.5265 15.002 48.5151 27.547 48.5151 43.3495V69.2035C48.5151 69.314 48.5256 69.422 48.5456 69.5266C48.4137 70.2103 48.7104 70.9339 49.3412 71.3148C50.5863 72.0665 52.6667 72.9216 55.0448 73.1732C57.4461 73.4273 60.2686 73.0737 62.7983 71.2338C63.3163 70.8571 63.5607 70.244 63.4911 69.6502C63.4986 69.5852 63.5024 69.5191 63.5024 69.4521V44.0076C63.5024 36.2064 70.4966 29.6168 79.4676 29.6168C88.4385 29.6168 95.4327 36.2064 95.4327 44.0076V56.7299C95.4327 56.8017 95.4371 56.8724 95.4457 56.9419C95.3609 57.5943 95.6587 58.2654 96.2579 58.6272C97.503 59.3789 99.5834 60.234 101.962 60.4856C104.363 60.7397 107.185 60.3861 109.715 58.5462C110.304 58.1179 110.539 57.384 110.361 56.7202ZM79.4673 18.422C64.1081 18.422 51.9351 29.729 51.9351 43.3495V68.8182C52.8316 69.2279 54.0571 69.6296 55.4046 69.7722C56.9613 69.9369 58.5935 69.75 60.0824 68.9188V44.0076C60.0824 34.0243 68.9151 26.1968 79.4676 26.1968C90.0201 26.1968 98.8527 34.0243 98.8527 44.0076V56.131C99.7491 56.5405 100.974 56.9421 102.321 57.0846C103.878 57.2494 105.51 57.0624 107 56.231V43.3495C107 39.9511 106.249 36.7127 104.887 33.7594C100.762 24.8116 90.9843 18.422 79.4673 18.422Z" fill="#333333"/>
<path d="M39.3806 74.2485C38.5964 73.7224 37.5341 73.9316 37.0079 74.7159C36.4818 75.5001 36.691 76.5624 37.4753 77.0886C40.693 79.2473 46.5059 80.9567 53.6845 82.1431C60.9455 83.3432 69.8557 84.0462 79.4679 84.0462C89.08 84.0462 97.9902 83.3432 105.251 82.1431C112.43 80.9567 118.243 79.2473 121.46 77.0886C122.245 76.5624 122.454 75.5001 121.928 74.7159C121.402 73.9316 120.339 73.7224 119.555 74.2485C116.995 75.9663 111.823 77.5907 104.694 78.7689C97.6468 79.9336 88.9262 80.6262 79.4679 80.6262C70.0096 80.6262 61.2889 79.9336 54.2422 78.7689C47.1129 77.5907 41.9411 75.9663 39.3806 74.2485Z" fill="#333333"/>
<path d="M84.3763 111.958C83.8473 112.384 83.5122 113.03 83.5948 113.703L85.3244 127.813C85.4494 128.833 84.6541 129.731 83.6271 129.731H74.9909C73.964 129.731 73.1687 128.833 73.2936 127.813L75.0523 113.466C75.1315 112.82 74.8255 112.196 74.3335 111.769C72.6782 110.332 71.6314 108.213 71.6314 105.849C71.6314 101.521 75.1399 98.0125 79.4678 98.0125C83.7958 98.0125 87.3042 101.521 87.3042 105.849C87.3042 108.319 86.1617 110.522 84.3763 111.958Z" fill="#333333"/>
<path d="M125.332 36.2588C125.977 35.5694 127.059 35.5338 127.749 36.1793C128.438 36.8247 128.474 37.9069 127.828 38.5963L119.51 47.4806C118.865 48.17 117.782 48.2056 117.093 47.5602C116.404 46.9147 116.368 45.8326 117.013 45.1432L125.332 36.2588Z" fill="#FF8A56"/>
<path d="M133.843 49.4012C134.071 50.3176 133.513 51.2455 132.597 51.4736L120.348 54.5229C119.432 54.751 118.504 54.193 118.276 53.2766C118.048 52.3602 118.606 51.4323 119.522 51.2041L131.771 48.1549C132.687 47.9267 133.615 48.4847 133.843 49.4012Z" fill="#FF8A56"/>
<path d="M134.736 63.9011C134.429 64.7945 133.457 65.2704 132.563 64.9641L121.051 61.0166C120.157 60.7103 119.681 59.7378 119.988 58.8444C120.294 57.9511 121.267 57.4752 122.16 57.7815L133.673 61.729C134.566 62.0353 135.042 63.0078 134.736 63.9011Z" fill="#FF8A56"/>
</svg>
