<svg width="160" height="160" viewBox="0 0 160 160" fill="none" xmlns="http://www.w3.org/2000/svg">
<path d="M118.515 30.0486L141.721 41.3177L100.556 126.085L94.3999 120.244L88.9534 120.45L82.9705 115.644L77.3506 114.816L118.515 30.0486Z" fill="#FED337"/>
<path d="M130.333 15.5017C128.21 14.4703 125.652 15.356 124.62 17.4798L118.517 30.0485L141.722 41.3177L147.826 28.7489C148.857 26.6251 147.972 24.0673 145.848 23.0359L130.333 15.5017Z" fill="#FF8A56"/>
<path d="M77.3828 114.82L78.83 140.116L100.531 126.059L94.4012 120.244L88.9547 120.45L82.9718 115.644L77.3828 114.82Z" fill="#FF8A56"/>
<path d="M100.594 126.01L100.588 126.022L100.598 126.015L100.594 126.01Z" fill="#FF8A56"/>
<path d="M118.303 29.5552C118.716 28.7057 119.739 28.3514 120.588 28.764L141.45 38.895C142.3 39.3076 142.654 40.3307 142.242 41.1802C141.829 42.0298 140.806 42.384 139.956 41.9715L119.094 31.8404C118.245 31.4278 117.891 30.4047 118.303 29.5552Z" fill="#333333"/>
<path d="M81.6258 138.304C81.5985 138.52 81.5294 138.733 81.4153 138.934C79.538 142.234 76.0525 144.041 72.641 144.32C69.2308 144.599 65.5762 143.364 63.5388 140.167C62.2757 138.185 59.6688 136.738 56.6145 136.471C53.602 136.209 50.3888 137.123 48.0086 139.552C45.6965 141.912 42.4275 143.522 38.9604 143.687C35.439 143.854 31.8008 142.52 28.9027 139.154C25.0541 135.491 18.8549 134.839 14.2361 139.552C13.5751 140.227 12.4924 140.238 11.8179 139.577C11.1433 138.916 11.1323 137.833 11.7933 137.159C18.1295 130.693 26.9096 131.969 31.8759 137.299C31.9457 137.374 32.0075 137.453 32.0614 137.536C34.1416 139.63 36.5292 140.378 38.7984 140.271C41.3321 140.15 43.8058 138.955 45.5659 137.159C48.7599 133.899 53.0285 132.726 56.9116 133.064C60.753 133.399 64.4558 135.242 66.4229 138.329C67.6158 140.201 69.8822 141.115 72.362 140.912C74.8406 140.709 77.214 139.402 78.4427 137.243C78.4962 137.149 78.5572 137.062 78.6246 136.982L78.2345 130.571L86.9816 134.849L81.6258 138.304Z" fill="#333333"/>
<path d="M118.023 33.8295C117.174 33.4169 116.151 33.7712 115.738 34.6207C115.326 35.4702 115.68 36.4933 116.529 36.9059L137.391 47.037C138.241 47.4495 139.264 47.0953 139.677 46.2457C140.089 45.3962 139.735 44.3731 138.885 43.9605L118.023 33.8295Z" fill="#333333"/>
</svg>
