<svg width="231" height="231" viewBox="0 0 231 231" fill="none" xmlns="http://www.w3.org/2000/svg">
<path d="M115.423 230.846C138.252 230.846 160.568 224.077 179.549 211.394C198.53 198.711 213.324 180.684 222.06 159.594C230.796 138.503 233.082 115.295 228.628 92.9052C224.175 70.5153 213.182 49.9489 197.04 33.8067C180.898 17.6645 160.331 6.6715 137.941 2.21787C115.551 -2.23575 92.3436 0.0500126 71.2527 8.78612C50.1619 17.5222 32.1353 32.3163 19.4524 51.2975C6.76957 70.2788 0 92.5946 0 115.423C0 146.035 12.1607 175.394 33.8068 197.04C55.4528 218.686 84.811 230.846 115.423 230.846V230.846Z" fill="#FEED5A"/>
<path d="M80.8396 121.623C82.5485 121.623 84.2189 121.117 85.6398 120.167C87.0606 119.218 88.1682 117.868 88.8222 116.29C89.4761 114.711 89.6472 112.973 89.3138 111.297C88.9804 109.621 88.1575 108.082 86.9492 106.873C85.7408 105.665 84.2013 104.842 82.5253 104.509C80.8492 104.175 79.112 104.347 77.5332 105C75.9544 105.654 74.6048 106.762 73.6554 108.183C72.706 109.604 72.1992 111.274 72.1992 112.983C72.1992 114.118 72.4228 115.241 72.857 116.29C73.2912 117.338 73.9277 118.29 74.73 119.093C75.5323 119.895 76.4849 120.531 77.5332 120.966C78.5815 121.4 79.7049 121.623 80.8396 121.623Z" fill="#333333"/>
<path d="M149.994 121.623C151.703 121.623 153.373 121.117 154.794 120.167C156.215 119.218 157.322 117.868 157.976 116.29C158.63 114.711 158.801 112.973 158.468 111.297C158.134 109.621 157.312 108.082 156.103 106.873C154.895 105.665 153.355 104.842 151.679 104.509C150.003 104.175 148.266 104.347 146.687 105C145.108 105.654 143.759 106.762 142.81 108.183C141.86 109.604 141.354 111.274 141.354 112.983C141.352 114.118 141.574 115.242 142.008 116.291C142.442 117.34 143.078 118.293 143.881 119.096C144.683 119.898 145.637 120.535 146.686 120.969C147.735 121.402 148.859 121.625 149.994 121.623" fill="#333333"/>
<path d="M115.499 173.102C104.288 173.116 93.1808 170.951 82.7959 166.727L78.0029 164.693V156.349L136.11 70.2438H78.3438V57.7451H152.764V67.7924L92.5792 157.086C99.9815 159.488 107.717 160.704 115.499 160.692C128.472 160.688 141.232 157.398 152.588 151.128L158.623 162.033C145.415 169.308 130.578 173.116 115.499 173.102V173.102Z" fill="#333333"/>
</svg>
