<svg width="305" height="375" viewBox="0 0 305 375" fill="none" xmlns="http://www.w3.org/2000/svg">
<path d="M0.086103 222.953C0.086103 220.963 0.0361323 218.963 0.116132 216.973C0.136132 216.523 0.656093 216.113 0.826093 215.643C0.996093 215.183 1.13609 214.653 1.07609 214.183C1.03609 213.903 0.386142 213.673 0.376142 213.403C0.276142 210.733 0.246098 208.063 0.206098 205.393C1.7461 204.373 1.03606 202.793 1.16606 201.433C1.27606 200.233 0.906083 199.013 2.06608 197.943C2.53608 197.503 2.12606 196.223 2.29606 195.353C2.42606 194.713 2.83607 194.123 3.17607 193.403C2.97607 193.183 2.62606 192.803 2.29606 192.433C2.64606 192.043 3.21608 191.693 3.31608 191.233C3.53608 190.233 2.99608 189.033 4.18608 188.313C4.27608 188.263 4.34607 187.993 4.30607 187.953C1.34607 185.083 5.53609 182.353 4.44609 179.523C5.20609 178.743 5.74606 177.893 5.54606 176.703C5.35606 175.583 7.00606 175.183 6.66606 173.873C6.44606 173.023 6.70612 172.053 6.60612 171.163C6.47612 169.993 7.26612 169.243 7.60612 168.303C8.11612 166.903 9.46606 165.603 8.79606 163.893C8.15606 162.273 9.83603 161.353 9.88603 159.983C9.93603 158.533 9.89604 157.073 9.89604 155.623C11.256 154.683 10.776 153.083 11.276 151.833C11.466 151.363 11.9461 150.993 12.0561 150.523C12.3161 149.353 11.6461 148.053 12.7861 146.993C13.6861 146.153 13.056 144.933 13.156 143.893C13.256 142.823 14.5861 142.363 14.3261 141.063C14.1661 140.283 13.8761 139.233 14.7461 138.553C15.6161 137.873 15.6161 136.733 16.1861 135.853C17.0761 134.473 17.726 132.853 17.636 130.983C17.586 129.933 18.4461 128.813 19.0061 127.783C19.2561 127.323 19.766 127.013 20.136 126.613C20.356 126.383 20.5361 126.103 20.6961 125.903C20.3661 125.463 20.0461 125.043 19.7261 124.623L21.4261 119.883C22.5561 119.183 22.8261 117.963 23.3761 116.883C23.9861 115.683 24.5661 114.463 25.1661 113.263C25.6961 112.203 26.6361 111.263 26.2561 109.903C27.2461 108.713 27.3961 106.993 28.7361 106.013C29.0061 105.813 30.6761 102.193 30.6061 101.903C30.1961 100.163 31.7061 100.473 32.6661 100.003V97.1333C32.9661 96.6033 33.0861 96.2633 33.3161 96.0233C34.1961 95.1033 35.1061 94.2133 36.0061 93.3133C35.4961 91.8933 37.7161 91.4133 37.1661 89.9833C39.2061 88.4833 39.6261 85.6633 41.7861 84.2733C42.9561 83.5233 42.5461 82.3733 42.6161 81.3133C43.3361 80.5533 44.0761 79.7733 44.8261 78.9833V76.8633C45.5861 76.0733 47.1161 76.4633 47.0861 74.5233C47.0661 72.5533 48.8561 70.9533 49.4161 69.0033C51.0761 68.0833 51.0961 65.9133 52.5061 64.8433C55.1061 62.8733 56.136 59.6033 58.636 57.5433C59.266 57.0233 58.9361 55.8933 59.7861 55.2933C60.4661 54.8133 61.2161 54.2533 61.1861 53.1533C61.1761 52.7533 61.9061 52.3833 62.1061 51.9233C62.5561 50.8733 64.466 51.8933 64.4061 50.2433C64.3661 49.1333 65.5261 48.9033 65.9061 48.1333C66.5461 46.8533 68.2161 47.2733 68.9361 46.2133C69.6061 45.2233 70.0661 44.0433 70.9061 43.2433C72.0261 42.1733 72.7561 40.6333 74.5961 40.3033C75.1061 40.2133 75.3161 38.8933 75.8361 38.2833C76.9561 36.9533 78.2061 35.8333 78.9861 34.1333C80.0461 31.8233 83.0861 31.4833 84.6261 29.5033C86.4361 29.7133 86.9961 28.0333 87.9761 27.1233C89.1461 26.0333 90.3261 25.0333 91.8161 24.4933C93.1761 23.9933 94.3461 23.2933 95.2061 22.1533C96.5161 20.4133 98.3761 19.3933 100.316 18.6833C101.446 18.2733 101.966 17.3933 102.786 16.7533C103.476 16.2233 104.356 16.3033 105.096 15.6733C106.356 14.6033 108.426 14.7233 109.506 13.2733C110.506 11.9233 112.416 12.0533 113.346 10.6133C114.026 9.55333 115.446 9.57329 116.456 8.89329C117.196 8.39329 118.536 8.79332 119.476 8.79332C120.246 8.02332 120.886 7.38332 121.536 6.73332C121.886 6.69332 122.226 6.63333 122.576 6.61333C123.796 6.55333 125.146 6.9533 125.966 5.5833C127.546 5.6033 128.626 3.71332 130.396 4.42332C131.376 2.88332 132.926 3.37332 134.306 3.35332C135.226 3.34332 135.906 2.9733 136.726 2.5833C138.216 1.8733 139.666 0.973318 141.586 1.04332C143.016 1.09332 144.346 -0.186701 146.046 0.0232989C147.656 0.223299 149.316 0.0632769 150.946 0.0632769H155.306C156.946 0.0632769 158.596 -0.0866743 160.206 0.113326C161.536 0.273326 162.516 1.5533 164.136 1.2133C165.526 0.923301 167.036 1.1533 168.486 1.1533C169.836 2.9833 171.786 2.05331 173.486 2.22331C174.556 2.32331 175.006 3.64328 176.316 3.38328C177.296 3.18328 178.516 2.98332 179.236 4.17332C179.316 4.29332 179.546 4.4333 179.666 4.4033C182.536 3.6833 184.506 5.91333 186.916 6.68333C187.846 6.98333 188.586 7.74328 189.756 7.75328C190.516 7.75328 191.266 8.70331 192.036 8.72331C193.906 8.77331 195.356 9.7033 196.636 10.7733C198.146 12.0333 199.736 12.8833 201.666 13.1433C201.996 13.1833 202.476 13.2233 202.616 13.4433C203.606 15.0533 205.656 15.1633 206.826 16.5033C207.866 17.6933 209.106 18.5933 210.586 19.2533C211.526 19.6733 213.126 19.6833 212.856 21.4533C214.536 22.7033 215.396 24.9933 217.796 25.3033C218.826 26.3333 219.856 27.3633 220.876 28.3833C222.646 28.2233 223.216 29.8333 224.266 30.7033C227.406 33.3133 229.556 37.0533 233.466 38.7833C234.676 40.2633 236.426 41.2133 237.036 43.3133C237.346 44.3833 238.736 45.1433 239.636 46.0433C240.666 47.0733 241.776 48.0333 242.696 49.1433C243.596 50.2233 245.116 50.7933 245.416 52.3633C245.716 53.9433 247.526 54.3433 248.066 55.6233C249.006 57.8433 250.716 59.3433 252.366 60.9133C253.286 61.7833 252.976 63.3533 254.276 63.9533C255.376 64.4733 255.036 65.8333 255.796 66.6033C256.396 67.2133 257.366 67.5933 257.406 68.6433C257.476 70.3633 260.026 70.6533 259.676 72.6133C260.886 73.4533 260.746 75.1433 261.966 76.0433C263.236 76.9833 263.146 78.9933 264.686 79.8033C265.036 81.2233 266.116 82.1333 266.946 83.2433C267.726 84.2833 267.796 85.8633 268.606 86.8733C269.486 87.9633 269.476 89.5733 270.836 90.3633C271.216 90.5833 271.606 91.2533 271.546 91.6533C271.286 93.4133 272.836 94.4133 273.186 95.9033C273.556 97.5133 274.746 98.5833 275.866 99.7033C277.026 100.863 277.926 103.173 278.136 105.303C278.176 105.653 278.026 106.163 278.206 106.353C280.766 109.013 280.106 113.343 283.166 115.783C283.916 116.383 283.696 117.793 284.686 118.403C284.476 119.713 285.036 120.703 285.696 121.813C286.166 122.603 285.496 123.963 286.666 124.673C286.786 124.743 286.886 124.983 286.856 125.123C286.346 127.773 288.076 129.683 289.046 131.853C289.606 133.103 290.616 134.213 290.146 135.763C289.816 136.833 290.856 137.293 291.196 138.053C291.536 138.813 290.826 139.883 291.696 140.563C292.366 141.083 292.146 141.843 292.366 142.473C292.986 144.283 293.446 146.053 293.516 148.023C293.566 149.453 294.646 150.813 294.806 152.363C294.836 152.643 295.486 152.863 295.506 153.143C295.606 154.403 295.546 155.673 295.606 156.933C295.666 158.143 297.146 158.843 296.726 160.313C296.486 161.143 296.726 161.943 297.416 162.753C298.256 163.733 297.726 165.133 297.706 166.363C296.086 167.213 297.486 167.973 297.786 168.763C298.326 170.203 299.296 171.553 298.866 173.213C298.376 175.083 300.496 176.233 300.046 178.233C299.656 179.963 299.966 181.853 299.966 183.663C301.926 185.193 301.056 187.363 300.956 189.203C300.876 190.653 302.586 191.053 302.216 192.593C301.886 193.963 302.146 195.483 302.146 196.933V200.753C302.146 202.023 302.106 203.303 302.166 204.563C302.186 205.053 302.446 205.533 302.616 206.003C303.306 207.843 303.406 208.743 303.236 211.383C303.206 211.923 303.236 212.473 303.236 213.013V216.283C303.236 217.193 303.466 218.183 303.176 218.983C302.806 220.013 305.206 220.363 303.606 221.543C302.756 222.173 303.326 223.233 303.256 224.093C303.166 225.173 303.236 226.263 303.236 227.313C303.976 228.103 305.096 228.743 303.866 229.993C303.536 230.333 303.216 230.933 303.276 231.353C303.576 233.223 302.326 235.353 304.156 236.983C304.206 237.033 304.156 237.303 304.086 237.343C302.696 238.233 303.406 239.633 303.226 240.813C303.086 241.703 304.336 242.233 304.206 242.513C303.866 243.273 302.976 243.763 303.226 244.823C303.416 245.613 302.956 246.123 302.456 246.693C302.166 247.033 302.166 247.673 302.156 248.183C302.126 250.183 301.926 252.213 302.216 254.163C302.436 255.643 301.016 256.263 301.036 257.533C301.046 258.733 301.326 259.933 300.166 261.013C299.366 261.763 300.316 262.593 301.016 263.233C300.296 264.003 299.576 264.763 298.866 265.523C298.866 266.443 298.866 267.343 298.866 268.253C298.866 268.793 299.006 269.413 298.786 269.853C298.166 271.063 297.126 272.113 296.766 273.373C296.376 274.703 296.576 276.213 296.506 277.633C295.116 278.493 295.736 279.883 295.596 281.073C295.556 281.403 295.536 281.933 295.336 282.033C293.816 282.803 295.146 284.613 294.156 285.353C293.286 286.003 293.716 287.043 293.046 287.653C292.506 288.143 292.016 288.673 291.346 289.343C291.286 290.403 291.226 291.623 291.166 292.793C290.576 293.593 288.756 292.863 289.066 294.623C289.376 296.373 288.516 297.553 287.426 298.883C286.586 299.913 285.936 301.153 285.086 302.263C284.296 303.283 284.066 304.733 283.466 305.923C282.926 306.983 282.396 308.203 281.506 308.883C280.396 309.733 280.476 311.053 279.686 312.013C278.956 312.913 278.836 314.293 277.696 314.983C276.926 317.273 275.116 318.763 273.416 320.273C272.536 321.053 272.966 322.323 271.936 322.983C271.186 323.453 270.636 324.763 269.986 324.763C268.606 324.763 268.166 325.783 267.356 326.413C267.496 327.913 266.036 328.423 265.476 329.453C264.916 330.503 264.606 331.603 263.176 331.673C262.746 332.673 261.446 332.173 260.966 332.853C260.496 333.523 260.276 334.373 259.866 335.123C259.366 336.043 259.216 336.663 257.956 337.073C256.726 337.463 256.016 339.503 254.786 339.893C253.266 340.373 252.526 341.523 251.416 342.323C249.876 343.423 248.156 344.253 246.776 345.593C245.466 345.503 245.066 346.753 244.236 347.353C243.406 347.953 242.386 348.073 241.546 348.833C240.156 350.083 238.346 350.833 236.946 352.133C234.966 351.653 234.066 353.203 232.936 354.293C232.546 354.663 232.226 355.103 231.986 355.393C230.726 355.473 229.686 355.173 228.786 356.193C227.766 357.353 226.816 358.663 225.046 358.993C224.486 359.093 224.026 359.823 223.206 359.803C222.346 359.773 221.356 359.763 220.646 360.143C220.026 360.473 219.426 360.693 218.786 360.943C218.016 361.253 217.496 362.173 216.666 363.043C215.586 363.043 214.326 362.903 213.116 363.083C212.146 363.233 211.136 364.203 210.306 364.033C208.786 363.723 208.216 365.183 206.936 365.333C206.066 365.433 205.316 366.643 204.466 367.393C203.286 367.393 202.016 367.413 200.746 367.393C199.646 367.373 199.226 368.813 197.916 368.543C196.946 368.343 195.736 368.133 194.976 369.303C194.836 369.513 194.346 369.563 194.016 369.573C192.566 369.603 190.976 369.213 189.696 369.683C188.386 370.163 187.186 370.603 185.756 370.753C184.296 370.913 182.936 371.803 181.416 372.093C180.856 372.203 180.376 372.933 179.566 372.863C178.666 372.783 177.746 372.843 176.846 372.843H172.486C171.216 372.843 169.926 372.963 168.676 372.813C167.166 372.623 166.316 374.463 164.756 373.943C164.596 373.893 164.396 373.943 164.216 373.943H151.166C150.746 373.563 150.296 372.863 149.956 372.913C148.246 373.133 146.316 371.983 144.816 373.673C144.746 373.753 144.256 373.583 144.086 373.413C143.306 372.623 142.576 372.633 141.826 373.443C140.926 374.413 140.816 373.053 139.916 372.863C138.846 372.863 137.396 372.823 135.946 372.873C135.186 372.903 134.676 372.543 134.036 372.203C132.566 371.423 131.536 371.653 129.626 372.533C129.196 372.733 128.336 372.923 128.206 372.743C127.296 371.423 125.976 371.803 124.756 371.773C123.356 371.733 122.506 370.183 120.826 370.603C119.456 370.943 117.936 370.703 116.486 370.663C115.246 370.633 113.696 370.963 112.836 370.353C111.806 369.633 110.666 369.983 109.906 369.503C108.796 368.793 107.776 368.213 106.496 368.513C104.546 368.963 103.236 367.593 101.666 366.983C99.9361 366.303 98.526 364.803 96.396 365.193C95.756 365.313 90.8661 362.653 90.1161 361.983C89.7161 361.623 89.3861 361.183 89.1161 360.863C85.5261 360.853 85.5961 360.693 81.0961 358.753C79.1161 357.903 77.3861 356.153 74.9461 356.503C73.7461 354.643 71.2661 354.463 69.9661 352.733C69.2961 351.833 68.336 352.233 67.146 352.093C66.716 351.663 66.0961 351.043 65.4761 350.423C64.5761 349.533 63.6661 348.663 62.7561 347.773C61.3761 348.133 60.8261 346.203 59.4361 346.563C58.9261 345.723 57.8661 345.833 57.2261 345.353C56.0661 344.503 55.1361 343.343 54.1061 342.323C53.3761 342.323 52.6561 342.323 51.9161 342.323C48.1961 338.603 44.4061 334.933 40.7961 331.093C40.0261 330.273 38.3861 330.843 38.3561 329.523C38.3261 328.463 37.2061 328.133 37.2261 327.253C37.2461 326.383 36.5961 326.043 36.1961 325.483C35.3361 324.313 34.0861 323.743 32.8361 323.153C32.8461 321.213 30.8161 320.743 30.1261 319.363C29.4861 318.103 28.8461 316.943 27.7861 315.963C26.1861 314.483 24.6861 312.893 23.0861 311.293V308.713C22.2361 307.973 20.9561 307.173 20.1161 306.043C19.3361 305.003 19.1461 303.543 18.4761 302.383C18.0361 301.623 17.2261 301.073 16.5361 300.383V296.953C15.8061 296.373 14.9561 295.713 14.2861 295.183V292.683C13.7561 292.163 13.2261 291.663 12.7361 291.123C12.1461 290.473 11.596 289.773 11.026 289.103C11.726 287.363 9.51605 286.363 9.90605 284.643C10.096 283.783 9.85611 282.823 9.96611 281.933C10.0961 280.893 9.06613 280.303 8.98613 279.633C8.79613 278.053 7.01612 276.983 7.72612 275.223C6.15612 274.243 6.80607 272.663 6.67607 271.303C6.62607 270.773 6.79605 269.903 6.53605 269.763C4.95605 268.883 6.15605 266.983 5.03605 265.973C4.79605 265.753 4.56615 265.423 4.50615 265.113C4.21615 263.423 5.18613 261.483 3.48613 260.083C3.45613 258.463 3.15613 256.783 3.48613 255.223C3.82613 253.563 2.15606 252.783 2.29606 251.293C2.42606 249.853 2.32609 248.393 2.32609 246.933C0.0960932 244.823 1.70603 242.133 1.26603 239.743C1.10603 238.873 1.00614 238.143 0.496137 237.313C-0.233863 236.133 -0.13397 234.633 0.63603 233.323C0.78603 233.073 1.05605 232.593 1.03605 232.583C-0.333946 231.693 0.25604 230.313 0.146039 229.113C0.0560395 228.023 0.386074 227.173 1.05607 226.193C1.71607 225.233 1.41603 223.753 0.13603 222.923L0.086103 222.953ZM129.836 198.123C130.336 198.553 131.026 199.123 131.686 199.733C132.346 200.353 132.986 201.553 133.616 201.543C134.876 201.513 135.326 202.703 136.416 202.833C137.206 202.923 137.956 203.473 138.686 203.883C140.336 204.803 142.196 205.423 143.386 207.143H146.596C147.996 208.743 149.876 208.173 151.596 208.213C153.956 208.273 156.316 208.233 158.666 208.233C159.466 207.503 160.206 206.253 161.056 206.183C162.246 206.083 162.696 204.673 163.856 204.973C165.086 205.293 165.736 204.043 166.686 203.933C168.196 203.753 168.566 201.913 169.606 201.843C171.166 201.743 171.146 200.853 171.496 199.883C171.666 199.423 172.176 199.013 172.626 198.733C173.186 198.383 174.326 198.273 174.386 197.923C174.536 196.963 175.446 196.343 175.526 195.683C175.726 194.113 177.416 193.013 176.786 191.273C178.506 190.093 177.596 188.313 177.796 186.793C177.886 186.093 177.816 185.373 177.816 185.123C176.716 183.863 175.896 182.903 175.206 182.113H171.846C170.216 182.793 170.266 184.483 169.476 185.603C169.036 186.233 169.226 187.293 169.086 188.153C168.996 188.643 168.956 189.323 168.626 189.573C167.526 190.413 168.306 191.623 167.886 192.553C166.726 193.713 165.696 195.023 164.386 195.973C163.326 196.733 161.806 196.863 160.746 197.623C159.946 198.193 159.266 198.443 158.336 198.443C154.706 198.413 151.076 198.413 147.446 198.443C146.336 198.453 145.406 198.363 144.546 197.433C144.216 197.073 143.166 197.373 142.306 197.373C140.836 195.863 139.296 194.333 137.816 192.743C137.236 192.123 136.546 191.663 136.316 190.633C136.066 189.513 135.066 188.623 135.256 187.253C135.386 186.343 133.766 183.093 133.556 183.213C131.746 184.233 130.856 181.353 130.236 181.673C128.366 183.213 127.386 184.023 126.636 184.633V191.403C127.336 192.103 128.456 192.703 128.516 193.403C128.626 194.593 129.716 195.123 129.836 196.153C129.896 196.693 129.846 197.243 129.846 198.133L129.836 198.123ZM197.066 175.523C198.116 175.523 199.396 175.613 200.646 175.503C202.046 175.373 203.666 176.153 204.806 175.143C205.956 174.133 207.156 174.503 208.336 174.473C209.016 174.453 209.196 173.813 209.656 173.703C211.126 173.323 212.546 172.863 213.976 172.333C214.926 171.973 216.136 172.363 217.206 172.233C218.196 172.113 218.776 170.793 220.016 171.163C221.076 171.483 221.416 170.193 222.276 170.093C223.326 169.973 224.386 169.943 225.446 169.873C226.156 168.343 227.946 169.583 228.726 168.693C229.626 167.653 230.726 168.173 231.666 167.853C232.436 167.593 232.866 166.543 233.956 166.753C234.046 166.773 234.226 165.823 234.516 165.433C235.156 164.583 235.886 163.813 236.656 162.913V159.683C235.426 158.513 234.116 157.273 232.686 155.913H226.386C224.666 157.963 222.346 156.703 220.316 156.973C219.246 157.113 218.816 158.433 217.506 158.143C216.476 157.923 215.356 158.113 214.276 158.153C214.146 158.153 213.986 158.373 213.896 158.523C213.116 159.883 211.446 158.553 210.556 159.663C209.576 160.883 208.206 160.173 207.016 160.243C206.076 160.293 205.256 160.363 204.686 161.203C203.216 161.033 202.486 162.713 200.856 162.563C199.606 162.443 198.546 164.173 196.976 163.563C194.446 165.673 192.686 168.153 193.086 171.773C194.326 172.953 195.636 174.193 197.066 175.553V175.523ZM72.6161 157.163C71.6561 158.033 70.726 158.883 69.896 159.633V164.113C70.956 165.173 71.8561 166.383 73.0361 167.183C74.7061 168.313 76.516 169.283 78.386 170.013C79.326 170.383 80.5461 170.113 81.6261 170.073C82.8961 170.023 83.5261 171.633 84.9961 171.213C86.0561 170.913 87.1561 171.133 87.8161 172.233C89.2661 171.623 89.6461 173.743 91.1761 173.433C92.6561 173.133 94.1961 173.243 95.6861 174.343C96.6561 175.063 98.5461 173.803 99.6161 175.303C101.216 175.373 102.826 175.463 104.426 175.523C105.126 175.553 105.836 175.523 106.386 175.523C107.956 173.953 109.376 172.553 110.776 171.123C111.006 170.883 111.126 170.543 111.166 170.473V166.963C109.996 165.293 109.266 164.263 108.756 163.533C107.526 163.533 106.786 163.613 106.076 163.513C104.736 163.333 103.766 161.813 102.156 162.403C101.986 162.463 101.586 162.023 101.366 161.763C100.776 161.043 99.7261 161.493 99.0561 160.653C98.3161 159.723 97.0261 160.413 95.9861 160.273C95.4561 160.203 94.7361 160.453 94.4061 160.183C93.6961 159.613 93.1061 158.923 92.0861 159.173C91.0061 159.443 90.6161 158.303 89.8061 158.093C88.9861 157.883 87.9861 158.413 87.3161 157.523C86.1661 156.013 85.3261 157.923 84.3361 157.823C84.0361 157.523 83.7861 157.273 83.4961 156.983H78.0961C77.7361 156.983 77.3661 156.943 77.0061 156.993C76.5061 157.073 75.7961 157.043 75.5561 157.363C74.3261 158.943 73.4661 157.713 72.6261 157.163H72.6161ZM138.556 167.423V169.603L140.146 173.293C142.126 173.173 142.656 175.103 143.916 175.993C144.636 176.503 145.266 177.123 145.936 177.703C147.546 176.953 148.416 178.823 149.836 178.803C151.056 178.793 152.356 178.483 153.266 179.783C153.386 179.953 154.416 179.823 154.646 179.523C155.496 178.473 156.606 178.883 157.626 178.783C160.316 176.093 163.016 173.403 165.706 170.703C165.776 167.713 165.696 167.753 164.746 165.743C164.036 164.243 162.976 163.153 161.546 162.443C160.336 161.843 159.226 161.123 157.646 161.263C154.946 161.513 152.216 161.333 149.496 161.333C148.586 161.333 147.586 161.093 146.806 161.403C146.046 161.703 145.566 162.673 144.526 162.453C143.866 163.553 142.816 163.583 141.696 163.523C141.076 163.493 140.756 163.863 140.726 164.503C140.666 165.963 139.156 166.343 138.546 167.403L138.556 167.423Z" fill="#F3AC60"/>
<path d="M129.846 198.131C129.846 197.241 129.896 196.691 129.836 196.151C129.716 195.111 128.626 194.581 128.516 193.401C128.456 192.701 127.336 192.111 126.636 191.401V184.631C127.386 184.011 128.356 183.211 130.236 181.671C130.866 181.351 131.756 184.231 133.556 183.211C133.766 183.091 135.386 186.341 135.256 187.251C135.066 188.631 136.066 189.511 136.316 190.631C136.546 191.661 137.236 192.121 137.816 192.741C139.296 194.331 140.836 195.861 142.306 197.371C143.166 197.371 144.216 197.071 144.546 197.431C145.396 198.361 146.336 198.451 147.446 198.441C151.076 198.411 154.706 198.411 158.336 198.441C159.266 198.441 159.946 198.201 160.746 197.621C161.806 196.861 163.326 196.731 164.386 195.971C165.696 195.031 166.736 193.711 167.886 192.551C168.316 191.611 167.536 190.401 168.626 189.561C168.956 189.311 169.006 188.641 169.086 188.141C169.236 187.281 169.036 186.221 169.476 185.591C170.266 184.471 170.216 182.781 171.846 182.101H175.206C175.896 182.901 176.726 183.851 177.816 185.111C177.816 185.361 177.896 186.081 177.796 186.781C177.596 188.301 178.506 190.081 176.786 191.261C177.426 193.001 175.726 194.101 175.526 195.671C175.446 196.331 174.536 196.951 174.386 197.911C174.336 198.251 173.196 198.371 172.626 198.721C172.176 199.001 171.666 199.401 171.496 199.871C171.146 200.841 171.166 201.731 169.606 201.831C168.566 201.901 168.186 203.741 166.686 203.921C165.736 204.031 165.096 205.281 163.856 204.961C162.686 204.661 162.246 206.071 161.056 206.171C160.216 206.241 159.466 207.491 158.666 208.221C156.316 208.221 153.956 208.271 151.596 208.201C149.876 208.161 147.996 208.731 146.596 207.131H143.386C142.196 205.411 140.336 204.791 138.686 203.871C137.956 203.461 137.206 202.921 136.416 202.821C135.326 202.691 134.876 201.501 133.616 201.531C132.986 201.551 132.356 200.341 131.686 199.721C131.026 199.111 130.326 198.541 129.836 198.111L129.846 198.131Z" fill="#261F0C"/>
<path d="M197.076 175.532C195.646 174.172 194.336 172.932 193.096 171.752C192.706 168.132 194.456 165.642 196.986 163.542C198.556 164.152 199.616 162.432 200.866 162.552C202.496 162.702 203.226 161.022 204.696 161.192C205.266 160.352 206.086 160.292 207.026 160.232C208.216 160.162 209.596 160.872 210.566 159.652C211.456 158.542 213.126 159.882 213.906 158.512C213.996 158.362 214.156 158.152 214.286 158.142C215.366 158.092 216.486 157.902 217.516 158.132C218.826 158.422 219.256 157.102 220.326 156.962C222.356 156.702 224.676 157.962 226.396 155.902H232.696C234.126 157.262 235.436 158.502 236.666 159.672V162.902C235.896 163.792 235.166 164.572 234.526 165.422C234.236 165.812 234.066 166.762 233.966 166.742C232.866 166.532 232.436 167.582 231.676 167.842C230.726 168.162 229.636 167.642 228.736 168.682C227.956 169.582 226.166 168.332 225.456 169.862C224.396 169.932 223.336 169.962 222.286 170.082C221.426 170.182 221.086 171.472 220.026 171.152C218.786 170.782 218.206 172.102 217.216 172.222C216.146 172.352 214.936 171.962 213.986 172.322C212.566 172.862 211.136 173.322 209.666 173.692C209.216 173.812 209.036 174.442 208.346 174.462C207.156 174.492 205.966 174.122 204.816 175.132C203.676 176.142 202.056 175.362 200.656 175.492C199.406 175.602 198.136 175.512 197.076 175.512V175.532Z" fill="#251E0C"/>
<path d="M72.6266 157.173C73.4666 157.723 74.3265 158.953 75.5565 157.373C75.7965 157.063 76.5066 157.083 77.0066 157.003C77.3666 156.953 77.7266 156.993 78.0966 156.993H83.4966C83.7866 157.283 84.0365 157.533 84.3365 157.833C85.3165 157.933 86.1665 156.023 87.3165 157.533C87.9865 158.423 88.9865 157.893 89.8065 158.103C90.6165 158.313 91.0065 159.453 92.0865 159.183C93.1065 158.923 93.6965 159.623 94.4065 160.193C94.7365 160.463 95.4566 160.203 95.9866 160.283C97.0266 160.433 98.3165 159.733 99.0565 160.663C99.7165 161.493 100.767 161.053 101.367 161.773C101.587 162.043 101.986 162.473 102.156 162.413C103.766 161.823 104.737 163.343 106.077 163.523C106.787 163.623 107.527 163.543 108.757 163.543C109.267 164.273 109.997 165.303 111.167 166.973V170.483C111.127 170.553 111.006 170.893 110.776 171.133C109.376 172.563 107.956 173.963 106.386 175.533C105.836 175.533 105.137 175.553 104.427 175.533C102.827 175.473 101.217 175.383 99.6166 175.313C98.5466 173.803 96.6565 175.063 95.6865 174.353C94.1965 173.253 92.6665 173.143 91.1765 173.443C89.6465 173.753 89.2565 171.633 87.8165 172.243C87.1565 171.143 86.0566 170.923 84.9966 171.223C83.5266 171.643 82.8966 170.033 81.6266 170.083C80.5366 170.123 79.3265 170.393 78.3865 170.023C76.5165 169.293 74.7065 168.313 73.0365 167.193C71.8565 166.393 70.9565 165.183 69.8965 164.123V159.643C70.7265 158.893 71.6566 158.043 72.6166 157.173H72.6266Z" fill="#251E0B"/>
<path d="M138.566 167.432C139.166 166.372 140.676 165.982 140.746 164.522C140.776 163.882 141.086 163.512 141.716 163.542C142.836 163.602 143.876 163.562 144.546 162.472C145.596 162.692 146.076 161.722 146.826 161.422C147.616 161.112 148.616 161.352 149.516 161.352C152.236 161.352 154.976 161.532 157.666 161.282C159.246 161.132 160.346 161.862 161.566 162.462C162.996 163.162 164.056 164.262 164.766 165.762C165.716 167.762 165.806 167.732 165.726 170.722C163.036 173.412 160.336 176.112 157.646 178.802C156.626 178.892 155.516 178.492 154.666 179.542C154.426 179.832 153.406 179.972 153.286 179.802C152.376 178.502 151.066 178.812 149.856 178.822C148.436 178.832 147.566 176.972 145.956 177.722C145.286 177.152 144.656 176.522 143.936 176.012C142.676 175.112 142.146 173.192 140.166 173.312L138.576 169.622C138.576 168.892 138.576 168.172 138.576 167.442L138.566 167.432Z" fill="#975240"/>
</svg>
