<svg width="354" height="366" viewBox="0 0 354 366" fill="none" xmlns="http://www.w3.org/2000/svg">
<path d="M167.635 14.2006C168.342 12.8406 168.715 11.194 168.755 9.26062C169.395 8.62062 170.025 7.99062 170.905 7.11062C170.905 6.66062 171.015 5.95062 170.885 5.28062C170.585 3.74062 171.585 2.53062 172.595 2.32062C174.025 2.02062 174.615 0.990625 175.725 0.140625H189.025C190.085 1.13063 190.955 2.63062 192.935 2.23062C193.445 2.13062 193.785 2.60062 193.835 3.26062C193.875 3.71062 194.245 4.17062 194.555 4.57062C194.985 5.13062 196.005 5.80062 195.895 6.12062C195.255 7.94062 197.205 8.93062 197.095 10.5706C196.965 12.5406 197.005 14.5306 197.095 16.5106C197.145 17.6906 196.545 19.0706 197.925 19.9406C198.045 21.1506 197.785 22.6306 198.395 23.5006C199.085 24.4806 199.335 25.3506 199.245 26.4106C199.195 26.9706 198.855 27.3906 198.175 27.2606C198.045 26.9506 197.925 26.6306 197.775 26.3306C197.755 26.3006 197.435 26.3506 197.415 26.4006C196.785 28.9806 197.035 31.6606 197.885 34.1106C198.155 34.8806 198.375 36.1706 197.965 36.5906C197.065 37.5106 197.045 38.4706 197.085 39.5406C197.165 41.6206 196.595 43.8206 198.175 45.6306C198.175 47.0806 198.495 48.6306 198.095 49.9706C197.565 51.7106 199.675 52.4606 199.235 53.8906C198.585 55.9906 201.085 57.3706 200.365 59.4406C201.455 60.1006 201.715 61.1806 201.405 62.2506C200.985 63.7206 202.535 64.3706 202.545 65.6206C202.545 67.3506 202.115 69.1906 203.595 70.6506C203.725 70.7806 203.585 71.3706 203.395 71.6106C202.985 72.1206 202.315 72.4106 203.165 73.2006C203.895 73.8806 203.655 75.2506 204.715 75.8106C204.245 77.0706 206.015 77.4906 205.795 78.6306C205.565 79.8306 206.695 80.5806 206.785 81.4606C206.915 82.7606 207.285 83.8006 207.985 84.8106C207.535 86.6506 208.735 88.1406 209.045 89.8106C209.175 90.5106 209.135 91.1506 209.725 91.7306C210.455 92.4406 211.665 93.0006 211.245 94.3506C210.845 95.6306 212.645 96.0506 212.325 97.1706C211.865 98.7606 213.615 99.5506 213.515 101.091C213.425 102.431 214.605 103.511 215.175 104.731C216.055 106.621 217.245 108.391 216.625 110.531C217.685 111.841 219.245 112.631 218.965 114.651C218.865 115.341 219.845 116.131 219.925 116.921C220.025 117.861 220.105 118.681 220.925 119.251C220.955 120.891 222.335 121.611 223.235 122.651C223.015 124.411 224.855 124.851 225.495 126.221V129.261C225.805 129.571 226.055 129.841 226.325 130.091C227.145 130.821 227.645 131.571 227.705 132.821C227.755 133.921 228.315 135.221 229.085 135.991C229.915 136.811 229.675 137.941 230.495 138.751C231.275 139.521 231.905 140.841 231.885 141.911C231.865 143.461 232.965 144.051 233.615 145.061C235.085 147.321 235.785 150.011 237.425 152.191C237.255 154.961 239.125 156.951 240.255 159.181C240.825 160.291 239.795 160.231 239.665 160.821C240.355 161.551 241.075 162.321 241.815 163.101V165.051C242.805 166.551 244.345 167.321 245.045 168.661V171.691C246.205 172.871 247.755 173.991 247.245 176.111C248.985 177.631 248.815 180.321 250.695 181.781C251.085 182.081 251.595 182.671 251.525 183.031C251.135 185.051 252.795 185.831 253.845 187.151C253.235 189.281 254.245 191.151 255.365 192.911C256.005 193.921 257.205 194.471 257.105 196.051C257.025 197.361 258.715 198.351 258.155 199.961C257.915 200.651 258.195 201.301 258.795 201.871C259.845 202.861 258.455 204.891 260.315 205.591C260.325 206.671 260.345 207.761 260.355 208.841C261.705 209.661 261.365 210.991 261.405 212.221C261.415 212.571 261.355 213.151 261.525 213.231C263.295 214.111 261.655 216.541 263.435 217.371C263.995 218.801 262.795 220.691 264.595 221.801C264.625 223.061 264.635 224.321 264.675 225.581C264.715 226.801 266.045 227.481 265.835 228.951C265.545 230.911 265.765 232.941 265.765 234.921C266.125 235.311 266.475 235.691 266.785 236.041C266.665 236.621 265.285 236.741 266.265 237.631C266.725 238.041 266.835 238.371 266.285 238.801C265.635 239.311 265.555 239.961 266.005 240.651C266.285 241.081 266.765 241.491 266.805 241.941C266.915 243.201 266.845 244.481 266.845 245.751C266.845 246.841 267.095 248.011 266.785 249.001C266.315 250.531 268.365 250.901 267.985 252.391C267.615 253.861 268.485 255.621 266.905 256.811C268.635 257.981 267.615 259.791 267.955 261.281C268.195 262.311 266.725 262.871 267.115 263.421C267.655 264.211 268.115 264.901 267.915 265.821C267.705 266.811 269.955 267.771 267.935 268.741C267.625 270.441 268.475 272.181 267.245 273.931C266.215 275.391 266.995 277.421 266.855 279.191C266.815 279.721 267.025 280.511 266.745 280.761C265.075 282.231 265.965 284.131 265.775 285.831C265.675 286.711 265.755 287.611 265.755 288.371C264.975 289.141 264.335 289.791 263.575 290.551V294.741C262.205 295.761 262.745 297.311 262.425 298.631C262.105 299.931 260.955 301.021 261.475 302.841C260.735 303.411 259.885 304.071 259.095 304.671C259.585 307.451 258.995 309.761 257.535 311.851C257.345 312.131 256.985 312.541 257.065 312.721C257.825 314.381 255.645 315.161 255.945 316.641C256.245 318.131 254.355 318.991 254.825 320.561C254.895 320.811 254.665 321.271 254.435 321.461C253.315 322.381 252.955 323.921 252.045 324.781C250.825 325.941 250.695 327.661 249.435 328.661C249.775 329.051 250.115 329.431 250.525 329.891C249.815 330.411 249.165 331.171 248.385 331.361C247.485 331.571 247.165 331.931 247.225 332.751C247.375 334.881 247.125 336.681 244.435 337.001C244.015 337.051 243.615 337.691 243.285 338.121C242.665 338.931 242.745 340.091 241.755 340.781C240.875 341.391 240.225 342.321 239.415 343.051C238.385 343.971 238.255 345.311 237.515 346.581H247.685C250.995 344.541 251.865 340.621 254.865 338.631V335.951C257.465 335.301 257.635 332.291 259.485 330.631C260.695 329.541 261.915 328.431 261.415 326.531C262.505 325.871 262.365 324.791 262.575 323.721C262.795 322.611 263.395 321.451 264.155 320.601C265.155 319.481 264.005 317.611 265.645 316.821C265.745 316.771 265.765 316.511 265.765 316.341C265.775 315.611 265.745 314.891 265.785 314.161C265.805 313.831 265.945 313.511 266.055 313.111C266.665 312.521 267.315 311.891 267.965 311.271C267.195 309.171 269.745 307.791 269.125 305.741C270.785 304.971 269.555 303.001 270.675 302.021C271.805 301.021 270.565 299.061 272.215 298.291C271.745 296.581 273.415 295.451 273.405 293.881C273.395 292.621 273.235 291.371 274.485 290.481C274.655 290.361 274.635 289.581 274.465 289.471C272.645 288.251 273.755 287.251 274.435 285.931C275.115 284.611 275.905 283.231 275.645 281.511C275.405 279.911 275.595 278.251 275.595 276.611C277.485 274.651 276.585 272.201 276.645 269.981C276.775 265.261 276.685 260.531 276.685 255.811C276.685 254.581 276.385 253.251 277.735 252.431C277.635 251.571 278.135 250.641 277.425 249.871C277.185 249.611 276.735 249.361 276.715 249.081C276.635 248.001 276.715 246.901 276.665 245.811C276.615 244.791 276.855 243.801 275.965 242.791C275.405 242.151 275.635 240.771 275.595 239.721C275.545 238.271 275.645 236.811 275.565 235.361C275.495 234.171 276.115 232.781 274.725 231.891C274.655 231.841 274.615 231.571 274.665 231.531C275.985 230.481 275.895 229.481 274.595 228.501C274.565 227.061 274.535 225.621 274.505 224.181C273.015 222.971 273.435 221.281 273.435 219.731C273.435 218.461 273.585 217.201 272.325 216.371C272.885 214.811 271.205 213.701 271.335 212.471C271.575 210.221 269.735 208.581 269.975 206.441C268.455 205.721 269.625 203.941 268.775 203.151C267.445 201.901 268.015 200.451 268.005 199.101C268.005 198.061 267.055 197.461 266.995 196.811C266.865 195.371 265.695 194.451 265.645 192.921C265.595 191.691 264.355 190.531 264.645 189.001C264.725 188.571 264.395 188.031 264.175 187.581C263.425 186.071 262.775 184.491 261.825 183.121C261.215 182.231 261.585 181.391 261.185 179.691C260.125 178.821 258.455 177.451 257.175 176.391C257.035 174.751 257.325 173.411 256.795 172.681C255.275 170.601 254.975 167.741 252.645 166.191C252.095 165.821 251.555 165.331 251.585 164.461C251.655 162.541 249.785 161.011 250.465 158.901C250.615 158.451 250.025 158.011 249.365 158.101C248.705 158.191 248.445 157.781 248.325 157.191C248.005 155.631 246.925 152.951 246.125 152.121C245.495 151.461 244.895 150.851 244.985 149.861C243.905 149.321 244.265 147.871 243.425 147.251C242.215 146.361 243.525 144.771 242.305 143.861C241.485 143.251 241.845 141.791 240.745 141.261C241.125 139.741 240.065 138.651 239.665 137.351C239.415 136.541 239.775 135.551 238.825 134.971C236.785 133.701 236.395 131.111 234.595 129.631C234.365 129.441 234.115 128.971 234.195 128.741C234.675 127.311 233.465 126.451 233.005 125.401C232.475 124.181 232.245 122.671 231.095 121.861C229.975 121.071 230.065 119.661 229.195 118.811C228.155 117.791 229.415 115.811 227.655 115.091V111.881C226.975 110.801 225.345 110.401 225.485 108.931C225.605 107.661 225.045 106.891 224.185 106.181C223.075 105.251 222.875 103.811 222.225 102.621C221.915 102.061 222.315 101.161 222.135 100.481C221.925 99.6806 221.195 98.9706 221.145 98.1906C221.075 97.0506 220.965 96.1106 219.965 95.3706C219.425 94.9706 218.665 94.5006 218.925 93.6506C219.405 92.0306 217.475 91.2806 217.635 89.8106C215.945 88.9306 217.445 86.6206 215.755 85.6306C215.415 85.4306 215.545 84.3806 214.965 83.8206C213.935 82.8306 215.315 80.8006 213.465 80.1006C213.465 79.1906 213.375 78.2706 213.485 77.3806C213.705 75.5506 211.785 74.2906 212.255 72.4306C211.165 71.8906 211.505 70.5306 210.725 69.7906C209.615 68.7506 210.805 67.0906 210.125 66.2606C208.665 64.4706 209.295 62.5406 209.115 60.6506C207.205 59.1106 208.275 56.9806 208.035 55.1106C207.965 54.5706 208.025 54.0206 208.025 53.4806C209.125 53.4406 209.905 54.4706 210.005 55.0406C210.205 56.2506 210.885 56.9506 211.665 57.6406C212.275 58.1706 212.505 58.7606 212.385 59.5306L213.965 63.2406C215.635 64.9106 217.205 66.6906 219.005 68.2106C220.795 69.7306 221.395 72.0806 223.185 73.6006C224.985 75.1206 226.575 76.8806 228.205 78.5906C228.845 79.2506 229.485 79.8006 230.465 79.7306C231.345 81.0106 233.265 81.5406 233.165 83.5206C234.155 84.1906 235.385 84.3806 236.225 85.4106C236.855 86.1806 237.425 87.1506 238.685 87.3406C239.285 87.4306 239.815 88.1006 240.355 88.5306C241.595 89.5306 242.355 91.1706 243.985 91.6106C245.545 92.0306 246.125 93.4406 247.215 94.3306C248.155 95.1006 249.565 95.0306 250.265 96.2206C250.695 96.9506 250.495 97.9206 251.375 98.5106C252.105 99.0006 252.625 99.8006 253.205 100.421C255.105 99.6906 256.345 101.091 257.715 101.651C258.915 102.141 259.555 103.781 261.155 103.861C261.375 105.131 262.275 105.591 263.345 106.201C264.355 106.791 265.675 106.851 266.465 108.001C267.165 109.031 268.225 109.831 269.125 110.721C270.025 111.621 270.925 112.521 271.835 113.431H274.005C274.885 114.711 276.775 115.241 276.745 117.191C277.945 118.461 279.145 119.611 280.815 120.401C281.985 120.951 283.135 121.871 284.215 122.681C286.085 124.081 287.605 125.941 289.275 127.611C290.005 127.611 290.725 127.611 291.455 127.611C292.485 127.981 291.375 129.981 293.185 129.841C293.595 129.811 294.105 130.291 294.465 130.631C295.775 131.891 296.995 133.241 298.345 134.461C299.625 135.621 300.485 137.381 302.505 137.561C303.755 139.231 305.985 140.111 306.405 142.491C306.485 142.931 307.075 143.511 307.525 143.611C309.405 144.041 310.425 145.531 311.685 146.741C312.865 147.871 314.015 149.031 315.145 150.211C315.495 150.581 315.795 151.021 315.995 151.491C316.735 153.161 317.715 154.461 319.655 154.921C320.265 155.061 321.095 155.761 321.185 156.311C321.445 157.891 322.605 158.701 323.565 159.701C324.575 160.741 325.985 161.591 326.545 162.831C327.145 164.181 328.275 165.041 328.865 166.231C329.345 167.211 329.415 168.111 330.815 168.131C331.085 168.131 331.225 169.361 331.615 169.881C332.135 170.601 333.105 171.101 333.375 171.881C333.615 172.551 333.785 173.141 334.265 173.711C335.045 174.641 333.975 176.201 335.415 177.071C336.325 177.621 336.985 178.571 337.755 179.341C337.855 182.411 338.015 182.341 338.835 184.341C339.215 185.271 339.945 185.691 340.455 186.391C340.985 187.101 341.595 187.741 342.175 188.411C341.435 190.021 343.505 190.941 343.215 192.311C342.805 194.281 344.355 195.521 344.675 197.181C346.145 197.911 344.795 199.701 345.855 200.491C346.785 201.191 346.425 202.431 347.325 203.201C348.215 203.961 347.025 205.711 348.495 206.531C348.765 206.681 348.655 207.511 348.715 208.031C348.875 209.391 348.145 210.971 349.685 211.991C349.725 213.061 349.755 214.131 349.815 215.211C349.895 216.811 349.985 218.411 350.065 220.011C351.515 221.101 350.705 222.671 350.895 224.021C352.565 225.181 351.995 226.941 351.935 228.471C351.895 229.531 352.535 230.031 353.015 230.721C352.265 231.311 351.815 232.001 351.985 233.021C352.205 234.371 351.355 235.961 352.895 237.001C352.895 239.231 353.975 241.581 352.175 243.641C352.105 243.721 352.695 244.391 353.015 244.831C352.715 245.161 352.365 245.541 352.005 245.941V259.531C352.005 260.441 352.275 261.471 351.925 262.221C351.575 262.971 350.715 263.491 350.855 264.501C349.275 265.491 349.795 267.081 349.865 268.431C349.985 270.691 350.085 270.681 349.575 271.241C348.768 272.114 348.848 273.114 349.815 274.241C349.455 274.641 348.715 275.191 348.805 275.411C349.505 277.221 347.715 278.281 347.555 279.881C347.415 281.321 346.835 282.871 345.595 283.941C345.715 285.391 345.095 286.581 344.405 287.811C343.735 288.991 342.795 290.161 343.285 291.701C341.525 293.611 341.355 296.541 339.065 298.141C337.755 299.061 337.205 300.681 336.855 302.091C336.595 303.161 336.535 304.161 335.585 304.851C333.675 306.231 333.175 308.691 331.375 310.211C329.575 311.731 328.005 313.521 326.335 315.181C324.665 316.841 322.995 318.521 321.325 320.191C320.825 320.691 320.525 321.231 320.305 321.961C320.075 322.701 319.195 323.751 318.575 323.761C316.805 323.781 316.565 325.821 315.115 326.031C313.495 326.261 312.695 327.611 311.885 328.661C310.835 330.021 309.055 330.071 308.035 331.301C306.355 331.261 305.735 332.791 304.475 333.641H301.105C300.375 334.441 299.555 335.411 298.645 336.281C298.305 336.611 297.765 336.791 297.295 336.931C294.195 337.841 293.625 338.131 291.935 339.771C291.415 340.281 290.915 340.801 290.425 341.301H287.125C286.475 341.941 285.835 342.591 285.075 343.351H281.585C281.215 344.141 280.745 345.161 280.515 345.651C278.365 345.651 277.105 345.591 275.855 345.681C275.385 345.711 274.845 345.991 274.505 346.321C273.225 347.541 272.625 346.311 271.995 345.781C271.335 346.121 270.725 346.711 270.125 346.701C268.165 346.641 266.405 347.241 264.555 347.731C262.685 348.221 260.585 347.841 258.595 347.841H247.155C245.155 347.841 243.145 348.011 241.165 347.791C238.915 347.541 237.065 348.391 235.335 349.541C234.485 350.111 232.675 349.861 233.065 351.751C232.445 352.011 231.765 352.171 231.225 352.541C230.635 352.951 230.235 353.631 229.655 354.031C229.115 354.401 228.305 354.431 227.845 354.861C227.245 355.421 226.615 355.431 225.905 355.481C224.505 355.591 223.555 356.791 222.235 357.131C221.325 359.331 218.455 357.951 217.325 359.801C217.225 359.961 216.605 359.911 216.275 359.801C214.195 359.131 212.805 361.581 210.755 360.971C210.085 362.091 209.005 361.981 207.915 362.021C206.725 362.061 205.485 361.641 204.395 362.831C203.965 363.301 202.695 362.981 201.825 363.101C200.125 363.331 198.265 362.441 196.725 364.001C196.355 364.381 195.355 364.171 194.645 364.171C191.925 364.181 189.195 364.071 186.475 364.221C185.145 364.291 184.185 365.711 182.555 365.321C181.355 365.031 180.025 365.261 178.755 365.261H174.395C173.855 365.261 173.255 365.401 172.775 365.221C172.305 365.051 171.955 364.551 171.535 364.171H169.945C168.125 364.171 166.285 363.971 164.505 364.231C162.765 364.481 161.775 362.771 160.035 363.031C158.255 363.291 156.345 363.381 154.615 362.991C153.335 362.701 152.165 361.951 150.745 361.781C150.035 361.701 149.445 360.591 148.665 359.811H146.685C145.775 359.811 144.835 359.951 143.965 359.771C143.165 359.601 142.465 359.011 141.675 358.741C141.025 358.521 139.975 358.741 139.705 358.361C139.075 357.471 138.085 357.811 137.375 357.281C136.015 356.281 134.145 356.041 132.955 354.891C131.895 353.861 130.455 355.001 129.535 353.811C128.765 352.811 127.765 351.991 126.865 351.091C126.135 351.091 125.415 351.091 124.655 351.091C123.775 350.201 122.915 349.261 121.965 348.421C121.605 348.101 121.015 347.791 120.595 347.861C119.285 348.071 118.645 347.231 117.865 346.491C117.505 346.141 116.935 345.611 116.605 345.701C115.165 346.091 114.405 344.751 113.225 344.561C112.865 344.501 112.495 344.561 112.135 344.561C111.945 343.681 112.955 343.511 113.145 342.851C112.125 341.831 111.025 340.871 110.115 339.751C109.725 339.271 109.845 338.491 109.345 337.891C108.595 336.981 108.545 335.581 107.385 334.911C105.585 333.881 105.545 331.571 103.975 330.291C103.145 329.611 102.895 328.231 102.315 327.211C101.465 325.741 101.155 323.941 99.6851 322.851C99.0051 322.341 98.9451 321.641 99.0651 320.931C99.2951 319.591 98.6751 318.591 97.9751 317.561C97.5151 316.871 96.9551 316.071 96.9351 315.301C96.9051 314.141 95.3351 313.731 95.7851 312.491C96.2551 311.221 94.7451 310.761 94.6651 309.681C94.5851 308.501 93.5651 307.691 93.4651 306.331C93.3751 305.091 92.1651 303.921 92.5051 302.411C92.6951 301.591 91.8651 301.181 91.6851 300.581C91.3751 299.601 91.6751 298.421 91.3751 297.431C91.0851 296.481 90.2151 295.811 90.2851 294.601C90.3651 293.261 90.9051 291.661 89.3151 290.671C89.4651 289.311 88.6152 287.781 89.9552 286.651C90.3752 286.291 90.4552 286.131 89.9552 285.861C88.4252 285.041 90.0452 282.991 88.4552 282.071C88.0852 281.861 88.1751 280.761 88.1651 280.071C88.1251 278.261 87.9552 276.411 88.2052 274.631C88.4552 272.901 86.8252 271.971 86.9552 270.171C87.2752 265.661 87.0551 261.101 87.0651 256.571C87.0651 255.871 86.8951 254.851 87.2751 254.521C88.2751 253.651 88.1652 252.631 88.1452 251.581C88.1152 250.371 88.5351 249.011 87.1551 248.181C87.4651 247.791 87.7751 247.391 88.1551 246.921C88.1551 245.221 88.1351 243.401 88.1751 241.591C88.1851 241.091 88.2251 240.411 88.5351 240.131C89.7051 239.091 88.9051 237.721 89.2951 236.611C89.7451 235.321 90.5852 234.231 90.3952 232.681C90.2052 231.151 89.9751 229.451 91.4351 228.241C90.7451 226.641 92.5851 225.711 92.4851 224.341C92.3751 222.851 92.9151 221.681 93.5551 220.401C94.0651 219.371 93.1351 218.001 94.2351 216.861C95.3551 215.701 94.4051 214.091 94.7251 212.721C94.8351 212.241 95.1151 211.761 95.4451 211.401C96.0451 210.741 95.6551 209.701 96.5351 209.071C96.9251 208.791 96.6951 207.741 96.9151 207.091C97.1851 206.301 97.7751 205.601 97.9451 204.801C98.1251 203.931 97.9851 202.991 97.9851 202.091V199.231C98.8651 198.111 99.8151 197.371 100.085 196.431C100.365 195.431 100.085 194.281 101.205 193.621C100.835 192.111 102.235 190.961 102.215 189.741C102.195 188.311 103.585 187.561 103.385 186.391C103.105 184.781 104.585 183.951 104.735 182.541C104.795 182.001 105.545 181.571 105.655 180.751C106.135 177.191 106.595 176.351 108.885 173.931C109.055 172.721 108.465 171.421 109.275 170.281C110.075 169.161 110.215 167.621 111.575 166.871C113.715 165.711 113.325 163.231 114.225 161.431C115.225 159.441 115.665 157.511 116.575 156.421C117.015 155.891 117.785 155.531 117.585 154.671C117.295 153.401 118.075 152.691 118.875 151.931C120.395 150.481 120.355 148.091 121.955 146.681C121.955 145.591 121.695 144.411 122.025 143.441C122.405 142.331 123.865 141.951 124.225 140.531C124.505 139.451 125.945 138.661 126.225 137.581C126.595 136.161 127.855 135.721 128.475 134.681C128.635 134.411 128.495 133.971 128.495 133.611C128.495 133.251 128.345 132.681 128.515 132.551C130.295 131.271 130.655 128.921 132.335 127.561C132.515 127.411 132.545 127.071 132.635 126.861C131.315 125.091 131.355 124.881 133.085 124.331C133.395 124.231 133.665 123.981 133.945 123.791C133.945 123.061 133.945 122.341 133.945 121.611C134.845 120.811 136.585 120.921 136.885 119.671C137.205 118.321 138.615 117.461 138.335 115.881C138.215 115.211 138.165 114.241 138.545 113.841C139.525 112.811 139.515 111.181 140.795 110.391C141.475 109.971 141.715 109.321 141.565 108.541C141.415 107.751 142.055 107.261 142.255 106.651C142.735 105.221 144.125 104.081 143.745 102.361C144.775 101.291 144.705 99.8506 145.095 98.5606C145.325 97.7906 146.765 97.3106 146.845 96.6006C146.985 95.3406 147.815 94.7806 148.475 93.9706C148.785 93.5906 149.125 93.1006 149.155 92.6406C149.215 91.7406 149.215 90.9506 149.985 90.2206C150.565 89.6706 150.255 88.4806 151.175 88.0206C152.425 87.4006 152.195 85.8506 153.095 85.0006C154.155 84.0006 152.805 81.9806 154.635 81.2906C154.635 80.3806 154.495 79.4506 154.675 78.5806C154.845 77.7806 155.775 76.9706 155.645 76.3206C155.345 74.8406 156.985 74.1706 156.785 72.9506C156.495 71.1206 158.175 70.5906 158.805 69.4006C159.195 68.6606 159.595 67.8906 159.935 67.1506C160.455 66.0206 160.265 64.6906 159.045 63.8806C159.755 63.0906 160.465 62.2906 161.185 61.4906C160.605 59.6206 162.585 58.3606 162.325 56.4906C162.105 54.9106 162.275 53.2806 162.275 51.8506C163.095 51.0306 163.735 50.3906 164.305 49.8206C164.945 47.9506 163.515 45.7306 165.525 44.2406C165.845 42.9106 165.135 41.5206 166.225 40.1506C167.235 38.8706 166.455 37.0306 166.645 35.4506C166.745 34.6006 166.165 33.5306 167.075 32.9306C168.385 32.0606 167.155 30.5206 168.185 29.5506C169.385 28.4206 168.735 26.8406 168.775 25.4706C168.875 22.0206 168.825 18.5706 168.785 15.1306C168.785 14.5706 168.405 14.1406 167.715 14.2706L167.635 14.2006ZM175.785 227.881C174.535 227.881 173.265 227.931 172.005 227.861C171.335 227.821 170.485 228.271 170.005 227.491C169.375 226.481 168.135 226.821 167.305 226.031C166.125 224.901 165.705 223.331 164.645 222.221C163.725 221.261 163.085 220.361 163.265 218.961C163.475 217.311 162.655 216.331 161.065 215.861C160.455 215.681 159.935 215.221 159.605 215.031C158.235 216.281 156.905 217.501 155.705 218.591V221.921C156.695 223.001 157.595 223.941 158.185 225.331C158.755 226.661 159.335 228.211 160.725 229.201C161.885 230.031 162.805 231.211 163.405 231.811C164.655 232.591 165.575 231.821 166.415 232.581C167.025 233.121 167.945 233.291 168.615 233.781C169.315 234.301 169.875 235.001 170.295 235.421H183.555C184.735 234.221 185.685 232.731 187.665 233.321C188.525 232.141 190.255 232.411 191.135 231.151C191.745 230.271 192.665 229.611 193.405 228.821C194.105 228.061 194.885 227.491 195.065 226.221C195.185 225.381 196.455 224.701 197.015 224.131V216.301C196.215 215.831 195.945 214.821 194.845 214.771C193.265 214.701 192.545 215.071 191.645 216.901C191.045 218.121 190.055 219.251 190.545 220.791C189.845 221.371 189.265 222.021 189.395 223.031C187.855 224.571 186.405 226.201 184.735 227.591C184.165 228.061 182.795 227.591 182.275 228.081C181.085 229.211 180.345 229.161 179.155 228.051C178.375 227.321 177.565 228.241 176.955 228.941C176.565 228.581 176.185 228.231 175.795 227.881H175.785ZM211.795 209.351C214.695 209.351 217.595 209.371 220.495 209.331C220.985 209.331 221.685 209.271 221.935 208.951C223.035 207.571 225.245 208.951 226.115 207.171C227.945 207.581 229.515 206.791 231.105 206.081C233.465 206.671 235.315 204.161 237.725 204.991C238.685 204.161 239.775 203.891 241.075 203.801C241.765 203.751 242.395 202.701 243.045 202.091C243.305 201.841 243.565 201.581 243.815 201.321C245.505 199.611 245.645 198.511 243.945 196.881C243.105 196.081 243.055 195.031 242.375 194.081H238.155C236.885 194.081 235.515 194.391 234.375 194.011C232.645 193.441 231.925 195.321 230.455 195.191C229.235 195.081 227.905 194.901 227.095 196.231C225.845 196.201 224.725 196.241 223.675 197.271C223.215 197.721 221.895 197.511 221.035 197.311C219.315 196.911 218.285 198.951 216.585 198.431C215.505 199.261 214.025 199.351 213.055 200.421C212.595 200.931 212.015 201.521 211.405 201.641C210.565 201.811 210.225 202.061 210.145 202.941C209.925 205.291 210.525 207.391 211.805 209.331L211.795 209.351ZM110.935 200.011C111.675 200.821 112.395 201.621 113.105 202.411C112.835 204.521 115.455 203.571 115.835 204.981C116.745 204.981 117.675 204.841 118.545 205.021C119.345 205.191 120.095 206.061 120.815 206.001C122.865 205.841 124.485 206.751 126.135 207.661C126.435 207.821 126.685 208.201 126.985 208.221C128.065 208.291 129.165 208.331 130.245 208.221C131.565 208.091 132.125 209.811 133.615 209.381C134.625 209.091 135.775 209.201 136.455 210.331C136.845 210.021 137.245 209.711 137.645 209.401C137.995 209.711 138.375 210.061 138.625 210.271C141.155 209.191 143.125 207.481 144.735 205.361C144.065 202.951 142.845 200.931 140.725 199.521C139.165 199.481 137.685 199.631 136.225 198.511C135.075 197.631 133.535 196.981 131.835 197.311C131.185 197.431 130.115 197.441 129.825 197.051C128.445 195.211 125.725 197.401 124.585 195.181C123.685 195.181 122.775 195.241 121.875 195.141C120.835 195.031 119.555 195.701 118.795 194.771C117.695 193.431 117.445 195.111 116.795 195.141C115.355 195.201 113.925 195.161 112.565 195.161C111.965 195.761 111.455 196.271 110.935 196.791V200.001V200.011ZM183.455 198.441C180.135 198.441 176.885 198.421 173.645 198.461C173.155 198.461 172.465 198.521 172.205 198.841C171.355 199.871 170.235 199.401 169.235 199.561C168.345 200.451 167.455 201.341 166.545 202.251V206.791C167.965 208.161 169.365 209.881 171.125 211.081C172.155 211.781 173.275 212.711 174.785 212.651C176.945 212.561 179.105 212.631 181.255 212.631C182.185 211.491 182.095 209.501 184.145 209.341C184.445 209.321 184.995 209.011 184.985 208.871C184.845 207.121 186.545 206.621 187.235 205.501V202.461C185.885 201.031 184.655 199.731 183.455 198.471V198.441Z" fill="#FEEFC2"/>
<path d="M109.845 344.521C109.715 344.831 109.665 345.331 109.445 345.411C108.965 345.591 108.415 345.601 107.895 345.601C104.085 345.611 100.265 345.671 96.4652 345.571C94.9452 345.531 93.1852 346.241 91.9652 344.621C90.8952 344.581 89.7952 344.651 88.7452 344.491C86.5252 344.141 84.1152 345.481 82.0352 343.541C81.5452 343.081 80.2853 343.501 79.3953 343.411C78.3553 343.301 77.1152 343.921 76.3052 343.061C75.5452 342.261 74.7352 342.251 73.8652 342.351C72.6952 342.481 71.7752 342.151 71.0452 341.241C69.2752 342.051 68.1952 340.221 66.6052 340.051C65.1652 339.901 63.6152 339.331 62.5452 338.091C60.8552 338.501 59.6953 337.011 58.1453 336.861C57.3353 336.781 54.4153 335.401 54.0153 335.011C52.7653 333.801 51.6652 332.391 49.8452 331.921C49.2052 331.751 48.3852 331.591 48.0252 331.131C46.9952 329.831 45.2852 329.531 44.2452 328.421C43.2352 327.341 41.6852 327.291 40.7952 326.161C38.5752 326.341 37.2852 324.871 35.9052 323.491C35.0652 322.651 34.4552 321.341 32.9052 321.551C32.2652 320.551 32.0353 319.341 31.0153 318.501C29.9653 317.631 30.0253 315.961 28.7053 315.101C27.6653 314.421 26.8752 313.351 25.9852 312.451C24.9552 311.421 23.6652 310.551 22.9852 309.331C22.3952 308.261 21.9752 307.141 20.9852 306.361C20.8452 306.251 20.6052 306.091 20.6152 305.981C20.8852 303.461 18.8852 302.301 17.5552 300.691C16.9352 299.941 16.4952 298.911 16.1552 298.021C14.3752 293.361 14.4652 293.331 12.1252 290.971C11.9952 290.841 11.8652 290.711 11.7252 290.571V286.291C10.9752 285.461 10.2552 284.671 9.53522 283.881C10.1952 281.991 8.02522 280.751 8.41522 278.881C8.59522 278.031 8.44525 277.121 8.44525 276.391C7.64525 275.591 6.99522 274.941 6.35522 274.301C6.87522 272.581 5.15523 271.471 5.17523 269.891C5.17523 268.981 5.24522 268.071 5.16522 267.171C5.05522 265.981 5.63526 264.681 4.45526 263.651C3.48526 262.801 4.56523 261.311 3.36523 260.251C2.44523 259.441 3.34524 257.471 1.93524 256.521C1.76524 256.411 1.98526 255.811 1.89526 255.471C1.54526 254.191 3.97522 253.451 2.72522 252.251C1.56522 251.131 2.05522 249.931 1.91522 248.751C1.75522 247.391 2.42523 245.811 0.865234 244.831C2.07523 243.981 1.96523 242.741 1.92523 241.491C1.88523 240.041 1.91522 238.591 1.91522 237.221C1.54522 236.771 1.22521 236.381 0.905212 235.981C3.02521 234.791 0.825256 232.021 2.82526 230.791C2.88526 228.821 3.03522 226.841 2.97522 224.871C2.90522 222.741 4.86521 221.021 4.09521 218.791C5.54521 217.571 5.14524 215.901 5.18524 214.341C6.69524 213.361 5.9952 211.771 6.33521 210.451C6.66521 209.151 7.43523 208.041 7.54523 206.571C7.61523 205.531 9.00525 204.621 9.25525 203.521C9.40525 202.861 8.33523 202.131 9.42523 201.161C10.0552 200.591 9.10525 199.071 10.2552 198.271C10.9952 197.761 10.3652 196.451 11.4152 196.041C11.9652 194.261 13.2752 192.691 12.8452 190.631C12.7452 190.131 12.8753 189.581 12.8953 189.111C14.0353 187.911 15.5952 187.021 15.0352 184.991C14.9852 184.791 15.4553 184.471 15.6353 184.171C16.2453 183.141 16.4452 181.891 17.5552 181.141C18.5952 180.431 18.3052 178.841 19.3652 178.091C19.1652 176.741 20.3752 176.291 21.0452 175.531C21.8852 174.581 22.8352 173.731 23.7252 172.841V170.961C25.2752 168.781 26.7953 166.871 28.0153 164.791C28.3553 164.201 28.6752 163.611 29.1152 163.081C29.8552 162.187 30.2419 161.077 30.2752 159.751C30.7852 159.241 31.3052 158.721 31.8152 158.211C33.7452 156.281 35.6652 154.361 37.5952 152.431C37.8852 149.791 41.0853 149.041 41.5052 146.411C41.5952 145.831 42.4752 145.371 42.9852 144.861C46.3252 141.521 49.6852 138.211 52.9752 134.831C53.9752 133.811 55.0752 133.091 56.3752 132.501C57.8852 131.821 59.7952 131.411 59.7852 129.131C61.0752 127.391 62.9152 126.261 64.8052 125.461C66.9352 124.571 68.9352 123.631 70.3552 121.801C71.6052 120.201 73.4453 119.681 75.1353 118.851C76.1053 118.371 76.9552 117.821 77.1652 116.641C77.2252 116.321 77.4552 115.741 77.5452 115.761C79.6052 116.001 79.9752 113.081 82.0352 113.391C83.3252 112.111 84.7952 110.971 85.8352 109.521C86.8552 108.111 88.6652 108.121 89.6752 106.861C90.7452 107.111 91.3953 106.421 91.8953 105.691C92.7553 104.431 94.0352 104.631 95.1052 104.701C96.6652 103.141 98.0752 101.731 99.4952 100.321C99.8752 99.9406 100.225 99.3506 100.675 99.2506C104.645 98.4406 106.565 94.9706 109.465 92.6906C109.885 92.3606 110.835 92.6406 111.525 92.6406C112.965 91.2006 114.375 89.7906 115.855 88.3106C116.315 88.3106 116.855 88.2706 117.385 88.3206C118.015 88.3806 118.545 88.0906 118.545 87.5506C118.535 86.3106 119.225 86.3306 120.165 86.0306C121.085 85.7306 121.685 84.5206 122.525 83.8506C123.455 83.1206 124.675 82.6906 125.475 81.8606C126.265 81.0506 127.305 80.9006 128.115 80.3206C129.135 79.5906 129.985 78.6006 130.825 77.6506C131.615 76.7606 132.685 76.1606 132.875 74.6606C132.975 73.8306 134.665 74.0306 135.425 73.1406C136.955 71.3606 138.705 69.7606 140.365 68.0906C140.415 65.5206 143.795 65.0206 143.855 62.4606C145.135 61.1806 146.425 59.8906 147.705 58.6106C148.475 57.6306 147.355 56.0606 148.845 55.2506C149.805 54.7306 149.925 53.5206 150.475 52.7006C151.345 51.4306 151.625 49.7706 153.065 48.8306C153.915 48.2806 154.535 47.4606 154.735 46.2506C154.825 45.6806 155.615 44.6506 156.715 44.6906C156.715 45.0506 156.815 45.4606 156.695 45.7706C156.395 46.5506 155.835 47.2606 155.665 48.0606C155.485 48.9206 155.625 49.8506 155.625 51.1806C154.945 51.6406 154.055 52.2606 153.445 52.6806C153.445 53.8806 153.665 54.7006 153.405 55.3106C152.645 57.1106 152.085 58.9006 152.365 60.8706C152.485 61.7506 151.455 62.0606 151.395 62.6306C151.285 63.6206 150.525 64.1606 150.265 64.9006C149.925 65.8706 150.185 67.0506 150.185 68.0406C149.425 68.9006 148.715 69.7006 148.005 70.5106C148.705 72.2606 146.685 73.3206 146.885 74.9706C146.965 75.6506 147.035 76.7006 146.655 76.9906C145.695 77.7206 146.185 79.1806 145.155 79.6606C143.655 80.3606 143.875 82.1106 142.885 83.1206C142.605 83.4106 142.485 84.3906 142.675 84.5106C144.205 85.5906 143.065 86.2506 142.315 86.8406C141.805 87.2406 140.575 87.3506 140.565 87.6406C140.455 89.3206 139.025 89.9506 138.185 91.0706V94.2906C137.525 94.9506 136.765 95.5106 136.275 96.2506C135.815 96.9406 135.715 97.7906 135.165 98.5306C134.725 99.1206 135.035 100.251 134.905 101.131C134.835 101.611 134.625 102.171 134.295 102.491C133.495 103.271 134.005 104.201 133.685 105.621C133.525 105.741 132.895 106.121 132.395 106.631C130.445 108.601 128.675 112.381 128.415 115.321C128.345 116.171 127.905 116.661 127.355 117.061C126.675 117.541 125.865 117.851 125.105 118.231C125.105 119.141 125.045 120.061 125.125 120.961C125.205 121.871 124.245 122.051 124.035 122.701C123.775 123.521 124.395 124.491 123.585 125.241C122.915 125.861 122.275 126.501 121.655 127.171C120.575 128.321 120.045 129.751 119.665 131.251C119.575 131.591 119.805 132.081 119.625 132.321C118.235 134.261 117.455 136.521 116.365 138.601C116.045 139.211 115.565 139.751 115.095 140.251C114.595 140.781 113.935 141.281 114.225 142.061C114.785 143.541 112.745 144.041 113.095 145.441C113.495 147.011 111.965 147.521 111.245 148.481C111.145 148.621 110.975 148.741 110.935 148.901C110.475 150.571 109.825 152.111 108.555 153.371C107.195 154.721 106.825 156.651 105.885 158.261C104.855 160.011 104.405 162.091 102.785 163.531C102.445 163.831 102.165 164.481 102.245 164.901C102.645 167.031 101.105 168.441 100.475 170.181C99.5652 172.711 97.5353 174.801 97.7653 177.821C97.8453 178.871 96.3952 179.801 96.7252 181.191C96.7852 181.421 96.4452 181.811 96.2152 182.041C95.4452 182.781 95.4352 183.891 94.7752 184.751C94.1352 185.591 94.9052 187.251 93.5252 188.011C93.5252 189.251 93.6853 190.551 92.3953 191.361V195.671C91.2853 196.851 89.9152 197.711 90.1252 199.731C90.2152 200.591 89.0652 201.331 89.0352 202.541C89.0052 203.631 88.2252 204.711 87.7352 205.781C87.5252 206.241 87.0452 206.631 86.9852 207.091C86.8652 207.981 87.3052 209.191 86.8652 209.751C86.1352 210.671 85.8752 211.501 85.7952 212.631C85.7452 213.411 84.7552 214.191 84.8352 214.901C85.0452 216.781 84.0452 218.231 83.4752 219.831C83.3052 220.301 82.6652 220.651 82.6152 221.101C82.4952 222.361 82.4252 223.661 82.6152 224.911C82.8452 226.451 81.0553 227.231 81.4453 228.841C81.6953 229.871 81.4952 231.011 81.4952 232.101C81.4952 233.011 81.3252 233.961 81.5352 234.821C81.8552 236.121 80.4253 236.571 80.3953 237.651C80.3553 239.041 80.8252 240.581 79.3052 241.561C79.4752 242.401 78.9152 243.361 79.7352 244.111C80.0852 244.431 80.5452 244.711 79.9252 245.291C79.5852 245.601 79.3752 246.181 79.3352 246.661C79.1952 248.381 79.6752 250.191 78.2852 251.711C78.1052 251.901 78.7852 252.881 79.1252 253.611C78.9352 253.821 78.5852 254.201 78.2252 254.611C78.2252 256.931 78.2052 259.291 78.2252 261.651C78.2452 263.041 77.8252 264.541 79.2752 265.611C79.4152 265.711 79.1452 266.651 78.8452 266.981C78.3052 267.571 77.8553 268.351 78.3953 268.821C79.3853 269.681 79.3253 270.671 79.3253 271.741C79.3153 274.101 79.2652 276.471 79.3352 278.821C79.4052 281.071 78.7452 283.461 80.4052 285.451C80.4052 286.721 80.6452 288.061 80.3452 289.251C79.9552 290.761 81.8052 291.231 81.5352 292.641C81.3352 293.691 81.4952 294.811 81.4952 295.941C82.2152 296.701 82.9552 297.471 83.6752 298.231C83.6752 299.361 83.8353 300.481 83.6353 301.531C83.3853 302.811 84.8552 303.181 84.8152 304.361C84.7852 305.371 84.2852 306.591 85.3052 307.401C86.3552 308.241 85.3052 309.671 86.1052 310.321C87.0352 311.071 86.7353 312.291 87.5753 313.031C88.3253 313.701 88.0553 315.091 89.1353 315.641C89.0053 316.921 89.0552 318.141 90.2252 319.001C89.9952 320.311 90.6252 321.291 91.2352 322.411C91.6852 323.231 91.0452 324.571 92.2252 325.261C92.1752 326.711 93.3653 327.361 94.1453 328.281C94.8053 329.061 94.5953 330.371 95.6953 330.901C96.7952 331.441 96.4753 332.861 97.2552 333.501C98.3053 334.361 97.4753 335.581 98.0153 336.471C98.6353 337.501 100.105 337.861 100.105 339.451C100.105 339.981 100.975 340.521 101.475 341.031C102.625 342.201 103.785 343.351 104.945 344.501C106.585 344.501 108.215 344.501 109.855 344.501L109.845 344.521Z" fill="#FEEFC2"/>
<path d="M109.845 344.521C108.205 344.521 106.575 344.521 104.935 344.521C103.775 343.361 102.615 342.211 101.465 341.051C100.965 340.541 100.105 340.001 100.095 339.471C100.095 337.881 98.6253 337.511 98.0053 336.491C97.4653 335.601 98.2952 334.381 97.2453 333.521C96.4653 332.871 96.7853 331.451 95.6853 330.921C94.5853 330.391 94.7953 329.081 94.1353 328.301C93.3553 327.371 92.1752 326.721 92.2152 325.281C91.0352 324.591 91.6652 323.261 91.2252 322.431C90.6252 321.311 89.9952 320.331 90.2152 319.021C89.0452 318.161 88.9953 316.941 89.1253 315.661C88.0453 315.111 88.3153 313.721 87.5653 313.051C86.7253 312.301 87.0252 311.091 86.0952 310.341C85.3052 309.701 86.3552 308.261 85.2952 307.421C84.2852 306.611 84.7752 305.391 84.8052 304.381C84.8452 303.211 83.3753 302.831 83.6253 301.551C83.8353 300.501 83.6652 299.381 83.6652 298.251C82.9452 297.491 82.2052 296.721 81.4852 295.961C81.4852 294.831 81.3252 293.711 81.5252 292.661C81.7952 291.251 79.9452 290.791 80.3352 289.271C80.6452 288.081 80.3953 286.741 80.3953 285.471C78.7253 283.471 79.3953 281.091 79.3253 278.841C79.2553 276.481 79.3053 274.121 79.3153 271.761C79.3153 270.691 79.3753 269.701 78.3853 268.841C77.8453 268.371 78.3052 267.591 78.8352 267.001C79.1452 266.661 79.4053 265.731 79.2653 265.631C77.8253 264.561 78.2352 263.061 78.2152 261.671C78.1852 259.311 78.2152 256.951 78.2152 254.631C78.5752 254.231 78.9252 253.851 79.1152 253.631C78.7752 252.901 78.1052 251.921 78.2752 251.731C79.6652 250.211 79.1853 248.401 79.3253 246.681C79.3653 246.201 79.5752 245.631 79.9152 245.311C80.5452 244.731 80.0752 244.451 79.7252 244.131C78.9052 243.381 79.4652 242.421 79.2952 241.581C80.8052 240.601 80.3453 239.061 80.3853 237.671C80.4153 236.591 81.8352 236.141 81.5252 234.841C81.3152 233.981 81.4852 233.031 81.4852 232.121C81.4852 231.031 81.6853 229.891 81.4353 228.861C81.0553 227.261 82.8352 226.471 82.6052 224.931C82.4152 223.691 82.4852 222.381 82.6052 221.121C82.6452 220.681 83.2952 220.321 83.4652 219.851C84.0352 218.251 85.0353 216.801 84.8253 214.921C84.7453 214.211 85.7252 213.431 85.7852 212.651C85.8652 211.531 86.1252 210.691 86.8552 209.771C87.2952 209.211 86.8552 208.011 86.9752 207.111C87.0352 206.651 87.5152 206.261 87.7252 205.801C88.2152 204.731 88.9952 203.651 89.0252 202.561C89.0552 201.351 90.2152 200.611 90.1152 199.751C89.8952 197.741 91.2753 196.871 92.3853 195.691V191.381C93.6753 190.571 93.5153 189.271 93.5153 188.031C94.8953 187.261 94.1253 185.611 94.7653 184.771C95.4253 183.901 95.4353 182.791 96.2053 182.061C96.4453 181.831 96.7752 181.441 96.7152 181.211C96.3852 179.831 97.8253 178.891 97.7553 177.841C97.5353 174.821 99.5552 172.731 100.465 170.201C101.095 168.461 102.635 167.041 102.235 164.921C102.155 164.501 102.445 163.851 102.775 163.551C104.385 162.111 104.835 160.031 105.875 158.281C106.825 156.671 107.185 154.741 108.545 153.391C109.815 152.131 110.465 150.591 110.925 148.921C110.965 148.761 111.125 148.641 111.235 148.501C111.955 147.541 113.475 147.041 113.085 145.461C112.735 144.061 114.775 143.561 114.215 142.081C113.915 141.301 114.585 140.801 115.085 140.271C115.565 139.771 116.045 139.231 116.355 138.621C117.455 136.531 118.225 134.281 119.615 132.341C119.785 132.101 119.565 131.611 119.655 131.271C120.035 129.781 120.565 128.341 121.645 127.191C122.265 126.531 122.905 125.881 123.575 125.261C124.385 124.511 123.765 123.531 124.025 122.721C124.225 122.081 125.185 121.891 125.115 120.981C125.035 120.081 125.095 119.171 125.095 118.251C125.855 117.861 126.665 117.561 127.345 117.081C127.895 116.691 128.335 116.191 128.405 115.341C128.655 112.401 130.435 108.621 132.385 106.651C132.885 106.141 133.515 105.761 133.675 105.641C133.995 104.221 133.485 103.291 134.285 102.511C134.615 102.181 134.825 101.631 134.895 101.151C135.025 100.281 134.715 99.1507 135.155 98.5508C135.705 97.8108 135.815 96.9607 136.265 96.2707C136.755 95.5307 137.515 94.9607 138.175 94.3107V91.0907C139.015 89.9807 140.445 89.3407 140.555 87.6607C140.575 87.3607 141.805 87.2607 142.305 86.8607C143.055 86.2708 144.195 85.6007 142.665 84.5307C142.485 84.4007 142.595 83.4207 142.875 83.1407C143.865 82.1307 143.645 80.3907 145.145 79.6807C146.175 79.2007 145.685 77.7307 146.645 77.0107C147.025 76.7207 146.965 75.6707 146.875 74.9907C146.675 73.3407 148.695 72.2807 147.995 70.5307C148.705 69.7307 149.415 68.9207 150.175 68.0607C150.175 67.0707 149.915 65.8907 150.255 64.9207C150.515 64.1707 151.275 63.6407 151.385 62.6507C151.445 62.0807 152.475 61.7707 152.355 60.8907C152.075 58.9207 152.635 57.1307 153.395 55.3307C153.655 54.7108 153.435 53.8907 153.435 52.7007C154.045 52.2807 154.935 51.6707 155.615 51.2007C155.615 49.8707 155.475 48.9408 155.655 48.0807C155.825 47.2808 156.385 46.5707 156.685 45.7907C156.805 45.4707 156.705 45.0707 156.705 44.7107C156.765 43.3207 156.295 41.7908 157.795 40.8008C157.385 39.1608 158.435 38.2307 159.335 37.0607C160.445 35.6107 161.095 33.8107 161.995 32.0707C161.775 31.8307 161.045 31.3007 161.125 31.1007C162.519 27.7741 163.229 24.9807 163.255 22.7207C163.255 22.1907 163.305 21.6607 163.325 21.1807C165.655 19.3407 166.235 16.5207 167.615 14.1807C168.305 14.0607 168.675 14.4807 168.685 15.0407C168.725 18.4907 168.765 21.9407 168.675 25.3807C168.635 26.7507 169.285 28.3407 168.085 29.4607C167.045 30.4307 168.285 31.9807 166.975 32.8407C166.065 33.4407 166.645 34.5107 166.545 35.3608C166.355 36.9408 167.135 38.7807 166.125 40.0607C165.035 41.4407 165.745 42.8207 165.425 44.1507C163.415 45.6507 164.835 47.8607 164.205 49.7307C163.635 50.3007 162.995 50.9407 162.175 51.7607C162.175 53.1907 161.995 54.8207 162.225 56.4007C162.495 58.2707 160.505 59.5307 161.085 61.4007C160.375 62.2007 159.655 62.9907 158.945 63.7907C160.165 64.6007 160.355 65.9407 159.835 67.0607C159.495 67.8107 159.095 68.5707 158.705 69.3107C158.075 70.5007 156.395 71.0207 156.685 72.8607C156.875 74.0807 155.245 74.7507 155.545 76.2307C155.675 76.8907 154.745 77.6907 154.575 78.4907C154.395 79.3607 154.535 80.3007 154.535 81.2007C152.695 81.8907 154.045 83.9107 152.995 84.9107C152.095 85.7607 152.325 87.3107 151.075 87.9307C150.145 88.3907 150.455 89.5807 149.885 90.1307C149.115 90.8607 149.115 91.6407 149.055 92.5508C149.025 93.0107 148.685 93.5007 148.375 93.8807C147.725 94.6807 146.895 95.2507 146.745 96.5107C146.665 97.2207 145.225 97.7008 144.995 98.4707C144.605 99.7607 144.675 101.201 143.645 102.271C144.025 103.991 142.645 105.131 142.155 106.561C141.955 107.171 141.315 107.661 141.465 108.451C141.615 109.241 141.375 109.881 140.695 110.301C139.405 111.091 139.425 112.721 138.445 113.751C138.065 114.151 138.115 115.131 138.235 115.791C138.515 117.361 137.105 118.221 136.785 119.581C136.485 120.831 134.755 120.721 133.845 121.521C133.845 122.251 133.845 122.971 133.845 123.701C133.555 123.881 133.295 124.141 132.985 124.241C131.255 124.791 131.215 125.001 132.535 126.771C132.445 126.991 132.415 127.331 132.235 127.471C130.565 128.821 130.195 131.171 128.415 132.461C128.245 132.581 128.395 133.151 128.395 133.521C128.395 133.881 128.525 134.331 128.375 134.591C127.755 135.631 126.495 136.071 126.125 137.491C125.845 138.571 124.395 139.361 124.125 140.441C123.765 141.861 122.305 142.241 121.925 143.351C121.595 144.321 121.855 145.501 121.855 146.591C120.245 148.001 120.295 150.391 118.775 151.841C117.985 152.601 117.205 153.311 117.485 154.581C117.675 155.441 116.915 155.811 116.475 156.331C115.565 157.411 115.125 159.351 114.125 161.341C113.215 163.141 113.615 165.621 111.475 166.781C110.105 167.521 109.965 169.071 109.175 170.191C108.365 171.331 108.955 172.631 108.785 173.841C106.495 176.261 106.035 177.101 105.555 180.661C105.445 181.471 104.695 181.901 104.635 182.451C104.485 183.861 103.005 184.691 103.285 186.301C103.495 187.471 102.095 188.221 102.115 189.651C102.135 190.871 100.735 192.021 101.105 193.531C99.9952 194.201 100.265 195.351 99.9852 196.341C99.7152 197.281 98.7653 198.021 97.8853 199.141V202.001C97.8853 202.911 98.0252 203.841 97.8452 204.711C97.6752 205.511 97.0853 206.211 96.8153 207.001C96.5953 207.651 96.8253 208.701 96.4353 208.981C95.5553 209.611 95.9552 210.651 95.3452 211.311C95.0152 211.671 94.7353 212.161 94.6253 212.631C94.3053 214.001 95.2553 215.611 94.1353 216.771C93.0353 217.911 93.9653 219.281 93.4553 220.311C92.8153 221.591 92.2753 222.751 92.3853 224.251C92.4853 225.621 90.6452 226.561 91.3352 228.151C89.8752 229.371 90.1052 231.061 90.2952 232.591C90.4852 234.141 89.6553 235.231 89.1953 236.521C88.8053 237.631 89.6053 239.001 88.4353 240.041C88.1253 240.321 88.0853 241.001 88.0753 241.501C88.0353 243.311 88.0552 245.121 88.0552 246.831C87.6852 247.301 87.3752 247.701 87.0552 248.091C88.4352 248.921 88.0152 250.281 88.0452 251.491C88.0752 252.551 88.1852 253.571 87.1752 254.431C86.7952 254.761 86.9652 255.781 86.9652 256.481C86.9552 261.021 87.1752 265.571 86.8552 270.081C86.7252 271.891 88.3552 272.811 88.1052 274.541C87.8552 276.321 88.0253 278.161 88.0653 279.981C88.0753 280.671 87.9952 281.771 88.3552 281.981C89.9352 282.901 88.3252 284.951 89.8552 285.771C90.3452 286.031 90.2752 286.201 89.8552 286.561C88.5152 287.691 89.3652 289.231 89.2152 290.581C90.8052 291.571 90.2553 293.171 90.1853 294.511C90.1153 295.731 90.9852 296.401 91.2752 297.341C91.5752 298.331 91.2752 299.501 91.5852 300.491C91.7752 301.081 92.5952 301.491 92.4052 302.321C92.0652 303.831 93.2652 304.991 93.3652 306.241C93.4652 307.601 94.4853 308.411 94.5653 309.591C94.6453 310.681 96.1553 311.131 95.6853 312.401C95.2353 313.641 96.8052 314.051 96.8352 315.211C96.8552 315.981 97.4153 316.781 97.8753 317.471C98.5653 318.511 99.1952 319.511 98.9652 320.841C98.8452 321.551 98.9052 322.251 99.5852 322.761C101.045 323.851 101.365 325.651 102.215 327.121C102.805 328.141 103.045 329.521 103.875 330.201C105.455 331.481 105.495 333.791 107.285 334.821C108.455 335.491 108.505 336.891 109.245 337.801C109.745 338.411 109.625 339.191 110.015 339.661C110.925 340.781 112.035 341.741 113.045 342.761C112.855 343.421 111.845 343.591 112.035 344.471H109.855L109.845 344.521Z" fill="#FFCE7C"/>
<path d="M207.975 53.4501C207.975 54.0001 207.915 54.5501 207.985 55.0801C208.225 56.9501 207.155 59.0801 209.065 60.6201C209.255 62.5001 208.615 64.4401 210.075 66.2301C210.755 67.0601 209.565 68.7201 210.675 69.7601C211.465 70.5001 211.115 71.8601 212.205 72.4001C211.735 74.2601 213.655 75.5201 213.435 77.3501C213.325 78.2501 213.415 79.1601 213.415 80.0701C215.275 80.7801 213.885 82.8101 214.915 83.7901C215.495 84.3501 215.375 85.4001 215.705 85.6001C217.405 86.5901 215.895 88.9101 217.585 89.7801C217.415 91.2501 219.355 92.0001 218.875 93.6201C218.625 94.4701 219.375 94.9401 219.915 95.3401C220.915 96.0801 221.025 97.0201 221.095 98.1601C221.145 98.9401 221.885 99.6501 222.085 100.45C222.265 101.13 221.865 102.03 222.175 102.59C222.825 103.77 223.015 105.22 224.135 106.15C224.995 106.86 225.555 107.63 225.435 108.9C225.295 110.38 226.925 110.78 227.605 111.85V115.06C229.365 115.78 228.105 117.76 229.145 118.78C230.015 119.64 229.925 121.04 231.045 121.83C232.195 122.64 232.425 124.16 232.955 125.37C233.415 126.42 234.625 127.28 234.145 128.71C234.065 128.94 234.315 129.41 234.545 129.6C236.335 131.08 236.735 133.67 238.775 134.94C239.725 135.53 239.365 136.52 239.615 137.32C240.025 138.61 241.075 139.71 240.695 141.23C241.805 141.76 241.435 143.22 242.255 143.83C243.475 144.74 242.165 146.33 243.375 147.22C244.215 147.84 243.845 149.29 244.935 149.83C244.845 150.82 245.445 151.43 246.075 152.09C246.875 152.93 247.955 155.6 248.275 157.16C248.395 157.75 248.655 158.16 249.315 158.07C249.975 157.98 250.555 158.43 250.415 158.87C249.725 160.98 251.605 162.51 251.535 164.43C251.505 165.31 252.045 165.79 252.595 166.16C254.935 167.72 255.225 170.57 256.745 172.65C257.285 173.38 256.995 174.72 257.125 176.36C258.405 177.41 260.075 178.78 261.135 179.66C261.545 181.37 261.165 182.21 261.775 183.09C262.725 184.47 263.375 186.05 264.125 187.55C264.345 188 264.675 188.54 264.595 188.97C264.295 190.5 265.545 191.66 265.595 192.89C265.655 194.42 266.815 195.34 266.945 196.78C267.005 197.44 267.945 198.04 267.955 199.07C267.955 200.43 267.385 201.87 268.725 203.12C269.565 203.91 268.405 205.69 269.925 206.41C269.685 208.55 271.525 210.19 271.285 212.44C271.155 213.67 272.845 214.78 272.275 216.34C273.535 217.17 273.375 218.44 273.385 219.7C273.385 221.25 272.965 222.95 274.455 224.15C274.485 225.59 274.515 227.03 274.545 228.47C275.845 229.45 275.945 230.45 274.615 231.5C274.565 231.54 274.605 231.82 274.675 231.86C276.065 232.75 275.445 234.14 275.515 235.33C275.605 236.78 275.495 238.24 275.545 239.69C275.575 240.74 275.345 242.13 275.915 242.76C276.805 243.77 276.565 244.75 276.615 245.78C276.675 246.87 276.575 247.96 276.665 249.05C276.685 249.33 277.125 249.57 277.375 249.84C278.095 250.62 277.585 251.55 277.685 252.4C276.335 253.22 276.635 254.55 276.635 255.78C276.635 260.5 276.725 265.23 276.595 269.95C276.535 272.18 277.435 274.62 275.545 276.58C275.545 278.22 275.355 279.88 275.595 281.48C275.855 283.21 275.065 284.59 274.385 285.9C273.705 287.22 272.595 288.22 274.415 289.44C274.585 289.56 274.605 290.34 274.435 290.45C273.185 291.33 273.345 292.59 273.355 293.85C273.365 295.42 271.705 296.55 272.165 298.26C270.515 299.03 271.765 300.99 270.625 301.99C269.515 302.97 270.735 304.94 269.075 305.71C269.705 307.76 267.155 309.14 267.915 311.24C267.265 311.87 266.615 312.5 266.005 313.08C265.895 313.47 265.755 313.8 265.735 314.13C265.695 314.85 265.735 315.58 265.715 316.31C265.715 316.48 265.695 316.74 265.595 316.79C263.955 317.58 265.105 319.44 264.105 320.57C263.345 321.42 262.735 322.58 262.525 323.69C262.315 324.75 262.455 325.84 261.365 326.5C261.865 328.41 260.645 329.51 259.435 330.6C257.595 332.26 257.415 335.27 254.815 335.92V338.6C251.825 340.59 250.955 344.51 247.635 346.55H237.465C238.205 345.28 238.335 343.94 239.365 343.02C240.175 342.3 240.825 341.36 241.705 340.75C242.695 340.06 242.615 338.9 243.235 338.09C243.565 337.66 243.965 337.02 244.385 336.97C247.075 336.65 247.325 334.85 247.175 332.72C247.115 331.9 247.435 331.55 248.335 331.33C249.115 331.15 249.765 330.38 250.475 329.86C250.075 329.4 249.725 329.02 249.385 328.63C250.645 327.62 250.775 325.91 251.995 324.75C252.905 323.88 253.265 322.34 254.385 321.43C254.615 321.24 254.845 320.78 254.775 320.53C254.305 318.96 256.195 318.1 255.895 316.61C255.595 315.13 257.775 314.35 257.015 312.69C256.935 312.51 257.285 312.1 257.485 311.82C258.945 309.72 259.525 307.42 259.045 304.64C259.825 304.04 260.685 303.38 261.425 302.81C260.905 300.99 262.055 299.9 262.375 298.6C262.695 297.28 262.155 295.73 263.525 294.71V290.52C264.285 289.76 264.935 289.11 265.705 288.34C265.705 287.58 265.625 286.68 265.725 285.8C265.915 284.1 265.025 282.2 266.695 280.73C266.975 280.48 266.755 279.7 266.805 279.16C266.945 277.39 266.165 275.36 267.195 273.9C268.435 272.15 267.575 270.42 267.885 268.71C269.905 267.74 267.655 266.78 267.865 265.79C268.065 264.87 267.605 264.17 267.065 263.39C266.685 262.83 268.145 262.27 267.905 261.25C267.565 259.76 268.585 257.95 266.855 256.78C268.435 255.59 267.565 253.83 267.935 252.36C268.315 250.86 266.265 250.49 266.735 248.97C267.035 247.97 266.795 246.81 266.795 245.72C266.795 244.45 266.865 243.17 266.755 241.91C266.715 241.46 266.225 241.05 265.955 240.62C265.505 239.92 265.585 239.28 266.235 238.77C266.775 238.34 266.665 238.02 266.215 237.6C265.235 236.71 266.615 236.59 266.735 236.01C266.415 235.66 266.065 235.28 265.715 234.89C265.715 232.9 265.505 230.87 265.785 228.92C266.005 227.44 264.665 226.77 264.625 225.55C264.585 224.29 264.565 223.03 264.545 221.77C262.745 220.66 263.945 218.77 263.385 217.34C261.605 216.51 263.245 214.08 261.475 213.2C261.305 213.12 261.365 212.54 261.355 212.19C261.315 210.96 261.655 209.63 260.305 208.81C260.295 207.73 260.275 206.64 260.265 205.56C258.415 204.86 259.795 202.83 258.745 201.84C258.145 201.28 257.865 200.62 258.105 199.93C258.665 198.32 256.975 197.33 257.055 196.02C257.155 194.44 255.965 193.89 255.315 192.88C254.195 191.12 253.185 189.25 253.795 187.12C252.755 185.8 251.085 185.02 251.475 183C251.545 182.64 251.025 182.05 250.645 181.75C248.765 180.29 248.935 177.61 247.195 176.08C247.705 173.96 246.155 172.85 244.995 171.66V168.63C244.295 167.29 242.755 166.52 241.765 165.02V163.07C241.025 162.29 240.305 161.52 239.615 160.79C239.745 160.2 240.765 160.26 240.205 159.15C239.065 156.92 237.205 154.93 237.375 152.16C235.735 149.98 235.035 147.29 233.565 145.03C232.905 144.02 231.805 143.44 231.835 141.88C231.855 140.81 231.225 139.49 230.445 138.72C229.625 137.9 229.865 136.77 229.035 135.96C228.255 135.19 227.705 133.89 227.655 132.79C227.595 131.54 227.085 130.79 226.275 130.06C226.005 129.82 225.755 129.55 225.445 129.23V126.19C224.805 124.82 222.965 124.38 223.185 122.62C222.285 121.58 220.895 120.86 220.875 119.22C220.055 118.65 219.975 117.83 219.875 116.89C219.795 116.1 218.815 115.31 218.915 114.62C219.195 112.6 217.635 111.81 216.575 110.5C217.195 108.36 215.995 106.59 215.125 104.7C214.555 103.48 213.375 102.4 213.465 101.06C213.565 99.5201 211.815 98.7301 212.275 97.1401C212.595 96.0301 210.795 95.6101 211.195 94.3201C211.615 92.9701 210.405 92.4101 209.675 91.7001C209.085 91.1301 209.125 90.4801 208.995 89.7801C208.695 88.1001 207.485 86.6201 207.935 84.7801C207.235 83.7701 206.865 82.7201 206.735 81.4301C206.645 80.5501 205.515 79.8001 205.745 78.6001C205.965 77.4601 204.195 77.0501 204.665 75.7801C203.605 75.2201 203.855 73.8501 203.115 73.1701C202.265 72.3801 202.935 72.0901 203.345 71.5801C203.535 71.3401 203.675 70.7501 203.545 70.6201C202.055 69.1601 202.495 67.3301 202.495 65.5901C202.495 64.3301 200.935 63.6801 201.355 62.2201C201.665 61.1501 201.405 60.0701 200.315 59.4101C201.035 57.3501 198.535 55.9701 199.185 53.8601C199.625 52.4201 197.515 51.6801 198.045 49.9401C198.445 48.6101 198.125 47.0601 198.125 45.6001C196.555 43.7901 197.125 41.5901 197.035 39.5101C196.995 38.4401 197.005 37.4801 197.915 36.5601C198.325 36.1401 198.105 34.8601 197.835 34.0801C196.985 31.6401 196.735 28.9601 197.365 26.3701C197.375 26.3201 197.705 26.2701 197.725 26.3001C197.885 26.6001 197.995 26.9101 198.125 27.2301C198.152 28.8634 198.652 30.6367 199.625 32.5501C199.855 33.0001 200.185 33.4201 200.285 33.8901C200.515 35.0501 199.905 36.3101 201.095 37.3601C201.985 38.1401 200.775 39.8601 202.235 40.6801C202.505 40.8301 202.435 41.6401 202.485 42.1601C202.555 42.8601 202.395 43.6501 202.665 44.2401C203.155 45.3001 203.785 46.3401 204.555 47.2201C205.275 48.0501 205.995 48.7301 205.805 49.9801C205.745 50.3901 206.175 50.8901 206.425 51.3201C206.865 52.0601 207.985 52.3001 207.945 53.3901L207.975 53.4501Z" fill="#FFCE7C"/>
<path d="M175.785 227.87C176.175 228.23 176.555 228.58 176.945 228.93C177.555 228.23 178.365 227.3 179.145 228.04C180.335 229.16 181.065 229.2 182.265 228.07C182.775 227.58 184.155 228.05 184.725 227.58C186.385 226.2 187.845 224.56 189.385 223.02C189.255 222.01 189.835 221.36 190.535 220.78C190.045 219.24 191.035 218.11 191.635 216.89C192.535 215.07 193.255 214.7 194.835 214.76C195.945 214.81 196.205 215.82 197.005 216.29V224.12C196.435 224.69 195.175 225.36 195.055 226.21C194.875 227.48 194.095 228.06 193.395 228.81C192.655 229.61 191.735 230.26 191.125 231.14C190.245 232.4 188.515 232.13 187.655 233.31C185.675 232.73 184.725 234.21 183.545 235.41H170.285C169.865 234.99 169.305 234.29 168.605 233.77C167.935 233.28 167.015 233.11 166.405 232.57C165.555 231.81 164.635 232.58 163.395 231.8C162.795 231.2 161.885 230.02 160.715 229.19C159.325 228.2 158.745 226.66 158.175 225.32C157.585 223.93 156.685 222.99 155.695 221.91V218.58C156.895 217.48 158.225 216.27 159.595 215.02C159.915 215.21 160.445 215.67 161.055 215.85C162.655 216.32 163.465 217.3 163.255 218.95C163.075 220.35 163.715 221.25 164.635 222.21C165.695 223.31 166.115 224.88 167.295 226.02C168.125 226.82 169.365 226.48 169.995 227.48C170.475 228.26 171.325 227.81 171.995 227.85C173.255 227.92 174.535 227.87 175.775 227.87H175.785Z" fill="#28200E"/>
<path d="M211.795 209.34C210.515 207.4 209.915 205.3 210.135 202.95C210.215 202.07 210.555 201.82 211.395 201.65C212.005 201.52 212.585 200.93 213.045 200.43C214.015 199.36 215.495 199.27 216.575 198.44C218.275 198.95 219.305 196.92 221.025 197.32C221.885 197.52 223.195 197.73 223.665 197.28C224.715 196.25 225.835 196.21 227.085 196.24C227.895 194.9 229.225 195.09 230.445 195.2C231.915 195.33 232.645 193.45 234.365 194.02C235.505 194.4 236.875 194.09 238.145 194.09H242.365C243.045 195.04 243.095 196.09 243.935 196.89C245.635 198.51 245.495 199.62 243.805 201.33C243.555 201.59 243.295 201.85 243.035 202.1C242.385 202.71 241.755 203.77 241.065 203.81C239.765 203.89 238.685 204.16 237.715 205C235.315 204.17 233.465 206.68 231.095 206.09C229.505 206.8 227.935 207.59 226.105 207.18C225.235 208.96 223.025 207.59 221.925 208.96C221.675 209.28 220.975 209.33 220.485 209.34C217.585 209.37 214.685 209.36 211.785 209.36L211.795 209.34Z" fill="#271F0D"/>
<path d="M110.935 200.011V196.801C111.455 196.281 111.965 195.771 112.565 195.171C113.915 195.171 115.355 195.211 116.795 195.151C117.445 195.121 117.705 193.451 118.795 194.781C119.555 195.711 120.835 195.041 121.875 195.151C122.765 195.241 123.675 195.181 124.585 195.191C125.725 197.411 128.455 195.221 129.825 197.061C130.115 197.441 131.185 197.441 131.835 197.321C133.525 197.001 135.075 197.641 136.225 198.521C137.685 199.641 139.165 199.491 140.725 199.531C142.845 200.941 144.065 202.961 144.735 205.371C143.125 207.491 141.165 209.191 138.625 210.281C138.385 210.061 137.995 209.721 137.645 209.411C137.245 209.721 136.855 210.031 136.455 210.341C135.785 209.211 134.635 209.101 133.615 209.391C132.125 209.821 131.565 208.101 130.245 208.231C129.165 208.341 128.075 208.291 126.985 208.231C126.695 208.211 126.435 207.831 126.135 207.671C124.475 206.761 122.865 205.851 120.815 206.011C120.095 206.071 119.345 205.201 118.545 205.031C117.675 204.851 116.745 204.991 115.835 204.991C115.455 203.571 112.825 204.531 113.105 202.421C112.385 201.631 111.665 200.831 110.935 200.021V200.011Z" fill="#271F0D"/>
<path d="M183.455 198.44C184.655 199.7 185.885 201.01 187.235 202.43V205.47C186.545 206.6 184.845 207.09 184.985 208.84C184.995 208.98 184.455 209.29 184.145 209.31C182.095 209.47 182.185 211.46 181.255 212.6C179.105 212.6 176.945 212.53 174.785 212.62C173.275 212.68 172.145 211.75 171.125 211.05C169.365 209.86 167.965 208.14 166.545 206.76V202.22C167.455 201.31 168.345 200.42 169.235 199.53C170.235 199.37 171.355 199.84 172.205 198.81C172.465 198.5 173.145 198.44 173.645 198.43C176.885 198.4 180.135 198.41 183.455 198.41V198.44Z" fill="#E3A35F"/>
</svg>
