<svg width="98" height="399" viewBox="0 0 98 399" fill="none" xmlns="http://www.w3.org/2000/svg">
<path d="M9.59521 307.08C10.3752 305.77 10.6652 304.16 11.9152 303.14C12.6852 302.51 12.8352 301.76 12.9252 300.81C13.0052 300.02 13.5752 299.28 13.9552 298.53C14.7552 296.96 15.4752 295.37 14.9352 293.51C16.4052 292.32 17.6352 291.06 17.3052 289.01C18.0952 288.47 18.0652 287.41 18.5352 286.82C19.2552 285.93 19.0652 285.64 18.5152 284.78C18.0252 284.01 17.9952 282.78 18.9452 281.86C19.5552 281.28 20.7152 280.85 20.4552 279.8C20.0652 278.21 21.9052 277.38 21.5952 275.88C21.5252 275.53 21.5852 275.16 21.5852 274.79C21.6152 271.98 21.5052 271.91 23.2652 268.96C23.8952 267.91 23.0052 267.87 22.7552 267.3C23.0552 266.96 23.3752 266.59 23.7652 266.14C23.7652 265.68 23.7452 265.14 23.7652 264.6C23.8152 263.21 23.3252 261.67 24.8552 260.69C24.8552 259.24 24.8752 257.79 24.8852 256.34C26.7052 254.98 25.9852 253 25.8652 251.34C25.7452 249.62 27.5352 248.67 27.1052 246.86C26.7752 245.49 26.7852 243.91 27.1252 242.54C27.4052 241.42 28.2052 240.49 28.2252 239.16C28.2352 238.36 29.6252 237.69 28.2152 236.71C27.8652 236.47 28.1452 235.34 28.1352 234.61C30.1652 233.88 28.4052 231.44 30.0052 230.44C30.3052 230.26 30.2752 229.48 30.3052 228.97C30.3452 228.06 30.2152 227.14 30.3352 226.25C30.7152 223.5 29.2452 220.5 31.4052 217.98C31.4052 216.89 31.3352 215.79 31.4252 214.71C31.5352 213.35 30.8152 211.77 32.3452 210.74C32.3152 208.07 32.2952 205.4 32.2552 202.72C32.2552 202.59 32.0152 202.46 31.8852 202.33C30.6052 201.12 31.7752 200.46 32.5052 199.67C32.5052 192.07 32.4852 184.44 32.5252 176.81C32.5252 175.28 31.9152 173.55 33.5552 172.37C31.7652 171 32.6752 169.05 32.5352 167.35C32.4052 165.73 32.4552 164.08 32.5352 162.45C32.5752 161.62 31.9952 161.2 31.7152 160.59C31.5552 160.25 32.2852 159.56 32.4852 158.98C32.5752 158.71 32.4652 158.21 32.2552 158.02C31.2952 157.15 31.0152 156.37 32.0852 155.34C32.3952 155.04 32.6552 154.15 32.4752 153.94C30.7752 152 30.9752 150.16 32.4952 148.24C32.6452 148.05 32.5752 147.4 32.3852 147.24C31.0952 146.19 31.0652 145.22 32.3452 144.15C32.3752 144.12 31.8252 143.4 31.4352 142.83C31.4352 140.87 31.5152 138.69 31.4052 136.53C31.3352 135 32.0852 133.22 30.3452 132.07C30.3452 130.98 30.3452 129.89 30.3452 128.8C31.7852 128.01 30.7152 127.33 30.4352 126.41C30.0752 125.25 30.1252 123.84 30.4052 122.63C30.7552 121.14 29.2052 120.54 29.2352 119.25C29.3052 116.71 29.2752 114.16 29.2452 111.62C29.2252 110.41 29.5852 109.14 28.3352 108.15C27.9152 107.82 29.5552 107.51 28.9352 106.66C28.6352 106.25 28.0852 106.04 28.1452 105.34C28.2252 104.46 28.0252 103.58 28.9052 102.89C29.1952 102.66 29.3352 101.64 29.1552 101.51C28.1152 100.74 28.1352 99.71 28.1652 98.61C28.2052 97.16 28.2252 95.7 28.1652 94.25C28.1052 93.06 28.5952 91.77 27.3252 90.75C26.9452 90.44 27.1052 89.4099 27.0952 88.7099C27.0752 86.7099 27.1052 84.7099 27.0752 82.7199C27.0552 81.66 27.2652 80.4199 26.7952 79.5799C26.3452 78.7799 25.9052 78.12 25.9852 77.17C26.0852 76.07 25.7952 75.21 25.0552 74.25C24.5752 73.63 24.4652 72.14 25.6152 71.38C26.0852 71.08 26.0752 70.8999 25.6052 70.5899C25.3252 70.3999 24.9752 70.09 24.9352 69.8C24.8352 69.09 24.9052 68.35 24.9052 67.62C24.9052 66.17 24.7452 64.6899 24.9452 63.2699C25.1452 61.8699 23.5752 61.3899 23.7252 59.8899C24.0152 57.0099 23.5752 54.06 23.9052 51.19C24.0952 49.54 22.8252 48.6399 22.7252 47.2699C22.6452 46.0599 23.0152 44.81 21.7852 43.81C21.2452 43.37 21.6452 42.49 22.2752 42C22.4152 41.89 22.5352 41.75 22.6652 41.62C20.8052 40.06 21.7952 37.9599 21.6552 36.0899C21.5152 34.2899 21.6152 32.4599 21.6152 30.6499C19.6852 29.0999 20.4952 26.93 20.6452 25.11C20.7852 23.49 19.5852 22.53 19.4852 21.19C19.3452 19.22 19.4452 17.2299 19.4452 15.3899C20.3652 14.5799 20.9152 13.4 22.2452 13.79C23.6552 14.2 24.1152 12.2 25.6252 12.63C26.5852 12.9 27.6952 12.89 28.5752 11.85C28.8952 11.47 29.9152 11.61 30.6152 11.61C33.3452 11.59 36.0652 11.6 38.7952 11.61C39.8652 11.61 40.8252 11.64 41.7452 10.73C42.1652 10.32 43.4852 10.5 44.2152 10.82C45.4552 11.36 46.5552 12.2299 47.8052 13.0299C47.8052 14.8699 47.7152 16.6799 47.8352 18.4599C47.9352 19.9899 47.2352 21.67 48.7452 23.01C49.1152 23.34 48.8852 24.3799 48.8952 25.0899C48.9052 27.8199 48.8552 30.54 48.9152 33.26C48.9452 34.63 48.3852 36.2 49.9552 37.18C49.6952 38.52 50.6552 40.04 49.2652 41.24C48.4652 41.93 49.0452 42.94 48.9252 43.79C50.2652 44.6 49.9852 45.93 49.9852 47.17C49.9852 49.71 49.8152 52.27 50.0352 54.8C50.2552 57.38 48.9752 60.2 51.0752 62.5299C51.0752 64.5299 51.0452 66.5299 51.0952 68.5199C51.1052 69.0899 51.4752 69.5099 52.1652 69.3899V78.6399C52.1652 79.9099 52.1652 81.1799 52.1652 82.4499C52.1652 83.6499 54.5352 84.66 52.4452 86.01C52.3552 87.24 52.2352 88.4699 52.1852 89.7099C52.1552 90.4199 51.9552 91.45 52.3252 91.79C53.8252 93.14 53.1252 94.8099 53.2352 96.3399C53.3552 97.9599 53.1552 99.61 53.2952 101.23C53.4152 102.76 52.6052 104.5 54.1652 105.78C54.2052 105.81 53.9452 106.31 53.7352 106.51C53.1452 107.1 52.9852 107.76 53.5552 108.36C54.7452 109.62 54.5952 110.79 53.6352 112.1C52.9652 113.02 52.9952 114.07 53.6652 115.03C53.8652 115.32 54.2852 115.55 54.3152 115.84C54.4052 116.74 54.2752 117.66 54.3652 118.56C54.4652 119.59 53.8652 120.78 54.8252 121.62C56.0552 122.69 54.1552 122.92 54.3552 123.64C54.4852 124.12 54.7452 124.56 54.9352 125.03C55.0352 125.28 55.2252 125.7 55.1452 125.77C54.1352 126.65 53.9952 127.45 55.0352 128.45C55.3452 128.75 55.4152 129.41 55.4152 129.9C55.4452 133.89 55.4352 137.88 55.4352 141.53C55.8952 142.4 56.4552 142.99 56.4852 143.6C56.5852 146.31 56.5252 149.03 56.5252 151.36C56.7152 152.27 58.0852 152.39 57.1052 153.27C56.5052 153.81 56.3052 154.43 56.7152 155.13C57.3152 156.16 58.1752 157.07 58.5752 158.17C59.0052 159.36 58.8952 160.65 57.6152 161.49C58.8852 162.31 58.7752 163.56 58.6452 164.82C57.0752 165.65 58.3852 166.37 58.6452 167.22C58.8552 167.88 58.7952 168.68 58.6652 169.38C58.4652 170.47 59.7152 170.78 59.7652 171.65C59.8352 172.72 59.9452 173.84 58.7152 174.52C59.4452 175.3 60.1552 176.06 60.8652 176.82C60.8652 178.27 60.8652 179.72 60.8652 181.17C60.8652 182.62 61.0752 184.11 60.8052 185.51C60.4952 187.11 61.6852 188.11 61.9052 189.43C62.1952 191.12 61.4852 192.99 62.9952 194.46C63.1352 194.6 62.6852 195.36 62.4952 195.83C62.3952 196.09 62.1452 196.55 62.1852 196.57C64.1452 197.84 61.8952 200.63 64.0852 201.79C64.0952 203.05 64.0552 204.32 64.1452 205.58C64.2252 206.62 63.6252 207.85 64.4952 208.68C65.6252 209.76 65.0552 211.02 65.2252 212.21C65.3852 213.39 65.0152 214.55 65.9052 215.77C66.5352 216.62 66.1252 218.17 66.4352 219.34C66.5952 219.94 67.6252 220.26 67.3752 221.1C67.2052 221.69 66.4352 222.35 66.5852 222.72C66.8352 223.32 67.1452 223.99 67.4852 224.51C68.1952 225.61 68.6852 226.61 68.5252 227.93C68.5052 228.06 68.9652 228.24 69.1952 228.4C69.3252 228.09 69.4552 227.78 69.5752 227.47C69.8852 227.6 70.4452 227.7 70.4652 227.86C70.5952 229.1 70.6252 230.35 70.6652 231.6C70.7452 234.11 70.8152 236.62 70.8852 239.13C73.0652 240.75 70.3752 243.87 72.8052 245.41C72.8152 246.31 72.8252 247.21 72.8552 248.11C72.9052 249.5 72.4052 251.04 73.9452 252.01C73.7652 252.85 74.3452 253.81 73.5452 254.57C72.4552 255.6 72.5252 256.74 73.3152 257.9C74.6352 259.82 75.2152 261.9 75.0852 264.27C75.0152 265.44 74.4852 266.77 75.6152 267.84C76.7052 268.88 75.8252 270.26 76.1652 271.42C76.2952 271.88 77.0952 272.22 77.1152 272.64C77.1952 274.22 78.9952 275.28 78.3352 277.07C78.0552 277.81 78.7252 278.32 79.0352 278.95C79.9552 280.77 81.0152 282.62 80.4552 284.65C81.2652 285.46 81.9052 286.1 82.5452 286.74C82.0252 287.71 80.9952 288.34 82.1852 289.84C83.1552 291.05 84.2852 292.66 83.7752 294.6C83.6852 294.92 83.6752 295.52 83.8452 295.62C84.8852 296.24 84.7252 297.46 85.3352 298.31C86.0152 299.26 86.7052 300.32 86.9652 301.43C87.2052 302.46 86.9652 303.55 88.0352 304.29C88.2152 304.41 88.1952 304.99 88.1052 305.32C87.6652 306.86 88.6352 307.99 89.2152 309.23C89.2352 309.76 89.1452 310.38 88.4552 310.07C87.2252 309.51 87.2852 307.99 86.5052 307.1C85.5552 306.01 84.4652 305.04 83.4452 304.01C82.8152 303.37 81.7752 302.78 81.6552 302.05C81.2952 299.77 79.2452 299.03 78.0252 297.57C76.6352 295.91 74.9852 294.46 73.4452 292.93C71.6952 293.08 71.0052 291.58 70.0852 290.59C69.0952 289.53 67.5152 289.56 66.6252 288.34C65.8852 287.33 64.9652 286.36 63.9352 285.67C62.9452 285.01 61.6952 284.8 60.9252 283.73C60.6652 283.38 59.9952 283.05 59.5952 283.13C58.3552 283.36 57.6952 282.4 56.7652 282.01C55.3452 281.42 54.0052 280.56 52.3252 280.88C51.2452 281.08 50.3752 280.69 49.4152 279.97C48.7152 279.45 47.1252 279.46 46.3052 279.91C45.3652 280.42 44.5552 280.83 43.4552 280.98C42.3452 281.13 41.1752 281.74 40.3152 282.49C39.4952 283.21 38.1752 282.87 37.6352 283.97C37.0252 285.22 35.4952 285.02 34.6152 285.88C33.8752 286.59 32.5352 286.33 31.9952 287.43C31.2252 287.31 30.6452 287.59 30.1152 288.18C29.5452 288.82 28.5452 288.57 27.8252 289.28C27.1052 290 27.4252 291.23 26.7052 291.52C25.7052 291.92 24.8152 292.3 24.0952 293.12C23.3752 293.93 22.6152 294.72 21.7852 295.42C21.0052 296.09 20.5752 297.22 19.2852 297.26C17.7552 297.31 18.7552 299.18 17.6352 299.62C17.1652 299.8 16.8252 300.41 16.3752 300.48C15.5652 300.6 15.1852 300.78 15.0352 301.7C14.7752 303.26 12.6852 303.78 12.6452 305.62C12.6452 306.01 11.9352 306.39 11.5452 306.77C11.1652 307.15 10.8452 307.69 10.3752 307.89C9.67521 308.18 9.60521 307.59 9.62521 307.06L9.59521 307.08Z" fill="#94DA49"/>
<path d="M9.59524 307.08C9.57524 307.61 9.65524 308.2 10.3452 307.91C10.8052 307.72 11.1252 307.18 11.5152 306.79C11.8952 306.41 12.6052 306.03 12.6152 305.64C12.6452 303.8 14.7452 303.28 15.0052 301.72C15.1552 300.8 15.5452 300.61 16.3452 300.5C16.7952 300.43 17.1452 299.82 17.6052 299.64C18.7152 299.21 17.7152 297.33 19.2552 297.28C20.5352 297.24 20.9652 296.1 21.7552 295.44C22.5852 294.74 23.3452 293.95 24.0652 293.14C24.7852 292.32 25.6752 291.94 26.6752 291.54C27.3952 291.25 27.0752 290.02 27.7952 289.3C28.5152 288.58 29.5152 288.84 30.0852 288.2C30.6152 287.6 31.1852 287.33 31.9652 287.45C32.4952 286.35 33.8452 286.61 34.5852 285.9C35.4652 285.04 36.9952 285.24 37.6052 283.99C38.1452 282.88 39.4552 283.22 40.2852 282.51C41.1352 281.77 42.3152 281.16 43.4252 281C44.5352 280.85 45.3352 280.44 46.2752 279.93C47.1052 279.48 48.6852 279.47 49.3852 279.99C50.3452 280.71 51.2152 281.1 52.2952 280.9C53.9852 280.58 55.3252 281.44 56.7352 282.03C57.6652 282.42 58.3252 283.37 59.5652 283.15C59.9752 283.08 60.6452 283.4 60.8952 283.75C61.6752 284.82 62.9252 285.04 63.9052 285.69C64.9452 286.38 65.8552 287.35 66.5952 288.36C67.4852 289.58 69.0652 289.55 70.0552 290.61C70.9752 291.6 71.6652 293.1 73.4152 292.95C74.9552 294.49 76.6052 295.93 77.9952 297.59C79.2152 299.05 81.2752 299.8 81.6252 302.07C81.7352 302.8 82.7852 303.39 83.4152 304.03C84.4352 305.06 85.5152 306.04 86.4752 307.12C87.2552 308.01 87.1952 309.53 88.4252 310.09C89.1052 310.4 89.1952 309.78 89.1852 309.25C89.4952 309.38 90.0752 309.52 90.0752 309.63C90.0153 311.09 91.7953 311.86 91.3953 313.48C91.1253 314.55 91.3252 315.64 92.4252 316.3C92.1952 317.77 93.6452 318.65 93.6752 320.19C93.7052 321.42 94.7952 322.57 94.7053 324.1C94.6153 325.59 96.1552 326.82 95.8852 328.48C96.7252 329.05 96.8652 329.86 96.8252 330.82C96.7653 332.63 96.8252 334.45 96.8052 336.27C96.7952 337.36 96.7952 338.33 97.7552 339.19C98.1252 339.52 98.0252 340.59 97.8552 341.26C97.6952 341.89 96.8952 342.4 96.8552 343C96.7252 344.99 96.8052 346.99 96.8052 348.99C98.0652 349.78 97.4652 350.43 96.8852 351.4C96.4852 352.07 96.8052 353.17 96.8052 354.08C96.8052 355.17 96.8853 356.27 96.7653 357.34C96.7152 357.79 96.0552 358.16 95.9652 358.62C95.7752 359.68 94.6952 360.47 94.7152 361.34C94.7552 362.72 93.7952 363.58 93.5852 364.72C93.3552 365.95 93.5352 367.25 93.5352 369.02C92.5352 369.81 91.2652 370.81 90.2952 371.58C90.1952 373.12 90.5552 374.22 89.4052 375.02C88.7252 375.5 88.1952 376.13 87.9952 377.16C87.7752 378.26 87.0553 379.37 86.2653 380.22C84.5553 382.08 82.6752 383.79 80.8652 385.56C78.8552 385.39 78.4652 388.21 76.4052 387.96C75.2452 389.12 74.1652 390.36 72.9152 391.4C71.8652 392.27 70.3452 392.45 69.4952 393.71C69.2652 394.05 68.5252 394.35 68.1352 394.24C66.3852 393.75 65.0152 394.84 63.7252 395.48C62.5752 396.06 61.5352 396.8 60.3252 396.41C58.8052 395.92 58.4552 398.07 56.9252 397.6C55.9352 397.3 54.6652 397.29 53.7252 397.66C52.9652 397.96 52.4352 398.68 51.4052 398.67C49.9652 398.65 49.1852 396.99 47.4752 397.46C46.1252 397.84 44.5852 397.54 43.1352 397.54H38.2552C37.8652 396.95 37.2752 396.04 37.0052 395.63C34.8952 395.04 33.0552 396.06 31.9352 394.29C30.1752 395 29.1152 393.03 27.5052 393.14C25.1352 391.44 22.2052 390.61 20.2552 388.18C19.5752 387.34 18.1752 387.16 17.2552 386.25C16.2152 385.23 14.1752 385.23 13.9552 383.33C13.7752 381.76 11.7052 381.59 11.6752 379.88C11.6752 379.33 10.8552 378.8 10.4452 378.24C9.82522 377.39 8.51524 377 8.50524 375.79C8.50524 374.34 7.26522 374.89 6.66522 374.44C6.43522 374.27 6.25524 373.81 6.31524 373.53C6.67524 371.76 5.11523 370.74 4.67523 369.28C4.34523 368.17 3.36523 367.25 3.08523 366.14C2.82523 365.14 3.15524 363.98 2.03524 363.28C1.93524 363.22 1.93524 362.96 1.93524 362.79C1.93524 361.34 1.63524 359.81 2.00524 358.45C2.46524 356.75 0.675232 356.02 0.805232 354.52C0.945232 352.9 0.835231 351.25 0.835231 349.62V340.9C0.835231 339.45 0.605238 337.95 0.905238 336.55C1.17524 335.24 2.23521 334.19 1.97521 332.62C1.74521 331.21 1.94522 329.73 1.94522 328.28C3.04522 327.62 2.95524 326.55 3.06524 325.46C3.14524 324.67 3.68523 323.91 4.11523 323.19C4.72523 322.14 5.57523 321.15 5.17523 319.83C4.65523 318.1 5.83523 316.8 6.36523 315.41C6.72523 314.47 7.51522 313.74 7.41522 312.55C7.37522 312.13 7.77524 311.58 8.12524 311.24C8.61524 310.77 9.25524 310.44 9.50524 310.27C9.00524 309.15 8.59524 308.55 8.50524 307.91C8.43524 307.38 8.86523 306.93 9.55523 307.05L9.59524 307.08ZM39.6152 339.78C38.0952 341.16 37.1552 342.36 38.4252 344.11C38.7152 344.51 38.8152 345.03 39.0452 345.48C39.4952 346.37 39.9152 347.39 40.4552 348.11C41.0552 348.93 42.4952 349.12 43.5552 349.61C45.8352 350.68 45.8352 350.69 47.4352 350.7C48.6952 350.7 49.9652 350.66 51.2252 350.71C52.1652 350.75 52.8252 350.26 53.6152 349.91C54.5452 349.5 55.3652 348.92 56.2852 348.52C57.9752 347.77 57.7352 347.59 58.7252 346.2C60.1052 344.25 59.8352 342.25 59.5352 340.19C59.5052 340 58.6152 339.82 58.1352 339.85C57.8652 339.87 57.5752 340.28 57.3752 340.58C56.7152 341.56 55.7552 342.51 55.5352 343.59C55.2552 344.98 54.6052 346.02 53.4252 346.27C52.2352 346.52 51.5652 347.81 50.0852 347.5C48.7352 347.22 47.2752 347.44 46.1252 347.44C44.7252 346.04 43.0752 345.07 42.5552 343.69C41.9452 342.05 40.6952 341.19 39.6252 339.8L39.6152 339.78ZM77.6152 327.59C75.9952 328.22 75.1152 329.16 73.7452 328.92C72.8652 328.76 71.9452 328.92 71.0352 328.88C69.6052 328.8 68.7652 330.75 67.1452 329.98C66.4752 330.55 65.7852 331.09 65.1452 331.68C64.7552 332.03 64.4252 332.45 64.0852 332.83C64.2652 333.71 63.6852 335.16 64.6152 335.26C65.7952 335.38 66.2952 336.6 67.3852 336.51C68.5752 336.41 69.8352 336.93 70.9152 335.81C71.2952 335.41 72.2553 335.63 72.8953 335.41C73.6853 335.14 74.3852 334.51 75.1752 334.39C76.0652 334.26 76.8652 334.28 77.5452 333.49C78.4452 332.43 79.4952 331.5 80.3552 330.64C79.4052 329.58 78.5652 328.64 77.6252 327.58L77.6152 327.59ZM33.5652 333.81C33.2052 333.42 32.4952 332.97 32.5452 332.64C32.8852 330.38 30.1352 331.49 29.8152 330.03C28.5552 330.01 27.2952 330.03 26.0352 329.97C24.8252 329.92 24.1352 328.43 22.6652 328.84C21.8252 329.08 20.8652 328.88 19.9452 328.88C19.0652 329.77 18.1752 330.67 17.2752 331.57C17.4952 331.81 17.7052 332.09 17.9452 332.32C19.0852 333.42 20.0352 334.9 22.0052 334.34C22.1052 334.31 22.3452 334.49 22.4052 334.63C23.1452 336.11 24.8752 334.81 25.7252 335.79C26.7552 336.97 28.0552 336.36 29.2452 336.5C29.7752 336.56 30.3252 336.51 30.8352 336.51C31.7552 335.59 32.6552 334.69 33.5452 333.8L33.5652 333.81ZM52.5152 331.07C51.3152 331.07 50.2352 331.05 49.1452 331.07C48.0852 331.1 46.9752 330.99 45.9752 331.28C45.0452 331.55 44.2452 332.26 43.4152 332.76V336.41C45.3352 335.99 46.0152 337.69 47.2052 338.69H51.6052C52.4352 337.82 53.3052 336.91 54.2252 335.95C54.2952 334.3 54.8352 332.42 52.5052 331.07H52.5152Z" fill="#FEEFC2"/>
<path d="M69.5651 227.5C69.4351 227.81 69.305 228.12 69.185 228.43C68.945 228.27 68.495 228.09 68.515 227.96C68.675 226.65 68.185 225.64 67.475 224.54C67.145 224.03 66.825 223.36 66.575 222.75C66.425 222.39 67.195 221.72 67.365 221.13C67.615 220.29 66.575 219.97 66.425 219.37C66.115 218.2 66.525 216.65 65.895 215.8C65.005 214.59 65.375 213.43 65.215 212.24C65.055 211.06 65.615 209.79 64.485 208.71C63.625 207.89 64.215 206.66 64.135 205.61C64.035 204.35 64.085 203.08 64.075 201.82C61.875 200.66 64.125 197.87 62.175 196.6C62.135 196.57 62.385 196.12 62.485 195.86C62.665 195.39 63.125 194.63 62.985 194.49C61.475 193.02 62.175 191.15 61.895 189.46C61.675 188.14 60.485 187.14 60.795 185.54C61.065 184.14 60.855 182.65 60.855 181.2C60.855 179.75 60.855 178.3 60.855 176.85C60.145 176.09 59.425 175.33 58.705 174.55C59.925 173.87 59.8251 172.74 59.7551 171.68C59.6951 170.8 58.455 170.49 58.655 169.41C58.785 168.71 58.845 167.91 58.635 167.25C58.365 166.41 57.065 165.68 58.635 164.85C58.765 163.59 58.865 162.34 57.605 161.52C58.875 160.68 58.9951 159.39 58.5651 158.2C58.1651 157.11 57.305 156.19 56.705 155.16C56.295 154.46 56.4951 153.84 57.0951 153.3C58.0751 152.42 56.705 152.29 56.515 151.39C56.515 149.06 56.575 146.34 56.475 143.63C56.455 143.02 55.885 142.43 55.425 141.56C55.425 137.92 55.435 133.92 55.405 129.93C55.405 129.44 55.335 128.78 55.025 128.48C53.975 127.48 54.115 126.67 55.135 125.8C55.215 125.73 55.025 125.3 54.925 125.06C54.745 124.59 54.4751 124.15 54.3451 123.67C54.1451 122.94 56.0351 122.71 54.8151 121.65C53.8551 120.82 54.455 119.62 54.355 118.59C54.265 117.69 54.395 116.77 54.305 115.87C54.275 115.58 53.855 115.35 53.655 115.06C52.985 114.1 52.9551 113.05 53.6251 112.13C54.5851 110.81 54.735 109.64 53.545 108.39C52.975 107.79 53.135 107.12 53.725 106.54C53.925 106.34 54.185 105.84 54.155 105.81C52.595 104.53 53.4051 102.79 53.2851 101.26C53.1551 99.6405 53.345 97.9905 53.225 96.3705C53.115 94.8405 53.8151 93.1705 52.3151 91.8205C51.9451 91.4805 52.145 90.4505 52.175 89.7405C52.225 88.5105 52.345 87.2805 52.435 86.0405C54.525 84.6905 52.145 83.6705 52.155 82.4805C52.165 81.2105 52.155 79.9405 52.155 78.6705V69.4205C52.335 69.4205 52.645 69.4805 52.675 69.4105C52.895 68.9605 53.135 68.5005 53.225 68.0105C53.505 66.5005 52.665 64.8105 54.185 63.4705C54.555 63.1405 54.2551 62.1004 54.3451 61.3904C54.5951 59.5204 53.525 57.4105 55.365 55.8105C55.545 55.6505 55.425 55.1205 55.425 54.7605C55.425 53.1305 55.6251 51.4605 55.3751 49.8705C55.1251 48.2805 56.675 47.4404 56.555 45.9504C56.415 44.3304 56.525 42.6805 56.525 41.0505C56.525 39.9705 57.975 39.5205 57.655 38.2205C57.445 37.3605 57.615 36.4105 57.615 35.5105C57.615 34.4205 57.195 33.0505 57.695 32.3005C59.135 30.1505 58.515 27.8605 58.745 25.6205C58.795 25.1705 59.355 24.8005 59.605 24.3505C60.005 23.6405 59.765 23.0705 59.225 22.4705C58.915 22.1205 58.595 21.2505 58.745 21.1105C60.125 19.8205 60.035 18.1205 59.715 16.6305C59.385 15.0905 61.385 14.7505 60.935 13.2405C60.645 12.2405 60.885 11.0805 60.885 9.99048C63.005 8.51048 61.365 6.25049 61.905 5.06049C63.485 3.44049 64.725 2.17047 65.825 1.04047C66.425 1.30047 67.035 1.77045 67.655 1.77045C68.195 1.77045 68.7451 1.26047 69.2851 0.980469C70.0351 2.69047 72.095 1.09049 73.035 2.50049C73.645 3.41049 74.7251 2.74047 75.5651 2.92047C76.3551 1.54047 77.045 2.28047 77.965 2.86047C78.485 3.19047 79.395 2.84049 80.105 2.94049C81.305 3.10049 82.6751 2.34047 83.7051 3.42047C84.7751 4.55047 86.235 3.5305 87.245 4.0705C88.575 4.7905 90.2751 5.09049 91.125 6.50049C91.6851 7.43049 92.7551 7.04048 93.5751 7.74048C93.5751 9.24048 93.705 10.8604 93.525 12.4504C93.415 13.4204 92.695 14.3105 92.525 15.2805C92.345 16.3405 92.495 17.4505 92.475 18.5405C92.475 18.6905 92.345 18.9005 92.215 18.9705C91.105 19.5105 91.545 20.8605 90.725 21.6605C89.755 22.6105 90.4151 24.0504 90.3151 25.2704C90.2351 26.3504 90.295 27.4505 90.295 28.1805C89.835 29.0605 89.325 29.6304 89.245 30.2704C89.085 31.5104 89.585 33.0505 89.025 33.9805C88.435 34.9605 88.045 35.8004 88.115 36.8904C86.625 38.3104 87.1451 40.1605 87.0151 41.8805C86.9151 43.2405 87.6051 44.8105 86.0651 45.8405C86.0251 47.8205 85.9451 49.8005 85.9451 51.7805C85.9451 52.8705 86.035 53.9605 84.915 54.6305C85.015 55.6305 84.205 56.1605 83.835 56.9105C83.475 57.6405 83.595 58.7205 83.785 59.5905C84.205 61.4705 82.085 62.6105 82.585 64.6105C82.965 66.1505 82.795 67.8705 82.615 69.4905C82.485 70.6405 81.245 71.4505 81.525 72.8605C81.735 73.9105 81.705 75.0505 81.525 76.1105C81.385 76.9105 80.7751 77.6105 80.5051 78.4005C80.2651 79.1105 82.2451 79.4105 80.9451 80.4005C80.2251 80.9505 80.565 81.7104 80.485 82.3904C80.375 83.4404 80.655 84.8204 80.095 85.4504C79.195 86.4604 79.8851 87.7904 79.3151 88.3904C78.2951 89.4704 78.285 90.5704 78.295 91.8304C78.295 93.3904 78.665 95.0605 77.215 96.2805C77.175 97.7205 77.145 99.1505 77.105 100.59C75.545 101.6 76.2951 103.18 76.1251 104.54C75.9051 106.28 76.6951 108.12 75.5751 109.76C74.5651 111.23 75.245 112.88 75.045 114.44C73.165 116.4 74.205 118.84 73.975 121.07C73.905 121.8 73.975 122.52 73.275 122.96C72.805 123.25 72.775 123.47 73.215 123.74C74.185 124.32 73.9651 125.28 73.9451 126.16C73.9151 127.22 72.5151 127.69 72.8251 128.99C73.0251 129.85 72.9551 130.81 72.8251 131.7C72.7551 132.16 72.1151 132.53 72.0351 132.99C71.8751 133.91 73.665 134.54 72.605 135.58C71.865 136.3 71.7251 137.05 71.7551 137.98C71.7951 139.25 71.865 140.53 71.745 141.79C71.565 143.66 72.595 145.79 70.715 147.35C70.705 149.71 70.755 152.06 70.635 154.41C70.605 155.01 70.035 155.59 69.705 156.18C69.955 156.5 70.6051 157.16 70.5351 157.24C69.0951 159 69.275 160.65 70.435 162.52C70.765 163.05 69.4451 163.65 69.5351 164.68C69.6951 166.48 69.595 168.31 69.575 170.12C69.575 171.35 69.885 172.68 68.525 173.5C68.615 174.36 68.0351 175.4 68.8451 176.04C70.4151 177.28 69.2451 178.12 68.5651 179.09C69.2251 179.69 70.0851 180.4 69.3751 181.29C68.7751 182.04 68.465 182.7 68.465 183.66C68.495 193.28 68.485 202.9 68.485 212.52C68.485 213.22 68.395 213.91 69.055 214.47C69.935 215.22 69.745 216.03 68.925 216.69C68.225 217.26 68.575 218.02 68.485 218.69C68.335 219.82 69.955 220.21 69.615 221.52C69.395 222.37 69.575 223.32 69.575 224.23V227.5H69.5651Z" fill="#008463"/>
<path d="M39.6152 339.78C40.6952 341.17 41.9352 342.03 42.5452 343.67C43.0652 345.06 44.7152 346.02 46.1152 347.42C47.2652 347.42 48.7252 347.2 50.0752 347.48C51.5552 347.79 52.2252 346.51 53.4152 346.25C54.5952 346 55.2452 344.96 55.5252 343.57C55.7452 342.49 56.6952 341.54 57.3652 340.56C57.5652 340.27 57.8552 339.85 58.1252 339.83C58.6052 339.8 59.5052 339.98 59.5252 340.17C59.8252 342.23 60.1052 344.23 58.7152 346.18C57.7252 347.58 57.9652 347.76 56.2752 348.5C55.3552 348.91 54.5352 349.48 53.6052 349.89C52.8152 350.24 52.1552 350.74 51.2152 350.69C49.9552 350.63 48.6852 350.68 47.4252 350.68C45.8152 350.68 45.8252 350.66 43.5452 349.59C42.4852 349.1 41.0552 348.9 40.4452 348.09C39.9152 347.37 39.4852 346.35 39.0352 345.46C38.8052 345.01 38.7052 344.49 38.4152 344.09C37.1452 342.34 38.0852 341.14 39.6052 339.76L39.6152 339.78Z" fill="#2F2613"/>
<path d="M77.6152 327.59C78.5652 328.65 79.3951 329.59 80.3451 330.65C79.4851 331.51 78.4351 332.44 77.5351 333.5C76.8651 334.29 76.0551 334.26 75.1651 334.4C74.3751 334.52 73.6752 335.15 72.8852 335.42C72.2452 335.64 71.2852 335.42 70.9052 335.82C69.8252 336.94 68.5652 336.42 67.3752 336.52C66.2852 336.62 65.7951 335.4 64.6051 335.27C63.6751 335.17 64.2551 333.72 64.0751 332.84C64.4251 332.46 64.7451 332.04 65.1351 331.69C65.7851 331.1 66.4651 330.55 67.1351 329.99C68.7451 330.76 69.5952 328.81 71.0252 328.89C71.9252 328.94 72.8552 328.77 73.7352 328.93C75.1052 329.17 75.9851 328.23 77.6051 327.6L77.6152 327.59Z" fill="#2C2311"/>
<path d="M33.5654 333.811C32.6754 334.701 31.7854 335.591 30.8554 336.521C30.3454 336.521 29.7954 336.571 29.2654 336.511C28.0754 336.371 26.7754 336.981 25.7454 335.801C24.8954 334.821 23.1654 336.131 22.4254 334.641C22.3554 334.501 22.1254 334.321 22.0254 334.351C20.0454 334.911 19.0954 333.431 17.9654 332.331C17.7154 332.091 17.5054 331.821 17.2954 331.581C18.1854 330.681 19.0754 329.781 19.9654 328.891C20.8854 328.891 21.8454 329.081 22.6854 328.851C24.1454 328.441 24.8454 329.931 26.0554 329.981C27.3154 330.031 28.5754 330.021 29.8354 330.041C30.1554 331.501 32.9054 330.391 32.5654 332.651C32.5154 332.981 33.2254 333.431 33.5854 333.821L33.5654 333.811Z" fill="#2D2411"/>
<path d="M52.5153 331.07C54.8453 332.42 54.2953 334.3 54.2353 335.95C53.3153 336.91 52.4453 337.82 51.6153 338.69H47.2153C46.0253 337.69 45.3453 335.99 43.4253 336.41V332.76C44.2553 332.26 45.0553 331.55 45.9853 331.28C46.9753 330.99 48.0953 331.1 49.1553 331.07C50.2353 331.04 51.3253 331.07 52.5253 331.07H52.5153Z" fill="#E4A562"/>
</svg>
