<svg width="362" height="357" viewBox="0 0 362 357" fill="none" xmlns="http://www.w3.org/2000/svg">
<path d="M215.025 184.531C215.335 184.661 215.665 184.751 215.945 184.921C216.225 185.091 216.685 185.531 216.685 185.521C218.295 183.701 220.405 184.711 222.285 184.551C224.085 184.401 225.915 184.521 227.725 184.521C229.725 184.521 231.725 184.451 233.715 184.561C234.285 184.591 234.805 185.311 235.375 185.371C235.765 185.411 236.175 184.741 236.635 184.551C236.895 184.451 237.295 184.651 237.605 184.771C237.755 184.831 237.845 185.051 237.995 185.141C238.755 185.574 239.639 185.367 240.645 184.521C246.065 184.521 251.505 184.531 256.955 184.511C258.205 184.511 259.465 184.341 260.305 185.581C262.425 183.391 265.095 184.831 267.495 184.571C269.825 184.321 272.205 184.521 274.565 184.521H281.945C282.515 184.921 283.235 185.461 283.265 185.431C283.895 184.671 284.675 184.491 285.645 184.501C291.815 184.541 297.985 184.521 304.155 184.521C305.225 184.521 306.135 184.571 307.095 185.391C307.755 185.961 308.965 185.731 310.015 185.051C311.355 184.171 313.015 184.021 314.375 185.241C314.765 185.591 314.805 185.621 315.185 185.271C316.535 183.991 318.205 184.201 319.545 185.041C320.455 185.611 320.595 185.041 321.155 184.781C322.115 184.351 323.235 184.171 324.075 185.101C325.025 186.141 325.055 184.581 326.095 184.961C326.035 184.911 326.415 185.251 326.835 185.621C330.775 185.621 334.765 185.641 338.755 185.611C340.015 185.611 341.245 185.471 342.165 186.671C342.275 186.821 343.105 186.471 343.565 186.281C343.855 186.161 344.295 185.721 344.315 185.741C345.935 187.561 348.065 186.351 349.925 186.701C350.765 186.861 351.715 186.381 352.425 187.241C353.105 188.061 354.375 187.791 355.085 188.761C355.825 189.771 356.845 190.581 357.705 191.441C357.935 192.161 356.395 192.251 357.135 192.981C357.575 193.421 358.345 193.531 358.965 193.781C358.485 195.051 360.125 195.461 360.085 196.591C360.035 197.981 359.785 199.471 361.155 200.491C360.925 201.681 361.695 203.011 360.655 204.101C360.425 204.351 360.115 204.641 360.085 204.941C359.965 206.001 360.255 207.231 359.795 208.081C359.365 208.881 358.905 209.521 358.955 210.471C359.015 211.561 359.035 212.651 358.945 213.731C358.905 214.201 358.665 214.771 358.325 215.081C357.645 215.711 358.375 215.881 358.545 216.271C358.745 216.731 359.075 217.571 358.925 217.681C357.705 218.591 357.815 219.831 357.865 221.091C357.885 221.451 357.975 222.031 357.805 222.121C356.745 222.721 356.945 223.991 356.305 224.801C356.005 225.181 355.835 225.691 355.695 226.171C355.485 226.911 357.345 227.091 356.185 228.211C355.615 228.761 355.355 229.661 355.015 230.431C354.815 230.891 354.635 231.401 354.615 231.891C354.555 232.981 354.595 234.071 354.595 235.151C352.735 235.851 354.025 237.791 353.115 238.901C352.595 239.541 352.445 240.491 351.905 241.091C351.355 241.711 351.225 242.351 351.345 243.041C351.595 244.391 350.565 245.311 350.325 246.421C350.015 247.871 348.495 248.241 348.165 249.351C347.825 250.491 348.255 251.861 346.965 252.671C347.435 254.081 345.335 254.591 345.785 255.991C344.525 256.991 344.635 258.921 343.105 259.801C342.145 260.351 342.765 261.451 342.445 262.931C342.045 263.261 341.275 264.031 340.385 264.631C338.845 265.671 338.565 267.591 337.315 268.821C337.365 270.271 336.095 270.861 335.425 271.851C334.775 272.811 334.275 273.911 333.905 275.021C333.475 276.321 332.255 276.861 331.555 277.861C330.875 278.841 330.345 279.931 329.595 280.851C328.795 281.831 327.825 282.661 326.925 283.561C326.025 284.461 325.205 285.461 324.215 286.231C322.765 287.351 322.745 289.371 321.185 290.471C319.875 291.401 318.845 292.731 317.685 293.891C318.125 295.851 315.565 295.291 315.355 296.641C315.105 298.271 313.575 298.801 312.725 299.901C312.205 300.581 311.635 301.391 310.535 301.141C310.145 301.861 309.745 302.591 309.355 303.311C307.375 302.861 307.075 305.241 305.395 305.631C304.175 305.911 303.355 307.591 302.145 308.261C300.915 308.941 299.775 309.621 298.745 310.601C297.755 311.551 296.965 312.681 295.495 313.241C294.255 313.711 293.425 315.171 292.265 315.981C291.315 316.641 290.145 316.981 289.095 317.501C287.285 318.401 285.525 319.401 283.685 320.221C282.385 320.791 281.115 321.371 280.315 322.561C279.365 323.961 277.515 323.921 276.465 325.131C275.035 325.041 274.175 326.981 272.565 326.221C271.595 326.951 270.725 327.941 269.635 328.331C268.535 328.721 267.715 329.591 266.305 329.611C264.505 329.651 263.145 331.471 261.265 331.781C260.515 333.221 258.985 332.421 257.945 332.951C256.885 333.491 255.925 334.221 254.915 334.841C254.775 334.921 254.575 334.901 254.415 334.931C253.235 335.141 251.925 334.411 250.865 335.591C250.025 336.531 248.785 335.741 247.795 336.041C247.005 336.281 246.305 336.841 245.505 337.081C244.515 337.381 243.405 336.731 242.405 337.501C241.755 338.011 240.785 338.151 240.205 338.711C239.085 339.791 237.795 339.051 236.615 339.291C236.045 339.411 235.625 339.691 235.755 340.371C234.665 340.371 233.575 340.431 232.495 340.351C231.795 340.291 231.605 340.861 231.175 341.131C230.265 341.721 230.255 340.341 229.585 340.371C229.235 340.391 228.805 340.331 228.565 340.511C228.015 340.931 227.605 341.671 226.775 341.441C225.065 340.961 223.695 341.981 222.365 342.631C221.235 343.181 220.285 343.791 218.965 343.661C217.885 343.551 216.785 343.641 215.705 343.641C214.465 343.641 213.185 343.411 212.285 344.681C212.175 344.831 211.265 344.611 210.875 344.341C209.565 343.401 208.405 343.261 207.115 344.441C206.435 345.061 206.315 343.561 205.575 343.851C204.965 344.461 204.315 345.111 203.595 345.831H194.995C194.125 344.701 192.925 344.651 191.635 344.721C190.185 344.801 188.725 344.831 187.285 344.721C185.645 344.591 184.675 346.241 182.815 345.931C180.345 345.531 177.755 345.831 175.295 345.831C174.835 345.431 174.485 344.951 174.015 344.771C172.975 344.381 172.515 345.811 171.755 345.761C170.795 345.701 169.875 345.101 168.925 344.761C168.815 344.721 168.605 344.861 168.485 344.971C168.215 345.211 167.945 345.711 167.715 345.701C166.205 345.581 164.775 348.511 163.215 345.841C161.765 345.841 160.315 345.831 158.865 345.821C157.715 344.071 155.925 344.941 154.405 344.761C152.525 344.541 150.445 345.371 148.865 343.661C146.865 343.661 144.875 343.681 142.875 343.641C142.585 343.641 142.225 343.371 142.015 343.131C140.695 341.671 138.365 343.581 137.145 341.631C136.975 341.361 136.125 341.571 135.615 341.471C133.585 341.061 131.255 342.481 129.475 340.481C129.475 340.481 129.015 340.911 128.735 341.081C128.455 341.251 128.125 341.351 127.815 341.471C127.865 340.361 126.705 340.141 126.315 339.391C124.815 338.961 122.965 339.991 121.845 338.221C120.395 338.221 118.875 337.911 117.515 338.261C115.675 338.741 114.665 336.951 113.055 337.061C112.395 335.961 111.335 335.911 110.225 336.011C109.295 336.101 108.625 335.561 107.825 335.211C102.875 333.071 98.3154 330.151 93.2954 328.181C92.8254 328.001 92.4954 327.441 92.0254 327.311C90.8654 327.001 89.5453 327.821 88.4553 326.671C87.7553 325.941 87.1353 325.221 85.8753 324.961C84.6753 324.721 84.0753 323.011 82.4553 322.701C81.3753 322.501 81.0253 320.821 79.4853 320.651C78.1653 320.501 77.7954 318.291 76.0154 318.551C75.1154 317.651 74.1853 316.781 73.3253 315.851C72.5953 315.061 71.2454 315.401 70.6754 314.321C70.1254 313.281 68.8553 313.361 68.0753 312.741C66.8253 311.731 64.3553 311.951 64.5553 309.411C63.8153 308.631 63.1153 307.801 62.3153 307.081C61.5553 306.401 61.0953 305.271 59.7053 305.421C59.3553 305.461 58.8353 304.801 58.5553 304.361C57.5353 302.801 55.7253 302.341 54.3153 301.361C53.5053 300.801 52.2353 300.941 52.5053 299.431C51.7553 299.041 50.8354 298.821 50.2954 298.241C49.4954 297.381 49.0453 296.211 48.3053 295.281C47.6353 294.431 46.7854 293.721 46.0154 292.951C45.1154 292.051 44.2453 291.131 43.3053 290.261C42.5153 289.531 42.6953 288.341 41.8153 287.571C40.9853 286.841 39.8853 286.971 39.0753 286.151C38.2653 285.331 38.6553 284.081 37.6153 283.421C36.8653 282.951 36.3254 282.151 35.6654 281.531C34.8754 280.801 35.2153 279.431 34.1253 278.891C34.1953 277.581 33.5654 276.971 32.2654 277.031C31.7054 275.971 31.4153 274.801 30.3653 273.981C29.4253 273.241 28.5153 272.431 28.3553 271.001C28.2553 270.131 26.3754 271.141 26.4154 269.751C26.4454 268.641 25.5853 268.231 25.0053 267.601C24.3953 266.941 23.6953 266.351 23.1053 265.801V263.501C22.0153 262.341 20.4554 261.451 20.9254 259.471C20.9554 259.331 20.8754 259.081 20.7654 259.011C18.2254 257.411 18.3053 254.081 16.1853 252.161C14.7953 250.901 14.9253 248.631 13.4553 247.321C13.4253 245.681 12.0454 244.961 11.1454 243.921C11.1054 241.241 11.1453 241.221 10.0253 238.941C9.4053 237.691 8.62532 236.551 8.91532 235.021C8.99532 234.591 8.5753 234.091 8.46531 233.601C8.12531 232.101 6.76532 231.091 6.72532 229.391C6.68532 228.061 5.06534 227.061 5.68534 225.481C4.52534 224.621 4.42532 223.411 4.60532 222.101C3.96532 221.471 3.31534 220.831 2.68534 220.211C2.59534 219.861 2.43534 219.531 2.43534 219.201C2.41534 217.381 2.38534 215.571 2.43534 213.751C2.46534 212.811 2.33535 212.031 1.57535 211.341C1.43535 211.211 2.18534 209.951 2.12534 209.921C1.18534 209.391 1.57534 208.261 0.995335 207.621C-0.134665 206.361 -0.174645 205.121 1.01535 203.901C1.32535 203.581 1.29534 203.431 0.87534 203.111C-0.16466 202.301 -0.114653 200.901 0.445347 200.241C1.26535 199.281 1.44532 198.351 1.29532 197.301C0.905323 194.461 3.17533 192.611 3.86533 190.171C3.99533 189.711 4.58534 189.381 4.99534 189.011C5.10534 188.911 5.31532 188.921 5.47532 188.851C7.47532 187.961 9.46531 187.051 11.3453 185.921C11.4953 185.831 11.6453 185.581 11.7453 185.611C12.2353 185.711 12.7353 185.851 13.1953 186.041C13.4753 186.151 13.9053 186.581 13.9453 186.541C15.7753 184.691 18.0553 185.831 20.1153 185.631C22.0953 185.441 24.1153 185.651 26.1053 185.571C27.4653 185.511 28.9553 186.101 30.1353 184.691C30.4553 184.311 31.4953 184.511 32.1953 184.511C37.2853 184.501 42.3753 184.511 47.4553 184.511C49.4553 184.511 51.4553 184.611 53.4453 184.481C55.1453 184.371 57.0753 185.221 58.5053 183.521C58.5053 183.521 58.9753 183.921 59.2453 184.111C60.2153 184.761 61.3354 184.871 62.1554 184.101C62.9154 183.381 63.2253 183.641 63.7553 184.231C63.9453 184.441 64.3853 184.501 64.7153 184.501C68.1653 184.521 71.6153 184.481 75.0753 184.531C75.9053 184.541 76.3354 184.081 76.9054 183.641C77.5454 183.151 78.1154 183.551 78.7754 183.951C80.2054 184.811 80.3053 184.831 82.0753 183.851C83.5853 183.011 84.7553 183.191 85.8153 184.511C89.8053 184.511 93.8053 184.531 97.8053 184.491C98.5953 184.491 99.1353 184.701 99.7053 185.241C100.005 185.531 100.965 185.681 101.095 185.501C101.865 184.461 102.895 184.501 103.985 184.501C117.615 184.521 131.235 184.501 144.865 184.511C145.915 184.511 147.065 184.211 147.795 185.381C147.815 185.411 148.365 185.211 148.525 185.011C149.075 184.311 149.865 184.691 150.495 184.471C151.505 184.121 151.745 185.901 152.615 185.231C153.225 184.771 153.715 184.351 154.505 184.491C154.685 184.521 154.865 184.491 155.045 184.491H167.035C167.035 186.301 167.085 188.121 167.005 189.931C166.985 190.381 166.475 190.791 166.295 191.261C166.125 191.721 165.865 192.561 166.035 192.681C167.325 193.591 167.035 194.891 167.025 196.111C167.025 197.151 167.145 198.111 166.215 199.061C164.995 200.291 167.395 201.001 167.045 202.281C166.905 202.781 167.045 203.431 166.775 203.791C166.335 204.361 165.905 204.811 165.925 205.641C165.985 207.991 165.935 210.351 165.955 212.711C165.955 213.041 166.025 213.471 166.235 213.661C166.845 214.201 166.885 214.451 166.385 215.261C165.585 216.571 165.605 217.971 166.385 219.221C167.355 220.761 167.365 222.281 166.525 223.641C165.675 225.021 166.025 226.331 166.065 227.711C167.425 228.551 166.985 229.911 167.025 231.121C167.055 232.211 167.075 233.301 167.025 234.381C166.985 235.231 167.285 236.111 166.495 236.891C165.435 237.921 167.475 238.341 167.105 239.481C166.785 240.461 167.035 241.631 167.035 242.721C167.035 243.811 167.205 244.931 166.995 245.971C166.725 247.261 168.105 247.731 168.125 248.791C168.155 250.781 168.155 252.781 168.105 254.771C168.105 255.041 167.695 255.351 167.405 255.551C166.955 255.851 167.065 255.961 167.425 256.351C168.645 257.711 168.295 259.241 167.675 260.751C167.485 261.211 167.235 261.661 167.045 262.121C166.425 263.691 168.605 264.451 168.175 266.031C168.075 266.411 168.415 267.031 168.725 267.391C169.415 268.201 170.215 268.911 171.125 269.831C171.925 269.341 172.595 268.791 173.355 268.501C174.105 268.221 175.115 268.861 175.715 267.881C175.575 267.741 175.465 267.601 175.325 267.491C174.685 267.001 174.485 266.371 174.795 265.631C175.005 265.131 176.175 264.921 175.205 264.081C174.215 263.231 175.625 263.061 175.655 262.541C175.765 260.961 176.215 259.231 175.385 257.851C174.875 257.011 174.635 256.311 174.675 255.411C174.725 254.021 174.245 252.491 175.765 251.511V247.201C175.045 246.411 173.975 245.851 175.115 244.521C176.255 243.191 176.085 241.571 175.205 240.151C174.865 239.611 174.985 239.451 175.235 238.951C176.015 237.381 176.015 237.321 175.105 235.651C174.445 234.431 174.365 233.421 175.355 232.281C176.015 231.521 175.995 231.321 175.355 230.471C174.245 229.001 174.305 227.391 175.185 226.081C176.005 224.871 175.765 224.261 174.925 223.361C174.765 223.191 175.595 222.031 175.465 221.931C174.655 221.251 174.575 220.421 174.675 219.511C174.715 219.181 174.765 218.751 174.985 218.571C176.035 217.671 175.825 217.001 175.075 215.871C174.235 214.601 174.535 210.101 175.075 208.621C175.955 206.201 176.185 205.201 175.185 203.161C174.705 202.191 175.355 202.091 175.535 201.571C175.755 200.931 175.775 200.171 175.715 199.481C175.665 198.921 175.235 198.631 174.585 198.671C174.125 198.701 173.295 198.451 173.885 197.921C175.065 196.851 174.415 195.571 174.685 194.411C174.835 193.771 175.295 193.211 175.635 192.571C174.255 190.951 174.315 191.001 175.475 189.661C176.985 187.911 179.145 186.751 180.105 184.521H195.375C195.295 185.571 196.055 185.751 196.745 185.571C197.365 185.411 197.875 184.611 198.465 184.571C200.615 184.441 202.775 184.421 204.925 184.551C207.135 184.681 209.545 183.741 211.475 185.611C212.525 185.551 213.585 185.541 214.625 185.401C214.785 185.381 214.885 184.831 215.005 184.521L215.025 184.531Z" fill="#F8312F"/>
<path d="M165.955 184.531H155.055C154.935 183.841 155.376 183.641 155.916 183.431C157.566 182.791 157.566 182.771 156.796 181.361C156.226 180.321 155.395 179.361 155.125 178.261C154.835 177.061 155.055 175.741 155.055 174.471C156.985 172.121 155.815 169.341 156.135 166.761C156.215 166.091 154.735 165.901 155.385 165.191C156.295 164.201 156.516 163.441 155.406 162.531C154.716 161.961 154.905 161.071 155.105 160.521C155.585 159.241 156.436 158.141 156.176 156.591C155.976 155.351 156.355 154.011 156.075 152.801C155.735 151.321 157.235 150.691 157.235 149.431C157.235 148.181 157.315 146.931 157.355 145.681C158.885 144.651 158.266 143.081 158.286 141.721C158.346 137.731 158.305 133.741 158.305 129.661C157.635 128.371 156.295 127.521 155.695 125.941C155.175 124.551 153.336 123.711 152.416 122.401C151.236 120.721 150.155 118.871 150.815 116.331C150.035 115.751 149.165 115.111 148.315 114.481C148.875 113.851 149.215 113.471 149.565 113.081C148.855 112.321 147.695 111.651 148.975 110.461C150.095 109.431 149.615 108.611 148.465 107.701C148.955 107.211 149.415 106.761 149.865 106.291C151.045 105.031 151.045 104.991 149.605 103.281C150.675 102.141 152.135 101.271 151.845 99.2706C151.775 98.8006 152.645 98.1906 153.065 97.6406C153.375 97.2306 153.976 96.7306 153.896 96.3906C153.586 94.9806 155.055 94.1006 154.945 93.0306C154.805 91.5906 155.945 90.8406 156.125 89.6606C156.175 89.3106 156.125 88.9406 156.125 88.5706V86.9606C156.125 86.6006 155.976 86.0406 156.146 85.9206C157.306 85.0806 157.095 84.3406 156.125 83.5706C156.125 81.7806 155.815 79.9106 156.205 78.2106C156.665 76.2306 154.605 75.1306 154.995 73.2606C155.205 72.2306 155.036 71.1206 155.036 70.0406C155.036 69.6906 155.136 69.3006 155.016 69.0006C154.716 68.2506 154.155 67.5806 153.985 66.8106C153.805 65.9806 153.935 65.0706 153.945 64.2006C153.955 63.5106 153.955 62.8806 153.365 62.3206C153.055 62.0206 152.925 61.4506 152.865 60.9806C152.785 60.3206 152.996 59.5806 152.276 59.1406C152.146 59.0606 151.935 59.1306 151.755 59.1306C151.765 58.2406 151.906 57.3706 151.016 56.6806C150.726 56.4506 150.586 55.4306 150.766 55.3006C151.806 54.5306 151.796 53.5106 151.766 52.4106C151.726 50.9606 151.676 49.5006 151.796 48.0606C151.846 47.4906 152.665 46.5106 152.605 46.4706C150.365 44.9206 153.225 43.7106 152.845 42.3306C153.775 41.6106 154.135 40.6706 153.935 39.5106C153.425 37.9806 155.306 37.1406 155.036 35.6906L158.646 34.0606C161.386 34.5206 163.546 33.1206 165.776 31.8906C165.916 31.8106 166.125 31.8906 166.305 31.8906C167.845 32.7306 168.496 34.6506 170.296 35.1606C170.656 35.9106 171.175 36.6206 171.345 37.4206C171.535 38.2806 171.125 39.3406 171.485 40.0606C171.865 40.8006 172.636 41.3506 172.546 42.3306C173.656 42.9906 173.615 44.0606 173.565 45.1506C173.525 46.0306 173.565 46.9206 173.565 48.2306C174.255 48.7006 175.146 49.2906 175.646 49.6306C175.756 51.9606 175.805 53.7306 175.945 55.5006C175.955 55.6506 176.525 55.7506 176.825 55.8806C176.825 56.4206 176.595 57.2606 176.865 57.4606C178.485 58.7106 177.795 60.3906 177.865 61.9206C176.305 62.7406 177.905 63.5706 177.815 64.2806C177.675 65.3306 180.015 66.1906 178.005 67.2306C178.765 67.9506 178.996 68.9406 179.416 70.0406C180.056 70.0406 180.755 70.0706 181.445 70.0406C182.645 69.9806 183.766 70.1806 184.926 69.1706C186.176 68.0906 187.175 70.7006 188.695 70.0506C189.005 69.9206 189.336 69.8506 189.906 69.6706C189.906 68.1606 189.916 66.5606 189.906 64.9606C189.886 63.1606 189.836 61.3706 189.796 59.5706C188.026 58.4606 189.275 56.5606 188.625 55.1706C188.525 54.9506 188.045 54.8506 187.725 54.7906C187.375 54.7306 187.006 54.7806 186.646 54.7806C186.766 54.4706 186.816 54.0106 187.036 53.8906C187.586 53.5906 188.225 53.4406 189.555 52.9806C188.275 52.1306 187.376 51.5406 186.646 51.0606C186.646 49.8906 186.785 48.9606 186.605 48.1106C186.435 47.3206 185.765 46.6506 185.595 45.8606C185.415 45.0006 185.495 44.0706 185.575 43.1906C185.645 42.3706 185.016 41.9606 184.766 41.3706C184.456 40.6406 184.246 39.3306 184.656 38.9306C186.356 37.2206 185.055 35.9606 184.605 34.3106C184.145 32.6406 183.246 33.0706 182.296 32.9906C182.176 32.3106 182.586 31.9506 183.146 31.9206C184.206 31.8706 185.195 31.9806 186.005 30.9606C186.995 29.7106 188.206 28.6206 189.296 27.4906C191.516 28.9972 194.479 29.7139 198.185 29.6406C199.075 28.7506 199.885 27.7506 200.875 27.0006C201.795 26.3106 202.925 25.9006 203.965 25.3606C205.595 25.3006 205.795 27.4906 207.365 27.5406C207.725 28.3006 208.246 29.0206 208.416 29.8206C208.596 30.6806 208.455 31.6106 208.455 32.3106C209.265 33.2706 209.955 34.0906 210.635 34.9006C209.895 36.6506 212.086 37.6506 211.766 39.3606C211.576 40.3806 211.725 41.4606 211.725 42.2706C212.625 43.1606 213.266 43.8006 213.906 44.4306V50.4306C213.906 51.1506 213.816 51.8806 213.926 52.5806C214.146 54.1006 213.425 55.6606 214.555 57.1706C215.545 58.4906 214.695 60.2906 215.055 61.8006C215.235 62.5406 216.706 63.3206 216.016 63.9906C214.086 65.8606 215.425 68.0706 214.985 70.0606C214.985 71.8506 215.065 73.6506 214.945 75.4406C214.905 76.0506 214.355 76.6306 213.945 77.4006C213.945 77.7306 215.516 77.8006 214.536 78.6406C213.676 79.3806 214.156 80.7506 213.046 81.2706C212.966 83.0306 213.135 84.8506 212.725 86.5306C212.345 88.1106 211.276 89.5006 210.666 91.0406C210.506 91.4606 211.025 91.9906 211.705 91.8606C211.825 92.5506 211.405 92.8206 210.845 92.9506C209.305 93.3106 208.356 94.1006 208.406 95.8406C208.416 96.3106 208.145 96.8106 207.935 97.2606C206.822 99.5939 206.262 101.714 206.255 103.621C206.255 105.251 206.255 106.881 206.255 108.501C206.255 109.771 206.116 111.051 206.296 112.291C206.436 113.261 207.415 114.251 207.245 115.081C206.945 116.591 208.846 117.101 208.416 118.441C208.006 119.711 209.285 120.241 209.565 121.231C209.935 122.531 211.316 123.741 210.536 125.091C209.806 126.371 212.845 126.961 210.845 128.131C210.765 129.541 210.655 130.961 210.615 132.371C210.575 133.631 210.615 134.901 210.605 136.171C210.605 136.521 210.635 136.921 210.475 137.201C209.825 138.381 208.855 139.461 208.495 140.711C208.115 142.041 208.435 143.561 208.135 144.921C208.015 145.491 207.265 145.921 207.315 146.751C207.395 148.011 207.165 149.311 207.375 150.541C207.615 151.951 206.366 152.771 206.296 153.901C206.126 156.601 206.196 159.321 206.296 162.031C206.306 162.441 206.936 162.841 207.286 163.241C206.966 163.601 206.616 163.981 206.296 164.341C206.646 164.751 207.196 165.111 207.296 165.561C207.506 166.561 206.996 167.751 208.176 168.481C208.226 168.511 208.066 169.031 207.896 169.211C207.106 169.991 207.136 170.711 207.926 171.461C208.456 171.961 208.955 172.481 209.495 173.021V176.661C210.525 177.491 211.785 178.501 212.845 179.361V182.971C213.645 183.401 213.865 184.551 214.975 184.501C214.845 184.811 214.755 185.361 214.595 185.381C213.555 185.511 212.495 185.531 211.445 185.591C209.515 183.721 207.106 184.661 204.896 184.531C202.746 184.401 200.585 184.431 198.435 184.551C197.845 184.581 197.335 185.391 196.715 185.551C196.025 185.731 195.265 185.551 195.345 184.501C195.655 184.371 195.966 184.241 196.276 184.111C194.796 182.161 193.266 180.151 191.026 179.121C189.776 178.551 189.115 177.561 188.205 176.761C187.435 176.091 187.696 174.771 186.656 174.131C185.746 173.561 184.975 172.781 184.385 172.291V168.631C183.305 167.551 182.276 166.521 181.166 165.411C181.166 164.771 180.865 163.721 181.215 163.401C182.515 162.241 182.156 160.821 182.266 159.431C182.336 158.541 181.076 158.091 181.286 157.771C181.786 157.021 182.336 156.451 182.276 155.421C182.176 153.631 182.245 151.821 182.245 150.141C183.005 149.381 183.855 148.841 184.235 148.071C184.745 147.031 184.045 145.521 185.445 144.761V141.691C186.425 140.011 188.215 139.281 188.835 137.441C189.365 135.871 189.905 134.611 190.065 132.501C190.705 131.861 191.345 131.221 192.055 130.511C192.055 129.681 192.106 128.771 192.046 127.881C191.976 126.751 192.056 125.721 193.146 125.061C191.426 123.911 192.245 122.131 192.055 120.611C191.995 120.111 191.866 119.621 191.766 119.101C190.946 119.081 190.036 119.211 189.916 118.331C189.666 116.501 188.066 115.841 187.016 114.701C185.666 114.931 185.245 113.681 184.435 113.061C184.985 111.621 182.766 111.151 183.276 109.731C181.666 108.881 183.136 108.151 183.296 107.321C183.376 106.911 183.065 106.281 182.735 105.961C181.935 105.191 182.035 104.091 182.335 103.461C182.785 102.521 183.675 101.751 183.325 100.611C182.885 99.1706 184.495 98.4006 184.375 97.2506C184.225 95.7306 185.095 94.9806 185.965 94.0606C186.985 92.9806 186.855 91.8406 185.685 90.3606C185.465 90.0806 185.166 89.8706 184.906 89.6306C183.996 89.6306 183.076 89.5706 182.176 89.6506C181.146 89.7406 180.015 89.2506 179.085 90.0506C178.605 91.5206 179.706 93.3806 177.926 94.4906C177.906 95.3906 177.836 96.3006 177.896 97.1906C177.966 98.3206 176.336 98.7306 176.776 100.011C177.146 101.071 175.935 101.521 175.755 102.291C175.515 103.321 175.535 104.491 175.735 105.541C175.975 106.811 174.485 107.181 174.575 108.371C174.695 109.981 174.605 111.601 174.605 113.151C177.425 115.121 177.396 118.911 180.146 120.841V125.151C181.806 126.351 181.075 128.121 181.115 129.641C181.215 133.451 181.156 137.271 181.146 141.081C181.146 142.331 181.055 143.581 181.005 144.831C179.325 145.591 180.735 147.631 179.465 148.551C178.745 149.071 179.465 149.311 179.615 149.721C180.225 151.281 180.346 152.511 179.666 153.721C179.306 154.351 178.925 154.841 178.955 155.621C179.015 157.071 178.975 158.521 178.975 159.961C178.285 160.571 177.326 161.371 178.036 162.161C179.096 163.341 179.395 164.191 178.065 165.241C178.015 165.281 178.045 165.551 178.115 165.601C179.555 166.711 179.045 167.641 177.965 168.671C177.775 168.851 178.075 169.631 178.255 170.101C178.435 170.571 178.925 170.981 178.945 171.441C179.025 173.251 178.876 175.081 179.016 176.881C179.106 178.041 180.125 178.871 180.185 180.241C180.245 181.691 178.855 182.341 178.995 183.611C179.055 184.181 179.385 184.601 180.075 184.481C179.115 186.711 176.955 187.881 175.445 189.621C174.285 190.961 174.225 190.901 175.605 192.531C175.265 193.181 174.806 193.741 174.656 194.371C174.386 195.531 175.025 196.811 173.855 197.881C173.265 198.411 174.095 198.661 174.555 198.631C175.205 198.591 175.635 198.881 175.685 199.441C175.745 200.131 175.725 200.881 175.505 201.531C175.325 202.061 174.676 202.151 175.156 203.121C176.156 205.161 175.926 206.161 175.046 208.581C174.506 210.061 174.206 214.561 175.046 215.831C175.796 216.961 175.995 217.621 174.955 218.531C174.735 218.721 174.686 219.151 174.646 219.471C174.546 220.381 174.625 221.221 175.435 221.891C175.565 222.001 174.736 223.151 174.896 223.321C175.736 224.221 175.966 224.841 175.156 226.041C174.276 227.341 174.215 228.961 175.325 230.431C175.965 231.281 175.985 231.481 175.325 232.241C174.335 233.371 174.415 234.391 175.075 235.611C175.985 237.281 175.985 237.341 175.205 238.911C174.965 239.401 174.836 239.561 175.176 240.111C176.066 241.531 176.225 243.141 175.085 244.481C173.955 245.811 175.015 246.371 175.735 247.161V251.471C174.215 252.451 174.696 253.981 174.646 255.371C174.616 256.261 174.855 256.971 175.355 257.811C176.185 259.191 175.735 260.921 175.625 262.501C175.585 263.011 174.186 263.191 175.176 264.041C176.146 264.871 174.986 265.091 174.766 265.591C174.456 266.331 174.656 266.951 175.296 267.451C175.436 267.561 175.555 267.701 175.685 267.841C175.095 268.831 174.075 268.181 173.325 268.461C172.555 268.751 171.895 269.301 171.095 269.791C170.185 268.881 169.385 268.161 168.695 267.351C168.385 266.991 168.036 266.371 168.146 265.991C168.576 264.411 166.396 263.651 167.016 262.081C167.196 261.611 167.446 261.171 167.646 260.711C168.266 259.201 168.616 257.681 167.396 256.311C167.046 255.921 166.925 255.811 167.375 255.511C167.665 255.321 168.065 255.001 168.075 254.731C168.135 252.741 168.125 250.741 168.095 248.751C168.085 247.691 166.695 247.221 166.965 245.931C167.185 244.891 167.005 243.761 167.005 242.681C167.005 241.601 166.745 240.421 167.075 239.441C167.455 238.301 165.415 237.881 166.465 236.851C167.255 236.081 166.955 235.191 166.995 234.341C167.045 233.261 167.035 232.161 166.995 231.081C166.955 229.871 167.396 228.511 166.036 227.671C165.996 226.301 165.645 224.981 166.495 223.601C167.335 222.241 167.325 220.721 166.355 219.181C165.575 217.931 165.555 216.541 166.355 215.221C166.855 214.411 166.815 214.151 166.205 213.621C165.995 213.431 165.926 212.991 165.926 212.671C165.906 210.311 165.956 207.961 165.896 205.601C165.876 204.781 166.305 204.331 166.745 203.751C167.015 203.391 166.886 202.741 167.016 202.241C167.366 200.961 164.965 200.251 166.185 199.021C167.115 198.071 166.995 197.111 166.995 196.071C166.995 194.851 167.295 193.551 166.005 192.641C165.835 192.521 166.096 191.691 166.266 191.221C166.446 190.751 166.955 190.341 166.975 189.891C167.055 188.081 167.005 186.271 167.005 184.451C168.305 183.661 169.875 183.351 170.955 182.151C171.475 181.571 171.516 181.201 171.026 180.291C170.786 179.851 170.335 179.421 170.315 178.971C170.235 176.981 170.286 174.991 170.286 173.041C169.916 172.631 169.576 172.251 169.286 171.931C169.596 171.481 170.135 170.771 170.105 170.741C168.835 169.671 168.845 168.681 170.125 167.641C170.145 167.621 169.585 166.901 169.195 166.371V161.121C170.995 159.771 169.925 157.791 170.335 156.151C170.585 155.151 168.606 155.041 169.656 154.081C170.476 153.331 170.115 152.441 170.325 151.621C170.525 150.821 171.175 150.131 171.335 149.341C171.515 148.471 171.355 147.541 171.385 146.631C171.405 145.931 171.215 144.901 171.595 144.581C172.995 143.401 172.395 141.911 172.445 140.551C172.535 138.381 172.445 136.201 172.475 134.031C172.509 131.677 172.272 129.901 171.766 128.701C171.576 128.241 171.446 127.731 171.396 127.231C171.226 125.391 169.666 121.421 168.286 119.821C167.576 119.001 166.815 118.341 166.995 117.071C167.175 115.841 165.605 115.181 165.865 113.711C166.155 112.131 165.926 110.461 165.926 108.831C165.926 107.381 166.195 105.871 165.855 104.501C165.415 102.691 167.235 101.591 166.955 100.051C166.715 98.7406 168.155 98.3506 168.105 97.2306C168.055 96.1406 168.015 95.0506 168.135 93.9706C168.185 93.5106 168.675 93.1206 168.885 92.6606C169.565 91.1206 169.255 89.9406 167.955 88.9506C167.255 88.4206 165.015 88.4306 165.065 88.9106C165.255 90.7506 163.436 92.0606 163.776 93.8206C164.146 95.7006 161.866 96.9006 162.656 98.8106C161.926 99.5906 161.196 100.381 160.416 101.221V104.411C158.606 105.231 160.145 107.621 158.495 108.511C158.425 110.291 158.075 112.131 158.385 113.851C158.605 115.101 159.475 116.431 160.435 117.291C161.675 118.401 161.725 120.081 162.985 121.221C164.145 122.281 164.426 124.251 165.426 125.571C166.306 126.741 165.275 128.531 166.885 129.361C167.055 129.451 167.005 130.021 167.005 130.371C167.005 133.811 167.035 137.261 166.985 140.701C166.985 141.161 166.685 141.701 166.355 142.051C165.155 143.321 166.326 143.931 167.026 144.701C166.366 145.291 165.456 145.971 166.046 146.901C166.526 147.661 167.085 147.941 166.185 148.911C165.215 149.941 166.626 151.671 165.396 152.921C164.256 154.071 165.045 155.651 164.855 157.031C164.715 158.081 165.076 159.471 164.526 160.121C163.676 161.111 163.776 162.071 163.766 163.101C163.746 166.181 163.775 169.261 163.745 172.341C163.735 173.441 164.065 174.271 164.685 175.241C165.255 176.131 164.605 177.721 165.935 178.501V184.481L165.955 184.531ZM201.266 126.791C200.616 127.621 200.905 128.361 200.855 129.051C200.795 129.941 201.145 131.171 200.685 131.661C199.825 132.581 199.755 133.491 199.735 134.581C199.715 135.461 198.376 135.781 198.666 136.851C197.226 138.141 196.515 139.971 195.375 141.481C194.965 142.021 194.125 142.331 194.305 143.211C194.555 144.401 193.546 145.121 193.296 146.051C192.946 147.361 191.455 148.301 192.095 149.941C192.685 151.451 190.655 152.221 190.945 153.851C191.175 155.141 191.575 156.781 189.995 157.761C190.015 158.981 189.445 160.391 190.315 161.361C191.025 162.161 191.076 162.931 191.026 163.811C190.926 165.671 191.965 167.101 192.985 168.431C193.965 169.711 195.256 170.771 196.416 171.921C196.466 174.671 199.065 174.471 200.495 175.761C201.035 174.691 201.176 173.481 200.666 173.031C199.496 171.971 199.726 170.761 199.786 169.551C199.856 168.251 198.335 167.671 198.585 166.181C198.805 164.891 199.236 163.251 197.656 162.261C197.626 161.181 197.605 160.101 197.575 159.031C199.575 157.301 198.286 154.971 198.666 152.951C198.826 152.071 197.615 151.811 197.695 151.251C197.775 150.671 198.685 150.381 198.695 149.501C198.695 147.781 198.185 145.911 199.755 144.511C199.755 143.421 199.845 142.321 199.735 141.251C199.585 139.921 201.465 139.331 200.855 137.891C200.115 136.141 202.435 135.151 201.965 133.441C201.885 133.161 202.025 132.641 202.245 132.501C203.425 131.731 202.936 130.571 203.036 129.541C201.976 129.021 202.186 127.551 201.276 126.801L201.266 126.791ZM198.666 57.5206C198.666 61.8906 198.666 66.0506 198.666 70.2106C198.666 71.1806 199.685 71.6006 200.585 70.7906C201.605 69.8606 202.316 69.7706 203.276 70.7906C203.556 71.0806 204.275 71.1806 204.695 71.0506C205.155 70.9106 205.456 70.3106 205.916 70.0706C207.426 69.2706 207.945 68.3406 207.005 67.0506C206.205 65.9606 206.046 65.3506 207.026 64.3506C207.656 63.7106 207.535 63.5606 206.945 62.5406C206.715 62.1506 206.086 61.8806 206.796 61.3806C207.706 60.7406 207.435 59.7506 207.345 58.9206C207.285 58.3506 206.495 57.4106 206.565 57.3506C207.705 56.5006 206.666 56.0706 206.426 55.3406C206.056 54.2306 206.245 52.9306 206.205 51.6606C203.675 51.6606 201.355 51.5206 199.075 51.7306C198.175 51.8106 197.345 52.6906 196.505 53.2006V55.3506C197.155 56.0006 197.796 56.6406 198.676 57.5106L198.666 57.5206ZM197.355 112.251C197.355 112.251 197.565 112.161 197.565 112.031C197.585 109.321 197.565 106.601 197.595 103.891C197.605 103.221 197.215 102.401 197.935 101.871C199.355 100.831 198.005 98.6006 199.755 97.7306C199.755 96.8306 199.666 95.9106 199.796 95.0206C199.866 94.5606 200.355 94.1806 200.585 93.7306C200.735 93.4406 200.935 92.9606 200.815 92.7706C200.335 92.0606 199.805 91.3206 199.135 90.7906C198.575 90.3506 196.855 91.0806 196.215 91.5206C195.115 92.2906 195.635 93.9906 194.315 94.5606V98.1306C193.645 98.6706 192.806 99.3406 192.156 99.8506V107.051C194.126 109.021 195.735 110.631 197.345 112.241L197.355 112.251ZM168.135 56.9706C166.495 56.9706 165.405 56.9606 164.325 56.9906C164.195 56.9906 164.035 57.2106 163.945 57.3606C163.335 58.3006 162.396 58.0206 161.526 58.0706C160.416 58.1406 160.456 58.5806 161.146 59.2706C161.366 59.4906 161.555 59.8506 161.575 60.1606C161.635 61.0606 161.246 62.2306 161.676 62.8106C162.326 63.6706 162.455 64.7306 163.095 65.4906C163.605 66.0906 163.775 66.6406 163.805 67.3906C163.835 68.2406 163.416 69.1906 164.176 69.9206H169.965C170.585 68.8006 170.165 67.7006 170.335 66.6706C170.605 65.0206 169.925 63.6306 169.235 62.2406C168.865 61.4906 168.355 60.7706 168.185 59.9706C168.005 59.1306 168.146 58.2206 168.146 56.9606L168.135 56.9706Z" fill="#F8C854"/>
<path d="M213.935 50.4414V44.4414C213.295 43.8014 212.655 43.1614 211.755 42.2814C211.755 41.4714 211.596 40.3914 211.796 39.3714C212.116 37.6614 209.926 36.6714 210.666 34.9114C209.976 34.1014 209.295 33.2814 208.485 32.3214C208.485 31.6214 208.625 30.6914 208.445 29.8314C208.275 29.0314 207.756 28.3114 207.396 27.5514C208.306 27.7714 208.395 26.6514 209.095 26.6014C209.455 26.8614 209.855 27.1414 210.245 27.4214C210.925 26.2714 212.115 26.2214 213.105 26.5114C214.615 26.9614 215.135 25.1814 216.485 25.3314C217.685 25.4614 218.996 25.6514 219.916 24.3714C220.106 24.1014 220.975 24.4114 221.465 24.2514C222.095 24.0514 222.666 23.6414 223.396 23.2514C223.766 23.2914 223.686 24.5914 224.766 23.8514C226.486 22.6814 228.365 21.6614 230.565 22.1214C231.825 22.3814 232.406 21.1514 233.396 21.0414C234.656 20.9014 235.935 21.0114 237.205 21.0114H240.475C241.875 19.4414 243.755 19.9614 245.475 19.9414C246.595 19.9414 247.026 18.3314 248.296 18.8314C249.716 19.3914 250.156 17.2314 251.676 17.6814C252.616 17.9514 253.865 18.0814 254.585 16.8914C254.655 16.7714 254.876 16.6714 255.026 16.6614C256.456 16.5914 257.885 16.5514 259.325 16.5014C260.365 14.9714 261.966 15.5014 263.296 15.6314C264.846 15.7814 265.615 14.0714 267.225 14.4214C268.435 14.6914 269.756 14.4714 271.026 14.4714C272.426 12.8814 274.306 13.5114 276.026 13.3714C276.346 13.3414 276.775 13.2414 276.955 13.0114C277.765 12.0014 279.085 11.9314 280.105 11.3214C281.035 10.7614 282.575 11.2014 283.845 11.2014C285.475 9.72137 287.485 10.2214 289.385 10.0714C289.826 10.0414 290.176 9.36138 290.646 9.21138C291.086 9.07138 291.745 9.05137 292.085 9.29137C292.645 9.69137 292.825 10.0214 293.705 9.51137C295.125 8.68137 296.535 7.62137 298.495 7.86137C300.025 8.05137 301.805 8.46138 303.185 7.46138C304.705 6.36138 306.305 7.10137 307.845 6.84137C308.015 6.81137 308.285 6.82137 308.325 6.72137C309.115 5.08137 311.075 6.33137 312.065 5.19137C312.825 4.33137 313.626 4.46137 314.296 5.29137C314.896 6.02137 315.075 5.20137 315.465 5.07137C317.065 4.53137 318.335 3.23137 320.305 3.50137C321.615 3.68137 323.215 4.18138 324.315 2.74138C325.735 2.65138 327.145 2.57137 328.565 2.47137C328.735 2.46137 328.996 2.44137 329.046 2.34137C329.606 1.26137 330.965 1.60138 331.705 0.811375C332.745 -0.298625 334.095 0.431375 335.305 0.311375C336.385 0.201375 337.486 0.291371 338.406 0.291371C340.146 2.03137 341.796 3.70137 343.646 5.55137C342.976 7.30137 344.685 8.33137 345.855 9.57137C345.075 10.2714 344.255 10.9614 344.955 11.8914C346.375 13.7714 347.145 15.7914 346.975 18.1714C346.955 18.4214 347.455 18.6714 347.625 18.9814C348.155 19.9614 348.275 20.0914 347.635 20.8114C346.626 21.9414 346.516 23.1114 347.426 24.1414C348.146 24.9514 348.145 25.8014 347.995 26.6214C347.845 27.4214 347.195 28.1114 346.985 28.9114C346.805 29.5914 347.066 30.3814 346.906 31.0714C346.806 31.5314 346.275 31.8814 346.005 32.3214C345.395 33.3114 344.026 32.8414 343.296 33.8114C343.006 34.1914 341.976 34.0614 341.276 34.0814C340.186 34.1214 339.066 34.2614 338.016 34.0514C336.296 33.7214 335.046 34.8414 333.546 35.1614C332.046 35.4814 330.345 34.6114 328.995 36.1214C328.665 36.4914 327.616 36.1714 326.916 36.2814C325.876 36.4514 325.215 35.9314 324.625 35.2114C323.985 35.7914 323.425 36.4614 322.365 36.3014C321.475 36.1614 320.506 36.4514 319.656 36.2314C318.066 35.8214 317.255 37.5614 315.735 37.4014C314.315 37.2514 312.856 37.4314 311.416 37.4614C310.206 39.0914 308.446 38.2614 306.916 38.4414C304.686 38.7114 302.256 37.7314 300.286 39.5414C298.866 39.6214 297.446 39.6914 296.016 39.7714C295.136 41.1614 293.745 40.5414 292.555 40.6114C291.105 40.7014 289.645 40.6714 288.195 40.6114C287.075 40.5714 286.075 40.6314 285.315 41.6514C285.195 41.8114 284.366 41.5214 283.896 41.3314C283.596 41.2114 283.375 40.8914 283.115 40.6714C282.005 42.4514 280.125 41.3214 278.695 41.8514C278.225 42.0214 277.895 42.7014 277.455 42.7614C276.385 42.9014 275.255 42.6614 274.195 42.8514C273.225 43.0214 272.335 43.7514 271.365 43.8514C269.745 44.0214 268.095 43.8014 266.465 43.9214C264.765 44.0514 262.836 43.1914 261.416 44.9014C261.336 45.0014 261.086 44.9514 260.916 44.9914C258.546 45.5014 255.845 43.8514 253.725 46.0714C251.365 46.0714 248.996 46.0014 246.646 46.1014C244.516 46.2014 242.185 45.3514 240.305 46.5214C238.205 47.8314 236.075 46.6914 233.955 47.3014C233.455 48.0214 232.845 48.5014 232.115 47.3614C231.085 47.8814 230.105 48.4214 228.825 48.2914C227.625 48.1714 226.415 48.0414 225.355 49.2014C224.935 49.6614 223.625 49.2314 222.735 49.3614C221.045 49.6014 219.065 48.5214 217.735 50.4314C216.465 50.4314 215.196 50.4314 213.916 50.4314L213.935 50.4414Z" fill="#E3A25E"/>
<path d="M211.755 91.8604C211.075 91.9804 210.545 91.4604 210.715 91.0404C211.315 89.5004 212.395 88.1004 212.775 86.5304C213.185 84.8504 213.015 83.0304 213.095 81.2704C214.195 80.7504 213.725 79.3704 214.585 78.6404C215.565 77.8004 214.005 77.7304 213.995 77.4004C214.405 76.6304 214.955 76.0504 214.995 75.4404C215.115 73.6604 215.035 71.8604 215.035 70.0604C216.485 70.0604 217.945 69.9704 219.385 70.0804C221.085 70.2204 223.035 69.3204 224.375 71.1504C225.455 71.1304 226.535 71.1204 227.615 71.1004C228.595 69.5304 230.175 70.1104 231.545 70.0804C234.445 70.0204 237.355 70.0404 240.255 70.0804C241.185 70.0904 242.005 70.0504 242.645 69.2104C242.805 69.0004 243.455 68.8704 243.595 69.0004C245.235 70.5804 247.255 70.0004 249.155 70.0504C250.365 70.0804 251.725 70.4504 252.555 69.0704C252.815 69.2604 253.045 69.5104 253.335 69.6304C253.805 69.8204 254.625 70.1704 254.735 70.0204C255.975 68.3804 257.695 68.9804 259.235 69.0104C260.595 69.0304 262.145 68.3704 263.265 69.7604C264.485 69.8304 265.815 70.2304 266.875 69.8604C267.675 69.5804 267.995 68.9604 268.905 69.8004C269.295 70.1604 270.005 68.7504 271.035 68.9204C272.095 69.0904 273.205 68.9604 274.295 68.9604H277.015C277.925 68.9604 278.835 68.9104 279.735 68.9904C280.025 69.0204 280.335 69.3504 280.545 69.6204C281.165 70.3904 281.355 69.5304 281.705 69.3304C282.585 68.8404 282.775 68.6604 283.525 69.4004C284.485 70.3404 285.815 70.3904 286.445 69.8904C287.645 68.9504 288.475 68.4904 289.525 69.8604C290.545 69.2804 291.545 68.8904 292.805 68.9204C297.885 69.0104 302.965 68.9604 308.045 68.9604C309.315 68.9604 310.585 68.9004 311.855 68.9904C312.325 69.0204 312.855 69.2904 313.215 69.6004C314.215 70.4704 314.215 69.0704 315.155 68.9704H346.605C347.075 69.5004 347.605 70.2604 348.315 70.8004C348.815 71.1904 349.555 71.2804 350.115 71.4804C350.525 73.0804 349.545 74.9104 351.295 76.0304C351.295 76.9304 351.295 77.8404 351.325 78.7404C351.365 80.1304 350.905 81.6404 352.385 82.6804C352.545 82.7904 352.535 83.5304 352.345 83.6904C351.225 84.6804 350.735 85.6304 352.175 86.7404C352.245 86.8004 352.275 87.0704 352.235 87.1004C350.865 87.9704 351.175 89.3804 351.375 90.5304C351.735 92.6204 350.505 94.1804 349.925 95.9504C349.775 96.4204 349.295 96.7904 349.165 97.2604C349.035 97.7704 349.135 98.3404 349.135 98.9704C348.255 99.8004 347.335 100.67 346.285 101.66C341.225 101.66 335.975 101.7 330.725 101.63C329.545 101.61 328.275 102.14 327.165 101.01C326.185 100.01 324.765 100.67 323.555 100.59C322.105 100.49 320.655 100.57 319.205 100.57H311.585C310.315 100.57 309.045 100.52 307.775 100.58C306.645 100.63 306.265 99.1304 304.945 99.4304C303.905 99.6604 302.775 99.4804 301.685 99.4804C300.595 99.4804 299.515 99.4804 298.425 99.4704C296.515 97.2904 293.995 98.8304 291.795 98.3904C290.985 98.2304 290.535 98.8004 289.935 99.1704C289.395 99.5004 288.295 99.7204 287.945 99.4204C286.415 98.0604 284.625 98.5004 282.905 98.3604C282.425 98.3204 281.875 98.1104 281.525 97.7904C280.675 97.0204 280.065 97.2704 279.235 97.9004C278.205 98.6804 278.125 98.5804 276.625 97.3004H271.735C270.285 97.3004 268.825 97.3604 267.385 97.2804C266.195 97.2104 265.475 95.8804 264.015 96.1504C262.615 96.4104 261.105 96.3304 259.675 96.1704C258.525 96.0404 257.725 94.8204 256.305 95.0704C255.075 95.2904 253.775 95.1204 252.505 95.1204C251.235 95.1204 249.965 95.0904 248.695 95.1304C247.765 95.1604 247.075 94.9104 246.285 94.3204C245.475 93.7104 244.295 93.7404 243.375 94.5604C243.175 94.7404 242.705 94.9504 242.635 94.8704C240.955 93.1404 238.845 94.4304 236.985 94.0304C234.615 93.5104 231.955 95.1204 229.765 93.0204C229.475 92.7404 228.725 92.9404 228.185 92.9404C224.915 92.9404 221.655 92.9404 218.385 92.9404C217.295 92.9404 216.185 93.0804 215.125 92.9004C214.325 92.7604 213.615 92.1804 212.835 91.8704C212.515 91.7504 212.115 91.8504 211.755 91.8504V91.8604Z" fill="#E3A25E"/>
<path d="M153.965 39.5407C154.165 40.7007 153.805 41.6407 152.875 42.3607C153.265 43.7407 150.405 44.9607 152.635 46.5007C152.685 46.5407 151.875 47.5207 151.825 48.0907C151.705 49.5307 151.755 50.9907 151.795 52.4407C151.825 53.5407 151.835 54.5607 150.795 55.3307C150.615 55.4607 150.755 56.4907 151.045 56.7107C151.925 57.4007 151.795 58.2707 151.785 59.1607C150.095 59.4007 148.145 58.4307 146.805 60.2507C145.785 60.3407 144.845 60.2007 143.805 60.9607C142.955 61.5807 141.415 61.2207 140.195 61.3407C136.355 61.7107 132.405 60.4507 128.655 62.3607C127.795 62.8007 126.235 62.0007 125.485 62.5007C123.345 63.9407 121.055 63.3707 118.815 63.5107C118.455 63.5307 117.955 63.3607 117.745 63.5407C115.385 65.5507 112.585 64.2207 110.025 64.6107C109.515 64.6907 108.755 64.5807 108.535 64.8807C107.555 66.1907 106.125 65.8907 105.065 65.6207C103.385 65.2007 102.635 67.0007 101.145 66.8207C100.075 66.6907 98.9753 66.7907 97.8853 66.7907C96.7953 66.7907 95.6653 66.9807 94.6353 66.7407C93.3253 66.4507 92.9152 67.8607 91.8152 67.9007C90.7852 67.9307 89.6752 67.5307 88.7052 68.2607C89.3052 69.3707 89.9853 70.2707 91.4753 70.0807C92.3653 69.9707 93.2852 70.0607 94.1952 70.0607H155.075C155.075 71.1407 155.255 72.2507 155.035 73.2807C154.645 75.1507 156.705 76.2507 156.245 78.2307C155.855 79.9307 156.165 81.7907 156.165 83.5907C157.135 84.3607 157.355 85.1107 156.185 85.9407C156.015 86.0607 156.165 86.6207 156.165 86.9807V88.5907C155.285 88.7807 155.115 87.7707 154.485 87.5907C153.945 87.7307 153.795 89.0707 152.935 88.0707C152.495 87.5607 152.185 87.6107 151.765 88.0807C150.885 89.0607 150.755 87.7007 150.095 87.5607C149.145 87.5407 148.065 87.5207 146.975 87.5107C145.885 87.5107 144.755 87.3207 143.715 87.5507C142.405 87.8407 141.995 86.3907 140.885 86.4007C138.705 86.4307 136.525 86.4007 134.345 86.4007C133.075 86.4007 131.795 86.3507 130.525 86.4107C129.235 86.4807 128.085 86.4107 127.115 85.3507C126.865 85.0807 126.065 85.3107 125.525 85.3107C123.705 85.3107 121.875 85.4607 120.075 85.2707C117.675 85.0307 115.025 86.2807 112.895 84.2207C111.205 84.5207 109.355 83.5107 107.755 85.0607C107.365 85.4407 106.635 84.1107 105.615 84.1707C103.075 84.3207 100.525 84.3207 97.9853 84.1807C96.1053 84.0807 94.0053 85.0207 92.3953 83.1907C92.2353 83.0007 91.7053 83.1207 91.3553 83.1207C90.4453 83.1207 89.5353 83.1207 88.6253 83.1207C86.4453 83.1207 84.2552 83.2707 82.0852 83.0707C80.1852 82.9007 78.2852 83.6907 76.3352 82.4707C74.4652 81.2907 72.0753 82.4207 70.0053 81.9607C68.7153 81.6707 67.6153 80.5707 66.1153 80.8607C65.5953 79.8007 64.8053 78.7907 64.6253 77.6807C64.3653 76.0907 64.5552 74.4207 64.5552 72.2407C65.4652 71.4207 66.6653 70.3407 67.8553 69.2607C67.4753 68.2907 66.8753 67.3707 66.7953 66.4107C66.7153 65.4207 66.2053 64.8407 65.7853 64.0707C65.4253 63.4107 65.1753 62.1007 65.9953 61.6107C67.0353 60.9907 66.1453 59.2307 67.5953 59.1707C69.1353 59.1107 69.5153 57.6807 70.5153 56.9907C72.0353 56.7807 73.7653 57.5507 75.0053 55.9107C75.2053 55.6507 76.0453 55.8807 76.5953 55.8707C77.9853 55.8407 79.2552 55.8507 80.5752 54.8807C81.5452 54.1707 83.3853 55.3807 84.5353 53.9407C84.7753 53.6407 85.5553 53.6307 86.0353 53.7207C87.3953 53.9707 88.3053 52.9907 89.4253 52.6807C90.6053 52.3507 91.9553 52.6407 93.2153 52.5807C93.5053 52.5707 93.7552 52.1507 94.0552 52.0007C95.1052 51.4607 96.1253 50.6807 97.2353 50.5107C98.3353 50.3407 99.3052 50.2907 100.075 49.3707C100.215 49.2007 100.925 49.2307 101.085 49.4107C102.085 50.5607 103.045 50.9707 104.135 49.5507C106.415 49.6007 108.255 47.8007 110.695 48.1807C111.985 48.3807 113.615 48.8407 114.765 47.6107C115.715 46.5907 117.335 47.8607 118.145 46.4807C118.285 46.2507 118.735 46.1007 119.045 46.0907C120.315 46.0507 121.655 45.8307 122.845 46.1307C124.365 46.5207 124.735 44.3507 126.235 44.9607C127.585 45.5107 128.095 43.4007 129.605 43.8307C130.565 44.1007 131.675 44.0807 132.555 43.0507C132.875 42.6707 133.895 42.9007 134.595 42.7907C135.965 42.5807 137.575 43.3907 138.685 42.1907C139.665 41.1307 141.255 42.4107 142.075 41.0807C142.225 40.8407 142.645 40.6907 142.955 40.6307C144.135 40.4107 145.435 41.0907 146.495 39.9307C147.335 39.0107 148.545 39.6307 149.585 39.5507C150.845 39.4507 152.125 39.5307 153.395 39.5307H153.945L153.965 39.5407Z" fill="#E3A25E"/>
<path d="M127.795 341.521C128.105 341.391 128.435 341.301 128.715 341.131C128.995 340.961 129.455 340.521 129.455 340.531C131.235 342.531 133.575 341.111 135.595 341.521C136.105 341.621 136.955 341.421 137.125 341.681C138.345 343.631 140.675 341.721 141.995 343.181C142.215 343.421 142.565 343.681 142.855 343.691C144.855 343.731 146.845 343.711 148.845 343.711C150.425 345.421 152.505 344.581 154.385 344.811C155.905 344.991 157.695 344.121 158.845 345.871C160.295 345.871 161.745 345.881 163.195 345.891C164.755 348.561 166.185 345.631 167.695 345.751C167.935 345.771 168.195 345.261 168.465 345.021C168.585 344.911 168.795 344.771 168.905 344.811C169.855 345.151 170.775 345.751 171.735 345.811C172.495 345.861 172.945 344.431 173.995 344.821C174.465 345.001 174.815 345.481 175.275 345.881C177.735 345.881 180.325 345.581 182.795 345.981C184.645 346.281 185.625 344.631 187.265 344.771C188.705 344.891 190.165 344.851 191.615 344.771C192.905 344.701 194.105 344.751 194.975 345.881H203.575C204.295 345.161 204.935 344.521 205.555 343.901C206.295 343.611 206.425 345.111 207.095 344.491C208.375 343.321 209.545 343.451 210.855 344.391C211.235 344.661 212.155 344.891 212.265 344.731C213.165 343.461 214.445 343.681 215.685 343.691C216.775 343.691 217.875 343.611 218.945 343.711C220.265 343.841 221.225 343.231 222.345 342.681C223.675 342.031 225.045 341.011 226.755 341.491C227.585 341.721 227.995 340.981 228.545 340.561C228.785 340.381 229.215 340.431 229.565 340.421C230.225 340.381 230.235 341.761 231.155 341.181C231.585 340.901 231.775 340.341 232.475 340.401C233.555 340.491 234.655 340.421 235.735 340.421C238.035 341.581 239.355 343.801 241.245 345.341C240.465 347.081 242.155 348.031 242.255 349.381C242.345 350.621 242.275 351.881 242.275 353.171C241.015 353.971 239.925 354.831 238.685 355.381C237.925 355.721 236.955 355.641 236.085 355.661C234.265 355.701 232.435 355.511 230.635 355.711C227.695 356.031 224.585 354.691 221.775 356.701C221.175 357.131 220.005 356.761 219.095 356.761C216.005 356.761 212.915 356.811 209.825 356.741C208.465 356.711 206.885 357.341 205.865 355.791C203.915 355.841 201.975 355.861 200.035 355.971C199.765 355.991 199.515 356.451 199.245 356.731C198.865 356.381 198.485 356.041 198.105 355.691C197.275 356.951 195.775 357.271 194.845 356.591C193.605 355.701 192.895 355.291 191.725 356.541C191.275 357.021 190.875 355.321 190.265 355.981C189.535 356.761 188.745 356.731 187.845 356.781C186.945 356.831 186.725 355.901 186.105 355.721C185.695 355.601 185.115 355.891 184.655 356.091C184.345 356.231 184.115 356.731 183.845 356.731C180.955 356.751 178.055 356.771 175.165 356.611C174.625 356.581 174.035 355.231 173.445 355.721C171.715 357.131 169.765 356.701 167.855 356.751C165.855 356.801 163.855 356.751 161.855 356.771C160.775 356.781 159.665 356.921 158.995 355.781C158.595 356.081 158.205 356.381 157.705 356.761C150.025 356.761 142.225 356.671 134.415 356.831C132.705 356.861 131.685 355.341 129.955 355.621C128.365 355.871 126.695 355.671 125.105 355.671C123.975 354.931 123.545 353.821 123.115 352.641C122.785 351.751 122.705 351.521 123.405 350.691C122.735 350.101 121.835 349.341 122.535 348.491C123.435 347.401 124.065 346.141 124.455 344.911C124.975 343.281 125.955 342.691 127.415 342.371C127.605 342.331 127.675 341.791 127.805 341.481L127.795 341.521Z" fill="#C90A49"/>
<path d="M176.865 55.89C176.555 55.76 175.995 55.66 175.985 55.51C175.845 53.74 175.785 51.96 175.685 49.64C175.185 49.3 174.295 48.71 173.605 48.24C173.605 46.93 173.575 46.04 173.605 45.16C173.645 44.07 173.685 43.01 172.585 42.34C172.675 41.36 171.895 40.82 171.525 40.07C171.165 39.35 171.565 38.29 171.385 37.43C171.215 36.64 170.695 35.92 170.335 35.17C170.875 35.17 171.675 35.39 171.895 35.13C172.685 34.21 173.585 33.98 174.715 34.06C175.785 34.14 176.865 34.02 177.935 34.09C179.065 34.17 179.965 33.94 180.755 33.02C180.985 32.75 181.785 32.98 182.315 32.98C183.265 33.07 184.165 32.63 184.625 34.3C185.075 35.94 186.375 37.21 184.675 38.92C184.275 39.33 184.485 40.63 184.785 41.36C185.035 41.96 185.665 42.37 185.595 43.18C185.515 44.07 185.435 45 185.615 45.85C185.785 46.64 186.455 47.31 186.625 48.1C186.805 48.96 186.665 49.88 186.665 51.05C187.395 51.53 188.295 52.13 189.575 52.97C188.255 53.43 187.615 53.58 187.055 53.88C186.835 54 186.785 54.46 186.665 54.77C184.505 54.77 182.345 54.73 180.185 54.8C179.735 54.82 179.215 55.16 178.885 55.5C178.255 56.15 177.525 55.71 176.855 55.85L176.865 55.89Z" fill="#E3A35E"/>
<path d="M180.135 184.53C179.445 184.65 179.125 184.24 179.055 183.66C178.915 182.4 180.305 181.74 180.245 180.29C180.185 178.92 179.165 178.09 179.075 176.93C178.935 175.12 179.085 173.3 179.005 171.49C178.985 171.04 178.495 170.62 178.315 170.15C178.135 169.68 177.835 168.9 178.025 168.72C179.115 167.69 179.615 166.76 178.175 165.65C178.105 165.59 178.075 165.33 178.125 165.29C179.455 164.24 179.165 163.39 178.095 162.21C177.385 161.42 178.355 160.62 179.035 160.01C179.035 158.56 179.075 157.11 179.015 155.67C178.985 154.89 179.365 154.4 179.725 153.77C180.415 152.56 180.285 151.33 179.675 149.77C179.515 149.37 178.805 149.12 179.525 148.6C180.795 147.68 179.385 145.64 181.065 144.88C181.115 143.63 181.205 142.38 181.205 141.13C181.225 137.32 181.275 133.5 181.175 129.69C181.135 128.17 181.865 126.4 180.205 125.2V120.89C177.455 118.96 177.485 115.17 174.665 113.2C174.665 111.65 174.755 110.03 174.635 108.42C174.545 107.23 176.035 106.86 175.795 105.59C175.595 104.54 175.575 103.38 175.815 102.34C175.995 101.57 177.195 101.12 176.835 100.06C176.395 98.7705 178.015 98.3705 177.955 97.2405C177.905 96.3405 177.975 95.4405 177.985 94.5405C179.765 93.4305 178.665 91.5705 179.145 90.1005C180.075 89.3005 181.195 89.8005 182.235 89.7005C183.135 89.6205 184.055 89.6805 184.965 89.6805C185.225 89.9205 185.525 90.1305 185.745 90.4105C186.905 91.8905 187.045 93.0305 186.025 94.1105C185.155 95.0305 184.275 95.7805 184.435 97.3005C184.555 98.4505 182.945 99.2305 183.385 100.66C183.735 101.81 182.855 102.58 182.395 103.51C182.085 104.14 181.995 105.24 182.795 106.01C183.125 106.33 183.435 106.96 183.355 107.37C183.195 108.19 181.715 108.93 183.335 109.78C182.825 111.2 185.045 111.68 184.495 113.11C185.315 113.73 185.725 114.98 187.075 114.75C188.125 115.89 189.725 116.55 189.975 118.38C190.095 119.26 191.005 119.13 191.825 119.15C191.925 119.67 192.055 120.16 192.115 120.66C192.315 122.19 191.485 123.96 193.205 125.11C192.115 125.77 192.025 126.8 192.105 127.93C192.165 128.83 192.115 129.73 192.115 130.56C191.405 131.27 190.765 131.91 190.125 132.55C189.965 134.66 189.425 135.92 188.895 137.49C188.275 139.33 186.485 140.06 185.505 141.74V144.81C184.115 145.57 184.805 147.08 184.295 148.12C183.915 148.89 183.065 149.43 182.305 150.19C182.305 151.87 182.235 153.68 182.335 155.47C182.395 156.5 181.845 157.07 181.345 157.82C181.135 158.13 182.395 158.59 182.325 159.48C182.215 160.87 182.575 162.29 181.275 163.45C180.915 163.77 181.225 164.82 181.225 165.46C182.335 166.57 183.355 167.59 184.445 168.68V172.34C185.035 172.83 185.805 173.61 186.715 174.18C187.745 174.82 187.495 176.14 188.265 176.81C189.175 177.61 189.845 178.6 191.085 179.17C193.325 180.19 194.855 182.2 196.335 184.16C196.025 184.29 195.715 184.42 195.405 184.55H180.135V184.53Z" fill="#FFFFFE"/>
<path d="M165.955 184.53V178.55C164.625 177.76 165.275 176.18 164.705 175.29C164.085 174.32 163.745 173.49 163.765 172.39C163.795 169.31 163.765 166.23 163.785 163.15C163.785 162.11 163.695 161.16 164.545 160.17C165.095 159.52 164.735 158.13 164.875 157.08C165.065 155.7 164.275 154.12 165.415 152.97C166.645 151.72 165.235 149.99 166.205 148.96C167.105 148 166.555 147.71 166.065 146.95C165.475 146.03 166.385 145.35 167.045 144.75C166.345 143.98 165.175 143.37 166.375 142.1C166.705 141.75 166.995 141.21 167.005 140.75C167.055 137.31 167.035 133.86 167.025 130.42C167.025 130.07 167.075 129.5 166.905 129.41C165.295 128.58 166.325 126.79 165.445 125.62C164.445 124.3 164.165 122.33 163.005 121.27C161.745 120.12 161.685 118.44 160.455 117.34C159.495 116.48 158.625 115.14 158.405 113.9C158.105 112.18 158.445 110.35 158.515 108.56C160.165 107.67 158.625 105.28 160.435 104.46V101.27C161.215 100.43 161.945 99.6503 162.675 98.8603C161.885 96.9503 164.165 95.7503 163.795 93.8703C163.455 92.1103 165.275 90.8003 165.085 88.9603C165.035 88.4703 167.285 88.4703 167.975 89.0003C169.275 90.0003 169.585 91.1703 168.905 92.7103C168.705 93.1703 168.205 93.5603 168.155 94.0203C168.045 95.1003 168.085 96.1903 168.125 97.2803C168.175 98.4003 166.735 98.7903 166.975 100.1C167.255 101.64 165.435 102.74 165.875 104.55C166.205 105.92 165.945 107.43 165.945 108.88C165.945 110.51 166.165 112.18 165.885 113.76C165.615 115.24 167.185 115.89 167.015 117.12C166.835 118.4 167.595 119.05 168.305 119.87C169.685 121.47 171.245 125.44 171.415 127.28C171.465 127.78 171.595 128.29 171.785 128.75C172.292 129.957 172.528 131.734 172.495 134.08C172.465 136.25 172.555 138.43 172.465 140.6C172.415 141.96 173.015 143.44 171.615 144.63C171.235 144.95 171.425 145.98 171.405 146.68C171.375 147.59 171.535 148.52 171.355 149.39C171.185 150.19 170.545 150.88 170.345 151.67C170.135 152.49 170.495 153.38 169.675 154.13C168.625 155.09 170.605 155.2 170.355 156.2C169.945 157.84 171.015 159.83 169.215 161.17V166.42C169.605 166.95 170.165 167.68 170.145 167.69C168.865 168.74 168.855 169.73 170.125 170.79C170.155 170.82 169.615 171.54 169.305 171.98C169.595 172.3 169.935 172.68 170.305 173.09C170.305 175.04 170.265 177.03 170.335 179.02C170.355 179.47 170.805 179.9 171.045 180.34C171.545 181.25 171.505 181.63 170.975 182.2C169.895 183.39 168.325 183.71 167.025 184.5H165.935L165.955 184.53Z" fill="#FFFFFE"/>
<path d="M155.055 70.0597H94.1752C93.2652 70.0597 92.3551 69.9697 91.4551 70.0797C89.9651 70.2697 89.2851 69.3697 88.6851 68.2597C89.6451 67.5297 90.7552 67.9397 91.7952 67.8997C92.8952 67.8597 93.3051 66.4397 94.6151 66.7397C95.6551 66.9697 96.7751 66.7897 97.8651 66.7897C98.9551 66.7897 100.055 66.6897 101.125 66.8197C102.615 66.9997 103.365 65.1997 105.045 65.6197C106.115 65.8897 107.545 66.1897 108.515 64.8797C108.735 64.5797 109.495 64.6897 110.005 64.6097C112.565 64.2197 115.365 65.5597 117.725 63.5397C117.935 63.3597 118.435 63.5397 118.795 63.5097C121.035 63.3697 123.325 63.9397 125.465 62.4997C126.215 61.9997 127.775 62.7897 128.635 62.3597C132.385 60.4497 136.345 61.7097 140.175 61.3397C141.405 61.2197 142.945 61.5797 143.785 60.9597C144.825 60.1997 145.765 60.3397 146.785 60.2497C148.125 58.4297 150.085 59.3997 151.765 59.1597C151.935 59.1597 152.155 59.0897 152.285 59.1697C153.005 59.5997 152.795 60.3397 152.875 61.0097C152.935 61.4797 153.055 62.0497 153.375 62.3497C153.965 62.9097 153.965 63.5297 153.955 64.2297C153.935 65.0997 153.805 66.0097 153.995 66.8397C154.165 67.6097 154.725 68.2797 155.025 69.0297C155.145 69.3297 155.045 69.7197 155.045 70.0697L155.055 70.0597Z" fill="#FFFEFE"/>
<path d="M201.265 126.791C202.175 127.541 201.965 129.011 203.025 129.531C202.925 130.551 203.415 131.721 202.235 132.491C202.025 132.631 201.885 133.151 201.955 133.431C202.425 135.141 200.105 136.131 200.845 137.881C201.455 139.321 199.585 139.911 199.725 141.241C199.845 142.321 199.745 143.411 199.745 144.501C198.165 145.901 198.685 147.771 198.685 149.491C198.685 150.371 197.765 150.661 197.685 151.241C197.605 151.801 198.815 152.051 198.655 152.941C198.275 154.961 199.565 157.291 197.565 159.021C197.595 160.101 197.615 161.181 197.645 162.251C199.225 163.241 198.795 164.881 198.575 166.171C198.325 167.661 199.835 168.241 199.775 169.541C199.715 170.741 199.485 171.961 200.655 173.021C201.165 173.481 201.025 174.681 200.485 175.751C199.055 174.461 196.455 174.671 196.405 171.911C195.255 170.761 193.965 169.701 192.975 168.421C191.955 167.091 190.915 165.671 191.015 163.801C191.065 162.921 191.015 162.151 190.305 161.351C189.445 160.371 190.005 158.971 189.985 157.751C191.565 156.771 191.165 155.131 190.935 153.841C190.645 152.211 192.675 151.441 192.085 149.931C191.445 148.301 192.935 147.351 193.285 146.041C193.535 145.111 194.535 144.391 194.295 143.201C194.115 142.321 194.955 142.011 195.365 141.471C196.505 139.961 197.205 138.141 198.655 136.841C198.365 135.771 199.705 135.451 199.725 134.571C199.745 133.481 199.815 132.571 200.675 131.651C201.135 131.161 200.785 129.931 200.845 129.041C200.895 128.351 200.605 127.611 201.255 126.781L201.265 126.791Z" fill="#FFFEFB"/>
<path d="M176.865 55.8906C177.535 55.7506 178.265 56.1905 178.895 55.5405C179.225 55.2005 179.755 54.8505 180.195 54.8405C182.355 54.7705 184.516 54.8106 186.676 54.8106C187.036 54.8106 187.405 54.7605 187.755 54.8205C188.075 54.8805 188.555 54.9806 188.655 55.2006C189.305 56.5905 188.055 58.4905 189.825 59.6005C189.865 61.4005 189.915 63.1905 189.935 64.9905C189.955 66.5905 189.935 68.1905 189.935 69.7006C189.365 69.8706 189.035 69.9506 188.725 70.0806C187.205 70.7306 186.195 68.1206 184.955 69.2006C183.795 70.2006 182.685 70.0105 181.475 70.0705C180.775 70.1005 180.075 70.0705 179.445 70.0705C179.015 68.9605 178.786 67.9705 178.036 67.2605C180.046 66.2205 177.695 65.3606 177.845 64.3106C177.945 63.6006 176.335 62.7706 177.895 61.9506C177.825 60.4106 178.515 58.7405 176.895 57.4905C176.635 57.2905 176.855 56.4505 176.855 55.9105L176.865 55.8906Z" fill="#FFFEFE"/>
<path d="M197.355 112.26C195.745 110.65 194.135 109.04 192.165 107.07V99.8699C192.805 99.3599 193.645 98.6799 194.325 98.1499V94.5799C195.645 94.0099 195.115 92.3099 196.225 91.5399C196.865 91.0999 198.585 90.3699 199.145 90.8099C199.815 91.3299 200.345 92.0699 200.825 92.7899C200.955 92.9799 200.745 93.4499 200.595 93.7499C200.365 94.1999 199.865 94.5799 199.805 95.0399C199.675 95.9299 199.765 96.8399 199.765 97.7499C198.015 98.6199 199.365 100.85 197.945 101.89C197.225 102.42 197.615 103.23 197.605 103.91C197.565 106.62 197.595 109.34 197.575 112.05C197.575 112.18 197.335 112.31 197.365 112.27L197.355 112.26Z" fill="#FFFDFA"/>
<path d="M168.135 56.9805C168.135 58.2405 167.995 59.1505 168.175 59.9905C168.345 60.7805 168.855 61.5105 169.225 62.2605C169.915 63.6605 170.595 65.0405 170.325 66.6905C170.155 67.7205 170.575 68.8205 169.955 69.9405H164.165C163.405 69.2105 163.825 68.2505 163.795 67.4105C163.765 66.6605 163.595 66.1105 163.085 65.5105C162.445 64.7505 162.315 63.6905 161.665 62.8305C161.235 62.2505 161.615 61.0805 161.565 60.1805C161.545 59.8705 161.365 59.5105 161.135 59.2905C160.445 58.6005 160.395 58.1605 161.515 58.0905C162.385 58.0305 163.335 58.3205 163.935 57.3805C164.025 57.2305 164.185 57.0205 164.315 57.0105C165.395 56.9805 166.485 56.9905 168.125 56.9905L168.135 56.9805Z" fill="#FFFDFA"/>
</svg>
