<svg width="166" height="427" viewBox="0 0 166 427" fill="none" xmlns="http://www.w3.org/2000/svg">
<path d="M3.00539 378.95C3.00539 376.59 2.96541 374.23 3.02541 371.86C3.04541 371.07 2.51532 370.58 2.30532 369.97C1.68532 368.14 1.37535 366.23 2.71535 364.46C2.96535 364.13 3.04535 363.21 2.83535 363.05C1.36535 361.94 1.99532 360.4 1.93532 359.04C1.88532 357.83 1.54536 356.52 2.84536 355.58C3.04536 355.43 2.96534 354.51 2.70534 354.18C1.37534 352.4 1.44536 350.34 2.34536 348.7C3.03536 347.44 2.81538 346.32 2.99538 345.14C3.18538 343.97 2.74533 343.11 1.94533 342.28C1.77533 342.11 2.1154 341.3 2.3854 340.9C2.6654 340.47 3.10535 340.2 2.46535 339.72C1.81535 339.23 1.62539 338.52 2.12539 337.89C2.57539 337.32 3.10538 336.89 2.99538 336.05C2.92538 335.51 3.00536 334.96 2.97536 334.42C2.89536 333 2.79534 331.59 2.70534 330.17C0.825344 328.98 3.66536 328.42 3.09536 327.1C2.56536 325.88 2.98537 324.25 2.98537 323.23C2.86537 322.24 1.3854 322.15 2.3854 321.27C3.2254 320.53 3.06534 319.62 2.95534 318.79C2.69534 316.75 1.92538 314.83 1.74538 312.71C1.56538 310.56 3.04538 309.1 2.99538 307.15C2.94538 304.97 2.98537 302.79 2.98537 300.61C2.98537 300.25 3.08535 299.84 2.96535 299.53C2.66535 298.75 1.97536 298.01 1.97536 297.25C1.97536 296.49 2.66535 295.75 2.96535 294.97C3.08535 294.65 3.08535 294.21 2.96535 293.9C2.66535 293.12 1.97536 292.38 1.97536 291.62C1.97536 290.86 2.86532 290.13 2.93532 289.34C3.09532 287.54 2.98537 285.71 2.98537 283.89C2.98537 274.08 2.98537 264.27 2.98537 254.46C2.98537 253.57 3.03544 252.68 3.17544 251.81C3.20544 251.64 3.75533 251.55 4.06533 251.42H28.5954C29.6854 251.42 30.7754 251.38 31.8654 251.43C33.1254 251.49 34.3353 251.53 35.2053 250.39C35.8753 251.5 36.9554 251.52 38.0454 251.41C39.2354 251.29 40.5854 251.89 41.5354 250.55C41.7054 250.32 42.5153 250.4 42.9553 250.55C43.4253 250.71 43.8054 251.37 44.2254 251.38C48.7654 251.44 53.3054 251.45 57.8454 251.38C58.2654 251.38 58.6754 250.76 59.1254 250.4C59.4654 250.71 59.8454 251.06 60.2454 251.42H65.6454C66.0354 251.06 66.4154 250.71 66.7654 250.4C67.2154 250.76 67.6154 251.37 68.0354 251.38C71.1254 251.46 74.2154 251.46 77.2954 251.38C77.7254 251.37 78.1053 250.71 78.5653 250.55C79.0053 250.4 79.7654 250.31 79.9854 250.55C80.6754 251.31 81.4354 251.45 82.3854 251.42C84.2054 251.37 86.0254 251.51 87.8354 251.38C89.5353 251.26 91.4754 252.13 92.8654 250.38C94.0554 251.96 95.7654 251.39 97.2954 251.39C110.375 251.42 123.455 251.42 136.535 251.39C138.075 251.39 139.665 251.83 141.055 250.39C141.725 249.69 142.495 251.31 143.265 251.36C145.435 251.51 147.625 251.37 149.805 251.44C150.635 251.47 151.115 251.05 151.645 250.55C151.715 250.48 152.185 250.72 152.385 250.91C153.205 251.72 153.845 251.45 154.665 250.81C155.565 250.1 155.665 250.19 156.495 250.66C156.935 250.91 157.125 251.47 157.815 251.44C159.625 251.37 161.445 251.42 163.265 251.42V257.39C163.625 257.78 163.975 258.16 164.315 258.54C163.535 259.33 162.515 260.05 163.775 261.19C164.375 261.73 164.695 262.52 164.125 263.01C163.115 263.88 163.725 264.24 164.225 265.01C164.805 265.91 163.975 266.64 163.235 267.17C163.615 267.59 163.965 267.97 164.275 268.32C163.915 268.77 163.565 269.16 163.255 269.59C162.535 270.6 165.405 271.47 163.375 272.55C163.145 273.81 163.285 274.81 164.175 275.96C164.855 276.84 164.505 278.39 163.385 279.13C163.705 279.74 164.075 280.32 164.315 280.95C164.435 281.27 164.335 281.67 164.335 282.03V290.11C163.525 290.93 162.515 291.63 163.745 292.81C163.945 293 164.165 293.52 164.125 293.54C162.605 294.62 163.145 296.24 163.345 297.54C163.475 298.41 164.735 299.13 163.245 299.92C163.515 301.26 162.645 302.78 163.975 303.99C164.285 304.27 164.315 304.96 164.315 305.46C164.345 308.72 164.325 311.98 164.325 315.08C163.935 315.6 163.325 316.08 163.395 316.38C164.525 320.74 164.355 320.7 163.455 325.96C163.015 328.55 163.435 331.29 163.465 333.96C164.705 334.75 163.905 335.31 163.225 335.88C163.865 336.51 164.885 337.3 164.205 338.07C163.385 338.99 163.205 339.86 163.205 340.97C163.205 341.9 163.275 342.7 164.055 343.38C164.185 343.5 163.355 344.55 163.525 344.82C163.905 345.42 164.365 345.87 164.335 346.69C164.265 348.68 164.265 350.68 164.335 352.68C164.365 353.57 163.665 353.88 163.245 354.42C164.905 355.59 164.225 357.33 164.295 358.86C164.365 360.49 164.315 362.13 164.315 363.76V369.7C163.565 370.5 162.675 371 163.645 372.41C164.745 374 164.555 375.79 163.745 377.87C163.725 377.93 163.405 377.87 163.225 377.87C162.535 378.05 162.335 377.38 161.905 377.11C160.995 376.53 160.985 377.88 160.315 377.88C159.225 377.87 158.135 377.83 157.045 377.89C156.195 377.94 155.275 377.55 154.525 378.37C153.445 379.55 153.065 377.47 151.945 377.81C150.155 378.35 147.975 377.04 146.385 378.88C146.375 378.9 146.125 378.75 146.015 378.64C144.775 377.47 143.515 377.48 142.305 378.64C141.975 378.96 141.845 378.94 141.515 378.52C140.855 377.69 140.205 377.73 139.255 378.32C137.715 379.29 137.535 379.33 135.985 378.32C134.915 377.63 134.925 378.71 134.345 378.87C134.005 378.56 133.625 378.22 133.255 377.88C132.885 378.22 132.505 378.56 132.125 378.91C131.845 378.63 131.605 378.17 131.325 378.15C129.745 378.03 128.165 378.02 126.585 377.98C124.855 379.42 123.145 379.38 121.355 378.05C121.235 377.96 120.595 378.56 120.175 378.85C119.405 378.51 118.895 376.92 117.595 378.22C117.255 378.56 116.695 378.95 116.275 378.91C114.225 378.71 111.945 379.73 110.185 377.86C108.995 378.09 107.665 377.32 106.575 378.35C106.365 378.54 105.875 378.79 105.845 378.75C104.755 377.42 103.915 377.78 102.745 378.81C101.955 379.51 101.155 378.53 100.555 377.86H92.9353C92.1153 379.15 90.8353 378.99 89.5753 378.96C88.1253 378.92 86.6854 378.93 85.2354 378.91C83.6554 377.08 81.6054 378.02 79.7254 377.96C79.1054 378.84 78.4754 379.06 77.7954 378.01C75.2754 377.96 72.7554 377.91 70.2354 377.86C68.0854 379.84 65.4653 378.67 63.0653 378.93C62.3953 379 61.6954 378.78 61.0054 378.67C60.5954 378.6 60.5254 377.48 59.8654 378.23C59.3354 378.83 58.7554 379.04 57.9754 378.97C57.2554 378.9 56.1554 379.24 55.8754 378.88C54.5754 377.24 52.8754 378.04 51.3454 377.89C50.2654 377.78 49.1654 377.81 48.0854 377.89C47.2354 377.95 46.2753 377.5 45.5553 378.34C44.4453 379.63 44.0554 377.35 42.9754 377.83C42.3854 378.09 41.6153 377.82 41.0553 378.46C40.1853 379.46 40.0654 378.05 39.5054 377.95C38.4554 379.11 37.1454 379.55 35.8354 378.53C34.6654 377.62 33.6454 377.55 32.4754 378.35C32.1854 378.55 31.9254 378.94 31.6454 378.95C27.4754 378.99 23.2954 378.99 19.1254 378.95C18.8354 378.95 18.5454 378.63 18.2554 378.45C16.7754 377.57 15.2454 377.47 13.8554 378.5C13.2154 378.97 13.0654 378.59 12.6554 378.35C12.2354 378.1 11.3954 377.78 11.2654 377.93C10.3254 379.06 9.13537 379.04 7.85537 378.99C6.22537 378.93 4.58534 378.98 2.95534 378.98L3.00539 378.95Z" fill="#1FB0EE"/>
<path d="M112.045 51.9011V56.9611C112.485 57.0811 113.065 57.1011 113.435 57.3811C114.285 58.0211 115.045 58.7811 115.835 59.5111C117.415 60.9711 118.805 62.7311 120.615 63.8111C122.155 64.7311 123.725 65.8911 125.655 66.0811C127.105 67.6311 129.475 67.6411 130.915 69.1611C132.375 70.7011 134.545 71.2211 135.945 72.951C136.735 73.931 138.325 74.1511 139.475 74.8311C140.795 75.6111 142.455 75.8711 143.375 77.2511C144.145 78.4011 145.275 78.0111 146.635 78.1011C147.325 78.8511 148.225 79.7511 149.025 80.7311C149.725 81.6011 150.645 81.2911 151.885 81.3811C153.065 82.5611 154.475 83.9211 155.835 85.3511C156.465 86.0111 158.295 85.3011 157.855 87.1411C158.445 87.8011 159.025 88.4811 159.645 89.1211C160.395 89.9111 161.255 90.6111 161.935 91.4611C162.455 92.1111 162.405 93.0211 163.055 93.7411C163.825 94.5811 163.005 96.0511 164.185 97.1111C164.915 97.7711 164.035 99.5911 165.425 100.361C165.095 100.751 164.765 101.141 164.435 101.531C164.765 101.891 165.105 102.271 165.465 102.661C164.765 103.281 164.075 103.871 164.535 104.921C165.765 107.771 165.915 108.491 164.855 110.791C164.535 111.491 164.415 112.101 164.415 112.791C164.405 116.611 164.395 120.421 164.415 124.241C164.415 124.971 164.395 125.611 163.775 126.171C162.465 127.361 163.745 128.021 164.385 128.771C164.025 129.171 163.415 129.551 163.365 129.981C163.195 131.531 163.655 133.181 162.275 134.471C162.135 134.601 162.465 135.471 162.775 135.821C163.595 136.771 163.625 137.931 163.045 138.741C162.485 139.531 162.185 140.211 162.215 141.151C162.265 142.971 162.055 144.801 162.285 146.591C162.465 148.011 161.415 148.821 161.155 149.971C160.895 151.141 161.575 152.441 160.435 153.511C159.535 154.351 160.235 155.571 160.045 156.601C159.785 157.991 160.755 159.691 159.585 160.731C158.345 161.841 159.805 163.771 158.095 164.511C157.905 167.221 156.685 168.921 153.955 169.881C152.595 170.361 151.905 172.181 149.855 171.941C148.775 171.811 148.335 173.831 146.955 174.011C147.005 172.901 145.855 172.681 145.425 171.881C105.755 171.881 66.0854 171.881 26.4254 171.881C25.6654 172.611 24.9854 173.681 23.7954 172.441C23.5654 172.201 23.2453 171.871 22.9653 171.861C21.5353 171.861 20.1053 171.911 18.6853 172.031C18.5353 172.041 18.4254 172.611 18.2954 172.921C17.2354 172.411 16.0654 172.041 15.1454 171.341C13.9954 170.471 12.9053 169.431 12.0853 168.261C11.5353 167.461 11.3454 166.381 10.6554 165.601C11.3654 164.001 9.93534 162.961 9.46534 161.731C9.03534 160.601 8.17537 159.631 8.49537 158.331C8.86537 156.791 7.9954 155.651 7.3954 154.421C6.7954 153.191 6.12535 152.071 6.22535 150.511C6.35535 148.651 6.92533 146.551 5.20533 144.971V138.971C3.37533 136.601 4.2854 133.841 4.1454 131.241C4.0954 130.281 3.94531 129.521 3.18531 128.881C2.98531 128.711 3.0454 128.221 3.0254 127.871C2.9854 127.201 4.47538 127.021 3.75538 126.311C2.97538 125.551 2.94541 124.751 3.03541 123.871C3.12541 122.961 2.20531 122.771 1.93531 122.141C1.87531 121.991 1.93531 121.781 1.93531 121.601C1.93531 120.561 3.87535 119.911 2.84535 118.891C1.73535 117.791 1.98532 116.631 1.94532 115.421C1.91532 114.331 1.99542 113.241 1.91542 112.151C1.87542 111.671 1.66535 111.111 1.34535 110.771C0.435347 109.821 1.72536 109.731 1.85536 109.181C1.09536 108.261 -0.00462353 107.331 1.62538 106.191C1.99538 105.931 1.92537 105.721 1.49537 105.411C0.395372 104.621 1.18531 103.351 0.805308 102.431C0.345308 101.331 2.51536 100.951 1.35536 99.8311C0.275357 98.7811 2.31535 98.6511 1.97535 97.7511C1.88535 97.5111 2.06542 97.0011 2.29542 96.8311C3.38542 96.0311 2.92542 94.8711 3.04542 93.8611C4.58542 92.3211 6.2254 90.8611 7.6454 89.2111C8.7654 87.9111 9.46543 86.3111 10.6754 84.9911C11.7154 83.8511 13.2954 83.8411 14.1354 82.7311C14.9354 81.6511 16.1953 81.4911 17.1953 80.8411C17.8953 80.3811 18.7054 80.0911 19.4254 79.6611C20.1754 79.2111 20.4554 78.1211 21.4954 78.0811C22.7754 78.0311 23.1454 76.8111 23.9854 76.201C24.6854 75.701 25.5553 75.7211 26.3053 75.1411C27.0653 74.5511 28.1754 74.3811 28.8854 73.5211C29.4654 72.8211 30.1554 72.2211 30.7954 71.5811C31.7354 71.1511 33.5353 72.5011 33.5953 70.1911C33.6053 69.6311 34.0854 69.4711 34.6754 69.3011C35.7854 68.9611 36.8054 68.3111 37.8654 67.7911C37.6254 65.6811 39.1453 66.1611 40.3353 66.0711C41.3653 65.9911 40.9454 64.9511 41.2754 64.5111C41.9854 63.5711 43.4354 63.6211 44.2654 62.5711C44.8854 61.7911 45.4353 60.7211 46.7053 60.6311C48.1253 60.5311 48.3954 58.8511 49.6154 58.4611C50.0954 58.3111 50.5754 58.1911 51.0254 58.0611V51.9111C51.9054 52.0911 52.0754 51.0911 53.6154 50.6211C53.3354 50.7711 53.3354 52.4911 54.2554 51.4011C54.6554 50.9211 54.9954 50.8611 55.4254 51.3811C55.5754 51.5611 56.0854 51.7211 56.1554 51.6411C57.0154 50.6611 57.7353 50.5311 58.8453 51.4711C59.8653 52.3311 61.1554 52.3411 62.1254 51.1611C62.4354 50.7811 62.5254 50.9911 62.9254 51.2111C64.6254 52.1811 64.6853 52.1511 66.2153 51.3911C66.6853 51.1611 66.8954 50.8211 67.4154 51.3411C67.7454 51.6611 68.3254 51.8911 68.7954 51.8811C70.8654 51.8511 73.0254 52.3511 74.9154 50.8811C75.1554 50.7011 76.0754 51.4011 76.7754 51.7411C77.0054 51.5311 77.3854 51.1811 77.7654 50.8311C78.5154 51.5111 79.1754 52.7211 80.3754 51.4411C81.1054 50.6711 81.7854 50.5411 82.6354 51.3011C82.9854 51.6211 83.5354 51.8511 84.0054 51.8711C85.8154 51.9411 87.6253 51.9011 89.4353 51.9011C91.4253 51.9011 93.4254 52.0111 95.4054 51.8711C97.1054 51.7411 99.0254 52.6811 100.485 51.0111C100.525 50.9711 100.975 51.2711 101.225 51.4211C102.535 52.1911 104.035 52.2711 105.205 51.5611C106.035 51.0511 106.735 50.8411 107.635 50.8011C108.765 50.7511 109.705 50.9011 110.495 51.8711C110.715 52.1411 111.535 51.9111 112.075 51.9111L112.045 51.9011Z" fill="#FDF388"/>
<path d="M163.285 251.401C161.465 251.401 159.645 251.351 157.835 251.421C157.135 251.451 156.955 250.891 156.515 250.641C155.685 250.171 155.585 250.081 154.685 250.791C153.865 251.441 153.225 251.711 152.405 250.891C152.215 250.701 151.735 250.461 151.665 250.531C151.145 251.031 150.665 251.441 149.825 251.421C147.645 251.351 145.455 251.501 143.285 251.341C142.515 251.291 141.755 249.681 141.075 250.371C139.675 251.811 138.095 251.371 136.555 251.371C123.475 251.401 110.395 251.401 97.3153 251.371C95.7953 251.371 94.0754 251.941 92.8854 250.361C91.4954 252.111 89.5653 251.241 87.8553 251.361C86.0453 251.491 84.2254 251.361 82.4054 251.401C81.4654 251.431 80.6954 251.281 80.0054 250.531C79.7854 250.291 79.0253 250.371 78.5853 250.531C78.1153 250.691 77.7353 251.351 77.3153 251.361C74.2253 251.431 71.1353 251.441 68.0553 251.361C67.6353 251.351 67.2254 250.741 66.7854 250.381C66.4454 250.691 66.0554 251.041 65.6654 251.401H60.2654C59.8654 251.041 59.4854 250.691 59.1454 250.381C58.6954 250.741 58.2854 251.351 57.8654 251.361C53.3254 251.431 48.7854 251.431 44.2454 251.361C43.8254 251.361 43.4453 250.691 42.9753 250.531C42.5353 250.381 41.7253 250.301 41.5553 250.531C40.5953 251.861 39.2553 251.271 38.0653 251.391C36.9653 251.501 35.8953 251.481 35.2253 250.371C34.3553 251.511 33.1454 251.481 31.8854 251.411C30.7954 251.351 29.7054 251.401 28.6154 251.401H4.08533C3.36533 250.014 3.00203 248.721 2.99536 247.521C2.99536 243.011 3.00536 238.491 2.99536 233.981C2.99536 232.611 3.41531 231.101 1.94531 230.111C3.69531 228.961 2.87534 227.191 2.97534 225.671C3.08534 224.051 2.72533 222.361 3.08533 220.821C3.38533 219.531 4.39536 218.441 4.11536 216.911C3.84536 215.491 5.9853 214.651 5.1853 213.031C6.9853 211.141 7.76542 208.481 9.92542 206.871C11.9454 206.711 12.7253 204.871 14.0853 203.821C14.3353 203.621 14.6954 203.561 15.0054 203.431C15.1354 203.741 15.1854 204.241 15.4054 204.321C15.8754 204.501 16.4353 204.511 16.9553 204.511C18.5853 204.531 20.2153 204.511 21.8553 204.511C23.3053 204.511 24.7953 204.301 26.1953 204.561C27.9453 204.891 29.1454 203.681 30.6454 203.411C31.6654 203.231 32.3553 203.711 32.9353 204.451C35.1353 204.131 37.5653 205.541 39.5853 203.471C39.9453 203.111 41.3454 203.111 41.6454 203.471C42.6254 204.641 43.8153 204.521 45.0653 204.511C47.9653 204.491 50.8553 204.511 53.3353 204.511C54.2853 204.351 54.3253 203.001 55.3053 203.891C55.6553 204.211 56.2054 204.481 56.6654 204.491C59.9254 204.541 63.1953 204.491 66.4553 204.531C67.4053 204.541 68.1553 204.371 68.8353 203.641C69.0553 203.401 69.9254 203.431 70.2454 203.671C71.9954 205.031 73.8854 204.591 75.7754 204.251C76.3454 203.331 77.2454 203.371 78.1554 203.421C79.5354 203.491 81.0853 202.971 82.0553 204.511C83.5953 204.371 85.3354 205.081 86.4954 203.421C89.5754 203.421 92.6654 203.361 95.7454 203.471C96.3354 203.491 96.8754 204.201 97.4854 204.491C97.7854 204.631 98.2253 204.431 98.5553 204.531C99.7953 204.881 100.215 203.071 101.365 203.451C102.315 203.761 102.955 204.821 104.195 204.541C105.025 204.351 105.835 204.561 106.695 203.971C108.045 203.071 109.605 203.041 111.085 204.081C112.215 204.871 113.345 204.891 114.435 203.821C114.745 203.521 115.705 203.321 115.825 203.491C116.585 204.511 117.575 204.541 118.695 204.541C123.945 204.511 129.195 204.521 134.925 204.521C135.065 204.601 135.025 202.861 135.995 203.931C136.215 204.181 136.555 204.501 136.835 204.501C141.165 204.481 145.495 204.431 149.825 204.331C149.965 204.331 150.085 203.751 150.205 203.441C150.875 203.581 151.615 203.131 152.225 203.811C153.075 204.741 153.895 205.761 154.925 206.461C155.865 207.101 157.235 207.161 158.105 207.861C159.595 209.061 161.085 210.421 162.115 212.001C162.785 213.041 163.675 214.201 163.365 215.841C163.035 217.581 163.305 219.441 163.285 221.241C163.285 221.961 163.235 222.641 163.895 223.171C164.135 223.361 164.385 223.771 164.355 224.041C164.145 225.731 165.115 227.661 163.335 229.031C165.095 230.381 164.205 232.301 164.335 233.981C164.365 234.391 163.865 234.841 163.625 235.291C163.185 236.111 163.095 236.181 163.735 237.121C164.755 238.601 164.525 240.031 163.915 241.541C162.965 243.911 163.095 245.511 164.135 248.511C164.395 249.271 164.245 250.201 164.175 251.051C164.165 251.201 163.605 251.311 163.295 251.431L163.285 251.401Z" fill="#FDF388"/>
<path d="M3.00537 378.951C4.63537 378.951 6.2754 378.911 7.9054 378.961C9.1854 379.001 10.3753 379.031 11.3153 377.901C11.4353 377.751 12.2753 378.081 12.7053 378.321C13.1153 378.561 13.2654 378.951 13.9054 378.471C15.2854 377.441 16.8253 377.541 18.3053 378.421C18.5953 378.591 18.8854 378.921 19.1754 378.921C23.3454 378.951 27.5253 378.951 31.6953 378.921C31.9753 378.921 32.2454 378.521 32.5254 378.321C33.6954 377.521 34.7154 377.591 35.8854 378.501C37.1954 379.511 38.5053 379.081 39.5553 377.921C40.1153 378.021 40.2353 379.431 41.1053 378.431C41.6653 377.781 42.4454 378.061 43.0254 377.801C44.0954 377.331 44.4953 379.611 45.6053 378.311C46.3253 377.471 47.2854 377.921 48.1354 377.861C49.2154 377.781 50.3254 377.761 51.3954 377.861C52.9154 378.011 54.6254 377.211 55.9254 378.851C56.2054 379.211 57.3154 378.871 58.0254 378.941C58.8054 379.011 59.3854 378.801 59.9154 378.201C60.5754 377.451 60.6453 378.571 61.0553 378.641C61.7353 378.751 62.4454 378.971 63.1154 378.901C65.5154 378.651 68.1454 379.811 70.2854 377.831C72.8054 377.881 75.3253 377.931 77.8453 377.981C78.5153 379.021 79.1554 378.811 79.7754 377.931C81.6554 377.991 83.7154 377.051 85.2854 378.881C86.7354 378.891 88.1754 378.881 89.6254 378.931C90.8854 378.971 92.1654 379.121 92.9854 377.831H100.605C101.205 378.501 102.005 379.481 102.795 378.781C103.965 377.751 104.805 377.381 105.895 378.721C105.925 378.761 106.425 378.511 106.625 378.321C107.725 377.291 109.045 378.061 110.235 377.831C111.995 379.701 114.275 378.681 116.325 378.881C116.745 378.921 117.305 378.531 117.645 378.191C118.945 376.891 119.455 378.481 120.225 378.821C120.655 378.521 121.285 377.931 121.405 378.021C123.195 379.351 124.905 379.401 126.635 377.951C128.215 378.001 129.795 378.011 131.375 378.121C131.645 378.141 131.895 378.601 132.175 378.881C132.555 378.531 132.935 378.191 133.305 377.851C133.675 378.191 134.055 378.531 134.395 378.841C134.975 378.681 134.975 377.601 136.035 378.291C137.595 379.291 137.765 379.251 139.305 378.291C140.255 377.691 140.905 377.661 141.565 378.491C141.895 378.911 142.025 378.921 142.355 378.611C143.565 377.451 144.825 377.441 146.065 378.611C146.175 378.711 146.415 378.861 146.435 378.851C148.025 377.011 150.205 378.321 151.995 377.781C153.115 377.441 153.495 379.521 154.575 378.341C155.325 377.521 156.245 377.911 157.095 377.861C158.185 377.801 159.275 377.841 160.365 377.851C161.035 377.851 161.045 376.511 161.955 377.081C162.385 377.351 162.585 378.021 163.275 377.841C163.405 378.151 163.495 378.481 163.665 378.761C163.835 379.041 164.285 379.491 164.265 379.511C162.235 381.501 163.585 383.981 163.325 386.211C163.245 386.901 163.865 387.661 164.165 388.401C163.305 388.971 163.205 389.811 163.255 390.751C163.305 391.651 163.535 392.691 163.195 393.441C162.785 394.361 161.815 395.041 163.255 395.851C163.335 395.891 163.255 396.201 163.265 396.381C163.295 397.471 161.805 397.901 162.135 399.211C162.345 400.061 162.035 401.051 162.205 401.921C162.585 403.811 161.675 405.411 160.875 406.821C159.445 409.351 158.515 412.291 155.945 414.051C155.625 416.001 154.195 416.691 152.585 417.541C151.205 418.271 150.225 419.761 149.075 420.921C148.335 421.671 146.985 421.381 146.445 422.461C144.395 421.871 143.015 424.231 140.925 423.651C139.495 423.261 138.605 425.081 137.015 424.761C135.805 424.511 134.495 424.711 133.605 424.711C132.705 424.911 132.585 426.271 131.695 425.291C131.275 424.821 131.045 424.921 130.505 425.241C129.075 426.111 127.565 426.181 126.095 425.171C124.665 424.181 123.425 424.481 122.375 425.801C118.925 425.801 115.475 425.731 112.025 425.831C110.325 425.881 108.375 425.071 107.025 426.891C105.945 426.871 104.865 426.851 103.775 426.831C102.785 425.251 101.205 425.821 99.8453 425.821C84.9453 425.791 70.0554 425.871 55.1554 425.741C52.4054 425.721 49.4453 426.811 46.8453 424.761C46.3953 424.411 45.4353 424.711 44.7053 424.711C40.7053 424.711 36.7153 424.751 32.7153 424.691C31.3553 424.671 29.7754 425.301 28.7454 423.771C27.6754 423.721 26.5353 423.411 25.5553 423.681C24.0553 424.081 23.5354 422.171 22.1754 422.531C20.8354 422.891 20.3654 421.641 19.4954 421.101C18.0154 420.181 16.4953 419.391 15.3153 418.011C14.0253 416.501 12.5153 415.161 11.1053 413.751C9.82535 412.471 8.55531 411.201 7.31531 409.961C7.81531 407.831 5.72534 406.381 6.09534 404.381C4.93534 403.691 4.96532 402.511 5.20532 401.511C5.63532 399.761 4.53534 398.461 3.97534 397.091C3.56534 396.101 2.84541 395.501 4.04541 394.651C4.20541 394.531 4.18538 393.761 4.01538 393.641C2.96538 392.911 2.94533 391.891 2.96533 390.781C3.00533 388.421 2.99533 386.061 2.96533 383.701C2.94533 382.181 3.30541 380.571 2.04541 379.311C2.35541 379.181 2.66534 379.051 2.97534 378.921L3.00537 378.951Z" fill="#FDF388"/>
<path d="M112.045 51.9011C111.505 51.9011 110.685 52.1312 110.465 51.8612C109.675 50.8912 108.735 50.7412 107.605 50.7912C106.705 50.8312 106.005 51.0412 105.175 51.5512C104.005 52.2712 102.495 52.1812 101.195 51.4112C100.945 51.2612 100.495 50.9512 100.455 51.0012C98.9953 52.6712 97.0754 51.7412 95.3754 51.8612C93.3954 52.0112 91.3954 51.8911 89.4054 51.8911C87.5954 51.8911 85.7853 51.9312 83.9753 51.8612C83.5053 51.8412 82.9553 51.6112 82.6053 51.2912C81.7553 50.5212 81.0753 50.6612 80.3453 51.4312C79.1353 52.7012 78.4853 51.5012 77.7353 50.8212C77.3553 51.1712 76.9753 51.5112 76.7453 51.7312C76.0554 51.3912 75.1254 50.6912 74.8854 50.8712C72.9954 52.3412 70.8354 51.8412 68.7654 51.8712C68.2954 51.8712 67.7154 51.6511 67.3854 51.3311C66.8654 50.8211 66.6553 51.1512 66.1853 51.3812C64.6553 52.1412 64.5954 52.1611 62.8954 51.2011C62.4954 50.9711 62.4053 50.7711 62.0953 51.1511C61.1253 52.3312 59.8253 52.3311 58.8153 51.4611C57.7053 50.5211 56.9854 50.6612 56.1254 51.6312C56.0554 51.7112 55.5454 51.5412 55.3954 51.3712C54.9554 50.8512 54.6253 50.9111 54.2253 51.3911C53.2953 52.4811 53.3053 50.7612 53.5853 50.6112C52.0453 51.0812 51.8853 52.0812 50.9953 51.9011C50.4553 51.9011 49.6254 52.1312 49.4154 51.8612C48.6254 50.8812 47.6553 50.5712 46.5553 50.8412C44.9653 51.2212 44.1253 49.5612 42.6953 49.5912C42.5653 49.5912 42.3153 49.3412 42.3253 49.2212C42.5053 47.4612 40.7453 46.9912 40.0853 45.7912C40.2853 44.4412 39.4553 42.8712 40.9353 41.7912C40.9753 40.5712 41.4654 39.0712 40.9254 38.2212C40.2854 37.2212 40.0853 36.3412 40.0853 35.2812C40.0853 31.4712 40.0853 27.6712 40.0853 23.8612C40.0853 22.8012 39.9054 21.7011 41.0154 20.9611C41.2054 20.8311 41.3054 20.1512 41.1554 19.9912C39.2954 18.0012 40.3953 15.5612 40.0953 13.3512C41.4853 12.3412 41.1653 10.8411 41.1853 9.45114C41.2053 8.18114 41.1853 6.91114 41.1853 5.45114C41.8753 4.80114 42.5453 3.76114 43.4853 3.39114C44.8853 2.85114 45.9353 1.52117 47.7153 1.73117C49.5053 1.94117 51.3354 1.78115 53.1454 1.78115C54.0554 1.78115 54.9653 1.8512 55.8653 1.7612C56.7253 1.6812 57.7454 2.23116 58.4154 1.41116C59.0654 0.611159 59.3554 1.05118 60.0154 1.43118C60.7054 1.83118 61.7153 1.77114 62.5753 1.77114C77.0753 1.79114 91.5754 1.78115 105.645 1.78115C106.625 1.64115 106.725 0.201179 107.605 1.18118C108.165 1.81118 108.915 1.58114 109.525 1.83114C110.605 2.27114 111.435 -0.338821 112.495 1.68118C113.745 1.71118 115.005 1.76115 116.255 1.78115C118.295 1.82115 119.415 2.55117 120.965 4.67117C121.495 5.39117 122.225 5.96118 122.885 6.62118C121.735 7.47118 121.335 9.01115 121.965 9.84115C122.835 10.9812 122.965 12.0212 122.965 13.2812C122.945 23.8012 122.945 34.3111 122.965 44.8311C122.965 46.1011 123.095 47.3512 121.865 48.1912C122.325 49.9312 120.725 49.5412 119.965 50.0412C119.665 50.2312 119.445 50.5412 119.185 50.8012C118.805 51.1912 118.435 51.5812 118.075 51.9412H112.035L112.045 51.9011Z" fill="#5092FF"/>
<path d="M142.575 181.63C141.855 183.01 141.492 184.287 141.485 185.46C141.485 187.6 141.485 189.74 141.485 192.24C141.965 192.65 142.635 193.24 143.305 193.8C143.985 194.37 143.525 195.13 143.665 195.8C142.279 195.08 141.159 194.717 140.305 194.71C139.045 194.71 137.785 194.71 136.555 194.71C135.915 195.43 135.215 196.29 134.315 195.63C133.565 195.08 132.945 194.64 131.955 194.69C130.325 194.77 128.695 194.71 127.055 194.71C122.335 194.71 117.615 194.63 112.905 194.77C111.755 194.8 111.125 194.02 110.185 193.84C108.735 195.57 106.785 194.38 105.105 194.71C103.175 192.66 100.695 193.93 98.4753 193.65C97.2253 193.49 95.9353 193.58 94.6653 193.63C93.4553 193.68 92.7654 195.06 91.2953 194.77C89.8953 194.49 88.4053 194.71 86.9553 194.71C85.3253 194.71 83.6652 194.52 82.0652 194.76C80.4852 195 79.4253 193.75 78.1553 193.69C73.6353 193.5 69.0953 193.61 64.5953 193.61C63.9753 194.32 63.2753 195.19 62.3653 194.54C61.6153 194.01 61.0053 193.51 60.0153 193.59C58.1253 193.75 56.1652 193.2 54.4352 194.64C53.8552 195.13 53.2353 193.78 52.7153 193.76C49.1053 193.61 45.4853 193.63 41.8753 193.6C39.7353 195.6 37.1053 194.5 34.7053 194.65C31.8153 194.83 28.9053 194.69 25.9953 194.69C24.7253 194.69 24.7253 194.69 22.6353 195.78C22.6353 195.24 22.4253 194.38 22.6653 194.22C24.3453 193.13 23.0652 190.7 24.8152 189.71C24.8152 188.1 24.8353 186.49 24.7953 184.89C24.7953 184.58 24.6552 184.17 24.4352 183.99C23.2452 183.01 23.8853 181.69 23.7253 180.52C25.0953 180.71 25.4952 182.19 26.8052 182.78C27.9052 182.24 29.5753 183.48 30.5953 181.82C31.9653 181.56 33.2853 181.4 34.6453 182.13C36.6053 183.19 38.7553 182.68 40.8353 182.49C41.4053 181.62 42.2552 181.59 43.1852 181.59C44.2852 181.59 45.1853 181.71 46.0853 182.57C46.5153 182.98 47.7753 183.03 48.5753 182.39C48.9753 182.07 49.1853 181.5 49.8853 181.61C51.5653 181.88 53.4554 180.94 54.9254 182.66C55.2254 183.01 56.6553 182.98 56.9553 182.62C57.9353 181.42 59.1653 181.63 60.3853 181.63C64.7253 181.63 69.0753 181.63 73.4153 181.63C74.1353 181.63 75.1253 181.89 75.5153 181.53C77.5653 179.59 79.9453 180.86 82.1553 180.65C83.3653 182.28 85.1153 181.6 86.6353 181.61C105.275 181.66 123.925 181.64 142.575 181.64V181.63Z" fill="#FDF388"/>
<path d="M22.6354 195.801C24.7254 194.721 24.7254 194.711 25.9954 194.711C28.8954 194.711 31.8053 194.841 34.7053 194.671C37.1053 194.521 39.7354 195.621 41.8754 193.621C45.4954 193.651 49.1053 193.621 52.7153 193.781C53.2453 193.801 53.8553 195.151 54.4353 194.661C56.1653 193.211 58.1254 193.761 60.0154 193.611C61.0054 193.531 61.6154 194.031 62.3654 194.561C63.2754 195.201 63.9753 194.331 64.5953 193.631C69.1053 193.631 73.6354 193.511 78.1554 193.711C79.4254 193.761 80.4953 195.021 82.0653 194.781C83.6653 194.541 85.3253 194.731 86.9553 194.731C88.4053 194.731 89.9054 194.511 91.2954 194.791C92.7654 195.081 93.4554 193.701 94.6654 193.651C95.9354 193.601 97.2253 193.511 98.4753 193.671C100.695 193.951 103.175 192.691 105.105 194.731C106.795 194.401 108.735 195.591 110.185 193.861C111.125 194.041 111.765 194.821 112.905 194.791C117.615 194.651 122.335 194.731 127.055 194.731C128.685 194.731 130.325 194.791 131.955 194.711C132.935 194.661 133.555 195.101 134.315 195.651C135.215 196.311 135.925 195.451 136.555 194.731C137.785 194.731 139.045 194.731 140.305 194.731C141.152 194.731 142.272 195.094 143.665 195.821C145.192 198.641 147.372 201.184 150.205 203.451C150.075 203.761 149.955 204.341 149.825 204.341C145.495 204.441 141.165 204.501 136.835 204.511C136.555 204.511 136.225 204.191 135.995 203.941C135.025 202.871 135.065 204.611 134.925 204.531C129.195 204.531 123.945 204.511 118.695 204.551C117.575 204.551 116.585 204.521 115.825 203.501C115.705 203.341 114.735 203.531 114.435 203.831C113.345 204.901 112.215 204.881 111.085 204.091C109.605 203.051 108.045 203.081 106.695 203.981C105.825 204.561 105.015 204.361 104.195 204.551C102.955 204.831 102.315 203.781 101.365 203.461C100.215 203.081 99.7953 204.891 98.5553 204.541C98.2153 204.441 97.7854 204.641 97.4854 204.501C96.8754 204.221 96.3354 203.501 95.7454 203.481C92.6654 203.371 89.5854 203.431 86.4954 203.431C85.3354 205.091 83.5853 204.381 82.0553 204.521C81.0853 202.981 79.5354 203.501 78.1554 203.431C77.2454 203.381 76.3454 203.331 75.7754 204.261C73.8754 204.601 71.9954 205.041 70.2454 203.681C69.9354 203.441 69.0653 203.411 68.8353 203.651C68.1453 204.381 67.4053 204.561 66.4553 204.541C63.1953 204.491 59.9254 204.541 56.6654 204.501C56.2054 204.501 55.6553 204.221 55.3053 203.901C54.3253 203.011 54.2853 204.371 53.3353 204.521C50.8553 204.521 47.9553 204.511 45.0653 204.521C43.8153 204.521 42.6254 204.651 41.6454 203.481C41.3454 203.121 39.9453 203.121 39.5853 203.481C37.5653 205.541 35.1353 204.131 32.9353 204.461C32.3453 203.721 31.6554 203.241 30.6454 203.421C29.1354 203.691 27.9353 204.901 26.1953 204.571C24.7953 204.311 23.3053 204.521 21.8553 204.521C20.2253 204.521 18.5953 204.531 16.9553 204.521C16.4353 204.521 15.8754 204.511 15.4054 204.331C15.1954 204.251 15.1354 203.751 15.0054 203.441C16.6254 203.321 16.9253 200.881 18.8253 201.261C19.3653 200.261 20.1454 199.321 20.3954 198.251C20.7154 196.921 21.3754 196.161 22.6354 195.811V195.801Z" fill="#F8C854"/>
<path d="M142.575 181.631C123.925 181.631 105.285 181.651 86.6354 181.601C85.1254 181.601 83.3654 182.271 82.1554 180.641C79.9454 180.861 77.5654 179.581 75.5154 181.521C75.1254 181.891 74.1254 181.621 73.4154 181.621C69.0754 181.621 64.7254 181.621 60.3854 181.621C59.1654 181.621 57.9353 181.411 56.9553 182.611C56.6653 182.971 55.2254 183.001 54.9254 182.651C53.4554 180.931 51.5654 181.881 49.8854 181.601C49.1854 181.491 48.9753 182.061 48.5753 182.381C47.7753 183.021 46.5253 182.971 46.0853 182.561C45.1753 181.711 44.2853 181.591 43.1853 181.581C42.2553 181.581 41.4053 181.611 40.8353 182.481C38.7553 182.671 36.6054 183.191 34.6454 182.121C33.2854 181.391 31.9753 181.551 30.5953 181.811C29.5753 183.471 27.9053 182.231 26.8053 182.771C25.4853 182.181 25.0953 180.701 23.7253 180.511C23.3653 179.771 22.8554 179.051 22.6654 178.271C22.3854 177.101 21.2553 176.731 20.7153 175.851C20.2853 175.141 20.4753 174.111 19.5753 173.641C19.1353 173.411 18.7054 173.141 18.2754 172.891C18.4054 172.581 18.5054 172.011 18.6654 172.001C20.0854 171.881 21.5153 171.821 22.9453 171.831C23.2253 171.831 23.5454 172.161 23.7754 172.411C24.9654 173.661 25.6454 172.581 26.4054 171.851C66.0754 171.851 105.735 171.851 145.405 171.851C145.835 172.651 146.985 172.871 146.935 173.981C146.655 175.501 145.245 176.101 144.315 177.071C143.465 177.951 143.745 179.371 142.605 180.091C142.365 180.241 142.575 181.081 142.575 181.611V181.631Z" fill="#F8C854"/>
</svg>
