<svg width="169" height="369" viewBox="0 0 169 369" fill="none" xmlns="http://www.w3.org/2000/svg">
<path d="M137.805 90.6899C136.725 92.7799 136.715 92.7799 136.715 94.0499C136.715 98.4099 136.785 102.77 136.675 107.13C136.635 108.94 138.355 110.22 137.975 112.08C137.965 112.15 138.535 112.42 138.855 112.47C140.045 112.67 140.765 113.48 141.035 114.5C141.395 115.86 142.235 116.35 143.455 116.93C145.135 117.72 146.885 118.54 148.175 120.07C149.055 121.1 149.855 122.46 151.545 122.41C152.015 123.13 153.085 123.4 153.085 124.51C153.085 124.82 153.335 125.39 153.475 125.39C154.925 125.39 155.575 126.57 156.495 127.35C157.675 128.35 158.435 129.95 160.275 130.09C160.435 130.1 160.635 130.65 160.675 130.97C160.745 131.51 160.465 132.36 160.735 132.55C161.945 133.46 161.705 135.17 162.855 136.09C163.045 136.24 162.805 136.88 162.995 137.09C163.975 138.16 165.025 139.17 166.035 140.18C166.565 141.5 165.435 143.07 166.795 144.27C167.115 144.55 167.185 145.21 167.215 145.71C167.275 146.98 167.305 148.26 167.215 149.52C167.135 150.66 167.335 151.61 168.285 152.32C167.175 152.99 167.125 154.05 167.245 155.16C167.375 156.35 166.715 157.74 168.095 158.64C168.125 158.66 167.895 159.14 167.755 159.38C166.785 161.05 167.195 162.78 167.475 164.51C168.975 165.64 168.315 166.55 167.285 167.57C167.105 167.75 167.435 168.53 167.615 169C167.795 169.47 168.345 169.96 168.265 170.33C168.085 171.13 167.305 171.86 167.305 172.62C167.305 173.38 168.005 174.12 168.275 174.91C168.345 175.11 167.975 175.51 167.735 175.74C166.775 176.65 168.095 176.77 168.315 177.64C168.315 180.37 168.365 183.45 168.275 186.53C168.255 187.14 167.685 187.73 167.345 188.38C167.945 188.85 168.185 189.58 168.405 190.51C168.685 191.66 166.745 192.08 167.755 193.12C168.825 194.23 168.165 195.52 168.285 196.72C168.395 197.8 168.445 198.92 168.285 199.98C167.985 201.85 169.225 203.98 167.375 205.61C167.345 205.63 167.665 206.13 167.885 206.35C169.145 207.6 167.875 208.21 167.355 208.85C167.695 209.52 168.265 210.11 168.275 210.72C168.355 214.53 168.215 218.35 168.375 222.16C168.435 223.54 166.785 224.03 167.165 225.54C167.465 226.74 167.275 228.07 167.215 229.34C167.165 230.29 167.415 231.01 168.105 231.72C168.645 232.27 168.375 233.06 167.715 233.54C167.015 234.06 167.655 234.31 167.865 234.71C168.095 235.15 168.435 235.98 168.275 236.11C166.365 237.72 167.555 239.84 167.185 241.66C167.905 242.3 168.835 243.03 168.175 243.91C166.805 245.73 166.835 247.36 168.125 249.15C168.585 249.8 168.325 250.48 167.705 251C167.075 251.54 166.935 252.25 167.515 252.84C168.885 254.23 168.465 255.82 167.885 257.25C167.635 257.88 167.195 258.38 167.205 259.15C167.245 263.15 167.245 267.14 167.205 271.14C167.205 271.94 167.655 272.4 167.965 273.02C168.315 273.73 168.405 274.77 168.175 275.54C167.215 278.75 167.155 278.73 168.155 281.84C168.195 281.95 168.155 282.13 168.075 282.22C167.835 282.49 167.565 282.74 167.275 283.04C167.605 283.42 167.945 283.79 168.275 284.17C166.135 286.08 167.735 288.58 167.135 290.66C167.925 291.36 168.805 292.06 168.155 292.97C167.615 293.73 167.125 294.34 167.215 295.33C167.415 297.57 166.645 299.97 168.315 301.96C168.315 305.05 168.335 308.14 168.285 311.23C168.285 311.51 167.925 311.82 167.675 312.06C166.415 313.29 167.605 313.93 168.295 314.7C167.665 315.48 166.405 316.07 167.635 317.35C167.965 317.69 168.205 318.23 168.275 318.7C168.385 319.41 168.305 320.15 168.305 320.88C168.305 322.15 168.195 323.44 168.335 324.69C168.475 325.96 167.975 326.96 167.405 327.98C168.805 328.84 168.225 330.23 168.295 331.42C168.365 332.69 168.315 333.96 168.315 335.23V339.05C168.315 339.78 168.395 340.51 168.285 341.23C168.215 341.71 167.975 342.23 167.655 342.59C166.555 343.83 167.575 344.49 168.315 345.23C167.625 346 166.425 346.63 167.665 347.87C167.875 348.08 168.185 348.58 168.155 348.61C166.495 350.07 167.385 351.99 167.255 353.69C167.125 355.31 167.255 356.96 167.215 358.59C167.205 359.29 167.355 360.33 166.975 360.62C166.015 361.35 166.375 362.62 165.505 363.34C164.525 364.14 163.705 365.13 162.775 366.01C162.535 366.23 162.175 366.31 161.895 366.49C160.605 367.29 159.075 367.65 157.855 368.62C157.625 368.8 156.905 368.41 156.445 368.22C156.165 368.11 155.725 367.69 155.695 367.72C154.245 369.37 152.315 368.41 150.615 368.67C149.645 368.82 148.935 368.46 148.245 367.76C148.025 367.53 147.075 367.6 146.855 367.86C145.685 369.26 144.165 368.57 142.805 368.61C142.415 368.62 142.005 367.96 141.585 367.58C140.535 367.58 139.445 367.58 138.355 367.58C137.265 367.58 136.165 367.51 135.085 367.6C134.225 367.67 133.195 367.1 132.535 367.97C131.375 369.51 130.995 367.06 129.975 367.54C129.385 367.81 128.645 367.49 127.995 368.06C126.815 369.1 125.105 369.07 124.055 368.37C123.025 367.68 122.135 367.59 121.085 367.58C110.365 367.58 99.6454 367.58 88.9154 367.57C87.8154 367.57 86.7754 367.52 86.0354 368.59C85.9154 368.77 85.1654 368.81 85.0354 368.65C83.4454 366.77 81.3253 367.67 79.4653 367.69C78.8453 367.69 77.9654 369.29 77.2854 368.54C76.0454 367.18 74.6354 367.75 73.2754 367.58C72.3254 367.47 71.5654 367.7 70.8854 368.45C70.6654 368.69 69.7053 368.68 69.4953 368.43C68.3353 367.09 67.5354 367.59 66.3854 368.56C65.5854 369.23 64.8153 368.22 64.2153 367.61C63.7953 367.97 63.3853 368.63 62.9953 368.62C61.6353 368.57 60.0953 369.28 58.9353 367.87C58.8353 367.74 57.7753 368.57 57.4853 368.4C56.8853 368.05 56.4554 367.46 55.6254 367.58C53.7554 367.87 51.6253 366.76 50.0653 368.64C49.6753 368.29 49.2754 367.63 48.9054 367.65C47.5454 367.71 45.9953 367 44.8754 368.39C44.6154 368.72 44.4653 368.39 44.0853 368.25C41.6153 367.26 41.5653 367.32 38.1953 368.5C37.7653 368.65 36.9954 368.68 36.7654 368.42C36.0754 367.63 35.2853 367.58 34.3553 367.58C27.9953 367.6 21.6354 367.62 15.2754 367.56C14.2454 367.56 13.5853 367.93 12.9853 368.65C11.4653 366.7 9.29532 367.97 7.46532 367.55C6.93532 366.45 5.58531 366.72 4.83531 366C3.78531 364.99 2.77534 363.95 1.74534 362.92C0.925345 361.17 2.42534 358.94 0.61534 357.38C0.56534 357.34 0.865354 356.89 1.00535 356.64C1.77535 355.33 1.66531 353.96 1.20531 352.61C1.10531 352.3 0.715306 352.09 0.455306 351.83C0.795306 351.45 1.14533 351.06 1.48533 350.68C0.785335 349.92 -0.36466 349.29 0.86534 348.03C1.19534 347.69 1.49532 347.12 1.46532 346.67C1.35532 344.6 2.13531 342.38 0.455306 340.54C0.315306 340.39 0.705384 339.55 1.03538 339.22C2.26538 337.98 1.1653 337.33 0.445296 336.57C0.785296 336.18 1.12532 335.8 1.46532 335.41C0.745315 334.65 -0.144699 334.14 0.825301 332.73C1.9253 331.13 1.74529 328.13 0.935286 326.17C0.875286 326.01 0.605301 325.93 0.575301 325.78C0.295301 324.54 0.0953789 323.3 1.40538 322.45C0.385379 321.55 0.205286 320.37 0.435286 319.13C0.485286 318.83 0.965369 318.64 1.14537 318.34C1.65537 317.48 1.72538 317.39 1.03538 316.51C0.555384 315.9 0.0753934 315.25 0.545393 314.65C1.92539 312.86 1.91532 311.19 0.59532 309.39C0.50532 309.26 1.09534 308.63 1.49534 308.04C1.49534 303.19 1.49534 298.11 1.49534 293.03C1.49534 291.79 1.73529 290.5 0.435286 289.63C0.265286 289.52 0.255398 288.73 0.425398 288.61C1.9254 287.58 1.48533 286.06 1.48533 284.67C1.50533 276.86 1.48533 269.06 1.48533 261.42C1.87533 260.89 2.16531 260.5 2.45531 260.1C1.08531 259.26 1.51534 257.9 1.49534 256.69C1.46534 255.06 1.54532 253.42 1.46532 251.79C1.42532 250.81 1.82537 250.18 2.39537 249.42C3.07537 248.52 2.22533 247.81 1.48533 247.17C1.48533 236.69 1.50531 226.16 1.45531 215.63C1.45531 214.58 1.8853 213.95 2.5753 213.36C0.665301 212.03 1.67536 210.05 1.51536 208.36C1.36536 206.74 1.48533 205.09 1.48533 203.46V198.08C0.755335 197.44 -0.16469 196.63 0.58531 195.85C1.48531 194.93 1.49533 193.99 1.48533 192.92C1.48533 185.83 1.48533 178.75 1.48533 171.66C1.48533 170.59 1.50537 169.66 2.39537 168.73C3.14537 167.95 2.21533 167.14 1.48533 166.51C1.48533 162.56 1.53531 158.57 1.45531 154.58C1.43531 153.53 1.93536 152.94 2.51536 152.26C2.55536 152.21 1.58538 151.54 1.53538 151.11C1.39538 149.85 1.41535 148.57 1.50535 147.3C1.57535 146.27 2.86536 145.76 2.76536 144.53C2.73536 144.14 3.70533 143.57 3.60533 143.32C2.95533 141.66 4.98532 140.79 4.71532 139.4C4.46532 138.11 5.8553 137.62 5.8253 136.57C5.7853 135.43 5.8953 134.43 6.9453 133.75C6.6753 132.65 7.49535 132.14 8.12535 131.51C10.6953 128.94 13.3754 126.47 15.7854 123.76C16.9054 122.51 18.6354 122.46 19.6554 121.13C20.4954 120.04 21.5054 119.07 23.0054 118.71C23.3554 118.63 23.4653 117.53 23.6853 116.9H25.9353C27.8653 114.94 29.7654 113 32.0254 110.69C32.0254 109.19 31.9053 107.21 32.0553 105.26C32.2753 102.34 31.2353 99.2899 32.9353 96.5199C31.8353 95.8099 32.2153 95.1899 33.1053 94.5899C32.7353 94.1899 32.3954 93.8099 32.0354 93.4099V89.6199C38.2054 89.6199 44.3753 89.6099 50.5553 89.6199C51.9453 89.6199 53.4454 89.2099 54.5154 90.6599C54.6154 90.7999 55.5554 90.5399 55.8954 90.2399C56.6654 89.5399 57.3754 89.2499 58.1554 90.1199C58.7054 90.7199 59.5053 91.0599 59.9753 90.4899C60.8253 89.4499 61.8554 89.6199 62.9154 89.6199C80.1654 89.6199 97.4054 89.6199 114.655 89.6199C115.735 89.6199 116.845 89.4599 117.515 90.5999C117.915 90.3099 118.305 90.0099 118.825 89.6299C123.375 89.6299 128.095 89.6299 132.805 89.6399C133.305 89.6399 134.005 89.6699 134.275 89.9799C135.305 91.1699 136.615 90.5599 137.805 90.7199V90.6899ZM112.165 189.88C111.915 189.64 111.705 189.23 111.395 189.14C109.385 188.55 108.355 188.73 105.875 189.6C105.105 189.87 104.175 189.72 103.325 189.76C102.475 188.39 101.115 188.82 99.9054 188.82C98.4754 188.82 97.0554 188.93 95.6254 189C94.7654 190.4 93.3353 190 92.1853 189.84C89.7853 189.51 87.1253 191 84.9653 188.88C84.9453 188.86 84.7053 189.03 84.5953 189.13C83.3453 190.27 82.1453 190.24 80.8453 189.15C80.5153 188.87 79.5653 188.73 79.4453 188.91C78.5353 190.22 77.2154 189.89 76.0054 189.89C63.4754 189.9 50.9354 189.9 38.4054 189.89C37.5154 189.89 36.6053 189.89 35.7353 189.74C35.3153 189.67 34.6553 188.98 34.6153 189.03C33.1253 190.7 31.1953 189.72 29.4953 189.86C27.6953 190.01 25.8653 189.83 24.0553 189.94C23.6253 189.97 23.2254 190.55 22.7754 190.91C22.4354 190.6 22.0554 190.26 21.6754 189.91C20.9254 190.56 20.2953 191.8 19.0553 190.54C18.7053 190.19 18.5253 189.99 17.8753 190.36C14.9953 191.99 14.9953 191.95 13.3153 194.95C12.9853 195.54 12.1753 195.94 12.4453 196.75C12.6253 197.3 13.0653 197.76 13.3653 198.22C12.9653 198.62 12.7054 198.88 12.4154 199.17C12.4154 204.41 12.4054 209.67 12.4154 214.93C12.4154 216.32 11.9753 217.86 13.4953 218.84C13.3153 219.68 13.6454 220.51 13.1354 221.42C12.0954 223.26 12.0653 225.14 12.9353 226.88C13.2653 227.54 13.8554 228.25 13.2954 228.72C12.2754 229.58 12.4054 230.59 12.4054 231.65C12.4054 248.18 12.4054 264.7 12.4054 281.23C12.4054 282.31 12.5053 283.21 13.3053 284.17C13.8453 284.82 13.7554 286.1 12.8854 287.08C12.1454 287.92 12.1254 288.26 12.7954 288.86C13.8354 289.78 13.3853 290.84 13.4853 291.86C12.1453 292.67 12.4154 293.99 12.4154 295.23C12.4154 298.68 12.2553 302.14 12.4653 305.58C12.6353 308.34 11.3453 311.32 13.4753 313.87C13.6253 314.05 13.5153 314.63 13.3353 314.86C12.8953 315.41 12.3554 315.82 12.3954 316.67C12.4654 318.48 12.2653 320.32 12.4553 322.11C12.6653 323.98 11.5253 326.11 13.3653 327.73C13.3953 327.75 13.0053 328.2 12.8553 328.47C12.3053 329.48 12.2954 329.49 12.7654 330.32C12.9354 330.62 13.4653 330.84 13.4753 331.11C13.5253 333.29 13.4953 335.46 13.4953 337.64C11.5653 339.19 12.7654 341.34 12.4054 343.19C12.1954 344.28 13.4753 344.71 13.4353 345.46C13.3853 346.42 12.6053 347.32 12.4653 348.29C12.2853 349.53 12.4053 350.83 12.4353 352.1C12.4353 352.44 12.5654 352.77 12.6354 353.1C13.0254 353.49 13.4054 353.87 13.7954 354.26C14.2954 354.76 14.7953 355.25 15.0653 355.52C17.0953 355.91 19.0353 354.88 20.4653 356.57C22.4153 356.54 24.3553 356.5 26.3053 356.47C27.1253 355.46 27.8153 355.44 28.9853 356.25C30.3453 357.18 31.5953 356.87 33.3653 355.96C34.1653 355.55 34.1753 355.53 35.2253 356.08C35.5253 356.24 35.7754 356.69 36.0454 356.69C39.1354 356.73 42.2253 356.75 45.3053 356.68C45.7353 356.67 46.1353 356.1 46.5753 355.84C47.2853 355.43 47.8953 355.59 48.4353 356.19C49.5553 357.44 50.2953 356.48 51.0953 355.67C51.4753 356.01 51.8554 356.35 52.2554 356.72C55.1254 356.72 58.0253 356.69 60.9353 356.74C61.7153 356.75 62.2653 356.54 62.8353 356C63.1353 355.71 64.0953 355.55 64.2253 355.73C64.9953 356.76 66.0153 356.76 67.1153 356.74C69.4753 356.7 71.8453 356.82 74.1953 356.7C76.3953 356.59 78.7454 357.4 80.7654 355.83C80.7854 355.82 81.0154 356.06 81.1354 356.2C82.0154 357.18 82.1654 355.88 83.0154 355.63C85.2054 355.63 87.7354 355.61 90.2754 355.64C90.7754 355.64 91.4653 355.66 91.7453 355.97C92.7053 356.98 93.4753 357.02 94.4453 355.99C94.7253 355.7 95.7153 355.55 95.8353 355.72C96.9053 357.24 98.4653 356.73 99.8153 356.67C101.195 356.61 102.685 357.24 103.975 356.22C104.195 356.04 104.675 355.79 104.715 355.83C105.805 357.18 106.755 356.91 107.805 355.73C107.985 355.53 108.935 355.68 109.205 355.97C110.165 356.99 110.935 357.01 111.905 355.97C112.195 355.66 112.875 355.64 113.375 355.63C115.905 355.6 118.445 355.62 120.615 355.62C121.505 355.82 121.515 357.03 122.555 356.24C123.925 355.2 125.595 355.17 126.925 356.24C128.225 357.29 128.825 356.46 129.615 355.66C129.995 356.01 130.375 356.35 130.865 356.8C132.925 356.19 135.465 357.82 137.375 355.63C139.065 355.97 140.975 354.79 142.515 356.43C142.795 356.73 143.505 356.71 144.015 356.71C145.815 356.71 147.615 356.64 149.415 356.6C150.185 354.94 152.245 356.3 153.115 355.04C153.685 354.21 155.395 355.07 155.335 353.32C155.305 352.34 156.465 351.74 156.455 350.5C156.435 348.81 155.605 346.87 157.285 345.41C157.325 345.37 157.055 344.88 156.855 344.68C156.265 344.09 156.105 343.42 156.695 342.83C157.235 342.28 157.515 341.76 157.505 340.96C157.485 339.71 157.655 338.45 156.425 337.61C158.195 336.46 157.195 334.65 157.495 333.15C157.765 331.79 156.255 331.24 156.305 329.78C156.505 323.43 156.405 317.07 156.375 310.71C156.375 309.75 156.555 309.02 157.285 308.33C157.515 308.11 157.485 307.16 157.225 306.94C156.435 306.26 156.355 305.46 156.385 304.53C156.425 303.08 156.395 301.62 156.395 300.17C156.395 298.72 156.345 297.26 156.415 295.81C156.475 294.44 155.895 292.87 157.455 291.89C155.985 290.9 156.425 289.38 156.405 288C156.375 286.01 156.405 284.01 156.405 282.05C157.145 281.26 158.175 280.69 157.055 279.36C155.925 278.03 156.065 276.4 156.995 274.99C157.375 274.41 157.325 274.18 156.895 273.81C156.265 273.26 156.145 272.57 156.715 271.96C157.905 270.7 157.775 269.52 156.795 268.21C156.515 267.84 156.445 267.24 156.435 266.74C156.405 264.2 156.415 261.66 156.415 259.16C157.165 258.36 158.325 257.66 157.015 256.51C156.375 255.95 156.415 255.28 156.415 254.57C156.415 252.03 156.375 249.48 156.435 246.94C156.475 245.04 155.965 243.06 157.455 241.35C157.765 240.99 157.625 239.69 157.235 239.37C156.185 238.49 156.425 237.44 156.425 236.4C156.415 227.86 156.425 219.33 156.405 210.79C156.405 209.68 156.385 208.65 157.445 207.92C157.625 207.8 157.645 207.02 157.485 206.91C156.005 205.87 156.435 204.36 156.425 202.97C156.405 199.52 156.425 196.07 156.425 192.51C155.805 192.3 155.105 192.18 154.565 191.83C153.965 191.44 153.535 190.81 152.995 190.32C152.385 189.77 152.015 189.79 151.135 190.29C150.785 190.49 150.565 191.37 149.985 190.56C149.495 189.87 148.795 189.9 148.065 189.91C144.615 189.93 141.165 189.93 137.715 189.91C137.025 189.91 136.415 189.8 135.715 189.48C133.405 188.42 132.665 188.56 129.845 189.79C128.785 190.25 128.195 189.57 127.495 188.77C126.685 190.02 125.935 190.23 124.515 189.26C123.325 188.46 121.525 188.22 120.125 189.63C119.855 189.9 118.915 189.98 118.725 189.76C117.635 188.51 116.815 188.61 115.615 189.74C114.825 190.49 114.015 189.57 113.405 188.86C113.015 189.21 112.635 189.56 112.255 189.91L112.165 189.88Z" fill="#B0DEFF"/>
<path d="M137.805 90.6901C136.615 90.5301 135.305 91.1401 134.275 89.9501C134.005 89.6401 133.305 89.6101 132.805 89.6101C128.095 89.5901 123.375 89.6001 118.825 89.6001C118.305 89.9901 117.905 90.2801 117.515 90.5701C116.835 89.4301 115.725 89.5901 114.655 89.5901C97.4052 89.5901 80.1652 89.5901 62.9152 89.5901C61.8652 89.5901 60.8352 89.4201 59.9752 90.4601C59.5052 91.0301 58.7052 90.6901 58.1552 90.0901C57.3752 89.2301 56.6652 89.5101 55.8952 90.2101C55.5552 90.5201 54.6152 90.7701 54.5152 90.6301C53.4552 89.1801 51.9451 89.5901 50.5551 89.5901C44.3851 89.5701 38.2152 89.5901 32.0352 89.5901C30.9452 89.5901 29.8552 89.5501 28.7652 89.5901C26.8952 89.6801 25.5052 88.6101 24.1352 87.6301C23.1152 86.8901 22.3152 85.8601 21.4152 84.9701C21.3152 84.8301 21.1852 84.7001 21.1352 84.5401C21.0852 84.3701 21.1252 84.1801 21.1252 84.0001V70.3801C21.1252 70.2001 21.1152 70.0201 21.1252 69.8401C21.2052 68.9201 21.0652 68.1501 20.2952 67.4401C19.7152 66.9001 19.9651 66.1701 20.5651 65.6001C20.7551 65.4201 20.9252 64.8901 20.8852 64.8701C19.7152 64.1401 20.0552 62.9701 20.0352 61.9301C20.0052 60.4801 20.0152 59.0301 20.0352 57.5701C20.0452 56.3401 19.7352 55.0101 21.0852 54.1901C20.1252 53.4801 19.9852 52.5201 20.0152 51.3901C20.0852 48.3101 20.0352 45.2201 20.0352 42.5801C20.1552 41.5901 21.6052 41.5201 20.6452 40.6101C19.6952 39.7201 19.8752 38.6301 20.2352 37.6701C20.4552 37.0701 21.1952 36.7101 21.1352 35.8601C21.0052 33.9001 21.0952 31.9101 20.8352 29.9701C20.7652 29.4301 19.7851 28.9401 20.0651 28.1601C20.2351 27.6901 20.7251 27.3501 21.0751 26.9501C19.6151 25.9501 20.0652 24.4401 20.0352 23.0601C20.0052 21.7901 20.0352 20.5201 20.0352 19.2501C20.0352 18.5301 19.7752 17.3501 20.0952 17.1501C22.2352 15.8601 20.1152 13.2401 21.9152 11.8101C22.3952 11.4301 22.2251 10.1301 22.1851 9.2601C22.1451 8.4201 22.7452 8.0301 23.0952 7.4401C23.6452 6.5001 25.0351 7.1301 25.3151 6.2901C25.5951 5.4401 25.8452 4.7001 26.5152 4.0501C27.5552 3.0301 28.4851 1.8901 30.1951 2.3901C31.2151 0.620103 33.7352 2.0501 34.7952 0.250096C34.8752 0.120096 35.9152 0.300097 36.1752 0.610097C36.8652 1.4201 37.1452 0.830097 37.7852 0.540097C39.0652 -0.0599031 40.5652 -0.159904 41.7652 0.750096C42.4152 1.2501 43.0252 1.3301 43.7252 1.3001C44.7952 1.2601 45.9552 1.4301 46.8852 1.0501C47.6452 0.740099 48.3352 -0.369904 49.1152 0.500096C50.0252 1.5201 51.0452 1.2201 52.0852 1.3101C52.8352 1.3801 53.4452 1.2401 53.9952 0.620099C55.2052 -0.759901 55.7952 0.800096 56.6152 1.2501C57.3752 0.510096 58.0452 -0.509902 59.2652 0.690098C59.5952 1.0201 60.3552 1.4001 60.6052 1.2501C62.8852 -0.129904 65.1052 -0.629898 67.4252 1.1701C67.5152 1.2401 68.1752 0.570103 68.6052 0.210103C70.1752 0.210103 71.8051 0.160101 73.4351 0.240101C73.8851 0.260101 74.3152 0.720103 74.7552 0.960103C75.5852 1.4001 75.6852 1.5101 76.5852 0.820096C77.2152 0.330096 77.8252 0.310102 78.5152 0.170102C79.5452 -0.0398982 79.9651 1.2801 80.6951 1.0501C81.2851 0.860099 81.6852 0.200096 82.5152 0.180096C83.5152 0.150096 84.2451 0.450097 84.8251 1.2901C85.2251 0.930097 85.6052 0.590097 86.0152 0.220097C86.5152 0.220097 87.0752 0.160099 87.6052 0.230099C89.3052 0.440099 91.2552 -0.519899 92.6052 1.3101C93.6852 1.2901 94.7652 1.2801 95.8552 1.2601C96.8352 -0.319902 98.4152 0.260101 99.7852 0.240101C103.595 0.180101 107.415 0.210099 111.225 0.230099C112.265 0.230099 113.435 -0.089898 114.125 1.1001C115.345 1.1101 116.565 1.1301 117.775 1.1401C119.175 -0.349897 120.535 -0.239904 121.925 1.1801C121.955 1.2101 122.665 0.590097 123.115 0.220097H127.385C128.545 1.9101 130.305 1.1401 131.835 1.3201C132.645 1.4201 133.095 0.840099 133.705 0.550099C134.985 -0.049901 136.375 0.0200962 137.725 0.680096C139.075 1.3501 140.525 1.9301 141.765 2.7201C142.905 3.4501 144.495 3.5101 145.245 4.9301C145.885 6.1501 147.605 6.5101 147.685 8.3201C147.715 9.0001 149.165 9.5201 149.395 10.2901C149.835 11.7401 151.165 12.8601 150.895 14.6001C150.725 15.6601 150.865 16.7701 150.865 17.8601C150.865 18.7701 150.975 19.6901 150.835 20.5801C150.705 21.3401 149.965 22.1001 150.085 22.7601C150.175 23.3101 150.965 23.7601 150.895 24.5901C150.815 25.4901 150.875 26.4001 150.875 27.3101V33.3001C150.875 35.3001 150.775 37.3001 150.905 39.2901C151.015 40.9901 150.155 42.9301 151.905 44.3101C150.755 45.1701 150.845 46.3901 150.855 47.6501C150.895 52.7301 150.875 57.8201 150.875 62.8801C150.515 63.2701 150.165 63.6501 149.855 64.0001C150.215 64.4501 150.815 64.8501 150.835 65.2701C150.925 67.6301 150.895 69.9901 150.855 72.3501C150.855 72.6501 150.595 72.9901 150.355 73.2201C149.565 73.9901 149.665 74.6301 150.325 75.5001C151.255 76.7101 151.225 78.2801 150.535 79.4701C150.055 80.2901 149.575 81.0201 149.815 81.8901C150.205 83.3201 149.035 84.1401 148.665 85.2501C148.145 86.8001 146.935 87.8301 145.475 88.5301C144.415 89.0401 143.195 89.3501 142.335 90.0901C141.495 90.8101 141.295 90.1101 140.725 89.9101C139.965 89.6401 139.035 89.7601 138.185 89.8301C138.035 89.8401 137.925 90.4101 137.795 90.7201L137.805 90.6901ZM117.505 7.8401C117.305 8.4301 117.255 9.2201 116.835 9.6401C116.415 10.0701 115.635 10.1301 114.905 10.3901C114.905 11.6801 115.005 12.9301 114.875 14.1601C114.745 15.3501 116.175 15.7101 116.065 16.9501C115.995 17.7701 117.325 17.3801 117.685 17.7801C119.005 19.2601 120.595 18.6101 121.455 18.6301C123.195 17.1701 124.565 16.0201 125.775 14.9901C126.025 11.9701 125.105 9.6601 123.045 7.8301H117.485L117.505 7.8401ZM90.8752 14.9701C90.8852 14.8001 90.9152 14.6201 90.9152 14.4501C90.9052 10.7701 90.3951 10.0601 86.9451 8.7501C86.6351 8.6301 86.4652 8.1201 86.1652 8.0401C85.7152 7.9301 85.1352 7.8901 84.7252 8.0801C83.8352 8.5001 83.0351 9.0801 82.1951 9.6001C82.6351 11.3401 81.0052 10.8901 80.2852 11.4001C80.1552 11.4901 80.0652 11.6701 80.0252 11.8201C79.9852 11.9901 79.9552 12.2001 80.0252 12.3501C80.3652 13.1101 80.8352 13.8201 81.0852 14.6001C81.3852 15.5701 80.6452 16.7401 81.6052 17.6101C82.6052 17.8201 83.6551 17.3801 84.5751 18.3101C85.2951 19.0301 85.7351 19.0501 86.3151 18.3301C86.9851 17.5101 87.9952 17.9401 88.6052 17.2601C89.3252 16.4601 90.1152 15.7301 90.8752 14.9701ZM54.3752 8.9301H48.9451C47.7751 9.8801 46.8552 10.9301 47.2852 12.6101C47.5452 13.6201 46.9852 14.3101 46.1752 14.9101C47.4952 16.1801 48.7952 17.4201 50.1652 18.7401H53.1752C54.5252 17.4201 55.8251 16.1501 57.0751 14.9201C57.0751 14.1501 57.3752 13.1401 57.0152 12.7701C55.9152 11.6201 55.9652 9.7001 54.3652 8.9301H54.3752Z" fill="#9B9B9B"/>
<path d="M112.175 189.89C112.555 189.54 112.935 189.2 113.325 188.84C113.945 189.54 114.745 190.46 115.535 189.72C116.735 188.59 117.555 188.49 118.645 189.74C118.835 189.96 119.775 189.88 120.045 189.61C121.445 188.2 123.245 188.44 124.435 189.24C125.865 190.21 126.605 189.99 127.415 188.75C128.125 189.55 128.705 190.23 129.765 189.77C132.585 188.54 133.325 188.4 135.635 189.46C136.335 189.78 136.945 189.89 137.635 189.89C141.085 189.91 144.535 189.91 147.985 189.89C148.715 189.89 149.405 189.86 149.905 190.54C150.485 191.34 150.705 190.47 151.055 190.27C151.935 189.77 152.305 189.75 152.915 190.3C153.455 190.79 153.885 191.42 154.485 191.81C155.025 192.16 155.735 192.28 156.345 192.49C156.345 196.06 156.325 199.5 156.345 202.95C156.345 204.34 155.925 205.85 157.405 206.89C157.565 207 157.545 207.77 157.365 207.9C156.305 208.63 156.325 209.66 156.325 210.77C156.345 219.31 156.325 227.84 156.345 236.38C156.345 237.42 156.105 238.47 157.155 239.35C157.545 239.67 157.685 240.97 157.375 241.33C155.885 243.04 156.395 245.02 156.355 246.92C156.305 249.46 156.355 252.01 156.335 254.55C156.335 255.26 156.295 255.93 156.935 256.49C158.255 257.64 157.085 258.35 156.335 259.14C156.335 261.65 156.315 264.18 156.355 266.72C156.355 267.22 156.435 267.82 156.715 268.19C157.705 269.5 157.825 270.68 156.635 271.94C156.065 272.55 156.195 273.23 156.815 273.79C157.245 274.17 157.295 274.4 156.915 274.97C155.985 276.38 155.855 278.01 156.975 279.34C158.105 280.67 157.065 281.24 156.325 282.03C156.325 283.99 156.305 285.99 156.325 287.98C156.345 289.36 155.905 290.88 157.375 291.87C155.815 292.85 156.395 294.42 156.335 295.79C156.265 297.24 156.315 298.7 156.315 300.15C156.315 301.6 156.345 303.06 156.305 304.51C156.275 305.44 156.365 306.23 157.145 306.92C157.405 307.14 157.435 308.09 157.205 308.31C156.485 309 156.295 309.74 156.295 310.69C156.325 317.05 156.425 323.41 156.225 329.76C156.175 331.22 157.685 331.77 157.415 333.13C157.115 334.63 158.115 336.44 156.345 337.59C157.575 338.43 157.405 339.69 157.425 340.94C157.435 341.74 157.165 342.26 156.615 342.81C156.035 343.4 156.185 344.07 156.775 344.66C156.975 344.86 157.255 345.36 157.205 345.39C155.525 346.85 156.355 348.79 156.375 350.48C156.385 351.72 155.225 352.31 155.255 353.3C155.315 355.05 153.605 354.19 153.035 355.02C152.175 356.28 150.105 354.92 149.335 356.58C147.535 356.62 145.735 356.68 143.935 356.69C143.425 356.69 142.725 356.71 142.435 356.41C140.895 354.77 138.985 355.95 137.295 355.61C135.385 357.81 132.845 356.17 130.785 356.78C130.295 356.34 129.915 355.99 129.535 355.64C128.745 356.43 128.145 357.27 126.845 356.22C125.525 355.15 123.845 355.18 122.475 356.22C121.435 357.01 121.435 355.81 120.535 355.6C118.365 355.6 115.835 355.58 113.295 355.61C112.795 355.61 112.115 355.64 111.825 355.95C110.855 356.98 110.085 356.96 109.125 355.95C108.855 355.66 107.905 355.51 107.725 355.71C106.675 356.88 105.725 357.15 104.635 355.81C104.595 355.77 104.125 356.02 103.895 356.2C102.605 357.22 101.115 356.59 99.7354 356.65C98.3854 356.71 96.8254 357.21 95.7554 355.7C95.6354 355.53 94.6354 355.68 94.3654 355.97C93.3954 357 92.6254 356.96 91.6654 355.95C91.3754 355.64 90.6953 355.63 90.1953 355.62C87.6653 355.59 85.1253 355.61 82.9353 355.61C82.0853 355.85 81.9353 357.15 81.0553 356.18C80.9353 356.05 80.7053 355.8 80.6853 355.81C78.6653 357.38 76.3154 356.57 74.1154 356.68C71.7554 356.8 69.3954 356.68 67.0354 356.72C65.9354 356.74 64.9154 356.75 64.1454 355.71C64.0154 355.53 63.0554 355.69 62.7554 355.98C62.1854 356.53 61.6454 356.74 60.8554 356.72C57.9554 356.67 55.0454 356.7 52.1754 356.7C51.7754 356.34 51.3954 355.99 51.0154 355.65C50.2254 356.46 49.4854 357.42 48.3554 356.17C47.8054 355.56 47.1954 355.4 46.4954 355.82C46.0554 356.08 45.6554 356.65 45.2254 356.66C42.1354 356.73 39.0454 356.72 35.9654 356.67C35.6854 356.67 35.4454 356.21 35.1454 356.06C34.1054 355.52 34.0954 355.53 33.2854 355.94C31.5154 356.85 30.2654 357.16 28.9054 356.23C27.7354 355.43 27.0454 355.44 26.2254 356.45L20.3854 356.55C18.9554 354.86 17.0154 355.89 14.9854 355.5C14.7054 355.22 14.2054 354.73 13.7154 354.24C13.3254 353.86 12.9453 353.47 12.5553 353.08C12.4853 352.75 12.3654 352.41 12.3554 352.08C12.3354 350.81 12.2054 349.52 12.3854 348.27C12.5254 347.3 13.3054 346.4 13.3554 345.44C13.3954 344.69 12.1153 344.26 12.3253 343.17C12.6853 341.32 11.4854 339.17 13.4154 337.62C13.4154 335.44 13.4554 333.26 13.3954 331.09C13.3954 330.82 12.8653 330.61 12.6853 330.3C12.2053 329.47 12.2254 329.46 12.7754 328.45C12.9254 328.18 13.3154 327.73 13.2854 327.71C11.4454 326.09 12.5854 323.96 12.3754 322.09C12.1754 320.3 12.3753 318.46 12.3153 316.65C12.2853 315.8 12.8154 315.39 13.2554 314.84C13.4454 314.61 13.5454 314.03 13.3954 313.85C11.2654 311.3 12.5554 308.32 12.3854 305.56C12.1654 302.12 12.3354 298.66 12.3354 295.21C12.3354 293.97 12.0654 292.65 13.4054 291.84C13.3054 290.82 13.7554 289.77 12.7154 288.84C12.0454 288.25 12.0653 287.9 12.8053 287.06C13.6753 286.08 13.7654 284.79 13.2254 284.15C12.4254 283.19 12.3253 282.29 12.3253 281.21C12.3253 264.68 12.3253 248.16 12.3253 231.63C12.3253 230.57 12.1954 229.55 13.2154 228.7C13.7754 228.23 13.1854 227.52 12.8554 226.86C11.9854 225.12 12.0153 223.24 13.0553 221.4C13.5753 220.49 13.2454 219.66 13.4154 218.82C11.8954 217.84 12.3354 216.3 12.3354 214.91C12.3154 209.65 12.3354 204.38 12.3354 199.15C12.6154 198.87 12.8754 198.61 13.2854 198.2C12.9854 197.74 12.5454 197.28 12.3654 196.73C12.0954 195.92 12.9054 195.52 13.2354 194.93C14.9154 191.93 14.9154 191.97 17.7954 190.34C18.4454 189.97 18.6354 190.17 18.9754 190.52C20.2154 191.78 20.8354 190.54 21.5954 189.89C21.9754 190.24 22.3553 190.58 22.6953 190.89C23.1453 190.53 23.5454 189.95 23.9754 189.92C25.7854 189.81 27.6154 189.99 29.4154 189.84C31.1154 189.69 33.0454 190.68 34.5354 189.01C34.5754 188.96 35.2354 189.65 35.6554 189.72C36.5254 189.87 37.4353 189.87 38.3253 189.87C50.8553 189.87 63.3954 189.88 75.9254 189.87C77.1454 189.87 78.4554 190.2 79.3654 188.89C79.4854 188.72 80.4354 188.86 80.7654 189.13C82.0654 190.22 83.2654 190.25 84.5154 189.11C84.6254 189.01 84.8654 188.84 84.8854 188.86C87.0454 190.98 89.7054 189.49 92.1054 189.82C93.2554 189.98 94.6854 190.38 95.5454 188.98C96.9754 188.92 98.3953 188.8 99.8253 188.8C101.035 188.8 102.395 188.38 103.245 189.74C104.105 189.7 105.025 189.85 105.795 189.58C108.275 188.71 109.305 188.53 111.315 189.12C111.625 189.21 111.835 189.61 112.085 189.86L112.175 189.89Z" fill="white"/>
<path d="M117.505 7.83984H123.065C125.125 9.66984 126.045 11.9798 125.795 14.9998C124.575 16.0198 123.205 17.1698 121.475 18.6398C120.615 18.6298 119.015 19.2698 117.705 17.7898C117.345 17.3898 116.005 17.7898 116.085 16.9598C116.195 15.7098 114.765 15.3498 114.895 14.1698C115.025 12.9398 114.925 11.6898 114.925 10.3998C115.645 10.1398 116.435 10.0698 116.855 9.64984C117.275 9.22984 117.325 8.43985 117.525 7.84985L117.505 7.83984Z" fill="#F1F1F2"/>
<path d="M90.8851 14.9698C90.1251 15.7298 89.3351 16.4598 88.6151 17.2598C88.0051 17.9398 86.9851 17.5198 86.3251 18.3298C85.7451 19.0498 85.3051 19.0298 84.5851 18.3098C83.6551 17.3798 82.6051 17.8098 81.6151 17.6098C80.6551 16.7398 81.3951 15.5698 81.0951 14.5998C80.8551 13.8198 80.3852 13.1098 80.0352 12.3498C79.9652 12.1998 79.9952 11.9898 80.0352 11.8198C80.0752 11.6598 80.1752 11.4898 80.2952 11.3998C81.0152 10.8898 82.6451 11.3398 82.2051 9.59977C83.0451 9.07977 83.8551 8.49977 84.7351 8.07977C85.1351 7.88977 85.7152 7.92977 86.1752 8.03977C86.4752 8.11977 86.6451 8.62976 86.9551 8.74976C90.4051 10.0598 90.9152 10.7698 90.9252 14.4498C90.9252 14.6198 90.8951 14.7998 90.8851 14.9698Z" fill="#F0F1F2"/>
<path d="M54.3854 8.92969C55.9854 9.69969 55.9254 11.6097 57.0354 12.7697C57.3954 13.1497 57.0953 14.1597 57.0953 14.9197C55.8453 16.1497 54.5453 17.4197 53.1953 18.7397H50.1853C48.8153 17.4297 47.5153 16.1797 46.1953 14.9097C47.0053 14.3097 47.5653 13.6197 47.3053 12.6097C46.8753 10.9297 47.7953 9.87969 48.9653 8.92969H54.3954H54.3854Z" fill="#F0F0F1"/>
</svg>
