<svg width="141" height="399" viewBox="0 0 141 399" fill="none" xmlns="http://www.w3.org/2000/svg">
<path d="M2.08519 362.861C1.90519 362.861 1.59518 362.921 1.56518 362.851C1.34518 362.401 1.03519 361.921 1.02519 361.451C1.00519 360.241 0.615193 358.881 1.99519 358.051C0.995193 357.141 1.01518 355.971 0.955184 354.731C0.875184 353.241 2.40518 352.401 2.15518 350.811C1.97518 349.681 1.67518 348.351 2.84518 347.291C3.23518 346.931 3.04519 345.961 3.18519 345.281C3.48519 343.771 2.41519 342.001 4.02519 340.711C4.08519 340.661 3.89518 340.141 3.70518 339.981C2.84518 339.261 3.29519 338.311 3.17519 337.461C4.63519 336.241 4.36519 334.551 4.22519 333.011C4.08519 331.491 5.74518 330.691 5.40518 329.091C5.14518 327.871 5.35519 326.561 5.35519 325.291C6.89519 324.311 6.3952 322.771 6.43519 321.381C6.4652 320.291 6.30518 319.181 6.48518 318.121C6.62518 317.321 7.48518 316.591 7.45518 315.841C7.41518 314.641 8.25518 313.941 8.54518 313.001C8.85518 312.001 8.67518 310.841 8.59518 309.751C8.53518 308.901 9.29519 308.531 9.47519 307.931C9.60519 307.501 8.86519 306.871 8.64519 306.281C8.55519 306.031 8.7552 305.611 8.93519 305.341C9.12519 305.041 9.43518 304.821 9.70518 304.541C9.70518 303.101 9.80519 301.651 9.67519 300.211C9.54519 298.721 11.1052 297.881 10.8552 296.291C10.6752 295.161 10.2852 293.741 11.6052 292.821C11.7352 292.731 11.8652 292.541 11.8652 292.391C11.8852 290.941 11.9152 289.481 11.8652 288.031C11.8152 286.601 13.7052 285.751 12.9752 284.121C12.4752 283.001 13.7252 282.371 13.8152 281.411C11.8252 280.241 14.8852 279.631 14.1552 278.341C13.7552 277.631 13.6052 276.181 14.8152 275.431C14.9552 275.341 15.1352 275.171 15.1352 275.031C15.1552 273.581 15.3352 272.091 15.0952 270.681C14.8652 269.251 16.6252 268.811 16.3152 267.291C16.0152 265.801 15.8752 264.071 17.3352 262.851V257.951C18.9852 256.351 18.3052 254.301 18.4252 252.411C19.9752 251.551 19.1652 249.821 19.8452 248.641C20.0152 248.341 20.5152 248.151 20.5752 247.861C20.8252 246.661 20.0652 245.211 21.0352 244.251C22.0052 243.291 21.7952 242.211 21.6452 241.241C21.4252 239.821 23.2452 239.371 22.8552 237.851C22.5452 236.661 22.7952 235.321 22.7952 234.051C24.6252 231.681 23.7952 228.921 23.8152 226.331C23.8152 225.111 24.8052 224.491 24.9352 223.511C25.1052 222.261 24.9752 220.971 24.9752 219.701V216.431C26.5552 215.031 25.8652 213.141 26.1052 211.441C26.2152 210.651 26.7852 209.921 27.1552 209.161C31.6952 209.161 36.2352 209.141 40.7752 209.181C41.5652 209.181 42.1052 208.981 42.6752 208.431C42.9752 208.141 43.9352 207.991 44.0652 208.161C44.8352 209.201 45.8552 209.251 46.9552 209.151C49.0152 208.961 51.1852 209.751 53.1052 208.131C53.5552 207.751 54.8452 207.751 55.5452 208.621C55.6952 208.801 56.2152 208.951 56.2752 208.881C57.4452 207.401 58.3652 208.071 59.3452 209.121C59.5152 209.301 60.2752 209.291 60.3652 209.121C61.2152 207.711 61.9052 208.881 62.7852 209.041C64.0652 209.261 65.6152 209.721 66.7952 208.291C67.2752 207.711 68.1252 207.991 68.6052 208.641C69.0952 209.301 69.4652 208.911 69.7552 208.511C70.0652 208.081 70.1952 208.171 70.5552 208.361C72.4452 209.361 72.4552 209.321 74.2652 208.401C74.5652 208.251 74.9552 208.011 75.2052 208.101C75.9952 208.381 76.7152 208.851 77.4952 209.151C78.6152 209.581 79.3152 208.571 80.2252 208.261C81.0852 209.661 82.5052 208.921 83.6652 209.181C85.0652 209.501 85.8952 208.351 87.0452 208.111C87.6752 207.981 88.6952 208.031 89.0352 208.431C90.3152 209.941 91.1552 208.911 92.0552 208.171C92.4652 208.461 93.1052 209.071 93.2252 208.981C95.0152 207.631 96.7252 207.601 98.4552 209.031C100.035 208.991 101.615 208.941 103.195 208.901C104.655 207.491 105.965 207.801 107.335 209.121C107.615 209.391 108.385 209.161 108.935 209.161C109.115 210.041 108.115 210.211 107.915 210.871C108.545 211.501 109.185 212.141 110.025 212.981C110.025 214.021 109.885 215.291 110.065 216.501C110.215 217.471 110.905 218.351 111.065 219.321C111.245 220.381 111.015 221.501 111.155 222.571C111.215 223.011 111.925 223.341 112.065 223.801C112.195 224.231 112.145 224.941 111.865 225.221C111.255 225.831 111.035 226.191 111.835 226.811C112.515 227.351 112.125 228.441 112.955 229.091C113.485 229.511 111.725 230.481 113.075 231.421C113.575 231.771 113.505 233.011 114.265 233.611C114.455 233.761 114.365 234.281 114.385 234.631C114.485 236.221 114.565 237.821 114.665 239.411C116.335 240.301 114.555 242.791 116.575 243.511C116.445 244.791 116.755 245.821 117.565 246.931C118.085 247.641 117.835 249.071 117.625 250.111C117.225 252.161 118.205 253.841 118.905 255.581C119.145 256.181 119.865 256.511 119.865 257.371C119.865 259.091 119.415 260.941 120.915 262.371C121.005 262.461 120.935 262.721 120.925 262.901C120.825 265.361 120.845 266.011 121.295 266.741C122.005 267.891 122.985 269.161 122.975 270.341C122.965 271.771 124.315 272.431 124.185 273.691C124.005 275.481 125.745 276.751 125.345 278.691C125.025 280.261 125.285 281.941 125.285 283.571V286.201C125.905 286.631 126.785 287.251 127.465 287.721C127.465 289.211 127.345 290.311 127.495 291.361C127.695 292.721 126.885 294.181 128.125 295.461C129.095 296.451 128.365 297.861 128.555 299.071C130.415 300.401 129.355 302.381 129.645 304.051C129.825 305.081 129.115 306.311 130.085 307.111C131.145 307.981 130.395 309.171 130.845 310.071C131.445 311.281 132.465 312.331 132.835 313.591C133.175 314.761 132.905 316.111 132.905 317.371C134.805 319.321 133.905 321.771 133.915 323.991C133.915 325.231 134.995 325.771 135.065 326.801C135.135 327.701 135.075 328.611 135.075 329.521C136.705 330.691 136.035 332.421 136.165 333.961C137.695 334.931 137.435 336.521 137.195 337.851C136.905 339.451 138.555 340.251 138.385 341.761C138.225 343.181 138.405 344.631 138.435 346.071C139.725 347.041 139.845 348.041 138.525 349.091C138.475 349.131 138.505 349.411 138.565 349.451C139.745 350.161 139.315 351.331 139.445 352.361C139.635 353.881 138.725 355.661 140.465 356.821C138.515 358.561 139.795 360.861 139.425 362.871C138.735 362.691 138.555 363.411 138.105 363.611C137.665 363.811 136.915 364.061 136.685 363.851C135.985 363.231 135.455 362.601 134.725 363.761C132.425 363.761 130.115 363.801 127.815 363.761C127.555 363.761 127.335 363.131 127.035 363.061C126.575 362.951 125.925 362.901 125.605 363.151C125.035 363.591 124.575 364.021 123.755 363.991C121.765 363.921 119.765 363.941 117.775 363.991C116.665 364.011 115.665 363.991 114.895 362.971C114.765 362.801 113.815 362.971 113.505 363.261C112.935 363.811 112.385 364.011 111.605 364.001C108.165 363.961 104.715 364.001 101.275 363.961C100.605 363.961 99.7852 364.351 99.2652 363.601C98.2852 362.181 97.9552 363.971 97.2852 363.971C93.6752 363.971 90.0652 363.921 86.4552 363.891C85.8452 363.041 85.2152 362.751 84.5352 363.811C82.3152 363.751 79.9452 364.891 77.9052 363.051C77.8352 362.991 77.1552 363.591 76.6352 363.981H42.5652C42.0252 363.981 41.2552 364.211 40.9752 363.941C39.1452 362.191 36.9152 363.141 34.8652 362.891C33.7452 362.761 32.9052 363.101 31.9852 363.891C31.2352 364.541 30.4552 363.481 29.8152 362.921C29.0352 363.661 28.3552 364.751 27.1752 363.491C26.4352 362.691 25.7152 362.641 24.9252 363.431C24.7452 363.611 24.2352 363.781 24.1952 363.731C23.5852 362.871 21.8052 363.871 21.8052 362.871C20.6952 362.861 19.6952 362.881 18.9252 363.911C18.7952 364.081 17.9752 363.801 17.5052 363.621C17.0352 363.441 16.6352 362.961 16.1752 362.931C14.9152 362.831 13.6452 362.901 12.4252 362.901C12.0152 362.531 11.6352 362.191 11.4252 362.001C10.6952 362.341 10.0952 362.791 9.46519 362.851C8.68519 362.931 7.95518 361.071 7.04518 362.771C7.04518 362.791 6.7552 362.721 6.68519 362.631C5.84519 361.611 4.96519 361.391 4.05519 362.521C3.47519 363.241 2.70519 362.751 2.03519 362.901L2.08519 362.861Z" fill="#222021"/>
<path d="M108.935 209.15C108.395 209.15 107.625 209.38 107.335 209.11C105.965 207.79 104.655 207.48 103.195 208.89C101.615 208.93 100.035 208.98 98.4553 209.02C96.7253 207.59 95.0053 207.62 93.2253 208.97C93.1053 209.06 92.4653 208.45 92.0553 208.16C91.1553 208.9 90.3153 209.93 89.0353 208.42C88.6953 208.02 87.6853 207.97 87.0453 208.1C85.9053 208.34 85.0653 209.49 83.6653 209.17C82.5053 208.9 81.0853 209.65 80.2253 208.25C79.3153 208.56 78.6053 209.56 77.4953 209.14C76.7153 208.84 75.9953 208.37 75.2053 208.09C74.9553 208 74.5553 208.24 74.2653 208.39C72.4553 209.31 72.4453 209.35 70.5553 208.35C70.1953 208.16 70.0653 208.07 69.7553 208.5C69.4653 208.91 69.0953 209.29 68.6053 208.63C68.1153 207.98 67.2653 207.7 66.7953 208.28C65.6153 209.72 64.0653 209.26 62.7853 209.03C61.9053 208.88 61.2153 207.71 60.3653 209.11C60.2653 209.27 59.5153 209.28 59.3453 209.11C58.3653 208.06 57.4453 207.39 56.2753 208.87C56.2253 208.94 55.6953 208.79 55.5453 208.61C54.8453 207.74 53.5453 207.75 53.1053 208.12C51.1953 209.73 49.0153 208.95 46.9553 209.14C45.8553 209.24 44.8353 209.18 44.0653 208.15C43.9353 207.97 42.9753 208.13 42.6753 208.42C42.1053 208.96 41.5653 209.17 40.7753 209.17C36.2353 209.13 31.6953 209.15 27.1553 209.15C26.9753 209.15 26.7053 209.23 26.6253 209.14C26.3953 208.89 26.1153 208.59 26.0853 208.29C25.9553 206.87 25.9153 205.45 25.8353 204.02C24.3253 202.95 25.1653 201.37 24.9753 200.02C23.2253 199.14 24.5753 196.91 23.1553 195.85C22.9253 195.68 22.8253 195.24 22.8053 194.92C22.7353 193.53 23.0753 192.03 21.6953 191.01C21.8853 188.65 21.2553 186.56 19.6853 184.75C19.4953 184.53 19.5453 184.08 19.5253 183.74C19.4553 182.53 19.8953 181.16 18.5153 180.34C18.3653 179.15 18.5453 177.97 17.4353 176.92C16.8453 176.36 17.6853 174.92 16.6253 174.01C15.7353 173.24 16.4053 171.96 16.2653 170.92C16.1953 170.39 16.4053 169.49 16.1753 169.36C14.5253 168.5 15.7153 166.6 14.6653 165.57C14.4253 165.33 14.1153 165.02 14.0953 164.73C13.9753 163.31 13.9453 161.88 13.8853 160.45C12.4953 159.59 13.3253 158.12 12.9253 157.03C12.3253 155.39 11.5053 153.84 11.8853 152.01C10.2353 150.94 11.3553 148.54 9.70529 147.46C9.91529 146.15 9.32529 145.17 8.70529 144.05C8.24529 143.21 8.50529 141.91 8.64529 140.83C8.81529 139.49 8.08529 138.55 7.59529 137.43C7.19529 136.51 7.7953 135 7.2453 134.35C6.4153 133.36 6.54529 132.41 6.42529 131.38C6.30529 130.36 6.76529 129.71 7.44529 129.05C7.63529 128.87 7.63529 128.32 7.51529 128.02C6.74529 126.08 9.14529 124.87 8.62529 123.01C9.38529 121.48 10.0253 119.91 11.3053 118.65C12.6553 117.33 12.5653 115.13 14.0153 113.79C15.3553 112.56 16.6253 111.26 17.8753 109.94C18.7053 109.07 18.6353 107.62 19.8053 106.92C20.9153 106.25 20.5553 104.65 21.7153 103.87C22.5753 103.29 23.7053 102.38 23.7853 101.52C23.9653 99.6898 25.0953 100.19 26.0753 100.12C34.5653 100.12 43.0653 100.12 51.5553 100.12C52.7753 100.12 54.1053 100.43 54.9153 99.0798C55.7653 99.1498 56.7453 98.6399 57.4553 99.3799C58.0053 99.9499 58.5453 100.17 59.3253 100.14C61.3153 100.08 63.3053 100.14 65.2853 100.11C66.6653 100.09 68.1753 100.53 69.2053 99.0499C69.3153 98.8899 70.0653 98.8899 70.2153 99.0699C71.8153 100.9 73.8653 99.9099 75.7353 100.05C76.5453 98.6799 77.9053 99.1599 79.1053 99.0099C80.4353 98.8399 81.3753 99.5399 82.4853 100.05C83.6553 100.59 84.3453 98.4699 85.8053 98.9999C86.4453 99.2299 87.4953 98.9099 87.8153 99.2899C88.6853 100.33 89.7253 100.1 90.7653 100.11C92.9353 100.13 95.1053 100.14 97.2753 100.11C98.4853 100.09 99.8353 100.49 100.655 99.1199C101.045 99.4299 101.435 99.7399 101.915 100.12C103.425 100.12 105.055 100.12 106.675 100.12C107.515 100.12 108.629 99.7565 110.015 99.0298C110.935 98.8998 111.205 99.7398 111.695 100.2C112.445 100.9 112.195 102.19 113.225 102.84C113.975 103.3 114.585 103.99 114.435 105.06C114.415 105.19 114.965 105.54 115.265 105.55C116.105 105.58 116.455 105.87 116.615 106.77C116.715 107.38 117.375 107.89 117.785 108.44C118.095 108.86 118.675 109.26 118.685 109.68C118.705 110.53 119.215 110.95 119.705 111.45C120.215 111.96 120.665 112.57 121.265 112.96C121.805 113.31 122.505 113.42 123.105 113.63V116.05C125.675 117.7 126.695 120.52 128.115 123.1C128.785 124.33 128.975 125.43 127.865 126.42C127.465 126.78 127.445 126.87 127.815 127.23C128.165 127.57 128.505 128.08 128.535 128.54C128.625 130.17 128.345 131.84 128.635 133.42C128.895 134.89 126.975 135.28 127.415 136.8C127.685 137.73 127.805 138.96 126.675 139.75C126.575 139.82 127.375 140.89 127.215 141.19C126.885 141.79 126.345 142.2 126.375 143.03C126.415 144.24 126.575 145.42 125.435 146.48C124.805 147.07 125.765 148.59 124.625 149.38C124.395 149.54 124.255 149.97 124.235 150.28C124.185 151.18 124.215 152.09 124.215 153C122.185 153.72 123.785 155.99 122.375 157.17C121.185 158.16 122.925 160.4 121.175 161.52C120.915 162.85 121.035 164.31 119.865 165.32C120.385 167.17 118.925 168.64 118.845 170.31C118.775 171.93 116.875 172.98 117.685 174.75C116.475 175.59 116.635 176.84 116.555 178.1C116.465 179.45 117.185 180.95 115.855 182.15C114.915 183 116.085 184.56 114.735 185.52C113.785 186.19 114.925 187.87 113.595 188.86C112.735 189.51 113.895 191.39 112.395 192.11C112.345 193.36 112.355 194.61 112.225 195.85C112.085 197.2 110.495 198.16 111.155 199.75C110.125 200.65 109.925 201.8 110.045 203.1C110.165 204.34 110.135 205.48 109.045 206.53C108.595 206.97 108.965 208.26 108.965 209.17L108.935 209.15Z" fill="#965140"/>
<path d="M31.5253 76.141C30.4153 76.191 30.1953 75.031 29.3453 74.581C29.3453 72.251 29.3853 69.901 29.3153 67.561C29.3053 67.101 28.9953 66.561 28.6553 66.231C28.2753 65.861 28.2053 65.741 28.6053 65.421C29.3853 64.801 29.8353 64.031 28.9253 63.201C28.3153 62.651 28.4253 61.951 28.2153 61.301C27.7753 59.911 30.6153 59.221 28.8353 57.571C27.6553 56.471 28.4453 54.851 28.2753 53.471C28.1453 52.401 28.1553 51.341 29.2153 50.561C29.4153 50.421 29.3053 49.491 29.0353 49.161C27.7253 47.531 27.8253 45.971 28.9653 44.311C29.2353 43.931 29.4253 43.271 29.2853 42.861C28.1453 39.331 28.1253 39.331 29.0953 34.381C29.1353 34.151 28.9153 33.871 28.8053 33.611C28.0453 31.741 27.9053 31.601 28.9053 30.311C29.9653 28.951 29.0253 28.401 28.2553 27.601C28.2553 23.471 28.4053 19.291 28.1853 15.141C28.0953 13.421 29.6753 12.411 29.3953 10.681C29.1453 9.09102 29.3453 7.42101 29.3453 5.80101C30.2553 4.89101 31.1553 3.99099 32.0553 3.09099C33.0653 2.95099 34.1853 3.401 35.0453 2.351C35.2953 2.041 36.0053 2.00102 36.5053 2.00102C39.0453 1.97102 41.5853 2.001 44.1353 1.981C45.6953 1.971 47.3153 2.30102 48.6253 0.931016C48.8853 0.661016 49.8453 0.661016 50.1853 0.931016C52.2353 2.52102 54.5953 1.90098 56.8453 1.96098C58.0453 1.99098 59.4153 2.42101 60.2753 1.05101C62.2153 1.07101 64.1653 1.09102 66.1053 1.12102C66.8753 2.34102 67.4053 1.55097 68.0553 0.950974C68.2553 0.770974 68.8953 0.741006 69.0853 0.921006C70.0653 1.82101 70.9253 2.73098 72.1753 1.21098C72.4253 0.910984 73.1453 0.910986 73.6553 0.900986C83.4453 0.880986 93.2453 0.890977 102.955 0.890977C104.185 2.12098 105.345 3.28102 106.495 4.43102C107.405 6.16102 105.805 8.41099 107.625 9.97099C107.685 10.021 107.405 10.451 107.295 10.711C106.295 13.111 106.745 15.571 107.015 18.021C107.035 18.161 107.255 18.281 107.385 18.411C108.655 19.631 107.485 20.281 106.765 21.061V25.391C108.875 27.111 107.755 29.461 107.765 31.471C107.775 33.861 108.765 36.501 106.765 38.641C106.795 40.441 106.765 42.251 106.905 44.041C106.935 44.471 107.815 44.871 107.805 45.261C107.765 46.621 108.385 48.101 106.965 49.281C106.405 49.741 106.775 50.561 107.375 51.101C108.675 52.281 107.515 52.961 106.805 53.721C108.375 55.141 108.255 56.921 107.395 58.501C106.535 60.071 106.545 61.481 107.295 62.941C107.535 63.411 107.905 63.641 107.335 64.121C106.475 64.851 106.725 65.531 107.355 66.381C108.145 67.431 108.035 67.511 106.795 69.001V73.311C105.535 74.881 103.725 75.401 102.005 76.191C101.055 76.631 100.305 77.391 99.1453 77.191C97.7587 76.471 96.4653 76.1077 95.2653 76.101C92.7353 76.101 90.2153 76.101 87.6953 76.101C86.9253 76.801 86.2953 77.981 85.0653 76.741C84.7253 76.391 84.4353 75.951 83.9053 76.591C82.9153 77.781 81.5453 77.111 80.3653 77.121C79.7953 77.121 79.1953 76.131 78.6553 76.171C77.8853 76.231 77.1653 77.071 76.3853 77.131C74.4153 77.281 72.4053 77.321 70.4353 77.131C68.5753 76.961 66.4653 78.021 64.8853 76.181C62.9453 76.231 61.0153 76.291 59.0753 76.341C57.2053 77.941 54.9653 76.841 52.9253 77.171C51.5453 75.571 49.6653 76.231 47.9653 76.071C46.8353 75.971 46.4653 77.521 45.1553 77.201C42.9953 76.671 40.4753 78.221 38.5753 76.081H31.5353L31.5253 76.141Z" fill="#F8C854"/>
<path d="M2.08544 362.861C2.75544 362.711 3.52544 363.201 4.10544 362.481C5.01544 361.341 5.89543 361.571 6.73543 362.591C6.81543 362.681 7.08543 362.751 7.09543 362.731C8.00543 361.031 8.73543 362.891 9.51543 362.811C10.1454 362.741 10.7454 362.291 11.4754 361.961C11.6854 362.151 12.0654 362.491 12.4754 362.861C13.6954 362.861 14.9654 362.801 16.2254 362.891C16.6854 362.931 17.0854 363.411 17.5554 363.581C18.0154 363.761 18.8454 364.041 18.9754 363.871C19.7454 362.851 20.7454 362.821 21.8554 362.831C22.7754 362.841 23.6354 362.831 24.2454 363.691C24.2854 363.741 24.7954 363.571 24.9754 363.391C25.7654 362.591 26.4954 362.651 27.2254 363.451C28.4054 364.721 29.0854 363.631 29.8654 362.881C30.5054 363.451 31.2854 364.511 32.0354 363.851C32.9454 363.051 33.7954 362.711 34.9154 362.851C36.9554 363.091 39.1954 362.151 41.0254 363.901C41.3054 364.171 42.0754 363.941 42.6154 363.941H76.6854C77.2054 363.551 77.8854 362.951 77.9554 363.011C80.0054 364.851 82.3654 363.711 84.5854 363.771C85.2654 362.701 85.8955 363.001 86.5055 363.851C90.1155 363.881 93.7254 363.921 97.3354 363.931C97.9954 363.931 98.3354 362.151 99.3155 363.561C99.8354 364.311 100.655 363.911 101.325 363.921C104.765 363.961 108.215 363.921 111.655 363.961C112.435 363.961 112.985 363.771 113.555 363.221C113.855 362.931 114.815 362.761 114.945 362.931C115.715 363.961 116.715 363.971 117.825 363.951C119.815 363.911 121.815 363.891 123.805 363.951C124.625 363.981 125.075 363.551 125.655 363.111C125.975 362.861 126.625 362.921 127.085 363.021C127.385 363.091 127.605 363.711 127.865 363.721C130.165 363.771 132.475 363.741 134.775 363.721C135.505 362.571 136.035 363.191 136.735 363.811C136.965 364.011 137.715 363.771 138.155 363.571C138.605 363.371 138.785 362.651 139.475 362.831V364.461C139.475 365.551 139.285 366.681 139.525 367.711C139.825 369.021 138.205 369.411 138.395 370.531C138.725 372.361 136.555 373.621 137.295 375.521C136.765 376.951 136.445 378.471 135.265 379.571C135.575 381.861 133.875 383.021 132.595 384.461C131.085 386.151 128.865 387.281 128.345 389.761C127.175 390.781 126.155 391.861 124.625 392.581C122.975 393.351 121.205 394.041 119.685 395.131C119.425 395.321 119.005 395.581 118.775 395.501C117.335 394.991 116.605 396.471 115.415 396.641C114.025 396.831 112.475 396.011 111.255 397.081C109.975 398.201 108.515 397.561 107.155 397.681C105.715 397.811 104.255 397.671 102.805 397.731C102.325 397.751 101.775 397.931 101.385 398.211C100.095 399.161 98.4054 399.221 97.4054 398.531C95.7554 397.401 94.5854 397.221 93.1854 398.651C93.1454 398.691 92.4454 398.081 91.9554 397.701C88.9954 397.701 85.9155 397.741 82.8455 397.681C81.7155 397.661 80.7055 397.731 80.0355 398.781C78.8855 397.041 77.1054 397.921 75.5854 397.701C74.7654 397.581 74.2954 398.041 73.7254 398.511C73.4054 398.771 72.7154 398.791 72.2954 398.641C68.6554 397.371 67.6254 397.391 63.8254 398.641C62.8554 398.961 61.7654 399.151 60.8755 398.181C59.6855 396.881 59.0154 398.101 58.2454 398.801C57.1754 398.801 56.0854 398.761 55.0054 398.801C53.7354 398.851 52.5254 398.921 51.5954 397.741C51.4754 397.591 50.6654 397.951 50.1954 398.141C49.9054 398.261 49.6754 398.501 49.4254 398.691C48.8054 397.801 48.1654 397.611 47.5054 398.641C45.5154 396.981 43.1354 398.001 40.9454 397.691C39.9054 397.541 39.2554 398.041 38.6654 398.761C37.4954 397.111 35.7654 397.791 34.2354 397.721C32.6054 397.651 30.9754 397.701 29.3354 397.701C27.7054 397.701 26.0754 397.701 24.4454 397.701C23.3254 395.961 21.5154 396.871 20.1954 396.591C19.2654 395.811 18.5354 394.741 17.6154 394.541C16.3754 394.271 15.9154 393.321 15.0954 392.711C14.2754 392.101 13.8454 390.821 12.4654 391.171C11.3154 390.021 9.89544 389.021 9.08544 387.661C8.36544 386.461 7.60544 385.371 6.74544 384.281C5.72544 382.971 5.77544 381.011 4.39544 379.831C4.91544 377.801 2.49544 376.361 3.22544 374.351C3.77544 372.841 1.67544 372.491 2.03544 370.971C2.35544 369.601 2.10544 368.091 2.10544 366.631V362.821L2.08544 362.861Z" fill="#965140"/>
<path d="M31.5252 76.1408H38.5652C40.4652 78.2808 42.9852 76.7309 45.1452 77.2609C46.4552 77.5809 46.8252 76.0309 47.9552 76.1309C49.6552 76.2809 51.5352 75.6209 52.9152 77.2309C54.9552 76.9009 57.1952 78.0008 59.0652 76.4008C61.0052 76.3508 62.9352 76.2909 64.8752 76.2409C66.4552 78.0809 68.5652 77.0209 70.4252 77.1909C72.3952 77.3709 74.4052 77.3309 76.3752 77.1909C77.1552 77.1309 77.8652 76.2909 78.6452 76.2309C79.1852 76.1909 79.7852 77.1809 80.3552 77.1809C81.5352 77.1709 82.9052 77.8408 83.8952 76.6508C84.4252 76.0108 84.7152 76.4509 85.0552 76.8009C86.2852 78.0409 86.9152 76.8508 87.6852 76.1608C90.1952 76.1608 92.7252 76.1608 95.2552 76.1608C96.4552 76.1608 97.7485 76.5242 99.1352 77.2509C99.1352 78.1209 99.0452 78.9208 99.8352 79.6608C100.505 80.3008 100.495 80.6909 99.7952 81.4209C99.0752 82.1709 99.7152 82.4109 99.8752 82.9909C100.275 84.4409 100.595 85.8909 101.305 87.2309C101.385 87.3709 101.335 87.6308 101.435 87.7008C103.085 88.8208 103.445 90.8809 104.795 92.2309C105.465 92.9009 105.855 93.8609 106.365 94.6909C108.115 94.2609 107.625 95.9109 108.135 96.6209C108.735 97.4609 109.945 97.8109 110.025 99.0509C108.639 99.7709 107.525 100.134 106.685 100.141C105.065 100.141 103.445 100.141 101.925 100.141C101.455 99.7608 101.055 99.4508 100.665 99.1408C99.8452 100.511 98.4952 100.111 97.2852 100.131C95.1152 100.161 92.9452 100.151 90.7752 100.131C89.7352 100.131 88.6952 100.351 87.8252 99.3109C87.5052 98.9309 86.4552 99.2508 85.8152 99.0208C84.3552 98.4908 83.6652 100.611 82.4952 100.071C81.3852 99.5609 80.4452 98.8608 79.1152 99.0308C77.9152 99.1808 76.5552 98.7109 75.7452 100.071C73.8752 99.9309 71.8152 100.931 70.2252 99.0908C70.0652 98.9108 69.3252 98.9009 69.2152 99.0709C68.1852 100.551 66.6752 100.111 65.2952 100.131C63.3052 100.161 61.3152 100.101 59.3352 100.161C58.5452 100.181 58.0052 99.9708 57.4652 99.4008C56.7552 98.6608 55.7852 99.1708 54.9252 99.1008C54.1152 100.451 52.7852 100.141 51.5652 100.141C43.0752 100.141 34.5752 100.141 26.0852 100.141C25.5652 98.5808 27.4152 97.7209 27.2352 96.2609C29.1552 94.8909 29.5352 92.2809 31.4752 90.9409C32.4952 90.2409 32.5252 89.2608 32.6952 88.1508C32.8652 87.0408 33.4252 85.8009 34.2052 85.0109C36.0752 83.1109 36.7252 81.2609 34.9352 78.9909C34.8852 78.9309 34.9752 78.7109 35.0652 78.6209C35.3052 78.3509 35.5752 78.1008 35.8452 77.8308C34.8652 76.6408 33.5352 77.4809 32.3952 77.2409C31.8252 77.1209 31.4052 76.8408 31.5352 76.1508L31.5252 76.1408Z" fill="#FEEFC2"/>
</svg>
