<svg width="137" height="430" viewBox="0 0 137 430" fill="none" xmlns="http://www.w3.org/2000/svg">
<path d="M2.2251 400.4C2.2251 398.77 2.28514 397.14 2.20514 395.51C2.13514 393.93 2.8351 392.1 1.7951 390.83C0.675104 389.46 1.6451 387.99 1.0451 386.77C0.685105 386.04 -0.214898 385.7 0.855102 384.76C1.2451 384.43 1.11512 383.43 1.12512 382.74C1.14512 375.31 1.12512 367.89 1.12512 360.46C1.12512 356.29 1.11512 352.13 1.12512 347.96C1.12512 347.05 1.12512 346.23 0.315124 345.55C0.0451241 345.33 -0.014871 344.32 0.195129 344.17C1.25513 343.39 1.12512 342.33 1.12512 341.26C1.12512 338.91 1.18509 336.55 1.09509 334.2C1.04509 332.84 1.71512 331.27 0.185119 330.24C0.205119 327.94 0.125124 325.62 0.315124 323.34C0.355124 322.82 1.36508 322.31 1.08508 321.54C0.915083 321.08 0.425134 320.73 0.0751338 320.33C1.25513 319.48 1.17512 318.25 1.12512 317C1.07512 315.73 1.11511 314.46 1.11511 313.2C3.20511 314.28 3.2151 314.38 4.4751 314.27C6.5251 314.08 8.79511 315.05 10.5551 313.2C13.4751 313.68 16.5951 312.19 19.4051 314.22C19.9151 314.59 21.0151 314.4 21.8851 313.78C23.2351 312.8 24.9151 312.71 26.2451 313.85C27.5751 314.98 28.1351 313.93 29.0151 313.12C31.4351 313.81 34.2851 312.02 36.6251 314.27C36.8051 314.44 37.5251 314.41 37.6451 314.24C38.5151 312.94 39.8151 313.21 41.0451 313.2C42.1351 313.2 43.2251 313.2 44.3151 313.2C45.2251 313.2 46.1551 313.32 47.0351 313.17C48.1951 312.97 48.9351 313.65 49.7951 314.14C50.4751 312.99 51.6151 313.1 52.6651 313.22C55.7851 313.58 59.0751 312.26 62.0351 314.26C62.4051 314.51 63.3451 314.53 63.6051 314.26C64.9151 312.9 66.5351 313.24 68.0951 313.21C69.3651 313.19 70.6351 313.21 71.9051 313.21C73.3551 313.21 74.8451 313.41 76.2451 313.16C77.6851 312.9 78.4551 314.29 79.6151 314.25C81.3151 314.2 83.2651 315.04 84.6051 313.21C86.0551 313.21 87.5051 313.19 88.9551 313.21C90.5151 313.23 92.1851 312.85 93.4051 314.3C94.4751 314.27 95.8851 314.65 96.5551 314.11C97.7851 313.11 98.6151 312.82 99.6451 314.15C101.865 314.06 104.245 315.24 106.285 313.36C106.345 313.31 107.035 313.93 107.515 314.31H111.745C113.465 312.22 115.805 313.34 117.825 313.28C123.625 313.11 129.435 313.22 135.245 313.22C135.245 313.76 135.015 314.59 135.285 314.8C136.265 315.59 136.415 316.54 136.345 317.67C136.265 319.06 136.585 320.53 135.265 321.61C135.125 321.73 135.195 322.46 135.385 322.59C136.485 323.33 136.335 324.42 136.335 325.49C136.335 328.94 136.335 332.39 136.335 335.84C136.335 336.91 136.245 337.81 135.475 338.79C134.935 339.47 135.025 340.94 135.325 341.9C135.615 342.8 136.705 343.46 135.285 344.35C135.095 344.47 135.065 345.35 135.605 345.79C135.895 346.03 136.685 346.35 135.885 346.92C135.195 347.41 135.275 348.11 135.225 348.83C135.165 349.67 135.815 350.07 136.065 350.67C136.215 351.03 135.395 351.71 135.305 352.29C135.245 352.71 135.635 353.22 135.905 353.65C136.645 354.84 136.775 355.99 135.625 356.97C135.095 357.43 135.075 358.19 135.295 358.42C136.285 359.44 137.025 360.34 135.505 361.48C135.465 363.42 135.415 365.37 135.375 367.31C136.705 368.31 136.485 369.14 135.465 370.4C134.925 371.07 135.295 372.47 135.245 373.54C137.065 375.31 136.175 377.57 136.305 379.63C136.435 381.62 136.395 383.63 136.285 385.62C136.265 386.04 135.625 386.42 135.275 386.81C135.605 387.17 135.955 387.56 136.305 387.94C135.055 389.06 134.605 390.31 135.775 391.67C136.495 392.5 136.605 393.22 135.755 393.92C135.075 394.479 135.435 395.26 135.215 395.89C134.865 396.9 136.645 397.13 135.975 398.01C135.515 398.62 135.105 399.11 135.235 399.9C135.265 400.08 135.235 400.26 135.235 400.44C134.045 400.6 132.815 400.08 131.695 401.16C130.925 401.9 129.745 401.8 128.785 401.08C128.535 400.89 128.095 400.54 128.045 400.59C125.835 402.59 123.175 401.44 120.785 401.46C104.615 401.59 88.4551 401.53 72.2851 401.53C67.9251 401.53 63.5651 401.53 59.2051 401.53C58.1351 401.53 57.1351 401.63 56.2751 400.63C55.8051 400.08 55.0051 400.47 54.4551 401.06C53.2651 402.36 52.5951 401.16 51.8351 400.46C51.0551 401.07 50.3951 402.43 49.2251 401.08C48.4951 400.24 47.5051 400.21 46.7751 400.5C45.1951 401.11 43.7451 402.57 42.1151 400.61C42.0951 400.58 41.5951 400.87 41.3851 401.08C40.7851 401.67 40.1751 401.75 39.5151 401.22C37.9151 399.91 36.3451 399.98 34.6851 401.18C33.8951 401.75 33.7551 401.74 32.8651 401.06C32.2451 400.59 31.5251 400.08 31.0251 400.6C29.8951 401.8 29.0651 401.82 27.9251 400.61C27.4151 400.08 26.5751 400.42 26.1151 401.08C25.8151 401.52 25.5951 401.59 25.3351 401.21C24.8851 400.55 24.2651 400.31 23.4751 400.43C22.2651 400.62 20.8551 399.92 19.8551 400.85C19.0851 401.57 18.7851 401.27 18.2551 400.71C18.0551 400.5 17.4751 400.33 17.3151 400.46C15.2851 402.09 12.9051 401.35 10.6651 401.54C9.6851 401.62 9.05511 401.19 8.30511 400.61C7.13511 399.69 6.60513 401.55 5.57513 401.51C5.25513 401.5 4.79514 401.41 4.64514 401.19C4.01514 400.26 3.10509 400.43 2.21509 400.44L2.2251 400.4Z" fill="#F8312F"/>
<path d="M135.245 313.189C129.435 313.189 123.635 313.079 117.825 313.249C115.795 313.309 113.455 312.189 111.745 314.279H107.515C107.035 313.899 106.345 313.279 106.285 313.329C104.245 315.219 101.865 314.029 99.645 314.119C98.615 312.799 97.795 313.089 96.555 314.079C95.885 314.619 94.475 314.239 93.405 314.269C92.185 312.819 90.515 313.209 88.955 313.179C87.505 313.159 86.055 313.179 84.605 313.179C83.265 315.009 81.305 314.169 79.615 314.219C78.455 314.249 77.695 312.869 76.245 313.13C74.835 313.38 73.355 313.179 71.905 313.179C70.635 313.179 69.365 313.159 68.095 313.179C66.535 313.199 64.915 312.859 63.605 314.229C63.345 314.499 62.415 314.489 62.035 314.229C59.075 312.229 55.775 313.549 52.665 313.189C51.615 313.069 50.475 312.959 49.795 314.109C48.935 313.619 48.195 312.939 47.035 313.139C46.155 313.289 45.225 313.169 44.315 313.169C43.225 313.169 42.135 313.169 41.045 313.169C39.815 313.169 38.515 312.899 37.645 314.209C37.525 314.379 36.805 314.409 36.625 314.239C34.285 311.989 31.435 313.779 29.015 313.089C28.135 313.899 27.575 314.96 26.245 313.82C24.915 312.69 23.235 312.779 21.885 313.749C21.015 314.369 19.915 314.56 19.405 314.189C16.595 312.16 13.475 313.649 10.555 313.169C8.79499 315.019 6.52498 314.039 4.47498 314.239C3.21498 314.359 3.20499 314.249 1.11499 313.169C1.11499 312.629 1.18498 312.069 1.10498 311.539C0.74498 309.339 2.10496 306.88 0.0849609 304.939C2.10496 303.189 0.885012 300.879 1.07501 298.839C1.28501 296.499 1.125 294.129 1.125 291.769V273.499C1.525 272.939 1.80496 272.549 2.08496 272.149C0.554961 271.129 1.26501 269.549 1.13501 268.199C1.02501 266.999 1.53499 265.629 0.174988 264.789C0.454988 264.389 0.73501 263.999 1.13501 263.429C1.13501 261.829 0.964988 260.009 1.17499 258.229C1.43499 256.009 0.0550072 253.519 2.19501 251.599C0.0850074 249.679 1.245 247.189 1.185 244.989C1.025 238.649 1.125 232.299 1.125 225.959C1.665 225.959 2.37498 225.74 2.72498 226.01C3.43498 226.55 3.97497 227.24 5.03497 227.07C6.05497 226.91 7.185 227.379 8.005 226.249C8.195 225.989 9.16502 225.91 9.39502 226.13C10.085 226.82 10.785 227.09 11.765 227.07C14.675 227.01 17.575 227.069 20.485 227.019C20.955 227.019 21.525 226.769 21.865 226.449C22.815 225.539 22.905 226.839 23.485 226.979C23.825 226.669 24.205 226.319 24.465 226.089C25.105 226.419 25.705 227 26.315 227.01C31.935 227.08 37.555 227.049 42.985 227.049C43.545 226.649 44.265 226.1 44.285 226.13C44.925 226.89 45.685 227.08 46.665 227.07C51.205 227.02 55.745 227.02 60.285 227.07C61.265 227.08 61.895 226.69 62.645 226.13C63.545 225.46 64.255 226.319 64.895 227.049C66.665 227.049 68.475 227.059 70.285 227.049C71.535 227.039 72.815 226.839 73.685 228.119C73.795 228.289 74.585 228.289 74.705 228.119C75.435 227.079 76.435 227.039 77.555 227.039C88.995 227.069 100.425 227.059 111.825 227.059C112.465 227.789 113.175 228.639 114.075 227.969C114.825 227.409 115.455 227.009 116.435 227.029C119.155 227.089 121.885 227.049 124.605 227.049C125.515 227.049 126.425 227.049 127.335 227.049C128.405 227.059 129.525 227.229 130.205 226.089C130.975 226.339 131.445 227.03 132.415 227.13C133.725 227.27 134.145 225.909 135.245 225.949C135.185 227.339 135.645 228.84 134.175 229.88C134.025 229.99 134.045 230.72 134.235 230.88C135.405 231.88 135.735 232.809 134.415 233.979C134.315 234.069 135.165 234.999 135.205 235.559C135.325 236.999 135.265 238.459 135.235 239.909C135.215 240.999 135.375 241.879 136.155 242.829C136.665 243.469 136.605 244.769 135.705 245.739C134.965 246.529 135.045 246.759 135.625 247.539C136.595 248.849 136.735 250.019 135.555 251.279C134.985 251.889 135.075 252.599 135.735 253.109C136.615 253.799 136.535 254.819 136.285 255.559C135.875 256.779 134.295 257.839 136.225 259.089C136.245 259.099 136.155 259.359 136.065 259.459C134.665 261.039 134.975 262.549 135.915 264.289C136.765 265.869 136.875 267.879 135.875 269.329C134.895 270.749 135.505 272.069 135.315 273.419C136.675 274.229 136.335 275.579 136.335 276.799C136.335 277.839 136.645 278.999 135.485 279.729C135.455 279.749 135.635 280.289 135.835 280.459C136.685 281.179 136.645 282.479 136.285 282.909C134.685 284.819 135.485 286.989 135.255 289.039C135.155 289.929 136.175 290.209 136.245 290.789C136.305 291.339 135.125 291.599 135.265 292.489C135.445 293.669 134.835 294.969 136.035 295.999C136.665 296.539 135.595 296.709 135.505 297.119C135.045 299.169 135.155 300.239 136.185 303.709C136.395 304.419 134.945 304.579 135.565 305.219C136.485 306.169 136.745 306.929 135.655 307.889C135.435 308.089 135.295 308.489 135.285 308.809C135.245 310.259 135.265 311.709 135.265 313.159L135.245 313.189Z" fill="#E6AD54"/>
<path d="M135.245 225.97C134.145 225.92 133.725 227.29 132.415 227.15C131.445 227.05 130.975 226.361 130.205 226.111C129.525 227.261 128.405 227.081 127.335 227.071C126.425 227.071 125.515 227.071 124.605 227.071C121.885 227.071 119.155 227.111 116.435 227.051C115.455 227.031 114.825 227.421 114.075 227.991C113.175 228.661 112.465 227.8 111.825 227.08C100.425 227.08 88.9953 227.091 77.5553 227.061C76.4253 227.061 75.4253 227.1 74.7053 228.14C74.5853 228.31 73.7953 228.31 73.6853 228.14C72.8153 226.85 71.5353 227.061 70.2853 227.071C68.4753 227.091 66.6653 227.071 64.8953 227.071C64.2553 226.341 63.5453 225.49 62.6453 226.15C61.8953 226.71 61.2653 227.1 60.2853 227.09C55.7453 227.04 51.2053 227.04 46.6653 227.09C45.6953 227.1 44.9253 226.91 44.2853 226.15C44.2553 226.12 43.5353 226.671 42.9853 227.071C37.5553 227.071 31.9353 227.1 26.3153 227.03C25.7053 227.03 25.1053 226.441 24.4653 226.111C24.2053 226.341 23.8253 226.691 23.4853 227.001C22.9053 226.861 22.8153 225.56 21.8653 226.47C21.5253 226.79 20.9553 227.041 20.4853 227.041C17.5753 227.091 14.6753 227.03 11.7653 227.09C10.7853 227.11 10.0853 226.84 9.39531 226.15C9.16531 225.93 8.19529 226 8.00529 226.27C7.19529 227.4 6.05526 226.93 5.03526 227.09C3.97526 227.26 3.43527 226.57 2.72527 226.03C2.37527 225.77 1.66529 225.981 1.12529 225.981C1.12529 224.351 1.37528 222.66 1.05528 221.09C0.745282 219.58 2.74525 219.23 2.27525 217.7C1.96525 216.7 2.21526 215.54 2.21526 214.45C2.21526 213.18 2.16527 211.91 2.22527 210.64C2.27526 209.6 3.58526 209.101 3.34526 207.811C3.15526 206.781 3.36529 205.671 3.43529 204.601C3.43529 204.461 3.65528 204.32 3.80528 204.22C4.92528 203.46 3.84528 201.971 4.61528 201.321C5.52528 200.561 5.5953 199.47 6.0153 198.59C6.6553 197.25 8.06527 196.131 7.66527 194.371C7.62527 194.201 7.58527 193.9 7.66527 193.84C9.74527 192.33 10.1953 189.791 11.5053 187.801C12.0653 186.951 13.1653 186.551 13.1953 185.191C13.2153 184.501 14.5053 184.001 14.1953 182.921C15.4453 181.911 15.3653 180.011 16.8653 179.101C17.9153 178.471 18.4453 177.37 18.8853 176.14C19.2753 175.07 20.6553 174.621 20.8453 173.111C20.9853 172.041 22.7053 171.66 22.9753 170.2C23.2653 168.69 24.9853 168 25.4853 166.34C25.8953 164.99 26.7453 163.56 27.9953 162.45C28.7953 161.74 29.1953 160.4 29.4053 159.28C29.6053 158.19 29.3453 157.041 31.0653 157.261C31.2153 157.281 31.6553 156.701 31.6053 156.481C31.3153 155.111 32.2753 154.211 32.7053 153.101C33.1853 151.841 34.4253 150.78 33.8253 149.2C35.0253 148.54 34.9653 147.111 35.5953 146.101C36.1853 145.161 35.9853 143.73 36.1453 142.34C36.5153 141.6 38.3453 142.531 38.2153 140.741C38.1353 139.571 37.6953 138.19 39.0553 137.28C39.2553 137.15 39.2453 136.631 39.2553 136.301C39.2753 134.481 39.2553 132.671 39.2553 130.851C40.7853 129.441 40.3953 127.581 40.3153 125.861C40.2653 124.691 41.7353 124.32 41.4753 123.03C41.2653 121.98 41.4353 120.86 41.4353 119.77C43.2453 118.42 42.2953 116.47 42.5253 114.77C42.8353 114.64 43.1453 114.531 43.4553 114.381C43.8253 114.201 43.9753 113.381 44.6353 114.101C44.9553 114.441 45.5453 114.791 45.9653 114.731C48.7153 114.371 51.6853 115.83 54.2253 113.7C54.3953 113.55 55.0353 113.661 55.1953 113.851C55.8353 114.621 56.5953 114.86 57.5553 114.77C60.1353 114.52 62.8653 115.47 65.2753 113.71C65.6253 113.45 66.5752 113.44 66.8353 113.71C68.3153 115.21 70.1353 114.681 71.8553 114.751C72.7553 114.791 73.6753 114.821 74.5653 114.741C75.2153 114.681 75.5153 113 76.5553 114.39C77.1753 115.23 78.2453 114.641 79.1053 114.741C79.8153 114.821 80.5453 114.761 81.6453 114.761C81.9453 114.961 81.8453 113.03 82.7953 114.15C83.5153 115 84.4253 114.8 85.2653 114.71C85.7053 114.66 86.1353 113.87 86.5153 113.91C87.0853 113.96 87.6253 114.701 88.1653 114.691C88.7753 114.691 89.3853 114.181 90.1453 113.811C90.5553 113.941 90.7253 114.931 91.6053 114.751C91.6053 116.571 91.8153 118.411 91.5453 120.191C91.3053 121.791 92.8953 122.601 92.7353 124.111C92.5853 125.541 92.7353 127.001 92.7753 128.441C92.7753 128.571 93.0553 128.68 93.1353 128.83C94.0753 130.62 94.0653 132.83 95.4653 134.39C96.3453 135.36 95.1053 135.431 94.9553 136.011C95.6353 136.741 96.5053 137.421 97.0153 138.311C97.4153 139.011 96.9253 139.941 97.4653 140.851C98.9153 143.311 100.135 145.91 101.425 148.46C101.955 149.51 102.235 150.731 102.955 151.621C103.735 152.581 103.635 153.981 104.705 154.731C104.425 156.061 105.125 157.041 105.765 158.111C106.365 159.111 106.405 160.6 107.205 161.27C108.755 162.58 109.025 164.701 110.605 165.91C111.175 166.35 112.055 166.901 112.075 167.441C112.165 169.281 114.245 169.791 114.485 171.361C114.675 172.611 116.115 172.921 116.325 173.861C116.825 176.131 119.075 177 119.985 178.89C120.795 180.59 121.285 182.48 122.935 183.66C123.695 185.961 125.145 187.84 126.475 189.83C127.675 191.64 128.315 193.79 129.465 195.66C130.175 196.811 129.345 198.571 130.885 199.431C130.175 201.181 131.945 202.261 132.075 203.871C132.175 205.121 133.155 206.29 133.705 207.52C133.915 207.98 134.125 208.48 134.135 208.97C134.185 210.78 133.995 212.62 134.195 214.41C134.445 216.631 133.075 219.131 135.245 221.041V225.941V225.97Z" fill="#222021"/>
<path d="M91.635 114.78C90.755 114.96 90.585 113.96 90.175 113.84C89.405 114.2 88.805 114.71 88.195 114.72C87.645 114.72 87.115 113.99 86.545 113.94C86.155 113.9 85.735 114.69 85.295 114.74C84.455 114.83 83.545 115.03 82.825 114.18C81.885 113.06 81.985 114.99 81.675 114.79C80.575 114.79 79.855 114.86 79.135 114.77C78.275 114.67 77.215 115.26 76.5849 114.42C75.5449 113.02 75.255 114.71 74.595 114.77C73.695 114.85 72.785 114.82 71.885 114.78C70.165 114.7 68.345 115.23 66.865 113.74C66.595 113.47 65.655 113.48 65.305 113.74C62.895 115.5 60.1649 114.55 57.5849 114.8C56.625 114.89 55.865 114.65 55.225 113.88C55.065 113.68 54.425 113.58 54.255 113.73C51.715 115.86 48.735 114.4 45.995 114.76C45.575 114.81 44.975 114.47 44.665 114.13C44.005 113.42 43.855 114.24 43.485 114.41C43.185 114.55 42.865 114.67 42.555 114.8C42.555 112.44 42.785 110.05 42.475 107.73C42.275 106.22 44.175 105.87 43.705 104.34C43.395 103.34 43.645 102.18 43.645 101.09C43.645 99.8201 43.175 98.2801 43.735 97.3301C45.615 94.0901 44.475 90.6901 44.685 87.3801C44.795 85.6101 46.265 84.3201 45.905 82.3801C45.575 80.6301 45.8349 78.76 45.8349 76.9501V66.6001C45.8349 64.7801 45.8349 62.9701 45.8349 61.1501C45.8349 60.4601 45.855 59.8401 46.325 59.1601C46.865 58.3901 45.435 55.9701 44.565 55.9301C44.025 55.9001 43.465 55.8601 42.935 55.9301C41.825 56.1001 41.235 55.3101 40.775 54.6101C40.145 53.6401 39.425 52.5101 39.375 51.4201C39.295 49.6401 37.525 48.3201 38.205 46.4301C38.475 45.6901 39.105 44.9101 38.975 44.2701C38.865 43.7101 38.175 43.2501 38.185 42.4301C38.225 35.1701 38.215 27.9101 38.195 20.6501C38.195 19.9201 38.435 19.3701 38.805 18.7101C39.555 17.3801 39.655 15.8901 38.915 14.7301C37.835 13.0101 37.705 11.5201 38.955 9.87009C39.235 9.50009 39.265 8.8901 39.275 8.3801C39.315 6.9401 39.285 5.50011 39.285 4.26011C40.285 3.20011 41.155 2.27006 41.975 1.40006C45.155 1.40006 48.245 1.54008 51.325 1.36008C53.725 1.22008 56.355 2.32009 58.505 0.310094C60.505 0.310094 62.515 0.150092 64.485 0.370092C65.605 0.500092 66.465 1.6401 67.855 1.4401C69.275 1.2401 70.755 1.40006 72.205 1.40006H76.015C76.195 1.40006 76.375 1.42006 76.555 1.40006C77.745 1.28006 79.135 1.87009 79.985 0.490087C81.565 0.500087 83.145 0.510055 84.725 0.520055C85.425 1.71006 86.585 1.36006 87.625 1.40006C88.165 1.42006 88.715 1.37006 89.255 1.40006C90.305 1.47006 91.385 1.47006 92.405 1.71006C92.855 1.82006 93.455 2.39005 93.525 2.83005C93.755 4.36005 95.265 5.39005 94.935 7.20005C94.645 8.78005 94.895 10.4601 94.865 12.0901C94.845 13.1801 95.005 14.0601 95.785 15.0201C96.295 15.6601 96.345 17.0601 95.295 17.9001C94.435 18.5901 95.055 19.6001 94.875 20.4401C97.115 22.7501 95.525 25.5801 95.875 28.1501C95.925 28.4901 94.915 28.9501 94.925 29.3401C94.975 30.7001 94.385 32.1201 95.675 33.4001C96.345 34.0701 96.305 35.4201 95.405 36.2801C94.225 37.4201 95.055 38.1501 95.905 38.9601C95.575 39.3401 95.245 39.7101 94.885 40.1301V52.2301C94.055 53.0201 93.255 54.1601 92.175 54.6701C91.395 55.0301 90.675 55.6001 89.945 55.8201C89.005 56.1001 88.175 56.0601 88.345 57.3201C88.485 58.3101 88.045 58.9801 87.415 59.6901C87.285 59.8401 88.075 60.7301 88.305 61.3301C88.395 61.5701 88.155 61.9801 87.975 62.2501C87.795 62.5401 87.505 62.7701 87.395 62.89C87.725 63.55 88.285 64.1501 88.295 64.7601C88.365 69.8401 88.305 74.9201 88.345 80.0101C88.355 81.7301 87.865 83.5901 89.395 85.0301C89.575 85.2001 89.515 85.7601 89.395 86.0901C89.075 87.0401 88.195 88.1401 88.435 88.8701C88.815 89.9901 89.595 90.9301 89.435 92.2701C89.305 93.3401 89.645 94.5101 89.355 95.5201C88.915 97.0301 90.815 97.4801 90.545 98.9101C90.315 100.14 90.495 101.44 90.495 102.71V106.52C91.995 107.5 91.555 109.04 91.575 110.43C91.605 111.88 91.575 113.33 91.575 114.79L91.635 114.78Z" fill="#E6AD54"/>
<path d="M88.8059 65.4714C82.138 65.4714 75.4737 65.4912 68.8058 65.4415C68.2659 65.4415 67.6367 66.1074 67.2041 64.4874C66.4139 64.7061 65.563 63.4339 64.8301 65.362C64.6907 65.7297 64.3331 65.4614 64.0793 65.4614C62.5276 65.4614 60.9724 65.4614 59.4207 65.4614C58.9845 65.4614 58.5447 65.2527 58.1944 66.4453C58.0907 66.8031 57.5759 66.8329 57.4686 66.4851C56.9431 64.7756 56.2673 65.7198 55.6667 65.4415C55.4164 65.3322 55.3413 65.8987 55.1983 66.2168C54.9123 66.8528 54.4654 66.8031 54.308 66.3957C53.9827 65.5509 53.6645 65.4316 53.2712 65.4216C52.9387 65.4216 52.6348 65.4515 52.431 66.3161C51.6874 66.505 50.9187 67.0218 50.218 65.9584C49.7317 65.2329 49.2633 65.3919 48.77 65.6503C48.4053 67.3001 47.8082 66.0677 47.4149 66.6043C46.943 66.018 46.8036 64.5471 46.3137 64.3583C46.185 63.6228 46.0027 62.9072 45.9348 62.132C45.8347 60.9692 45.4306 60.6015 45.2376 59.7269C45.0838 59.0212 45.1518 57.9975 44.83 57.5304C44.6727 57.3018 44.519 57.0335 44.3652 56.785C44.4117 56.4769 44.4475 55.9105 44.5047 55.9005C45.0124 55.7813 45.5236 55.7216 46.0349 55.7315C46.135 55.7315 46.2494 56.0595 46.3316 56.308C46.7571 57.5503 47.0002 56.4769 47.2719 55.7514C61.455 55.7514 75.6346 55.7514 89.8177 55.7514C89.9714 56.5465 90.3825 56.7652 90.3647 57.8684C90.2646 59.379 89.7604 59.9754 89.4279 60.9394C89.1241 61.814 89.2242 63.2252 88.8166 63.9408C88.7308 64.0899 88.8059 64.9247 88.8059 65.4515V65.4714Z" fill="#E3A25E"/>
<path d="M2.2251 400.4C3.1151 400.39 4.02509 400.22 4.65509 401.15C4.80509 401.37 5.26508 401.46 5.58508 401.47C6.61508 401.5 7.14513 399.65 8.31513 400.57C9.06513 401.15 9.69511 401.58 10.6751 401.5C12.9151 401.31 15.2951 402.05 17.3251 400.42C17.4851 400.29 18.0651 400.46 18.2651 400.67C18.7951 401.23 19.0951 401.53 19.8651 400.81C20.8651 399.87 22.2751 400.58 23.4851 400.39C24.2751 400.26 24.8951 400.51 25.3451 401.17C25.6051 401.55 25.8251 401.47 26.1251 401.04C26.5851 400.38 27.4351 400.04 27.9351 400.57C29.0751 401.77 29.9051 401.76 31.0351 400.56C31.5351 400.03 32.2651 400.54 32.8751 401.02C33.7651 401.71 33.9151 401.71 34.6951 401.14C36.3551 399.94 37.9151 399.87 39.5251 401.18C40.1751 401.71 40.7951 401.63 41.3951 401.04C41.6051 400.83 42.1051 400.54 42.1251 400.57C43.7551 402.53 45.1951 401.08 46.7851 400.46C47.5151 400.18 48.5051 400.2 49.2351 401.04C50.4051 402.39 51.0651 401.03 51.8451 400.42C52.6051 401.12 53.2751 402.32 54.4651 401.02C55.0151 400.43 55.8151 400.04 56.2851 400.59C57.1451 401.6 58.1451 401.49 59.2151 401.49C63.5751 401.49 67.9351 401.49 72.2951 401.49C88.4651 401.49 104.625 401.55 120.795 401.42C123.185 401.4 125.835 402.55 128.055 400.55C128.115 400.5 128.555 400.85 128.795 401.04C129.755 401.76 130.935 401.86 131.705 401.12C132.825 400.04 134.065 400.56 135.245 400.4C134.385 402.07 134.175 402.69 134.155 403.75C134.135 404.65 134.115 405.55 134.105 406.45C132.405 407.2 133.615 409.14 132.575 410.17C131.715 411.03 131.885 412.56 130.645 413.17C129.545 413.72 129.665 414.97 129.205 415.85C128.105 417.92 126.985 419.74 124.565 420.35C123.815 421.4 122.375 421.18 121.485 422.21C120.645 423.19 119.275 423.75 118.075 424.37C117.035 424.91 115.545 424.99 114.915 425.79C113.895 427.09 112.325 425.96 111.545 426.9C110.655 427.98 109.505 427.84 108.585 427.59C107.055 427.17 106.725 429.2 105.195 428.82C103.825 428.48 102.315 428.75 100.865 428.75H93.2451C92.6851 429.39 92.2051 430.21 91.2951 429.03C91.0651 428.73 90.3151 428.76 89.8051 428.76C85.8151 428.74 81.8251 428.81 77.8451 428.71C76.5151 428.68 75.4551 429 74.4851 429.84C72.4451 429.47 70.1651 430.7 68.3451 428.91C66.9151 428.86 65.4951 428.8 64.0651 428.75C63.0151 430 61.5751 429.93 60.1651 429.83C58.8051 429.74 57.3151 430.31 56.1751 428.86C55.8951 428.5 54.8051 428.76 54.0851 428.76C48.8251 428.76 43.5751 428.76 38.3151 428.76C37.0451 428.76 35.7751 428.8 34.5051 428.75C33.2751 428.7 31.7251 429 30.8951 428.38C29.6851 427.46 28.5151 427.89 27.3551 427.65C26.8851 427.55 26.4851 427.09 26.0151 426.97C23.7251 426.38 22.0451 424.24 19.4651 424.4C19.3051 424.4 19.1251 424.35 18.9851 424.27C18.8351 424.18 18.6851 424.04 18.6051 423.89C17.7051 422.2 15.6051 422.22 14.3851 420.86C13.2451 419.59 12.2851 417.93 10.2651 417.73C10.1251 417.72 9.88514 417.48 9.89514 417.36C10.0251 414.83 6.94511 414.49 6.48511 412.22C6.20511 410.8 5.11513 409.54 4.38513 408.21C5.01513 406.49 2.80512 405.49 3.24512 403.76C3.33512 403.4 2.91513 402.78 2.56513 402.46C1.89513 401.83 2.34514 401.09 2.20514 400.42L2.2251 400.4Z" fill="#212122"/>
</svg>
