<svg width="364" height="366" viewBox="0 0 364 366" fill="none" xmlns="http://www.w3.org/2000/svg">
<path d="M229.015 46.9005C229.145 47.2105 229.255 47.7805 229.405 47.7905C230.815 47.8605 232.005 48.4605 233.285 48.9905C234.375 49.4405 235.795 49.1705 237.065 49.0605C238.105 48.9705 238.655 49.8705 239.375 50.0405C240.325 50.2605 240.875 50.9105 241.635 51.2005C242.425 51.5005 243.425 51.2605 244.335 51.2705C245.235 51.2705 246.295 51.0105 247.005 51.3805C247.755 51.7805 248.495 52.1605 249.255 52.5405C250.035 52.9305 250.665 53.7405 251.605 53.4205C253.875 52.6405 255.545 54.8605 257.705 54.5305C258.895 56.0905 260.625 55.4705 262.255 55.6705C263.255 56.1805 263.655 57.6606 265.065 57.8006C266.465 57.9406 266.755 59.5605 267.975 59.9905C269.085 60.3805 270.315 60.6705 271.195 61.3705C271.985 62.0005 272.705 62.2605 273.615 62.1505C274.765 62.0205 275.165 63.7305 276.435 63.2505C278.045 64.2505 278.645 66.4105 281.065 66.6305C282.635 66.7705 284.105 67.9806 285.625 68.6906C285.925 68.8306 286.345 68.8205 286.565 69.0305C287.115 69.5505 286.405 70.9905 287.895 70.8805C289.015 70.8005 289.405 72.5005 290.685 72.0305C291.325 72.6705 291.885 73.4605 292.645 73.9105C293.195 74.2405 294.015 74.1305 294.495 74.1805C296.365 76.0505 298.145 77.8305 299.935 79.6105C301.225 79.9805 302.685 79.0605 303.575 80.4805C304.485 81.9405 306.435 82.6505 306.665 84.6705C306.685 84.8205 307.265 85.0505 307.565 85.0205C309.265 84.8105 310.375 85.6105 310.745 87.1405C310.945 87.9506 311.555 88.2705 311.875 88.8705C312.365 89.8105 314.085 88.8706 314.165 90.5806C314.195 91.2906 315.205 91.9205 315.675 92.6505C316.875 94.5405 319.225 94.8605 320.655 96.4805C322.215 98.2405 324.385 99.6006 325.525 101.581C326.725 103.641 328.365 105.151 329.855 106.861C330.165 107.221 330.425 107.791 330.395 108.251C330.305 109.551 330.625 110.351 332.115 110.181C332.505 110.931 333.035 111.641 333.235 112.431C333.595 113.871 335.925 112.651 335.885 114.521C335.855 115.611 337.415 116.031 337.105 117.311C337.055 117.491 337.545 117.851 337.835 118.061C340.055 119.671 340.695 122.321 342.075 124.481C342.825 125.641 341.825 127.411 343.485 128.291C343.805 128.461 343.715 129.311 344.015 129.661C344.845 130.621 345.795 131.481 346.685 132.381C346.225 133.791 348.355 134.291 347.865 135.711C348.595 136.501 349.575 137.181 349.975 138.111C350.355 139.011 349.735 140.291 350.935 140.981C351.245 144.481 353.605 147.141 354.875 150.251C355.205 151.071 355.295 151.331 354.705 151.851C354.625 151.921 354.825 152.341 354.925 152.591C355.105 153.061 355.565 153.591 355.465 153.971C355.035 155.551 356.975 156.271 356.685 157.911C356.485 159.011 356.005 160.451 357.245 161.451C358.325 162.321 356.995 164.021 358.395 164.791C358.545 164.871 358.765 165.041 358.765 165.171C358.795 166.621 358.785 168.081 358.785 169.531C360.115 170.341 360.115 171.701 359.825 172.881C359.305 174.981 361.475 176.321 361.045 178.451C360.695 180.171 361.045 182.031 361.095 183.831C362.065 184.481 361.695 184.921 361.185 185.811C360.605 186.831 360.675 188.261 362.025 189.111C361.675 189.501 361.325 189.881 361.095 190.131C361.425 190.771 361.995 191.371 362.015 191.981C362.095 195.781 362.055 199.591 362.055 203.181C362.455 203.751 363.055 204.261 362.955 204.531C361.755 208.001 361.765 207.981 362.975 211.941C363.065 212.221 362.435 212.721 362.045 213.231C362.045 214.711 361.995 216.341 362.075 217.961C362.095 218.421 362.525 218.851 362.765 219.301C363.235 220.191 363.245 220.201 362.725 221.161C362.555 221.461 362.115 221.681 362.075 221.971C361.975 222.681 362.135 223.431 362.025 224.141C361.635 226.711 363.035 229.521 360.975 231.891C360.795 232.101 360.955 232.601 360.955 232.961C360.955 234.231 361.205 235.571 360.885 236.761C360.575 237.881 359.765 238.801 359.775 240.141C359.775 240.921 358.285 241.671 359.785 242.581C359.925 242.671 359.785 243.761 359.485 243.961C358.475 244.621 359.005 245.991 358.005 246.681C357.345 247.131 357.555 247.921 358.155 248.511C358.355 248.711 358.635 249.211 358.595 249.241C356.855 250.691 358.195 252.681 357.225 255.061C357.035 255.201 356.175 255.841 355.605 256.261C355.325 258.231 356.115 259.991 354.445 261.191C354.275 261.311 354.355 261.901 354.435 262.251C355.065 265.271 352.845 267.411 352.075 270.001C350.355 271.011 350.065 272.751 349.765 274.491C348.415 275.321 349.635 275.811 350.095 276.511C349.425 276.751 348.795 276.971 347.995 277.251C347.925 278.411 347.865 279.631 347.785 280.941C347.175 281.161 346.435 281.261 345.935 281.651C345.275 282.171 344.405 282.701 344.615 283.801C344.955 285.591 344.165 286.871 342.855 288.001C342.535 288.271 342.715 289.111 342.405 289.411C341.255 290.511 341.285 292.391 339.765 293.261C339.155 293.611 338.275 294.271 338.285 294.771C338.345 296.691 336.005 297.061 335.925 298.721C335.895 299.401 335.465 299.661 335.115 300.031C333.585 301.591 332.035 303.121 330.495 304.661C330.405 306.991 328.205 307.731 326.985 309.181C326.375 309.901 326.275 310.741 325.835 311.441C325.365 312.191 324.535 312.701 323.955 313.401C322.585 315.061 320.345 315.531 318.965 317.221C317.705 318.761 316.175 320.071 314.755 321.491C313.215 323.031 311.575 324.491 310.165 326.151C309.405 327.051 308.215 326.851 307.485 327.651C306.625 328.591 305.695 329.461 304.795 330.361C304.025 331.131 303.255 331.901 302.485 332.671C302.225 332.931 301.985 333.391 301.715 333.411C300.095 333.521 299.425 334.951 298.275 335.701C297.775 336.031 296.865 335.761 295.975 335.761C295.295 336.481 294.555 337.281 293.825 338.071C292.745 339.231 291.605 340.271 290.045 340.791C289.255 341.051 288.485 341.461 287.805 341.951C287.235 342.371 286.815 342.991 286.385 343.471H282.975C281.435 345.181 278.755 345.041 277.325 346.941C276.875 347.541 276.325 347.941 275.505 347.811C274.765 347.691 274.215 347.991 273.575 348.441C272.635 349.111 271.435 349.961 270.425 349.871C268.965 349.741 268.275 350.971 267.055 351.111C266.065 351.221 265.485 352.481 264.225 352.191C262.945 351.891 262.325 353.801 260.855 353.281C260.035 352.991 259.645 353.841 259.095 354.261C258.555 354.681 258.315 355.571 257.405 355.431C256.515 355.291 256.065 356.611 255.745 356.401C254.995 355.891 254.615 355.271 253.705 356.281C253.365 356.661 252.355 356.581 251.665 356.511C250.195 356.361 248.975 356.791 247.735 357.591C246.435 358.431 244.965 358.911 243.305 358.761C241.935 358.641 240.375 358.271 239.395 359.811C237.945 359.811 236.485 359.811 235.035 359.811C233.885 361.531 232.095 360.961 230.585 360.831C229.175 360.711 228.705 362.471 227.195 362.051C226.235 361.781 225.125 361.801 224.265 362.861C223.795 363.441 222.985 363.111 222.435 362.521C222.215 362.281 221.875 362.141 221.565 362.011C221.415 361.941 221.085 361.931 221.045 362.011C220.005 363.761 217.485 362.371 216.475 364.191C215.905 363.551 215.465 362.761 214.495 363.891C214.155 364.281 213.165 364.171 212.475 364.171C208.115 364.191 203.755 364.201 199.395 364.171C198.445 364.171 197.725 364.361 197.015 365.061C196.465 365.601 195.745 365.281 195.185 364.701C194.065 363.531 193.315 364.431 192.555 365.251C192.165 364.901 191.785 364.551 191.415 364.231C191.015 364.581 190.615 365.221 190.205 365.241C187.485 365.331 184.755 365.301 182.035 365.271C181.735 365.271 181.375 365.041 181.145 364.811C180.395 364.041 179.635 363.871 178.895 364.741C178.335 365.411 177.585 365.131 176.945 365.321C175.925 365.621 175.535 363.921 174.825 364.531C174.035 365.221 173.285 365.311 172.385 365.291C171.505 365.261 170.585 365.491 169.935 364.571C169.775 364.341 169.335 364.221 169.015 364.211C167.385 364.171 165.755 364.191 164.145 364.191C163.355 364.921 162.725 366.051 161.465 364.821C161.125 364.491 160.565 364.241 160.105 364.221C158.475 364.151 156.815 364.341 155.205 364.151C153.695 363.981 152.465 362.811 150.735 363.051C148.955 363.291 147.105 363.101 145.295 363.101C143.655 363.101 142.005 362.951 140.395 363.151C139.125 363.311 138.565 362.191 137.565 362.031C136.525 361.861 135.355 362.061 134.455 361.651C133.785 361.341 133.575 360.961 132.835 361.621C132.005 362.361 130.905 362.251 129.915 361.601C128.155 360.451 126.305 359.541 124.105 359.831C122.695 358.301 120.825 358.631 119.115 358.791C117.725 358.921 116.845 358.091 115.745 357.651C114.485 357.151 113.425 356.141 111.825 356.511C110.605 356.801 109.305 356.711 108.475 355.461H105.265C104.575 354.771 103.995 353.671 103.285 353.581C101.705 353.391 100.415 352.411 98.9249 352.241C97.9549 352.131 97.2049 351.931 96.6249 351.171C95.9249 350.241 95.0049 350.071 93.8449 349.921C92.0249 349.681 90.6549 348.101 88.7949 347.671C88.3349 347.561 87.9249 346.741 87.5649 346.781C85.3949 347.071 83.7249 346.411 82.3949 344.651C82.1849 344.381 81.3649 344.601 80.8349 344.531C80.5049 344.491 80.1149 344.421 79.8949 344.211C79.3349 343.691 80.0549 342.221 78.5649 342.371C77.6449 342.461 77.4449 341.571 76.8649 341.211C75.7049 340.501 74.5449 339.801 73.3849 339.091C71.6449 339.611 70.6449 338.461 69.7749 337.331C68.9649 336.281 67.7449 336.051 66.7549 335.391C65.8649 334.801 65.1949 333.871 64.4149 333.121C64.1749 332.891 63.8649 332.701 63.5649 332.551C62.3549 331.951 61.0349 331.531 59.9649 330.761C58.8049 329.921 57.7149 328.861 56.8849 327.691C55.6949 326.011 53.4849 325.931 52.2349 324.281C51.0449 322.701 49.4849 321.391 48.0349 320.021C47.1649 319.201 45.4149 319.351 45.0949 318.071C44.6649 316.361 43.1749 315.581 42.3949 314.261C41.6249 312.971 39.6249 313.531 39.3149 311.821C39.0249 310.251 37.4049 309.751 36.6149 308.581C34.3949 308.851 35.0649 307.211 34.9249 305.801C33.9549 304.831 32.9149 303.561 31.6449 302.581C30.1749 301.451 29.8349 299.601 28.5849 298.371C28.7749 296.481 26.4449 296.051 26.2549 294.431C26.0649 292.741 23.6549 292.401 23.9549 290.471C22.6949 289.461 22.8449 287.451 21.2549 286.681C19.9249 284.331 19.1249 281.711 17.5049 279.511C18.1649 277.921 16.7349 276.921 16.3849 275.611C15.9849 274.131 13.6749 273.641 14.2349 271.601C13.5349 270.441 13.1549 269.131 12.4149 267.991C12.1549 267.591 12.1449 267.011 12.0649 266.511C12.0049 266.161 12.1449 265.721 11.9849 265.461C11.3549 264.431 9.88491 264.051 9.85491 262.511C9.83491 261.491 10.2949 260.361 9.32491 259.471C8.20491 258.441 9.01491 257.071 8.72491 255.491C8.13491 255.031 7.27491 254.361 6.61491 253.851V249.141C5.97491 248.511 5.32491 247.871 4.69491 247.241C4.60491 246.901 4.48491 246.571 4.44491 246.241C4.28491 245.051 4.93491 243.661 3.56491 242.771C3.53491 242.751 3.74491 242.231 3.94491 242.041C4.53491 241.461 4.71491 240.801 4.16491 240.191C3.65491 239.631 3.27491 239.151 3.33491 238.331C3.43491 237.081 3.49491 235.891 2.31491 234.901C1.95491 234.601 1.97491 233.111 2.31491 232.861C3.67491 231.891 2.52491 231.291 2.33491 230.401C1.95491 228.561 2.80491 226.471 1.16491 224.871C1.16491 223.051 1.15491 221.241 1.16491 219.421C1.16491 218.341 1.21491 217.361 0.234914 216.501C-0.295086 216.031 0.164913 215.251 0.694913 214.661C1.00491 214.321 1.26491 213.381 1.12491 213.281C-0.325087 212.211 0.0949099 210.711 0.0749099 209.321C0.0449099 206.601 0.0749099 203.871 0.0749099 201.201C0.44491 200.791 0.784909 200.411 0.964909 200.201C0.624909 199.461 -0.0550925 198.511 0.134907 198.291C1.55491 196.581 1.03491 194.591 1.17491 192.691C1.25491 191.701 0.964908 190.951 0.174908 190.371C2.23491 189.131 0.174909 186.561 1.85491 185.141C2.16491 184.881 2.34491 183.871 2.18491 183.751C1.16491 182.981 1.11491 181.991 1.13491 180.871C1.15491 179.951 1.25491 179.201 1.96491 178.451C2.34491 178.041 2.20491 177.111 2.24491 176.421C2.31491 175.171 1.92491 173.641 2.51491 172.741C3.18491 171.731 2.91491 170.531 3.42491 169.851C4.38491 168.571 4.44491 167.291 4.42491 165.871C4.41491 164.781 4.28491 163.671 4.46491 162.611C4.60491 161.811 5.30491 161.121 5.46491 160.321C5.64491 159.451 5.50491 158.511 5.50491 157.631C6.23491 156.831 6.96491 156.031 7.68491 155.241C7.01491 153.351 9.18491 152.111 8.81491 150.231C8.64491 149.391 8.70491 148.401 9.00491 147.601C9.22491 147.001 9.68491 146.481 9.95491 145.811C10.3249 144.871 11.2749 144.161 12.0449 143.291V140.891C12.7149 140.371 13.5549 139.701 14.2949 139.121V135.691C15.4249 134.481 17.0249 133.601 16.4249 131.581C17.5149 130.661 17.2749 128.861 18.6049 128.131C19.8449 127.451 19.4049 125.801 20.5249 125.101C22.2849 121.181 24.1916 118.154 26.2449 116.021C25.9749 114.161 27.0549 112.721 27.8849 111.251C28.3149 110.491 29.0649 109.851 29.7949 109.321C30.9149 108.521 30.5449 107.411 30.6249 106.101C32.1749 104.601 34.3249 103.231 35.4449 101.271C36.8149 98.8605 38.7549 97.1405 40.5949 95.2605C41.6749 94.1605 42.5349 92.7705 44.3449 92.4706C45.1649 92.3306 44.7249 90.9605 45.4749 90.2505C49.1549 86.7505 52.6949 83.1105 56.2649 79.5405H58.4449C58.6149 79.3705 58.8349 79.2606 58.8549 79.1105C58.9849 78.2505 58.8849 77.2705 60.2449 77.3905C61.3949 77.4905 62.2349 77.4805 62.3349 75.7905C62.3949 74.8005 63.8749 75.3905 65.1349 75.0305C65.8349 74.3305 66.6949 73.0505 67.8949 72.3805C69.1249 71.6905 70.4149 71.1405 71.2349 69.9805C72.1049 68.7405 73.6149 68.6005 74.7249 67.7705C75.4449 67.2405 76.8049 67.5805 78.4349 67.5105C78.6049 67.2905 78.9849 66.6605 79.4849 66.1505C79.8349 65.8105 80.3249 65.5305 80.7949 65.4105C82.4449 65.0005 84.8549 64.0705 85.7849 63.0205C86.4449 62.2805 87.4449 62.3805 88.0149 61.8505C88.7649 61.1505 89.6149 61.2606 90.4049 60.9706C92.2949 60.2906 94.1849 59.4705 95.8449 58.3605C96.7149 57.7806 97.9949 58.0005 98.5249 56.8905C98.9249 57.1105 99.3249 57.3305 99.8749 57.6205C100.905 56.6405 102.035 55.5705 103.165 54.4905C104.085 54.4905 105.035 54.3205 105.885 54.5305C107.625 54.9505 108.625 52.8005 110.345 53.4005C111.945 53.9605 112.705 51.9605 114.175 52.1305C114.745 51.2805 115.585 51.2506 116.525 51.1906C117.715 51.1106 119.005 51.7606 120.105 50.6105C121.115 49.5505 122.675 50.6306 123.665 50.0506C124.605 49.5006 125.375 48.8305 126.535 49.0405C127.205 49.1905 127.945 48.7305 128.565 49.4105C129.155 50.0705 129.785 50.7805 130.545 51.1805C131.875 51.8905 133.755 51.9006 134.515 53.3006C135.505 55.1406 137.645 53.7805 138.695 55.1805C139.355 56.0505 140.735 55.1105 141.175 55.6305C142.165 56.8105 143.365 56.6205 144.575 56.7305C145.565 58.3105 147.315 57.2605 148.465 57.8505C149.735 58.5005 150.975 58.8605 152.325 59.1005C152.515 59.1405 152.805 60.2306 152.615 60.4706C152.075 61.1206 151.345 61.9305 150.595 62.0405C148.895 62.2905 148.585 64.7105 146.635 64.3805C146.535 64.3605 146.285 64.6105 146.265 64.7505C145.905 67.7006 143.105 68.1906 141.315 69.6906C139.315 69.1806 140.015 71.3805 139.065 71.9305C138.335 71.9305 137.615 71.9305 135.925 71.9305C135.015 73.1005 133.695 74.8105 132.555 76.2905H128.805C128.405 76.7905 127.735 77.6306 127.065 78.4706C125.685 78.1206 125.175 79.3205 124.455 80.0405C123.865 80.6305 123.235 80.6205 122.515 80.6805C122.035 80.7205 121.435 80.8706 121.115 81.1906C119.155 83.1606 116.875 84.1806 114.065 83.9406C113.575 83.9006 112.835 83.9705 112.605 84.2705C111.765 85.4205 110.285 84.5205 109.695 85.0905C108.865 85.9005 107.755 85.8505 106.895 86.6205C106.895 87.0805 106.955 87.6205 106.885 88.1405C106.655 89.7805 107.295 91.1605 108.825 91.4605C110.305 91.7505 110.745 92.9805 111.835 93.7206C115.185 93.7206 118.635 93.7705 122.065 93.6805C122.675 93.6605 123.265 93.0905 124.145 92.6305H137.215C137.725 91.9805 138.395 91.1305 138.935 90.4505H145.215C146.845 88.9905 148.845 89.4005 150.755 89.3505C150.915 89.3505 151.135 89.2805 151.215 89.1705C152.275 87.6505 153.855 88.4505 155.435 88.2305C156.185 87.4805 157.115 86.6305 157.945 85.7005C158.785 84.7405 160.295 85.0005 161.025 83.9005C162.715 84.3805 163.845 83.4406 164.665 82.2206C165.525 80.9506 166.935 80.6505 168.105 79.9505C169.135 79.3405 170.295 79.0505 171.145 78.0305C172.295 76.6405 173.885 75.5805 174.905 74.1105C176.105 72.3906 178.265 72.1805 179.505 70.6805C180.535 69.4405 182.395 69.4905 183.345 68.0205C183.905 67.1605 184.845 67.3405 185.525 68.2505C186.235 69.2105 186.595 70.7005 187.505 71.1705C189.785 72.3405 191.265 74.3506 193.235 75.8006C194.225 76.5306 195.405 77.4905 196.925 77.3805C197.395 77.3505 197.985 77.5306 198.345 77.8306C199.175 78.5206 199.985 79.2905 200.655 80.1305C201.565 81.2605 203.205 79.9205 204.015 81.2605C204.485 82.0305 205.325 81.6906 205.995 81.6906C206.975 81.6906 207.155 82.2205 207.195 83.0305C207.215 83.3205 207.535 83.6005 207.715 83.8905C207.975 83.6306 208.255 83.4006 208.475 83.1105C208.755 82.7606 208.875 82.9805 209.275 83.2206C210.715 84.0806 212.245 84.7905 213.745 85.5705C214.045 85.7305 214.325 86.0306 214.625 86.0506C216.035 86.1806 217.455 86.2406 218.875 86.3306C220.155 87.9305 221.935 86.7805 223.425 87.1805C224.065 87.3505 224.635 87.7905 225.265 88.1205C225.525 87.8805 225.905 87.5405 226.125 87.3405C226.845 87.6805 227.445 88.1705 228.075 88.2105C229.885 88.3205 231.705 88.2905 233.515 88.2305C234.455 88.2005 235.225 88.3506 235.905 89.1105C236.125 89.3506 237.075 89.3506 237.295 89.1105C237.985 88.3605 238.745 88.1905 239.685 88.2405C240.955 88.3005 242.225 88.2505 243.495 88.2505C245.825 86.1506 248.645 87.5805 251.215 87.1705C251.565 87.1105 251.935 87.1705 252.665 87.1705C252.955 86.8105 253.445 86.2806 253.865 85.6906C254.345 85.0306 255.115 85.1605 255.705 84.8705C256.625 84.4305 256.435 81.9605 255.485 81.7805C254.715 81.6305 254.255 81.2305 253.665 80.8605C252.675 80.2305 251.095 81.1505 250.335 79.6805C250.285 79.5805 250.025 79.5505 249.865 79.5405C249.325 79.5205 248.765 79.4705 248.235 79.5405C247.225 79.6905 246.655 78.9005 245.895 78.6005C245.065 78.2805 244.265 78.0605 243.685 77.3505C242.305 77.6905 241.885 76.4105 241.045 75.8205C240.635 75.5305 240.125 75.1705 239.695 75.2005C237.895 75.3205 236.605 73.4505 234.685 74.0305C234.315 74.1405 233.625 73.8205 233.325 73.4805C232.135 72.1405 230.505 71.5606 228.975 70.8006C228.675 70.6506 228.285 70.6205 228.055 70.4005C227.255 69.6605 226.585 68.7605 225.715 68.1305C224.765 67.4405 223.675 66.5705 222.615 66.5205C220.875 66.4405 221.685 64.3605 220.875 64.4105C219.565 64.5005 219.145 63.3205 218.095 63.0905C216.975 62.8505 215.965 62.1305 214.905 61.6205C215.305 59.7305 213.325 60.2106 212.645 59.3605V57.2105C214.095 56.8505 215.105 55.3705 216.805 55.5105C217.125 55.5405 217.545 55.4605 217.775 55.2605C218.585 54.5305 219.435 53.8105 220.075 52.9505C220.765 52.0005 222.055 52.4305 222.775 51.4605C223.505 50.4905 224.505 49.3105 225.555 49.1005C227.155 48.7805 227.395 46.8305 228.985 46.8105L229.015 46.9005ZM172.765 227.831C175.305 228.121 177.735 227.121 179.735 228.931C179.885 229.061 180.525 228.931 180.685 228.721C181.315 227.881 182.145 227.821 183.075 227.861C184.345 227.911 185.885 228.311 186.815 227.751C187.835 227.141 189.125 227.031 189.975 226.081C190.255 225.771 190.945 225.691 191.425 225.721C192.225 225.771 192.705 225.161 193.295 224.971C194.725 224.511 195.695 223.591 196.675 222.581C198.695 223.101 198.035 220.001 199.975 220.171C200.785 220.241 200.395 218.921 200.815 218.501C201.825 217.481 202.535 216.121 202.695 214.941C202.865 213.641 203.725 212.741 203.875 211.591C204.065 210.161 203.925 208.691 203.925 207.241V206.401C203.275 205.811 202.485 205.071 201.665 204.361C200.785 203.591 199.195 203.861 198.305 204.531C197.345 205.251 197.655 206.541 196.785 207.201C196.075 207.741 196.175 208.531 196.325 209.171C196.755 211.051 194.405 212.251 195.185 214.181C195.215 214.261 194.975 214.561 194.865 214.561C193.285 214.501 193.345 216.271 192.555 216.701C191.645 217.201 190.595 217.501 190.015 218.381C188.995 219.911 186.695 218.341 185.805 220.211C185.705 220.421 184.765 220.291 184.235 220.211C183.915 220.171 183.595 219.981 183.335 219.781C182.955 219.491 182.665 218.941 182.165 219.641C181.515 220.551 180.195 220.541 179.745 220.161C178.175 218.821 176.415 219.201 174.685 219.141C173.825 219.111 172.995 219.291 172.185 218.551C171.325 217.761 169.465 217.801 169.305 216.571C169.095 214.921 167.855 214.941 166.955 214.341C167.325 213.091 165.585 212.591 165.815 211.581C166.155 210.121 164.585 209.371 164.725 208.211C164.915 206.671 164.015 205.901 163.055 205.011H159.505C159.085 205.491 158.495 206.171 157.895 206.841C156.835 208.041 156.625 209.181 157.035 211.581C157.145 212.251 156.745 213.011 157.455 213.591C158.985 214.841 159.555 216.661 160.355 218.371C160.775 219.271 161.395 220.101 161.695 221.091C163.745 220.851 164.145 223.641 166.145 223.511C168.115 225.171 170.995 225.421 172.745 227.841L172.765 227.831ZM229.655 184.261C228.475 185.141 227.995 186.551 226.855 186.381C224.965 186.101 223.785 188.301 221.885 187.581C221.515 188.951 219.645 188.121 219.135 189.611C218.495 191.481 217.735 192.891 218.165 194.051C218.745 195.631 219.395 197.271 220.855 198.441C223.505 198.441 226.225 198.501 228.925 198.401C229.535 198.381 230.125 197.811 230.905 197.401C231.225 197.421 231.135 198.771 232.205 198.021C233.915 196.831 235.795 195.961 237.985 196.261C238.945 196.391 239.565 195.771 240.355 195.401C241.855 194.691 243.355 193.761 245.245 194.011C245.945 194.101 246.715 193.201 247.505 193.031C248.375 192.851 249.305 193.001 250.215 192.971C250.355 192.971 250.515 192.781 250.615 192.641C251.385 191.521 252.545 192.001 253.245 191.921C255.085 190.091 256.745 188.441 258.435 186.761C257.815 184.441 256.565 182.431 254.475 180.991H250.125C248.675 180.991 247.175 181.241 245.795 180.931C244.155 180.561 243.225 181.911 241.885 182.061C240.815 182.181 239.685 181.941 238.635 182.131C237.665 182.301 237.055 183.321 235.815 183.261C234.895 183.221 233.975 184.061 233.005 184.231C231.955 184.411 230.835 184.271 229.655 184.271V184.261ZM107.355 182.081C106.775 182.981 105.865 183.301 105.755 184.391C105.675 185.181 104.705 185.971 104.815 186.651C104.965 187.581 105.765 188.381 106.115 189.361C106.265 189.781 107.275 189.901 107.895 190.161C107.625 192.531 110.145 191.831 110.995 192.981C113.395 192.211 115.255 194.641 117.625 194.091C117.915 194.021 118.455 194.131 118.575 194.341C119.535 195.931 121.945 194.321 122.705 196.251C124.245 196.391 125.995 195.671 127.155 197.341C128.245 197.341 129.365 197.511 130.415 197.301C131.695 197.051 132.065 198.521 133.245 198.461C135.225 198.351 137.205 198.431 139.065 198.431C140.345 197.151 141.585 196.071 142.615 194.811C143.125 194.191 142.915 193.091 143.805 192.601C143.495 192.051 143.085 191.531 142.895 190.931C142.365 189.311 141.185 187.951 139.755 187.671C138.505 187.431 137.555 186.721 136.415 186.481C135.545 186.301 134.605 186.441 133.365 186.441C132.925 185.941 132.395 185.181 131.715 184.611C131.385 184.331 130.535 184.161 130.305 184.371C129.595 185.021 129.245 185.381 128.275 184.511C127.455 183.771 126.165 183.511 125.045 183.191C124.065 182.911 122.955 183.521 122.025 182.551C121.025 181.501 119.605 182.371 118.435 182.041C117.975 181.911 117.625 181.361 117.225 181.001C115.745 182.271 115.675 182.361 114.635 181.591C114.015 181.131 113.355 180.651 112.785 181.151C112.065 181.791 111.405 182.161 110.425 182.091C109.365 182.011 108.305 182.071 107.335 182.071L107.355 182.081ZM189.185 186.451C187.815 186.241 186.255 187.041 185.145 185.641C182.485 185.071 179.805 185.411 177.135 185.451C176.465 186.581 175.275 186.211 174.305 186.521C173.185 186.881 172.265 187.821 170.915 187.571C170.705 187.531 170.165 188.001 170.185 188.161C170.355 189.271 169.605 189.861 168.905 190.361C167.825 191.131 167.925 192.181 167.965 193.251C167.985 193.771 168.035 194.291 168.065 194.761C169.295 195.601 169.985 196.831 171.415 197.451C172.805 198.061 173.835 199.511 175.015 200.591C176.485 200.361 177.335 202.141 178.915 201.741C179.775 201.521 180.655 201.631 181.335 202.481C181.555 202.761 182.325 202.801 182.755 202.661C183.225 202.511 183.535 201.931 184.005 201.731C184.745 201.411 186.105 200.471 187.265 199.301C189.185 197.371 191.115 195.451 193.035 193.541C193.035 192.971 193.165 192.391 193.005 191.891C192.755 191.101 192.235 190.391 191.965 189.601C191.465 188.141 190.045 187.541 189.185 186.441V186.451Z" fill="#F8312F"/>
<path d="M229.015 46.9006C227.425 46.9206 227.185 48.8806 225.585 49.1906C224.535 49.4006 223.535 50.5806 222.805 51.5506C222.075 52.5106 220.795 52.0906 220.105 53.0406C219.465 53.9106 218.615 54.6306 217.805 55.3506C217.585 55.5506 217.155 55.6306 216.835 55.6006C215.145 55.4606 214.135 56.9406 212.675 57.3006V59.4506C213.355 60.3006 215.335 59.8206 214.935 61.7106C215.995 62.2206 217.005 62.9506 218.125 63.1806C219.175 63.4006 219.595 64.5906 220.905 64.5006C221.725 64.4406 220.905 66.5306 222.645 66.6106C223.705 66.6606 224.805 67.5306 225.745 68.2206C226.615 68.8506 227.285 69.7506 228.085 70.4906C228.315 70.7006 228.705 70.7406 229.005 70.8906C230.535 71.6406 232.165 72.2206 233.355 73.5706C233.655 73.9106 234.345 74.2306 234.715 74.1206C236.635 73.5406 237.935 75.4106 239.725 75.2906C240.165 75.2606 240.675 75.6306 241.075 75.9106C241.915 76.5006 242.335 77.7806 243.715 77.4406C244.295 78.1606 245.095 78.3706 245.925 78.6906C246.685 78.9906 247.255 79.7806 248.265 79.6306C248.795 79.5506 249.355 79.6106 249.895 79.6306C250.055 79.6306 250.315 79.6606 250.365 79.7706C251.115 81.2406 252.705 80.3106 253.695 80.9506C254.285 81.3306 254.745 81.7206 255.515 81.8706C256.465 82.0606 256.645 84.5206 255.735 84.9606C255.145 85.2406 254.365 85.1206 253.895 85.7806C253.475 86.3606 252.985 86.9006 252.695 87.2606C251.975 87.2606 251.595 87.2106 251.245 87.2606C248.675 87.6806 245.855 86.2406 243.525 88.3406C242.255 88.3406 240.985 88.3806 239.715 88.3306C238.775 88.2906 238.005 88.4506 237.325 89.2006C237.105 89.4406 236.155 89.4506 235.935 89.2006C235.245 88.4506 234.485 88.3006 233.545 88.3206C231.735 88.3706 229.905 88.4106 228.105 88.3006C227.475 88.2606 226.885 87.7706 226.155 87.4306C225.935 87.6306 225.555 87.9706 225.295 88.2106C224.665 87.8806 224.095 87.4406 223.455 87.2706C221.965 86.8606 220.185 88.0206 218.905 86.4206C217.485 86.3306 216.065 86.2706 214.655 86.1406C214.345 86.1106 214.075 85.8106 213.775 85.6606C212.285 84.8906 210.755 84.1706 209.305 83.3106C208.905 83.0706 208.795 82.8506 208.505 83.2006C208.275 83.4806 207.995 83.7206 207.745 83.9806C207.565 83.7006 207.235 83.4206 207.225 83.1206C207.175 82.3106 206.995 81.7806 206.025 81.7806C205.345 81.7806 204.515 82.1206 204.045 81.3506C203.235 80.0106 201.585 81.3506 200.685 80.2206C200.005 79.3806 199.205 78.6106 198.375 77.9206C198.015 77.6206 197.415 77.4406 196.955 77.4706C195.435 77.5806 194.255 76.6206 193.265 75.8906C191.305 74.4506 189.825 72.4306 187.535 71.2606C186.615 70.7906 186.255 69.3006 185.555 68.3406C184.875 67.4206 183.935 67.2406 183.375 68.1106C182.425 69.5806 180.565 69.5306 179.535 70.7706C178.285 72.2706 176.125 72.4806 174.935 74.2006C173.915 75.6706 172.325 76.7206 171.175 78.1206C170.335 79.1406 169.165 79.4306 168.135 80.0406C166.955 80.7406 165.555 81.0306 164.695 82.3106C163.865 83.5306 162.745 84.4606 161.055 83.9906C160.325 85.0806 158.815 84.8306 157.975 85.7906C157.145 86.7306 156.215 87.5706 155.465 88.3206C153.875 88.5406 152.305 87.7406 151.245 89.2606C151.165 89.3706 150.945 89.4406 150.785 89.4406C148.875 89.4906 146.875 89.0806 145.245 90.5406H138.965C138.425 91.2206 137.755 92.0706 137.245 92.7206H124.175C123.305 93.1806 122.705 93.7506 122.095 93.7706C118.655 93.8606 115.215 93.8106 111.865 93.8106C110.775 93.0706 110.345 91.8406 108.855 91.5506C107.325 91.2506 106.685 89.8706 106.915 88.2306C106.985 87.7106 106.925 87.1706 106.925 86.7106C107.785 85.9406 108.895 86.0006 109.725 85.1806C110.315 84.6006 111.795 85.5006 112.635 84.3606C112.855 84.0506 113.605 83.9806 114.095 84.0306C116.915 84.2706 119.195 83.2506 121.145 81.2806C121.465 80.9606 122.065 80.8006 122.545 80.7706C123.265 80.7206 123.895 80.7206 124.485 80.1306C125.205 79.4106 125.705 78.2206 127.095 78.5606C127.765 77.7206 128.445 76.8806 128.835 76.3806H132.585C133.725 74.9006 135.055 73.1906 135.955 72.0206C137.635 72.0206 138.365 72.0206 139.095 72.0206C140.045 71.4706 139.345 69.2706 141.345 69.7806C143.135 68.2806 145.945 67.7906 146.295 64.8406C146.315 64.7006 146.555 64.4506 146.665 64.4706C148.625 64.8106 148.925 62.3806 150.625 62.1306C151.375 62.0206 152.105 61.2106 152.645 60.5606C152.845 60.3206 152.555 59.2206 152.355 59.1906C151.005 58.9406 149.765 58.5806 148.495 57.9406C147.355 57.3606 145.595 58.4106 144.605 56.8206C143.395 56.7206 142.195 56.9106 141.205 55.7206C140.765 55.1906 139.385 56.1406 138.725 55.2706C137.665 53.8706 135.535 55.2306 134.545 53.3906C133.785 51.9906 131.905 51.9806 130.575 51.2706C129.815 50.8606 129.185 50.1506 128.595 49.5006C127.975 48.8206 127.235 49.2806 126.565 49.1306C126.685 48.4406 126.265 48.1006 125.705 48.0606C124.885 48.0106 124.355 47.8306 124.365 46.8606C124.365 46.5606 124.155 46.0606 123.935 45.9906C123.285 45.7906 122.605 45.8206 122.065 45.2006C121.235 44.2406 120.165 43.4806 119.425 42.4606C118.715 41.4906 116.965 41.7906 116.875 40.9306C116.705 39.4206 115.675 38.7606 114.815 37.9506C113.125 36.3706 111.875 34.5806 111.275 32.3206C111.155 31.8606 110.285 31.5306 110.275 31.1306C110.245 29.8606 110.155 28.7806 109.205 27.7006C108.755 27.1906 109.125 25.9506 109.125 25.0506V23.5706C109.945 21.8406 111.975 22.0306 112.975 20.7706C113.815 20.9506 114.675 20.5206 115.555 21.1406C116.645 21.9006 117.965 22.3206 119.145 22.9706C120.205 23.5606 121.165 24.3306 122.515 24.0806C122.745 24.0406 123.115 24.4006 123.345 24.6506C125.525 26.9706 128.765 27.4406 131.285 29.2006C132.045 29.7306 133.345 29.4806 134.615 29.6206C135.395 30.2106 136.325 31.4906 137.325 31.5506C138.675 31.6306 139.535 32.6206 140.685 32.7206C141.795 32.8206 142.625 33.0706 143.555 33.7806C144.255 34.3206 145.705 33.4306 146.445 34.6406C146.525 34.7806 146.715 34.9306 146.855 34.9406C147.935 34.9906 149.135 34.7206 150.055 35.1206C150.825 35.4506 151.495 35.8806 152.375 36.1206C154.215 36.6206 155.945 37.3106 157.935 37.2106C158.855 37.1606 159.785 37.9506 160.755 38.2006C161.595 38.4206 162.505 38.3206 163.355 38.5206C163.825 38.6306 164.195 39.2306 164.655 39.2806C166.025 39.4406 167.585 38.8706 168.555 40.4106H172.365C172.365 41.1406 172.295 41.8706 172.375 42.5906C172.565 44.2906 171.635 46.2406 173.455 47.5906C173.245 48.7906 173.955 50.1106 173.005 51.2106C172.685 51.5806 172.215 51.8706 172.875 52.3806C174.815 53.8906 175.095 56.8306 177.745 57.9206C179.485 57.4306 181.545 58.6006 183.345 57.2506C184.415 56.4506 186.085 56.4606 186.375 54.8306C187.375 52.8906 185.435 50.4906 187.475 48.6706C187.515 48.6406 186.945 47.9206 186.555 47.3806C186.555 46.3006 186.555 45.0406 186.555 43.7806C186.555 42.9272 186.919 41.8072 187.645 40.4206H190.915C191.455 40.4206 192.365 40.6206 192.495 40.3906C193.725 38.2006 196.475 40.4106 197.775 38.5206C197.915 38.3106 198.445 38.1906 198.725 38.2706C200.785 38.8906 202.275 36.7306 204.275 37.1606C205.265 36.3906 206.455 36.2806 207.595 35.9306C208.715 35.5906 209.695 34.7606 210.995 34.9806C211.815 33.7306 213.625 34.0406 214.455 32.8006C215.825 33.1106 216.385 31.2506 217.765 31.5806C218.845 30.3506 220.585 30.3406 221.765 29.4606C222.885 28.6306 224.495 28.6706 225.275 27.3506C226.355 27.4906 227.005 27.1906 226.935 25.9306C226.925 25.6906 227.375 25.1806 227.545 25.2106C228.925 25.4406 229.485 23.6206 230.855 23.9506C232.015 22.7906 233.165 21.6406 234.325 20.4806C235.225 19.5806 236.125 18.6806 237.025 17.7806C238.395 16.9906 240.315 18.3706 241.475 16.6406C241.605 16.4406 242.215 16.3406 242.445 16.4706C243.635 17.1206 244.795 17.8306 245.925 18.5906C246.595 19.0406 246.795 19.7706 246.325 20.4206C245.915 20.9906 245.385 21.4006 245.415 22.2406C245.455 23.4506 245.655 24.6406 244.495 25.7006C243.845 26.2906 244.655 27.6606 243.715 28.6406C242.945 29.4406 242.665 30.7206 242.165 31.7806C242.025 32.0806 241.935 32.4506 241.715 32.6806C240.455 33.9906 239.155 35.2606 237.875 36.5406C238.255 38.6306 235.185 38.9406 235.565 41.0306C233.885 42.2806 233.005 44.4506 230.645 44.9706C230.045 45.1006 229.045 45.8606 229.085 46.9706L229.015 46.9006Z" fill="#00D26A"/>
<path d="M187.585 40.3613C186.865 41.7546 186.502 42.8746 186.495 43.7213C186.495 44.9813 186.495 46.2413 186.495 47.3213C186.885 47.8713 187.455 48.5813 187.415 48.6113C185.375 50.4313 187.315 52.8313 186.315 54.7713C186.025 56.4013 184.355 56.3913 183.285 57.1913C181.485 58.5413 179.435 57.3613 177.685 57.8613C175.035 56.7713 174.755 53.8313 172.815 52.3213C172.155 51.8113 172.625 51.5313 172.945 51.1513C173.895 50.0513 173.185 48.7313 173.395 47.5313C171.575 46.1813 172.505 44.2313 172.315 42.5313C172.235 41.8113 172.305 41.0813 172.305 40.3513C172.305 37.8213 172.335 35.2913 172.295 32.7613C172.275 31.6513 173.745 31.2613 173.445 29.9513C173.215 28.9213 173.395 27.7913 173.395 26.7113V23.8113C173.855 22.9413 174.295 22.3713 174.455 21.7413C174.795 20.3913 173.775 18.7013 174.955 17.6413C176.165 16.5513 174.785 14.7213 176.395 13.8113C176.745 13.6113 176.555 12.4913 176.665 11.8113C176.755 11.2413 177.055 10.8213 177.735 10.9413C178.415 11.0513 178.715 10.6613 178.825 10.1013C178.895 9.75129 178.785 9.37129 178.845 9.02129C179.085 7.78129 179.235 7.68129 181.645 5.39129C181.875 5.17129 181.975 4.81128 182.105 4.50128C182.825 2.84128 183.855 1.64129 185.725 1.05129C186.655 0.761287 187.365 -0.108713 188.555 0.0112865C189.805 0.141287 191.085 0.0412853 192.345 0.0412853C193.425 0.611285 193.825 2.16129 195.235 2.20129C196.865 2.25129 195.935 3.95129 196.875 4.54129C197.925 5.20129 198.745 6.21128 199.405 6.82128C199.725 8.04128 199.135 9.00129 199.955 9.74129C200.185 9.95129 200.515 10.4513 200.495 10.4713C199.025 11.7913 199.245 14.1413 197.795 15.2913C196.445 16.3613 196.415 18.1213 195.165 19.1213C193.915 20.1213 194.035 22.0613 192.495 22.9113C191.525 23.4513 192.105 24.5413 191.865 25.3513C191.675 25.9813 190.805 26.5613 190.885 27.0713C191.075 28.4613 189.985 29.3113 189.785 30.4313C189.595 31.4913 189.385 32.3413 188.785 33.3113C188.235 34.2113 188.865 35.7813 187.545 36.5713V40.3713L187.585 40.3613Z" fill="#008463"/>
<path d="M172.765 227.84C171.015 225.43 168.135 225.17 166.165 223.51C164.175 223.64 163.775 220.84 161.715 221.09C161.415 220.11 160.795 219.28 160.375 218.37C159.575 216.65 159.005 214.84 157.475 213.59C156.765 213.01 157.165 212.25 157.055 211.58C156.645 209.19 156.855 208.04 157.915 206.84C158.515 206.16 159.105 205.48 159.525 205.01H163.075C164.035 205.9 164.925 206.67 164.745 208.21C164.605 209.37 166.165 210.12 165.835 211.58C165.605 212.59 167.345 213.09 166.975 214.34C167.865 214.94 169.115 214.92 169.325 216.57C169.485 217.8 171.335 217.76 172.205 218.55C173.015 219.29 173.845 219.11 174.705 219.14C176.435 219.21 178.195 218.82 179.765 220.16C180.215 220.54 181.535 220.56 182.185 219.64C182.685 218.94 182.975 219.49 183.355 219.78C183.615 219.98 183.945 220.17 184.255 220.21C184.795 220.28 185.725 220.41 185.825 220.21C186.715 218.34 189.015 219.92 190.035 218.38C190.615 217.5 191.665 217.2 192.575 216.7C193.375 216.26 193.305 214.5 194.885 214.56C194.995 214.56 195.235 214.26 195.205 214.18C194.425 212.25 196.775 211.05 196.345 209.17C196.195 208.53 196.095 207.74 196.805 207.2C197.675 206.54 197.355 205.25 198.325 204.53C199.215 203.86 200.815 203.6 201.685 204.36C202.505 205.07 203.295 205.81 203.945 206.4V207.24C203.945 208.69 204.085 210.17 203.895 211.59C203.745 212.74 202.885 213.64 202.715 214.94C202.555 216.12 201.845 217.48 200.835 218.5C200.425 218.92 200.805 220.24 199.995 220.17C198.055 220 198.715 223.1 196.695 222.58C195.725 223.59 194.745 224.5 193.315 224.97C192.715 225.16 192.245 225.77 191.445 225.72C190.955 225.69 190.275 225.77 189.995 226.08C189.135 227.03 187.855 227.15 186.835 227.75C185.895 228.31 184.365 227.9 183.095 227.86C182.165 227.83 181.335 227.89 180.705 228.72C180.545 228.93 179.905 229.06 179.755 228.93C177.755 227.12 175.325 228.12 172.785 227.83L172.765 227.84Z" fill="#251D0B"/>
<path d="M229.655 184.271C230.835 184.271 231.945 184.411 233.005 184.231C233.975 184.061 234.905 183.221 235.815 183.261C237.055 183.321 237.665 182.311 238.635 182.131C239.685 181.941 240.815 182.181 241.885 182.061C243.225 181.911 244.155 180.561 245.795 180.931C247.175 181.241 248.675 180.991 250.125 180.991H254.475C256.565 182.431 257.815 184.431 258.435 186.761C256.745 188.441 255.085 190.091 253.245 191.921C252.555 192.001 251.385 191.521 250.615 192.641C250.515 192.781 250.355 192.961 250.215 192.971C249.315 193.001 248.375 192.841 247.505 193.031C246.705 193.201 245.935 194.101 245.245 194.011C243.355 193.771 241.855 194.691 240.355 195.401C239.575 195.771 238.955 196.391 237.985 196.261C235.795 195.961 233.915 196.831 232.205 198.021C231.135 198.771 231.225 197.411 230.905 197.401C230.125 197.811 229.535 198.371 228.925 198.401C226.215 198.501 223.505 198.441 220.855 198.441C219.395 197.271 218.755 195.641 218.165 194.051C217.735 192.891 218.505 191.481 219.135 189.611C219.645 188.121 221.515 188.951 221.885 187.581C223.795 188.301 224.965 186.101 226.855 186.381C227.995 186.551 228.475 185.141 229.655 184.261V184.271Z" fill="#251D0B"/>
<path d="M107.345 182.091C108.305 182.091 109.375 182.031 110.435 182.111C111.415 182.181 112.075 181.811 112.795 181.171C113.365 180.671 114.015 181.151 114.645 181.611C115.685 182.381 115.755 182.291 117.235 181.021C117.635 181.381 117.985 181.931 118.445 182.061C119.615 182.391 121.035 181.521 122.035 182.571C122.965 183.551 124.075 182.941 125.055 183.211C126.185 183.531 127.475 183.791 128.285 184.531C129.245 185.401 129.605 185.041 130.315 184.391C130.535 184.181 131.385 184.361 131.725 184.631C132.405 185.201 132.935 185.951 133.375 186.461C134.615 186.461 135.555 186.311 136.425 186.501C137.565 186.741 138.515 187.451 139.765 187.691C141.195 187.971 142.375 189.331 142.905 190.951C143.095 191.541 143.505 192.061 143.815 192.621C142.925 193.111 143.135 194.221 142.625 194.831C141.595 196.091 140.355 197.171 139.075 198.451C137.215 198.451 135.235 198.371 133.255 198.481C132.085 198.541 131.715 197.061 130.425 197.321C129.375 197.531 128.255 197.361 127.165 197.361C126.005 195.691 124.255 196.411 122.715 196.271C121.955 194.341 119.545 195.951 118.585 194.361C118.455 194.151 117.925 194.041 117.635 194.111C115.255 194.661 113.395 192.231 111.005 193.001C110.165 191.851 107.645 192.551 107.905 190.181C107.285 189.921 106.275 189.811 106.125 189.381C105.775 188.401 104.965 187.601 104.825 186.671C104.715 185.991 105.685 185.191 105.765 184.411C105.875 183.321 106.785 183.001 107.365 182.101L107.345 182.091Z" fill="#251D0B"/>
<path d="M189.185 186.451C190.045 187.551 191.455 188.161 191.965 189.611C192.235 190.401 192.755 191.101 193.005 191.901C193.165 192.391 193.035 192.981 193.035 193.551C191.115 195.461 189.185 197.381 187.265 199.311C186.105 200.481 184.745 201.421 184.005 201.741C183.545 201.941 183.225 202.521 182.755 202.671C182.325 202.801 181.555 202.771 181.335 202.491C180.645 201.641 179.765 201.541 178.915 201.751C177.335 202.151 176.485 200.371 175.015 200.601C173.825 199.521 172.805 198.071 171.415 197.461C169.985 196.841 169.295 195.621 168.065 194.771C168.035 194.301 167.975 193.781 167.965 193.261C167.935 192.191 167.835 191.141 168.905 190.371C169.605 189.871 170.355 189.281 170.185 188.171C170.155 188.001 170.705 187.541 170.915 187.581C172.265 187.831 173.185 186.891 174.305 186.531C175.275 186.221 176.465 186.591 177.135 185.461C179.805 185.421 182.485 185.071 185.145 185.651C186.255 187.051 187.815 186.251 189.185 186.461V186.451Z" fill="#C90A49"/>
</svg>
